%TF.GenerationSoftware,KiCad,Pcbnew,8.0.3+1*%
%TF.CreationDate,2024-08-06T22:55:28-04:00*%
%TF.ProjectId,iyada_flip,69796164-615f-4666-9c69-702e6b696361,rev?*%
%TF.SameCoordinates,Original*%
%TF.FileFunction,Legend,Top*%
%TF.FilePolarity,Positive*%
%FSLAX46Y46*%
G04 Gerber Fmt 4.6, Leading zero omitted, Abs format (unit mm)*
G04 Created by KiCad (PCBNEW 8.0.3+1) date 2024-08-06 22:55:28*
%MOMM*%
%LPD*%
G01*
G04 APERTURE LIST*
%ADD10C,0.100000*%
%ADD11C,0.125000*%
%ADD12C,0.120000*%
%ADD13C,0.150000*%
%ADD14C,0.200000*%
%ADD15C,1.600000*%
%ADD16R,1.600000X1.600000*%
G04 APERTURE END LIST*
D10*
X230273537Y-71944738D02*
X230040204Y-71611405D01*
X229873537Y-71944738D02*
X229873537Y-71244738D01*
X229873537Y-71244738D02*
X230140204Y-71244738D01*
X230140204Y-71244738D02*
X230206871Y-71278071D01*
X230206871Y-71278071D02*
X230240204Y-71311405D01*
X230240204Y-71311405D02*
X230273537Y-71378071D01*
X230273537Y-71378071D02*
X230273537Y-71478071D01*
X230273537Y-71478071D02*
X230240204Y-71544738D01*
X230240204Y-71544738D02*
X230206871Y-71578071D01*
X230206871Y-71578071D02*
X230140204Y-71611405D01*
X230140204Y-71611405D02*
X229873537Y-71611405D01*
X230873537Y-71478071D02*
X230873537Y-71944738D01*
X230706871Y-71211405D02*
X230540204Y-71711405D01*
X230540204Y-71711405D02*
X230973537Y-71711405D01*
X230276868Y-53369736D02*
X229943534Y-53369736D01*
X229943534Y-53369736D02*
X229910201Y-53703069D01*
X229910201Y-53703069D02*
X229943534Y-53669736D01*
X229943534Y-53669736D02*
X230010201Y-53636403D01*
X230010201Y-53636403D02*
X230176868Y-53636403D01*
X230176868Y-53636403D02*
X230243534Y-53669736D01*
X230243534Y-53669736D02*
X230276868Y-53703069D01*
X230276868Y-53703069D02*
X230310201Y-53769736D01*
X230310201Y-53769736D02*
X230310201Y-53936403D01*
X230310201Y-53936403D02*
X230276868Y-54003069D01*
X230276868Y-54003069D02*
X230243534Y-54036403D01*
X230243534Y-54036403D02*
X230176868Y-54069736D01*
X230176868Y-54069736D02*
X230010201Y-54069736D01*
X230010201Y-54069736D02*
X229943534Y-54036403D01*
X229943534Y-54036403D02*
X229910201Y-54003069D01*
X230510201Y-53369736D02*
X230743535Y-54069736D01*
X230743535Y-54069736D02*
X230976868Y-53369736D01*
X230233531Y-59184738D02*
X230000198Y-58851405D01*
X229833531Y-59184738D02*
X229833531Y-58484738D01*
X229833531Y-58484738D02*
X230100198Y-58484738D01*
X230100198Y-58484738D02*
X230166865Y-58518071D01*
X230166865Y-58518071D02*
X230200198Y-58551405D01*
X230200198Y-58551405D02*
X230233531Y-58618071D01*
X230233531Y-58618071D02*
X230233531Y-58718071D01*
X230233531Y-58718071D02*
X230200198Y-58784738D01*
X230200198Y-58784738D02*
X230166865Y-58818071D01*
X230166865Y-58818071D02*
X230100198Y-58851405D01*
X230100198Y-58851405D02*
X229833531Y-58851405D01*
X230500198Y-59151405D02*
X230600198Y-59184738D01*
X230600198Y-59184738D02*
X230766865Y-59184738D01*
X230766865Y-59184738D02*
X230833531Y-59151405D01*
X230833531Y-59151405D02*
X230866865Y-59118071D01*
X230866865Y-59118071D02*
X230900198Y-59051405D01*
X230900198Y-59051405D02*
X230900198Y-58984738D01*
X230900198Y-58984738D02*
X230866865Y-58918071D01*
X230866865Y-58918071D02*
X230833531Y-58884738D01*
X230833531Y-58884738D02*
X230766865Y-58851405D01*
X230766865Y-58851405D02*
X230633531Y-58818071D01*
X230633531Y-58818071D02*
X230566865Y-58784738D01*
X230566865Y-58784738D02*
X230533531Y-58751405D01*
X230533531Y-58751405D02*
X230500198Y-58684738D01*
X230500198Y-58684738D02*
X230500198Y-58618071D01*
X230500198Y-58618071D02*
X230533531Y-58551405D01*
X230533531Y-58551405D02*
X230566865Y-58518071D01*
X230566865Y-58518071D02*
X230633531Y-58484738D01*
X230633531Y-58484738D02*
X230800198Y-58484738D01*
X230800198Y-58484738D02*
X230900198Y-58518071D01*
X231100198Y-58484738D02*
X231500198Y-58484738D01*
X231300198Y-59184738D02*
X231300198Y-58484738D01*
X230163535Y-66914738D02*
X229930202Y-66581405D01*
X229763535Y-66914738D02*
X229763535Y-66214738D01*
X229763535Y-66214738D02*
X230030202Y-66214738D01*
X230030202Y-66214738D02*
X230096869Y-66248071D01*
X230096869Y-66248071D02*
X230130202Y-66281405D01*
X230130202Y-66281405D02*
X230163535Y-66348071D01*
X230163535Y-66348071D02*
X230163535Y-66448071D01*
X230163535Y-66448071D02*
X230130202Y-66514738D01*
X230130202Y-66514738D02*
X230096869Y-66548071D01*
X230096869Y-66548071D02*
X230030202Y-66581405D01*
X230030202Y-66581405D02*
X229763535Y-66581405D01*
X230430202Y-66281405D02*
X230463535Y-66248071D01*
X230463535Y-66248071D02*
X230530202Y-66214738D01*
X230530202Y-66214738D02*
X230696869Y-66214738D01*
X230696869Y-66214738D02*
X230763535Y-66248071D01*
X230763535Y-66248071D02*
X230796869Y-66281405D01*
X230796869Y-66281405D02*
X230830202Y-66348071D01*
X230830202Y-66348071D02*
X230830202Y-66414738D01*
X230830202Y-66414738D02*
X230796869Y-66514738D01*
X230796869Y-66514738D02*
X230396869Y-66914738D01*
X230396869Y-66914738D02*
X230830202Y-66914738D01*
D11*
X141577439Y-120083367D02*
X141244106Y-120083367D01*
X141244106Y-120607177D02*
X141244106Y-119607177D01*
X141244106Y-119607177D02*
X141720296Y-119607177D01*
X142101249Y-120607177D02*
X142101249Y-119607177D01*
X142101249Y-119607177D02*
X142482201Y-119607177D01*
X142482201Y-119607177D02*
X142577439Y-119654796D01*
X142577439Y-119654796D02*
X142625058Y-119702415D01*
X142625058Y-119702415D02*
X142672677Y-119797653D01*
X142672677Y-119797653D02*
X142672677Y-119940510D01*
X142672677Y-119940510D02*
X142625058Y-120035748D01*
X142625058Y-120035748D02*
X142577439Y-120083367D01*
X142577439Y-120083367D02*
X142482201Y-120130986D01*
X142482201Y-120130986D02*
X142101249Y-120130986D01*
X143672677Y-120511938D02*
X143625058Y-120559558D01*
X143625058Y-120559558D02*
X143482201Y-120607177D01*
X143482201Y-120607177D02*
X143386963Y-120607177D01*
X143386963Y-120607177D02*
X143244106Y-120559558D01*
X143244106Y-120559558D02*
X143148868Y-120464319D01*
X143148868Y-120464319D02*
X143101249Y-120369081D01*
X143101249Y-120369081D02*
X143053630Y-120178605D01*
X143053630Y-120178605D02*
X143053630Y-120035748D01*
X143053630Y-120035748D02*
X143101249Y-119845272D01*
X143101249Y-119845272D02*
X143148868Y-119750034D01*
X143148868Y-119750034D02*
X143244106Y-119654796D01*
X143244106Y-119654796D02*
X143386963Y-119607177D01*
X143386963Y-119607177D02*
X143482201Y-119607177D01*
X143482201Y-119607177D02*
X143625058Y-119654796D01*
X143625058Y-119654796D02*
X143672677Y-119702415D01*
X144101249Y-120226224D02*
X144863154Y-120226224D01*
X145863153Y-120607177D02*
X145291725Y-120607177D01*
X145577439Y-120607177D02*
X145577439Y-119607177D01*
X145577439Y-119607177D02*
X145482201Y-119750034D01*
X145482201Y-119750034D02*
X145386963Y-119845272D01*
X145386963Y-119845272D02*
X145291725Y-119892891D01*
X146244106Y-119702415D02*
X146291725Y-119654796D01*
X146291725Y-119654796D02*
X146386963Y-119607177D01*
X146386963Y-119607177D02*
X146625058Y-119607177D01*
X146625058Y-119607177D02*
X146720296Y-119654796D01*
X146720296Y-119654796D02*
X146767915Y-119702415D01*
X146767915Y-119702415D02*
X146815534Y-119797653D01*
X146815534Y-119797653D02*
X146815534Y-119892891D01*
X146815534Y-119892891D02*
X146767915Y-120035748D01*
X146767915Y-120035748D02*
X146196487Y-120607177D01*
X146196487Y-120607177D02*
X146815534Y-120607177D01*
X141482201Y-122598073D02*
X141434582Y-122550454D01*
X141434582Y-122550454D02*
X141339344Y-122407597D01*
X141339344Y-122407597D02*
X141291725Y-122312359D01*
X141291725Y-122312359D02*
X141244106Y-122169502D01*
X141244106Y-122169502D02*
X141196487Y-121931406D01*
X141196487Y-121931406D02*
X141196487Y-121740930D01*
X141196487Y-121740930D02*
X141244106Y-121502835D01*
X141244106Y-121502835D02*
X141291725Y-121359978D01*
X141291725Y-121359978D02*
X141339344Y-121264740D01*
X141339344Y-121264740D02*
X141434582Y-121121882D01*
X141434582Y-121121882D02*
X141482201Y-121074263D01*
X142434582Y-122121882D02*
X142386963Y-122169502D01*
X142386963Y-122169502D02*
X142244106Y-122217121D01*
X142244106Y-122217121D02*
X142148868Y-122217121D01*
X142148868Y-122217121D02*
X142006011Y-122169502D01*
X142006011Y-122169502D02*
X141910773Y-122074263D01*
X141910773Y-122074263D02*
X141863154Y-121979025D01*
X141863154Y-121979025D02*
X141815535Y-121788549D01*
X141815535Y-121788549D02*
X141815535Y-121645692D01*
X141815535Y-121645692D02*
X141863154Y-121455216D01*
X141863154Y-121455216D02*
X141910773Y-121359978D01*
X141910773Y-121359978D02*
X142006011Y-121264740D01*
X142006011Y-121264740D02*
X142148868Y-121217121D01*
X142148868Y-121217121D02*
X142244106Y-121217121D01*
X142244106Y-121217121D02*
X142386963Y-121264740D01*
X142386963Y-121264740D02*
X142434582Y-121312359D01*
X142863154Y-122217121D02*
X142863154Y-121550454D01*
X142863154Y-121217121D02*
X142815535Y-121264740D01*
X142815535Y-121264740D02*
X142863154Y-121312359D01*
X142863154Y-121312359D02*
X142910773Y-121264740D01*
X142910773Y-121264740D02*
X142863154Y-121217121D01*
X142863154Y-121217121D02*
X142863154Y-121312359D01*
X143339344Y-122217121D02*
X143339344Y-121550454D01*
X143339344Y-121740930D02*
X143386963Y-121645692D01*
X143386963Y-121645692D02*
X143434582Y-121598073D01*
X143434582Y-121598073D02*
X143529820Y-121550454D01*
X143529820Y-121550454D02*
X143625058Y-121550454D01*
X144386963Y-121550454D02*
X144386963Y-122550454D01*
X144386963Y-122169502D02*
X144291725Y-122217121D01*
X144291725Y-122217121D02*
X144101249Y-122217121D01*
X144101249Y-122217121D02*
X144006011Y-122169502D01*
X144006011Y-122169502D02*
X143958392Y-122121882D01*
X143958392Y-122121882D02*
X143910773Y-122026644D01*
X143910773Y-122026644D02*
X143910773Y-121740930D01*
X143910773Y-121740930D02*
X143958392Y-121645692D01*
X143958392Y-121645692D02*
X144006011Y-121598073D01*
X144006011Y-121598073D02*
X144101249Y-121550454D01*
X144101249Y-121550454D02*
X144291725Y-121550454D01*
X144291725Y-121550454D02*
X144386963Y-121598073D01*
X145291725Y-121550454D02*
X145291725Y-122217121D01*
X144863154Y-121550454D02*
X144863154Y-122074263D01*
X144863154Y-122074263D02*
X144910773Y-122169502D01*
X144910773Y-122169502D02*
X145006011Y-122217121D01*
X145006011Y-122217121D02*
X145148868Y-122217121D01*
X145148868Y-122217121D02*
X145244106Y-122169502D01*
X145244106Y-122169502D02*
X145291725Y-122121882D01*
X146148868Y-122169502D02*
X146053630Y-122217121D01*
X146053630Y-122217121D02*
X145863154Y-122217121D01*
X145863154Y-122217121D02*
X145767916Y-122169502D01*
X145767916Y-122169502D02*
X145720297Y-122074263D01*
X145720297Y-122074263D02*
X145720297Y-121693311D01*
X145720297Y-121693311D02*
X145767916Y-121598073D01*
X145767916Y-121598073D02*
X145863154Y-121550454D01*
X145863154Y-121550454D02*
X146053630Y-121550454D01*
X146053630Y-121550454D02*
X146148868Y-121598073D01*
X146148868Y-121598073D02*
X146196487Y-121693311D01*
X146196487Y-121693311D02*
X146196487Y-121788549D01*
X146196487Y-121788549D02*
X145720297Y-121883787D01*
X146529821Y-122598073D02*
X146577440Y-122550454D01*
X146577440Y-122550454D02*
X146672678Y-122407597D01*
X146672678Y-122407597D02*
X146720297Y-122312359D01*
X146720297Y-122312359D02*
X146767916Y-122169502D01*
X146767916Y-122169502D02*
X146815535Y-121931406D01*
X146815535Y-121931406D02*
X146815535Y-121740930D01*
X146815535Y-121740930D02*
X146767916Y-121502835D01*
X146767916Y-121502835D02*
X146720297Y-121359978D01*
X146720297Y-121359978D02*
X146672678Y-121264740D01*
X146672678Y-121264740D02*
X146577440Y-121121882D01*
X146577440Y-121121882D02*
X146529821Y-121074263D01*
D10*
X229890135Y-82111798D02*
X229990135Y-82145131D01*
X229990135Y-82145131D02*
X230156802Y-82145131D01*
X230156802Y-82145131D02*
X230223468Y-82111798D01*
X230223468Y-82111798D02*
X230256802Y-82078464D01*
X230256802Y-82078464D02*
X230290135Y-82011798D01*
X230290135Y-82011798D02*
X230290135Y-81945131D01*
X230290135Y-81945131D02*
X230256802Y-81878464D01*
X230256802Y-81878464D02*
X230223468Y-81845131D01*
X230223468Y-81845131D02*
X230156802Y-81811798D01*
X230156802Y-81811798D02*
X230023468Y-81778464D01*
X230023468Y-81778464D02*
X229956802Y-81745131D01*
X229956802Y-81745131D02*
X229923468Y-81711798D01*
X229923468Y-81711798D02*
X229890135Y-81645131D01*
X229890135Y-81645131D02*
X229890135Y-81578464D01*
X229890135Y-81578464D02*
X229923468Y-81511798D01*
X229923468Y-81511798D02*
X229956802Y-81478464D01*
X229956802Y-81478464D02*
X230023468Y-81445131D01*
X230023468Y-81445131D02*
X230190135Y-81445131D01*
X230190135Y-81445131D02*
X230290135Y-81478464D01*
X230556802Y-81511798D02*
X230590135Y-81478464D01*
X230590135Y-81478464D02*
X230656802Y-81445131D01*
X230656802Y-81445131D02*
X230823469Y-81445131D01*
X230823469Y-81445131D02*
X230890135Y-81478464D01*
X230890135Y-81478464D02*
X230923469Y-81511798D01*
X230923469Y-81511798D02*
X230956802Y-81578464D01*
X230956802Y-81578464D02*
X230956802Y-81645131D01*
X230956802Y-81645131D02*
X230923469Y-81745131D01*
X230923469Y-81745131D02*
X230523469Y-82145131D01*
X230523469Y-82145131D02*
X230956802Y-82145131D01*
X209885199Y-51471403D02*
X209985199Y-51504736D01*
X209985199Y-51504736D02*
X210151866Y-51504736D01*
X210151866Y-51504736D02*
X210218532Y-51471403D01*
X210218532Y-51471403D02*
X210251866Y-51438069D01*
X210251866Y-51438069D02*
X210285199Y-51371403D01*
X210285199Y-51371403D02*
X210285199Y-51304736D01*
X210285199Y-51304736D02*
X210251866Y-51238069D01*
X210251866Y-51238069D02*
X210218532Y-51204736D01*
X210218532Y-51204736D02*
X210151866Y-51171403D01*
X210151866Y-51171403D02*
X210018532Y-51138069D01*
X210018532Y-51138069D02*
X209951866Y-51104736D01*
X209951866Y-51104736D02*
X209918532Y-51071403D01*
X209918532Y-51071403D02*
X209885199Y-51004736D01*
X209885199Y-51004736D02*
X209885199Y-50938069D01*
X209885199Y-50938069D02*
X209918532Y-50871403D01*
X209918532Y-50871403D02*
X209951866Y-50838069D01*
X209951866Y-50838069D02*
X210018532Y-50804736D01*
X210018532Y-50804736D02*
X210185199Y-50804736D01*
X210185199Y-50804736D02*
X210285199Y-50838069D01*
X210685199Y-51504736D02*
X210618533Y-51471403D01*
X210618533Y-51471403D02*
X210585199Y-51438069D01*
X210585199Y-51438069D02*
X210551866Y-51371403D01*
X210551866Y-51371403D02*
X210551866Y-51171403D01*
X210551866Y-51171403D02*
X210585199Y-51104736D01*
X210585199Y-51104736D02*
X210618533Y-51071403D01*
X210618533Y-51071403D02*
X210685199Y-51038069D01*
X210685199Y-51038069D02*
X210785199Y-51038069D01*
X210785199Y-51038069D02*
X210851866Y-51071403D01*
X210851866Y-51071403D02*
X210885199Y-51104736D01*
X210885199Y-51104736D02*
X210918533Y-51171403D01*
X210918533Y-51171403D02*
X210918533Y-51371403D01*
X210918533Y-51371403D02*
X210885199Y-51438069D01*
X210885199Y-51438069D02*
X210851866Y-51471403D01*
X210851866Y-51471403D02*
X210785199Y-51504736D01*
X210785199Y-51504736D02*
X210685199Y-51504736D01*
X211318532Y-51504736D02*
X211251866Y-51471403D01*
X211251866Y-51471403D02*
X211218532Y-51404736D01*
X211218532Y-51404736D02*
X211218532Y-50804736D01*
X211585199Y-51438069D02*
X211618533Y-51471403D01*
X211618533Y-51471403D02*
X211585199Y-51504736D01*
X211585199Y-51504736D02*
X211551866Y-51471403D01*
X211551866Y-51471403D02*
X211585199Y-51438069D01*
X211585199Y-51438069D02*
X211585199Y-51504736D01*
X210483464Y-53555143D02*
X210883464Y-53555143D01*
X210683464Y-54255143D02*
X210683464Y-53555143D01*
X211050131Y-53555143D02*
X211516797Y-54255143D01*
X211516797Y-53555143D02*
X211050131Y-54255143D01*
D11*
X192650664Y-60565311D02*
X192793521Y-60612930D01*
X192793521Y-60612930D02*
X192841140Y-60660549D01*
X192841140Y-60660549D02*
X192888759Y-60755787D01*
X192888759Y-60755787D02*
X192888759Y-60898644D01*
X192888759Y-60898644D02*
X192841140Y-60993882D01*
X192841140Y-60993882D02*
X192793521Y-61041502D01*
X192793521Y-61041502D02*
X192698283Y-61089121D01*
X192698283Y-61089121D02*
X192317331Y-61089121D01*
X192317331Y-61089121D02*
X192317331Y-60089121D01*
X192317331Y-60089121D02*
X192650664Y-60089121D01*
X192650664Y-60089121D02*
X192745902Y-60136740D01*
X192745902Y-60136740D02*
X192793521Y-60184359D01*
X192793521Y-60184359D02*
X192841140Y-60279597D01*
X192841140Y-60279597D02*
X192841140Y-60374835D01*
X192841140Y-60374835D02*
X192793521Y-60470073D01*
X192793521Y-60470073D02*
X192745902Y-60517692D01*
X192745902Y-60517692D02*
X192650664Y-60565311D01*
X192650664Y-60565311D02*
X192317331Y-60565311D01*
X193507807Y-60089121D02*
X193698283Y-60089121D01*
X193698283Y-60089121D02*
X193793521Y-60136740D01*
X193793521Y-60136740D02*
X193888759Y-60231978D01*
X193888759Y-60231978D02*
X193936378Y-60422454D01*
X193936378Y-60422454D02*
X193936378Y-60755787D01*
X193936378Y-60755787D02*
X193888759Y-60946263D01*
X193888759Y-60946263D02*
X193793521Y-61041502D01*
X193793521Y-61041502D02*
X193698283Y-61089121D01*
X193698283Y-61089121D02*
X193507807Y-61089121D01*
X193507807Y-61089121D02*
X193412569Y-61041502D01*
X193412569Y-61041502D02*
X193317331Y-60946263D01*
X193317331Y-60946263D02*
X193269712Y-60755787D01*
X193269712Y-60755787D02*
X193269712Y-60422454D01*
X193269712Y-60422454D02*
X193317331Y-60231978D01*
X193317331Y-60231978D02*
X193412569Y-60136740D01*
X193412569Y-60136740D02*
X193507807Y-60089121D01*
X194555426Y-60089121D02*
X194745902Y-60089121D01*
X194745902Y-60089121D02*
X194841140Y-60136740D01*
X194841140Y-60136740D02*
X194936378Y-60231978D01*
X194936378Y-60231978D02*
X194983997Y-60422454D01*
X194983997Y-60422454D02*
X194983997Y-60755787D01*
X194983997Y-60755787D02*
X194936378Y-60946263D01*
X194936378Y-60946263D02*
X194841140Y-61041502D01*
X194841140Y-61041502D02*
X194745902Y-61089121D01*
X194745902Y-61089121D02*
X194555426Y-61089121D01*
X194555426Y-61089121D02*
X194460188Y-61041502D01*
X194460188Y-61041502D02*
X194364950Y-60946263D01*
X194364950Y-60946263D02*
X194317331Y-60755787D01*
X194317331Y-60755787D02*
X194317331Y-60422454D01*
X194317331Y-60422454D02*
X194364950Y-60231978D01*
X194364950Y-60231978D02*
X194460188Y-60136740D01*
X194460188Y-60136740D02*
X194555426Y-60089121D01*
X195269712Y-60089121D02*
X195841140Y-60089121D01*
X195555426Y-61089121D02*
X195555426Y-60089121D01*
X198804282Y-116812967D02*
X198873586Y-116486918D01*
X199415651Y-116456089D02*
X199316646Y-116921873D01*
X199316646Y-116921873D02*
X198338498Y-116713962D01*
X198338498Y-116713962D02*
X198437503Y-116248177D01*
X198496907Y-115968706D02*
X199544358Y-115850569D01*
X199544358Y-115850569D02*
X198635515Y-115316608D01*
X199914731Y-114566173D02*
X199848351Y-114649429D01*
X199848351Y-114649429D02*
X199735393Y-114722785D01*
X199735393Y-114722785D02*
X199565956Y-114832819D01*
X199565956Y-114832819D02*
X199499577Y-114916075D01*
X199499577Y-114916075D02*
X199479776Y-115009232D01*
X199722568Y-115012156D02*
X199656189Y-115095413D01*
X199656189Y-115095413D02*
X199543231Y-115168769D01*
X199543231Y-115168769D02*
X199347016Y-115175745D01*
X199347016Y-115175745D02*
X199020967Y-115106441D01*
X199020967Y-115106441D02*
X198844554Y-115020260D01*
X198844554Y-115020260D02*
X198771198Y-114907302D01*
X198771198Y-114907302D02*
X198744421Y-114804245D01*
X198744421Y-114804245D02*
X198784023Y-114617931D01*
X198784023Y-114617931D02*
X198850403Y-114534675D01*
X198850403Y-114534675D02*
X198963361Y-114461319D01*
X198963361Y-114461319D02*
X199159575Y-114454343D01*
X199159575Y-114454343D02*
X199485624Y-114523646D01*
X199485624Y-114523646D02*
X199662037Y-114609827D01*
X199662037Y-114609827D02*
X199735393Y-114722785D01*
X199735393Y-114722785D02*
X199762171Y-114825843D01*
X199762171Y-114825843D02*
X199722568Y-115012156D01*
X198902830Y-114058989D02*
X199930480Y-114034009D01*
X199930480Y-114034009D02*
X199271405Y-113699187D01*
X199271405Y-113699187D02*
X200009685Y-113661381D01*
X200009685Y-113661381D02*
X199081040Y-113220577D01*
X199315729Y-112345487D02*
X199249349Y-112428744D01*
X199249349Y-112428744D02*
X199219647Y-112568479D01*
X199219647Y-112568479D02*
X199236524Y-112718115D01*
X199236524Y-112718115D02*
X199309880Y-112831073D01*
X199309880Y-112831073D02*
X199393136Y-112897453D01*
X199393136Y-112897453D02*
X199569550Y-112983633D01*
X199569550Y-112983633D02*
X199709285Y-113013335D01*
X199709285Y-113013335D02*
X199905499Y-113006359D01*
X199905499Y-113006359D02*
X200008557Y-112979581D01*
X200008557Y-112979581D02*
X200121515Y-112906225D01*
X200121515Y-112906225D02*
X200197795Y-112776391D01*
X200197795Y-112776391D02*
X200217596Y-112683234D01*
X200217596Y-112683234D02*
X200200719Y-112533598D01*
X200200719Y-112533598D02*
X200164041Y-112477119D01*
X200164041Y-112477119D02*
X199837992Y-112407815D01*
X199837992Y-112407815D02*
X199798390Y-112594129D01*
X200346303Y-112077714D02*
X199368156Y-111869802D01*
X199368156Y-111869802D02*
X199417659Y-111636910D01*
X199417659Y-111636910D02*
X199493939Y-111507075D01*
X199493939Y-111507075D02*
X199606897Y-111433719D01*
X199606897Y-111433719D02*
X199709954Y-111406942D01*
X199709954Y-111406942D02*
X199906169Y-111399966D01*
X199906169Y-111399966D02*
X200045904Y-111429667D01*
X200045904Y-111429667D02*
X200222317Y-111515848D01*
X200222317Y-111515848D02*
X200305574Y-111582228D01*
X200305574Y-111582228D02*
X200378929Y-111695186D01*
X200378929Y-111695186D02*
X200395806Y-111844822D01*
X200395806Y-111844822D02*
X200346303Y-112077714D01*
X199615670Y-110705341D02*
X199635471Y-110612184D01*
X199635471Y-110612184D02*
X199701850Y-110528927D01*
X199701850Y-110528927D02*
X199758329Y-110492250D01*
X199758329Y-110492250D02*
X199861387Y-110465472D01*
X199861387Y-110465472D02*
X200057601Y-110458496D01*
X200057601Y-110458496D02*
X200290494Y-110507999D01*
X200290494Y-110507999D02*
X200466907Y-110594179D01*
X200466907Y-110594179D02*
X200550163Y-110660559D01*
X200550163Y-110660559D02*
X200586841Y-110717038D01*
X200586841Y-110717038D02*
X200613618Y-110820095D01*
X200613618Y-110820095D02*
X200593817Y-110913252D01*
X200593817Y-110913252D02*
X200527438Y-110996509D01*
X200527438Y-110996509D02*
X200470959Y-111033187D01*
X200470959Y-111033187D02*
X200367901Y-111059964D01*
X200367901Y-111059964D02*
X200171687Y-111066940D01*
X200171687Y-111066940D02*
X199938795Y-111017437D01*
X199938795Y-111017437D02*
X199762381Y-110931257D01*
X199762381Y-110931257D02*
X199679125Y-110864877D01*
X199679125Y-110864877D02*
X199642447Y-110808398D01*
X199642447Y-110808398D02*
X199615670Y-110705341D01*
X199813681Y-109773772D02*
X199833482Y-109680615D01*
X199833482Y-109680615D02*
X199899862Y-109597358D01*
X199899862Y-109597358D02*
X199956341Y-109560680D01*
X199956341Y-109560680D02*
X200059398Y-109533903D01*
X200059398Y-109533903D02*
X200255612Y-109526927D01*
X200255612Y-109526927D02*
X200488505Y-109576430D01*
X200488505Y-109576430D02*
X200664918Y-109662610D01*
X200664918Y-109662610D02*
X200748174Y-109728990D01*
X200748174Y-109728990D02*
X200784852Y-109785469D01*
X200784852Y-109785469D02*
X200811630Y-109888526D01*
X200811630Y-109888526D02*
X200791828Y-109981683D01*
X200791828Y-109981683D02*
X200725449Y-110064940D01*
X200725449Y-110064940D02*
X200668970Y-110101617D01*
X200668970Y-110101617D02*
X200565912Y-110128395D01*
X200565912Y-110128395D02*
X200369698Y-110135371D01*
X200369698Y-110135371D02*
X200136806Y-110085868D01*
X200136806Y-110085868D02*
X199960392Y-109999688D01*
X199960392Y-109999688D02*
X199877136Y-109933308D01*
X199877136Y-109933308D02*
X199840458Y-109876829D01*
X199840458Y-109876829D02*
X199813681Y-109773772D01*
X201059144Y-108724065D02*
X200940337Y-109283006D01*
X200999740Y-109003536D02*
X200021593Y-108795624D01*
X200021593Y-108795624D02*
X200141527Y-108918482D01*
X200141527Y-108918482D02*
X200214883Y-109031440D01*
X200214883Y-109031440D02*
X200241660Y-109134498D01*
X85913349Y-50597117D02*
X85913349Y-49597117D01*
X86580015Y-50120926D02*
X86580015Y-50597117D01*
X86246682Y-49597117D02*
X86580015Y-50120926D01*
X86580015Y-50120926D02*
X86913348Y-49597117D01*
X87199063Y-50311402D02*
X87675253Y-50311402D01*
X87103825Y-50597117D02*
X87437158Y-49597117D01*
X87437158Y-49597117D02*
X87770491Y-50597117D01*
X88103825Y-50597117D02*
X88103825Y-49597117D01*
X88103825Y-49597117D02*
X88341920Y-49597117D01*
X88341920Y-49597117D02*
X88484777Y-49644736D01*
X88484777Y-49644736D02*
X88580015Y-49739974D01*
X88580015Y-49739974D02*
X88627634Y-49835212D01*
X88627634Y-49835212D02*
X88675253Y-50025688D01*
X88675253Y-50025688D02*
X88675253Y-50168545D01*
X88675253Y-50168545D02*
X88627634Y-50359021D01*
X88627634Y-50359021D02*
X88580015Y-50454259D01*
X88580015Y-50454259D02*
X88484777Y-50549498D01*
X88484777Y-50549498D02*
X88341920Y-50597117D01*
X88341920Y-50597117D02*
X88103825Y-50597117D01*
X89056206Y-50311402D02*
X89532396Y-50311402D01*
X88960968Y-50597117D02*
X89294301Y-49597117D01*
X89294301Y-49597117D02*
X89627634Y-50597117D01*
X79727516Y-131977122D02*
X79251326Y-131977122D01*
X79251326Y-131977122D02*
X79251326Y-130977122D01*
X80060850Y-131453312D02*
X80394183Y-131453312D01*
X80537040Y-131977122D02*
X80060850Y-131977122D01*
X80060850Y-131977122D02*
X80060850Y-130977122D01*
X80060850Y-130977122D02*
X80537040Y-130977122D01*
X81298945Y-131453312D02*
X80965612Y-131453312D01*
X80965612Y-131977122D02*
X80965612Y-130977122D01*
X80965612Y-130977122D02*
X81441802Y-130977122D01*
X81679898Y-130977122D02*
X82251326Y-130977122D01*
X81965612Y-131977122D02*
X81965612Y-130977122D01*
X217239748Y-54124185D02*
X217239748Y-53124185D01*
X217239748Y-53124185D02*
X217620700Y-53124185D01*
X217620700Y-53124185D02*
X217715938Y-53171804D01*
X217715938Y-53171804D02*
X217763557Y-53219423D01*
X217763557Y-53219423D02*
X217811176Y-53314661D01*
X217811176Y-53314661D02*
X217811176Y-53457518D01*
X217811176Y-53457518D02*
X217763557Y-53552756D01*
X217763557Y-53552756D02*
X217715938Y-53600375D01*
X217715938Y-53600375D02*
X217620700Y-53647994D01*
X217620700Y-53647994D02*
X217239748Y-53647994D01*
X218239748Y-54124185D02*
X218239748Y-53457518D01*
X218239748Y-53647994D02*
X218287367Y-53552756D01*
X218287367Y-53552756D02*
X218334986Y-53505137D01*
X218334986Y-53505137D02*
X218430224Y-53457518D01*
X218430224Y-53457518D02*
X218525462Y-53457518D01*
X219001653Y-54124185D02*
X218906415Y-54076566D01*
X218906415Y-54076566D02*
X218858796Y-54028946D01*
X218858796Y-54028946D02*
X218811177Y-53933708D01*
X218811177Y-53933708D02*
X218811177Y-53647994D01*
X218811177Y-53647994D02*
X218858796Y-53552756D01*
X218858796Y-53552756D02*
X218906415Y-53505137D01*
X218906415Y-53505137D02*
X219001653Y-53457518D01*
X219001653Y-53457518D02*
X219144510Y-53457518D01*
X219144510Y-53457518D02*
X219239748Y-53505137D01*
X219239748Y-53505137D02*
X219287367Y-53552756D01*
X219287367Y-53552756D02*
X219334986Y-53647994D01*
X219334986Y-53647994D02*
X219334986Y-53933708D01*
X219334986Y-53933708D02*
X219287367Y-54028946D01*
X219287367Y-54028946D02*
X219239748Y-54076566D01*
X219239748Y-54076566D02*
X219144510Y-54124185D01*
X219144510Y-54124185D02*
X219001653Y-54124185D01*
X220525463Y-54124185D02*
X220525463Y-53124185D01*
X220525463Y-53124185D02*
X220858796Y-53838470D01*
X220858796Y-53838470D02*
X221192129Y-53124185D01*
X221192129Y-53124185D02*
X221192129Y-54124185D01*
X221668320Y-54124185D02*
X221668320Y-53457518D01*
X221668320Y-53124185D02*
X221620701Y-53171804D01*
X221620701Y-53171804D02*
X221668320Y-53219423D01*
X221668320Y-53219423D02*
X221715939Y-53171804D01*
X221715939Y-53171804D02*
X221668320Y-53124185D01*
X221668320Y-53124185D02*
X221668320Y-53219423D01*
X222573081Y-54076566D02*
X222477843Y-54124185D01*
X222477843Y-54124185D02*
X222287367Y-54124185D01*
X222287367Y-54124185D02*
X222192129Y-54076566D01*
X222192129Y-54076566D02*
X222144510Y-54028946D01*
X222144510Y-54028946D02*
X222096891Y-53933708D01*
X222096891Y-53933708D02*
X222096891Y-53647994D01*
X222096891Y-53647994D02*
X222144510Y-53552756D01*
X222144510Y-53552756D02*
X222192129Y-53505137D01*
X222192129Y-53505137D02*
X222287367Y-53457518D01*
X222287367Y-53457518D02*
X222477843Y-53457518D01*
X222477843Y-53457518D02*
X222573081Y-53505137D01*
X223001653Y-54124185D02*
X223001653Y-53457518D01*
X223001653Y-53647994D02*
X223049272Y-53552756D01*
X223049272Y-53552756D02*
X223096891Y-53505137D01*
X223096891Y-53505137D02*
X223192129Y-53457518D01*
X223192129Y-53457518D02*
X223287367Y-53457518D01*
X223763558Y-54124185D02*
X223668320Y-54076566D01*
X223668320Y-54076566D02*
X223620701Y-54028946D01*
X223620701Y-54028946D02*
X223573082Y-53933708D01*
X223573082Y-53933708D02*
X223573082Y-53647994D01*
X223573082Y-53647994D02*
X223620701Y-53552756D01*
X223620701Y-53552756D02*
X223668320Y-53505137D01*
X223668320Y-53505137D02*
X223763558Y-53457518D01*
X223763558Y-53457518D02*
X223906415Y-53457518D01*
X223906415Y-53457518D02*
X224001653Y-53505137D01*
X224001653Y-53505137D02*
X224049272Y-53552756D01*
X224049272Y-53552756D02*
X224096891Y-53647994D01*
X224096891Y-53647994D02*
X224096891Y-53933708D01*
X224096891Y-53933708D02*
X224049272Y-54028946D01*
X224049272Y-54028946D02*
X224001653Y-54076566D01*
X224001653Y-54076566D02*
X223906415Y-54124185D01*
X223906415Y-54124185D02*
X223763558Y-54124185D01*
X218549271Y-55734129D02*
X218215938Y-55257938D01*
X217977843Y-55734129D02*
X217977843Y-54734129D01*
X217977843Y-54734129D02*
X218358795Y-54734129D01*
X218358795Y-54734129D02*
X218454033Y-54781748D01*
X218454033Y-54781748D02*
X218501652Y-54829367D01*
X218501652Y-54829367D02*
X218549271Y-54924605D01*
X218549271Y-54924605D02*
X218549271Y-55067462D01*
X218549271Y-55067462D02*
X218501652Y-55162700D01*
X218501652Y-55162700D02*
X218454033Y-55210319D01*
X218454033Y-55210319D02*
X218358795Y-55257938D01*
X218358795Y-55257938D02*
X217977843Y-55257938D01*
X218977843Y-55734129D02*
X218977843Y-54734129D01*
X218977843Y-54734129D02*
X219358795Y-54734129D01*
X219358795Y-54734129D02*
X219454033Y-54781748D01*
X219454033Y-54781748D02*
X219501652Y-54829367D01*
X219501652Y-54829367D02*
X219549271Y-54924605D01*
X219549271Y-54924605D02*
X219549271Y-55067462D01*
X219549271Y-55067462D02*
X219501652Y-55162700D01*
X219501652Y-55162700D02*
X219454033Y-55210319D01*
X219454033Y-55210319D02*
X219358795Y-55257938D01*
X219358795Y-55257938D02*
X218977843Y-55257938D01*
X219930224Y-54829367D02*
X219977843Y-54781748D01*
X219977843Y-54781748D02*
X220073081Y-54734129D01*
X220073081Y-54734129D02*
X220311176Y-54734129D01*
X220311176Y-54734129D02*
X220406414Y-54781748D01*
X220406414Y-54781748D02*
X220454033Y-54829367D01*
X220454033Y-54829367D02*
X220501652Y-54924605D01*
X220501652Y-54924605D02*
X220501652Y-55019843D01*
X220501652Y-55019843D02*
X220454033Y-55162700D01*
X220454033Y-55162700D02*
X219882605Y-55734129D01*
X219882605Y-55734129D02*
X220501652Y-55734129D01*
X221120700Y-54734129D02*
X221215938Y-54734129D01*
X221215938Y-54734129D02*
X221311176Y-54781748D01*
X221311176Y-54781748D02*
X221358795Y-54829367D01*
X221358795Y-54829367D02*
X221406414Y-54924605D01*
X221406414Y-54924605D02*
X221454033Y-55115081D01*
X221454033Y-55115081D02*
X221454033Y-55353176D01*
X221454033Y-55353176D02*
X221406414Y-55543652D01*
X221406414Y-55543652D02*
X221358795Y-55638890D01*
X221358795Y-55638890D02*
X221311176Y-55686510D01*
X221311176Y-55686510D02*
X221215938Y-55734129D01*
X221215938Y-55734129D02*
X221120700Y-55734129D01*
X221120700Y-55734129D02*
X221025462Y-55686510D01*
X221025462Y-55686510D02*
X220977843Y-55638890D01*
X220977843Y-55638890D02*
X220930224Y-55543652D01*
X220930224Y-55543652D02*
X220882605Y-55353176D01*
X220882605Y-55353176D02*
X220882605Y-55115081D01*
X220882605Y-55115081D02*
X220930224Y-54924605D01*
X220930224Y-54924605D02*
X220977843Y-54829367D01*
X220977843Y-54829367D02*
X221025462Y-54781748D01*
X221025462Y-54781748D02*
X221120700Y-54734129D01*
X222311176Y-55067462D02*
X222311176Y-55734129D01*
X222073081Y-54686510D02*
X221834986Y-55400795D01*
X221834986Y-55400795D02*
X222454033Y-55400795D01*
X223025462Y-54734129D02*
X223120700Y-54734129D01*
X223120700Y-54734129D02*
X223215938Y-54781748D01*
X223215938Y-54781748D02*
X223263557Y-54829367D01*
X223263557Y-54829367D02*
X223311176Y-54924605D01*
X223311176Y-54924605D02*
X223358795Y-55115081D01*
X223358795Y-55115081D02*
X223358795Y-55353176D01*
X223358795Y-55353176D02*
X223311176Y-55543652D01*
X223311176Y-55543652D02*
X223263557Y-55638890D01*
X223263557Y-55638890D02*
X223215938Y-55686510D01*
X223215938Y-55686510D02*
X223120700Y-55734129D01*
X223120700Y-55734129D02*
X223025462Y-55734129D01*
X223025462Y-55734129D02*
X222930224Y-55686510D01*
X222930224Y-55686510D02*
X222882605Y-55638890D01*
X222882605Y-55638890D02*
X222834986Y-55543652D01*
X222834986Y-55543652D02*
X222787367Y-55353176D01*
X222787367Y-55353176D02*
X222787367Y-55115081D01*
X222787367Y-55115081D02*
X222834986Y-54924605D01*
X222834986Y-54924605D02*
X222882605Y-54829367D01*
X222882605Y-54829367D02*
X222930224Y-54781748D01*
X222930224Y-54781748D02*
X223025462Y-54734129D01*
D10*
X221930135Y-64201808D02*
X222030135Y-64235141D01*
X222030135Y-64235141D02*
X222196802Y-64235141D01*
X222196802Y-64235141D02*
X222263468Y-64201808D01*
X222263468Y-64201808D02*
X222296802Y-64168474D01*
X222296802Y-64168474D02*
X222330135Y-64101808D01*
X222330135Y-64101808D02*
X222330135Y-64035141D01*
X222330135Y-64035141D02*
X222296802Y-63968474D01*
X222296802Y-63968474D02*
X222263468Y-63935141D01*
X222263468Y-63935141D02*
X222196802Y-63901808D01*
X222196802Y-63901808D02*
X222063468Y-63868474D01*
X222063468Y-63868474D02*
X221996802Y-63835141D01*
X221996802Y-63835141D02*
X221963468Y-63801808D01*
X221963468Y-63801808D02*
X221930135Y-63735141D01*
X221930135Y-63735141D02*
X221930135Y-63668474D01*
X221930135Y-63668474D02*
X221963468Y-63601808D01*
X221963468Y-63601808D02*
X221996802Y-63568474D01*
X221996802Y-63568474D02*
X222063468Y-63535141D01*
X222063468Y-63535141D02*
X222230135Y-63535141D01*
X222230135Y-63535141D02*
X222330135Y-63568474D01*
X222630135Y-64235141D02*
X222630135Y-63535141D01*
X222630135Y-63535141D02*
X222796802Y-63535141D01*
X222796802Y-63535141D02*
X222896802Y-63568474D01*
X222896802Y-63568474D02*
X222963469Y-63635141D01*
X222963469Y-63635141D02*
X222996802Y-63701808D01*
X222996802Y-63701808D02*
X223030135Y-63835141D01*
X223030135Y-63835141D02*
X223030135Y-63935141D01*
X223030135Y-63935141D02*
X222996802Y-64068474D01*
X222996802Y-64068474D02*
X222963469Y-64135141D01*
X222963469Y-64135141D02*
X222896802Y-64201808D01*
X222896802Y-64201808D02*
X222796802Y-64235141D01*
X222796802Y-64235141D02*
X222630135Y-64235141D01*
X223296802Y-64035141D02*
X223630135Y-64035141D01*
X223230135Y-64235141D02*
X223463469Y-63535141D01*
X223463469Y-63535141D02*
X223696802Y-64235141D01*
D11*
X216209316Y-83357125D02*
X216399792Y-83357125D01*
X216399792Y-83357125D02*
X216495030Y-83404744D01*
X216495030Y-83404744D02*
X216590268Y-83499982D01*
X216590268Y-83499982D02*
X216637887Y-83690458D01*
X216637887Y-83690458D02*
X216637887Y-84023791D01*
X216637887Y-84023791D02*
X216590268Y-84214267D01*
X216590268Y-84214267D02*
X216495030Y-84309506D01*
X216495030Y-84309506D02*
X216399792Y-84357125D01*
X216399792Y-84357125D02*
X216209316Y-84357125D01*
X216209316Y-84357125D02*
X216114078Y-84309506D01*
X216114078Y-84309506D02*
X216018840Y-84214267D01*
X216018840Y-84214267D02*
X215971221Y-84023791D01*
X215971221Y-84023791D02*
X215971221Y-83690458D01*
X215971221Y-83690458D02*
X216018840Y-83499982D01*
X216018840Y-83499982D02*
X216114078Y-83404744D01*
X216114078Y-83404744D02*
X216209316Y-83357125D01*
X217542649Y-84357125D02*
X217066459Y-84357125D01*
X217066459Y-84357125D02*
X217066459Y-83357125D01*
X217875983Y-83833315D02*
X218209316Y-83833315D01*
X218352173Y-84357125D02*
X217875983Y-84357125D01*
X217875983Y-84357125D02*
X217875983Y-83357125D01*
X217875983Y-83357125D02*
X218352173Y-83357125D01*
X218780745Y-84357125D02*
X218780745Y-83357125D01*
X218780745Y-83357125D02*
X219018840Y-83357125D01*
X219018840Y-83357125D02*
X219161697Y-83404744D01*
X219161697Y-83404744D02*
X219256935Y-83499982D01*
X219256935Y-83499982D02*
X219304554Y-83595220D01*
X219304554Y-83595220D02*
X219352173Y-83785696D01*
X219352173Y-83785696D02*
X219352173Y-83928553D01*
X219352173Y-83928553D02*
X219304554Y-84119029D01*
X219304554Y-84119029D02*
X219256935Y-84214267D01*
X219256935Y-84214267D02*
X219161697Y-84309506D01*
X219161697Y-84309506D02*
X219018840Y-84357125D01*
X219018840Y-84357125D02*
X218780745Y-84357125D01*
X219780745Y-84261886D02*
X219828364Y-84309506D01*
X219828364Y-84309506D02*
X219780745Y-84357125D01*
X219780745Y-84357125D02*
X219733126Y-84309506D01*
X219733126Y-84309506D02*
X219780745Y-84261886D01*
X219780745Y-84261886D02*
X219780745Y-84357125D01*
X219780745Y-83738077D02*
X219828364Y-83785696D01*
X219828364Y-83785696D02*
X219780745Y-83833315D01*
X219780745Y-83833315D02*
X219733126Y-83785696D01*
X219733126Y-83785696D02*
X219780745Y-83738077D01*
X219780745Y-83738077D02*
X219780745Y-83833315D01*
D10*
X229933534Y-74068067D02*
X230166868Y-74068067D01*
X230266868Y-74434734D02*
X229933534Y-74434734D01*
X229933534Y-74434734D02*
X229933534Y-73734734D01*
X229933534Y-73734734D02*
X230266868Y-73734734D01*
X230933534Y-74434734D02*
X230533534Y-74434734D01*
X230733534Y-74434734D02*
X230733534Y-73734734D01*
X230733534Y-73734734D02*
X230666867Y-73834734D01*
X230666867Y-73834734D02*
X230600201Y-73901401D01*
X230600201Y-73901401D02*
X230533534Y-73934734D01*
X210813467Y-74308468D02*
X210780134Y-74341802D01*
X210780134Y-74341802D02*
X210680134Y-74375135D01*
X210680134Y-74375135D02*
X210613467Y-74375135D01*
X210613467Y-74375135D02*
X210513467Y-74341802D01*
X210513467Y-74341802D02*
X210446801Y-74275135D01*
X210446801Y-74275135D02*
X210413467Y-74208468D01*
X210413467Y-74208468D02*
X210380134Y-74075135D01*
X210380134Y-74075135D02*
X210380134Y-73975135D01*
X210380134Y-73975135D02*
X210413467Y-73841802D01*
X210413467Y-73841802D02*
X210446801Y-73775135D01*
X210446801Y-73775135D02*
X210513467Y-73708468D01*
X210513467Y-73708468D02*
X210613467Y-73675135D01*
X210613467Y-73675135D02*
X210680134Y-73675135D01*
X210680134Y-73675135D02*
X210780134Y-73708468D01*
X210780134Y-73708468D02*
X210813467Y-73741802D01*
X211413467Y-73908468D02*
X211413467Y-74375135D01*
X211246801Y-73641802D02*
X211080134Y-74141802D01*
X211080134Y-74141802D02*
X211513467Y-74141802D01*
X219420800Y-80539503D02*
X219433001Y-80585037D01*
X219433001Y-80585037D02*
X219411869Y-80688307D01*
X219411869Y-80688307D02*
X219378535Y-80746042D01*
X219378535Y-80746042D02*
X219299668Y-80815977D01*
X219299668Y-80815977D02*
X219208600Y-80840379D01*
X219208600Y-80840379D02*
X219134198Y-80835913D01*
X219134198Y-80835913D02*
X219002061Y-80798114D01*
X219002061Y-80798114D02*
X218915459Y-80748114D01*
X218915459Y-80748114D02*
X218816655Y-80652580D01*
X218816655Y-80652580D02*
X218775587Y-80590379D01*
X218775587Y-80590379D02*
X218751185Y-80499311D01*
X218751185Y-80499311D02*
X218772318Y-80396042D01*
X218772318Y-80396042D02*
X218805651Y-80338307D01*
X218805651Y-80338307D02*
X218884519Y-80268371D01*
X218884519Y-80268371D02*
X218930053Y-80256170D01*
X219583001Y-80325230D02*
X219661869Y-80255294D01*
X219661869Y-80255294D02*
X219745202Y-80110956D01*
X219745202Y-80110956D02*
X219749668Y-80036555D01*
X219749668Y-80036555D02*
X219737467Y-79991020D01*
X219737467Y-79991020D02*
X219696399Y-79928820D01*
X219696399Y-79928820D02*
X219638664Y-79895486D01*
X219638664Y-79895486D02*
X219564262Y-79891020D01*
X219564262Y-79891020D02*
X219518728Y-79903221D01*
X219518728Y-79903221D02*
X219456527Y-79944290D01*
X219456527Y-79944290D02*
X219360993Y-80043093D01*
X219360993Y-80043093D02*
X219298792Y-80084161D01*
X219298792Y-80084161D02*
X219253258Y-80096362D01*
X219253258Y-80096362D02*
X219178856Y-80091896D01*
X219178856Y-80091896D02*
X219121121Y-80058563D01*
X219121121Y-80058563D02*
X219080053Y-79996362D01*
X219080053Y-79996362D02*
X219067852Y-79950828D01*
X219067852Y-79950828D02*
X219072318Y-79876426D01*
X219072318Y-79876426D02*
X219155651Y-79732089D01*
X219155651Y-79732089D02*
X219234519Y-79662153D01*
X230223534Y-69404739D02*
X229990201Y-69071406D01*
X229823534Y-69404739D02*
X229823534Y-68704739D01*
X229823534Y-68704739D02*
X230090201Y-68704739D01*
X230090201Y-68704739D02*
X230156868Y-68738072D01*
X230156868Y-68738072D02*
X230190201Y-68771406D01*
X230190201Y-68771406D02*
X230223534Y-68838072D01*
X230223534Y-68838072D02*
X230223534Y-68938072D01*
X230223534Y-68938072D02*
X230190201Y-69004739D01*
X230190201Y-69004739D02*
X230156868Y-69038072D01*
X230156868Y-69038072D02*
X230090201Y-69071406D01*
X230090201Y-69071406D02*
X229823534Y-69071406D01*
X230456868Y-68704739D02*
X230890201Y-68704739D01*
X230890201Y-68704739D02*
X230656868Y-68971406D01*
X230656868Y-68971406D02*
X230756868Y-68971406D01*
X230756868Y-68971406D02*
X230823534Y-69004739D01*
X230823534Y-69004739D02*
X230856868Y-69038072D01*
X230856868Y-69038072D02*
X230890201Y-69104739D01*
X230890201Y-69104739D02*
X230890201Y-69271406D01*
X230890201Y-69271406D02*
X230856868Y-69338072D01*
X230856868Y-69338072D02*
X230823534Y-69371406D01*
X230823534Y-69371406D02*
X230756868Y-69404739D01*
X230756868Y-69404739D02*
X230556868Y-69404739D01*
X230556868Y-69404739D02*
X230490201Y-69371406D01*
X230490201Y-69371406D02*
X230456868Y-69338072D01*
X229821871Y-61079731D02*
X230255204Y-61079731D01*
X230255204Y-61079731D02*
X230021871Y-61346398D01*
X230021871Y-61346398D02*
X230121871Y-61346398D01*
X230121871Y-61346398D02*
X230188537Y-61379731D01*
X230188537Y-61379731D02*
X230221871Y-61413064D01*
X230221871Y-61413064D02*
X230255204Y-61479731D01*
X230255204Y-61479731D02*
X230255204Y-61646398D01*
X230255204Y-61646398D02*
X230221871Y-61713064D01*
X230221871Y-61713064D02*
X230188537Y-61746398D01*
X230188537Y-61746398D02*
X230121871Y-61779731D01*
X230121871Y-61779731D02*
X229921871Y-61779731D01*
X229921871Y-61779731D02*
X229855204Y-61746398D01*
X229855204Y-61746398D02*
X229821871Y-61713064D01*
X230455204Y-61079731D02*
X230688538Y-61779731D01*
X230688538Y-61779731D02*
X230921871Y-61079731D01*
X217283461Y-58675137D02*
X217283461Y-57975137D01*
X217283461Y-57975137D02*
X217450128Y-57975137D01*
X217450128Y-57975137D02*
X217550128Y-58008470D01*
X217550128Y-58008470D02*
X217616795Y-58075137D01*
X217616795Y-58075137D02*
X217650128Y-58141804D01*
X217650128Y-58141804D02*
X217683461Y-58275137D01*
X217683461Y-58275137D02*
X217683461Y-58375137D01*
X217683461Y-58375137D02*
X217650128Y-58508470D01*
X217650128Y-58508470D02*
X217616795Y-58575137D01*
X217616795Y-58575137D02*
X217550128Y-58641804D01*
X217550128Y-58641804D02*
X217450128Y-58675137D01*
X217450128Y-58675137D02*
X217283461Y-58675137D01*
X218216795Y-58308470D02*
X217983461Y-58308470D01*
X217983461Y-58675137D02*
X217983461Y-57975137D01*
X217983461Y-57975137D02*
X218316795Y-57975137D01*
X218583461Y-57975137D02*
X218583461Y-58541804D01*
X218583461Y-58541804D02*
X218616795Y-58608470D01*
X218616795Y-58608470D02*
X218650128Y-58641804D01*
X218650128Y-58641804D02*
X218716795Y-58675137D01*
X218716795Y-58675137D02*
X218850128Y-58675137D01*
X218850128Y-58675137D02*
X218916795Y-58641804D01*
X218916795Y-58641804D02*
X218950128Y-58608470D01*
X218950128Y-58608470D02*
X218983461Y-58541804D01*
X218983461Y-58541804D02*
X218983461Y-57975137D01*
X229960127Y-79571809D02*
X230060127Y-79605142D01*
X230060127Y-79605142D02*
X230226794Y-79605142D01*
X230226794Y-79605142D02*
X230293460Y-79571809D01*
X230293460Y-79571809D02*
X230326794Y-79538475D01*
X230326794Y-79538475D02*
X230360127Y-79471809D01*
X230360127Y-79471809D02*
X230360127Y-79405142D01*
X230360127Y-79405142D02*
X230326794Y-79338475D01*
X230326794Y-79338475D02*
X230293460Y-79305142D01*
X230293460Y-79305142D02*
X230226794Y-79271809D01*
X230226794Y-79271809D02*
X230093460Y-79238475D01*
X230093460Y-79238475D02*
X230026794Y-79205142D01*
X230026794Y-79205142D02*
X229993460Y-79171809D01*
X229993460Y-79171809D02*
X229960127Y-79105142D01*
X229960127Y-79105142D02*
X229960127Y-79038475D01*
X229960127Y-79038475D02*
X229993460Y-78971809D01*
X229993460Y-78971809D02*
X230026794Y-78938475D01*
X230026794Y-78938475D02*
X230093460Y-78905142D01*
X230093460Y-78905142D02*
X230260127Y-78905142D01*
X230260127Y-78905142D02*
X230360127Y-78938475D01*
X231026794Y-79605142D02*
X230626794Y-79605142D01*
X230826794Y-79605142D02*
X230826794Y-78905142D01*
X230826794Y-78905142D02*
X230760127Y-79005142D01*
X230760127Y-79005142D02*
X230693461Y-79071809D01*
X230693461Y-79071809D02*
X230626794Y-79105142D01*
D11*
X204913776Y-61107118D02*
X204580443Y-60630927D01*
X204342348Y-61107118D02*
X204342348Y-60107118D01*
X204342348Y-60107118D02*
X204723300Y-60107118D01*
X204723300Y-60107118D02*
X204818538Y-60154737D01*
X204818538Y-60154737D02*
X204866157Y-60202356D01*
X204866157Y-60202356D02*
X204913776Y-60297594D01*
X204913776Y-60297594D02*
X204913776Y-60440451D01*
X204913776Y-60440451D02*
X204866157Y-60535689D01*
X204866157Y-60535689D02*
X204818538Y-60583308D01*
X204818538Y-60583308D02*
X204723300Y-60630927D01*
X204723300Y-60630927D02*
X204342348Y-60630927D01*
X205294729Y-61059499D02*
X205437586Y-61107118D01*
X205437586Y-61107118D02*
X205675681Y-61107118D01*
X205675681Y-61107118D02*
X205770919Y-61059499D01*
X205770919Y-61059499D02*
X205818538Y-61011879D01*
X205818538Y-61011879D02*
X205866157Y-60916641D01*
X205866157Y-60916641D02*
X205866157Y-60821403D01*
X205866157Y-60821403D02*
X205818538Y-60726165D01*
X205818538Y-60726165D02*
X205770919Y-60678546D01*
X205770919Y-60678546D02*
X205675681Y-60630927D01*
X205675681Y-60630927D02*
X205485205Y-60583308D01*
X205485205Y-60583308D02*
X205389967Y-60535689D01*
X205389967Y-60535689D02*
X205342348Y-60488070D01*
X205342348Y-60488070D02*
X205294729Y-60392832D01*
X205294729Y-60392832D02*
X205294729Y-60297594D01*
X205294729Y-60297594D02*
X205342348Y-60202356D01*
X205342348Y-60202356D02*
X205389967Y-60154737D01*
X205389967Y-60154737D02*
X205485205Y-60107118D01*
X205485205Y-60107118D02*
X205723300Y-60107118D01*
X205723300Y-60107118D02*
X205866157Y-60154737D01*
X206151872Y-60107118D02*
X206723300Y-60107118D01*
X206437586Y-61107118D02*
X206437586Y-60107118D01*
D10*
X216838541Y-77972852D02*
X216433200Y-78008258D01*
X216638541Y-78319263D02*
X216032324Y-77969263D01*
X216032324Y-77969263D02*
X216165657Y-77738323D01*
X216165657Y-77738323D02*
X216227858Y-77697254D01*
X216227858Y-77697254D02*
X216273392Y-77685053D01*
X216273392Y-77685053D02*
X216347794Y-77689519D01*
X216347794Y-77689519D02*
X216434396Y-77739519D01*
X216434396Y-77739519D02*
X216475465Y-77801720D01*
X216475465Y-77801720D02*
X216487666Y-77847254D01*
X216487666Y-77847254D02*
X216483200Y-77921656D01*
X216483200Y-77921656D02*
X216349866Y-78152596D01*
X216348990Y-77420780D02*
X217188541Y-77366635D01*
X216582324Y-77016635D02*
X216955208Y-77770780D01*
D11*
X169918887Y-111240521D02*
X169918887Y-110764331D01*
X169918887Y-110764331D02*
X169442697Y-110716712D01*
X169442697Y-110716712D02*
X169490316Y-110764331D01*
X169490316Y-110764331D02*
X169537935Y-110859569D01*
X169537935Y-110859569D02*
X169537935Y-111097664D01*
X169537935Y-111097664D02*
X169490316Y-111192902D01*
X169490316Y-111192902D02*
X169442697Y-111240521D01*
X169442697Y-111240521D02*
X169347459Y-111288140D01*
X169347459Y-111288140D02*
X169109364Y-111288140D01*
X169109364Y-111288140D02*
X169014126Y-111240521D01*
X169014126Y-111240521D02*
X168966507Y-111192902D01*
X168966507Y-111192902D02*
X168918887Y-111097664D01*
X168918887Y-111097664D02*
X168918887Y-110859569D01*
X168918887Y-110859569D02*
X168966507Y-110764331D01*
X168966507Y-110764331D02*
X169014126Y-110716712D01*
X169918887Y-111573855D02*
X168918887Y-111907188D01*
X168918887Y-111907188D02*
X169918887Y-112240521D01*
D10*
X230210210Y-56043063D02*
X230143543Y-56009730D01*
X230143543Y-56009730D02*
X230043543Y-56009730D01*
X230043543Y-56009730D02*
X229943543Y-56043063D01*
X229943543Y-56043063D02*
X229876877Y-56109730D01*
X229876877Y-56109730D02*
X229843543Y-56176397D01*
X229843543Y-56176397D02*
X229810210Y-56309730D01*
X229810210Y-56309730D02*
X229810210Y-56409730D01*
X229810210Y-56409730D02*
X229843543Y-56543063D01*
X229843543Y-56543063D02*
X229876877Y-56609730D01*
X229876877Y-56609730D02*
X229943543Y-56676397D01*
X229943543Y-56676397D02*
X230043543Y-56709730D01*
X230043543Y-56709730D02*
X230110210Y-56709730D01*
X230110210Y-56709730D02*
X230210210Y-56676397D01*
X230210210Y-56676397D02*
X230243543Y-56643063D01*
X230243543Y-56643063D02*
X230243543Y-56409730D01*
X230243543Y-56409730D02*
X230110210Y-56409730D01*
X230543543Y-56709730D02*
X230543543Y-56009730D01*
X230543543Y-56009730D02*
X230943543Y-56709730D01*
X230943543Y-56709730D02*
X230943543Y-56009730D01*
X231276876Y-56709730D02*
X231276876Y-56009730D01*
X231276876Y-56009730D02*
X231443543Y-56009730D01*
X231443543Y-56009730D02*
X231543543Y-56043063D01*
X231543543Y-56043063D02*
X231610210Y-56109730D01*
X231610210Y-56109730D02*
X231643543Y-56176397D01*
X231643543Y-56176397D02*
X231676876Y-56309730D01*
X231676876Y-56309730D02*
X231676876Y-56409730D01*
X231676876Y-56409730D02*
X231643543Y-56543063D01*
X231643543Y-56543063D02*
X231610210Y-56609730D01*
X231610210Y-56609730D02*
X231543543Y-56676397D01*
X231543543Y-56676397D02*
X231443543Y-56709730D01*
X231443543Y-56709730D02*
X231276876Y-56709730D01*
X210843461Y-77028472D02*
X210810128Y-77061806D01*
X210810128Y-77061806D02*
X210710128Y-77095139D01*
X210710128Y-77095139D02*
X210643461Y-77095139D01*
X210643461Y-77095139D02*
X210543461Y-77061806D01*
X210543461Y-77061806D02*
X210476795Y-76995139D01*
X210476795Y-76995139D02*
X210443461Y-76928472D01*
X210443461Y-76928472D02*
X210410128Y-76795139D01*
X210410128Y-76795139D02*
X210410128Y-76695139D01*
X210410128Y-76695139D02*
X210443461Y-76561806D01*
X210443461Y-76561806D02*
X210476795Y-76495139D01*
X210476795Y-76495139D02*
X210543461Y-76428472D01*
X210543461Y-76428472D02*
X210643461Y-76395139D01*
X210643461Y-76395139D02*
X210710128Y-76395139D01*
X210710128Y-76395139D02*
X210810128Y-76428472D01*
X210810128Y-76428472D02*
X210843461Y-76461806D01*
X211076795Y-76395139D02*
X211510128Y-76395139D01*
X211510128Y-76395139D02*
X211276795Y-76661806D01*
X211276795Y-76661806D02*
X211376795Y-76661806D01*
X211376795Y-76661806D02*
X211443461Y-76695139D01*
X211443461Y-76695139D02*
X211476795Y-76728472D01*
X211476795Y-76728472D02*
X211510128Y-76795139D01*
X211510128Y-76795139D02*
X211510128Y-76961806D01*
X211510128Y-76961806D02*
X211476795Y-77028472D01*
X211476795Y-77028472D02*
X211443461Y-77061806D01*
X211443461Y-77061806D02*
X211376795Y-77095139D01*
X211376795Y-77095139D02*
X211176795Y-77095139D01*
X211176795Y-77095139D02*
X211110128Y-77061806D01*
X211110128Y-77061806D02*
X211076795Y-77028472D01*
X209790131Y-66781805D02*
X209890131Y-66815138D01*
X209890131Y-66815138D02*
X210056798Y-66815138D01*
X210056798Y-66815138D02*
X210123464Y-66781805D01*
X210123464Y-66781805D02*
X210156798Y-66748471D01*
X210156798Y-66748471D02*
X210190131Y-66681805D01*
X210190131Y-66681805D02*
X210190131Y-66615138D01*
X210190131Y-66615138D02*
X210156798Y-66548471D01*
X210156798Y-66548471D02*
X210123464Y-66515138D01*
X210123464Y-66515138D02*
X210056798Y-66481805D01*
X210056798Y-66481805D02*
X209923464Y-66448471D01*
X209923464Y-66448471D02*
X209856798Y-66415138D01*
X209856798Y-66415138D02*
X209823464Y-66381805D01*
X209823464Y-66381805D02*
X209790131Y-66315138D01*
X209790131Y-66315138D02*
X209790131Y-66248471D01*
X209790131Y-66248471D02*
X209823464Y-66181805D01*
X209823464Y-66181805D02*
X209856798Y-66148471D01*
X209856798Y-66148471D02*
X209923464Y-66115138D01*
X209923464Y-66115138D02*
X210090131Y-66115138D01*
X210090131Y-66115138D02*
X210190131Y-66148471D01*
X210890131Y-66748471D02*
X210856798Y-66781805D01*
X210856798Y-66781805D02*
X210756798Y-66815138D01*
X210756798Y-66815138D02*
X210690131Y-66815138D01*
X210690131Y-66815138D02*
X210590131Y-66781805D01*
X210590131Y-66781805D02*
X210523465Y-66715138D01*
X210523465Y-66715138D02*
X210490131Y-66648471D01*
X210490131Y-66648471D02*
X210456798Y-66515138D01*
X210456798Y-66515138D02*
X210456798Y-66415138D01*
X210456798Y-66415138D02*
X210490131Y-66281805D01*
X210490131Y-66281805D02*
X210523465Y-66215138D01*
X210523465Y-66215138D02*
X210590131Y-66148471D01*
X210590131Y-66148471D02*
X210690131Y-66115138D01*
X210690131Y-66115138D02*
X210756798Y-66115138D01*
X210756798Y-66115138D02*
X210856798Y-66148471D01*
X210856798Y-66148471D02*
X210890131Y-66181805D01*
X211523465Y-66815138D02*
X211190131Y-66815138D01*
X211190131Y-66815138D02*
X211190131Y-66115138D01*
X221834175Y-93675347D02*
X222234175Y-93675347D01*
X222034175Y-94375347D02*
X222034175Y-93675347D01*
X222600842Y-93675347D02*
X222734175Y-93675347D01*
X222734175Y-93675347D02*
X222800842Y-93708680D01*
X222800842Y-93708680D02*
X222867508Y-93775347D01*
X222867508Y-93775347D02*
X222900842Y-93908680D01*
X222900842Y-93908680D02*
X222900842Y-94142014D01*
X222900842Y-94142014D02*
X222867508Y-94275347D01*
X222867508Y-94275347D02*
X222800842Y-94342014D01*
X222800842Y-94342014D02*
X222734175Y-94375347D01*
X222734175Y-94375347D02*
X222600842Y-94375347D01*
X222600842Y-94375347D02*
X222534175Y-94342014D01*
X222534175Y-94342014D02*
X222467508Y-94275347D01*
X222467508Y-94275347D02*
X222434175Y-94142014D01*
X222434175Y-94142014D02*
X222434175Y-93908680D01*
X222434175Y-93908680D02*
X222467508Y-93775347D01*
X222467508Y-93775347D02*
X222534175Y-93708680D01*
X222534175Y-93708680D02*
X222600842Y-93675347D01*
X223634174Y-93675347D02*
X224034174Y-93675347D01*
X223834174Y-94375347D02*
X223834174Y-93675347D01*
X224667507Y-94375347D02*
X224434174Y-94042014D01*
X224267507Y-94375347D02*
X224267507Y-93675347D01*
X224267507Y-93675347D02*
X224534174Y-93675347D01*
X224534174Y-93675347D02*
X224600841Y-93708680D01*
X224600841Y-93708680D02*
X224634174Y-93742014D01*
X224634174Y-93742014D02*
X224667507Y-93808680D01*
X224667507Y-93808680D02*
X224667507Y-93908680D01*
X224667507Y-93908680D02*
X224634174Y-93975347D01*
X224634174Y-93975347D02*
X224600841Y-94008680D01*
X224600841Y-94008680D02*
X224534174Y-94042014D01*
X224534174Y-94042014D02*
X224267507Y-94042014D01*
X225367507Y-94375347D02*
X225134174Y-94042014D01*
X224967507Y-94375347D02*
X224967507Y-93675347D01*
X224967507Y-93675347D02*
X225234174Y-93675347D01*
X225234174Y-93675347D02*
X225300841Y-93708680D01*
X225300841Y-93708680D02*
X225334174Y-93742014D01*
X225334174Y-93742014D02*
X225367507Y-93808680D01*
X225367507Y-93808680D02*
X225367507Y-93908680D01*
X225367507Y-93908680D02*
X225334174Y-93975347D01*
X225334174Y-93975347D02*
X225300841Y-94008680D01*
X225300841Y-94008680D02*
X225234174Y-94042014D01*
X225234174Y-94042014D02*
X224967507Y-94042014D01*
X225634174Y-94342014D02*
X225734174Y-94375347D01*
X225734174Y-94375347D02*
X225900841Y-94375347D01*
X225900841Y-94375347D02*
X225967507Y-94342014D01*
X225967507Y-94342014D02*
X226000841Y-94308680D01*
X226000841Y-94308680D02*
X226034174Y-94242014D01*
X226034174Y-94242014D02*
X226034174Y-94175347D01*
X226034174Y-94175347D02*
X226000841Y-94108680D01*
X226000841Y-94108680D02*
X225967507Y-94075347D01*
X225967507Y-94075347D02*
X225900841Y-94042014D01*
X225900841Y-94042014D02*
X225767507Y-94008680D01*
X225767507Y-94008680D02*
X225700841Y-93975347D01*
X225700841Y-93975347D02*
X225667507Y-93942014D01*
X225667507Y-93942014D02*
X225634174Y-93875347D01*
X225634174Y-93875347D02*
X225634174Y-93808680D01*
X225634174Y-93808680D02*
X225667507Y-93742014D01*
X225667507Y-93742014D02*
X225700841Y-93708680D01*
X225700841Y-93708680D02*
X225767507Y-93675347D01*
X225767507Y-93675347D02*
X225934174Y-93675347D01*
X225934174Y-93675347D02*
X226034174Y-93708680D01*
X227267507Y-94308680D02*
X227234174Y-94342014D01*
X227234174Y-94342014D02*
X227134174Y-94375347D01*
X227134174Y-94375347D02*
X227067507Y-94375347D01*
X227067507Y-94375347D02*
X226967507Y-94342014D01*
X226967507Y-94342014D02*
X226900841Y-94275347D01*
X226900841Y-94275347D02*
X226867507Y-94208680D01*
X226867507Y-94208680D02*
X226834174Y-94075347D01*
X226834174Y-94075347D02*
X226834174Y-93975347D01*
X226834174Y-93975347D02*
X226867507Y-93842014D01*
X226867507Y-93842014D02*
X226900841Y-93775347D01*
X226900841Y-93775347D02*
X226967507Y-93708680D01*
X226967507Y-93708680D02*
X227067507Y-93675347D01*
X227067507Y-93675347D02*
X227134174Y-93675347D01*
X227134174Y-93675347D02*
X227234174Y-93708680D01*
X227234174Y-93708680D02*
X227267507Y-93742014D01*
X227534174Y-94175347D02*
X227867507Y-94175347D01*
X227467507Y-94375347D02*
X227700841Y-93675347D01*
X227700841Y-93675347D02*
X227934174Y-94375347D01*
X228400841Y-94008680D02*
X228500841Y-94042014D01*
X228500841Y-94042014D02*
X228534174Y-94075347D01*
X228534174Y-94075347D02*
X228567507Y-94142014D01*
X228567507Y-94142014D02*
X228567507Y-94242014D01*
X228567507Y-94242014D02*
X228534174Y-94308680D01*
X228534174Y-94308680D02*
X228500841Y-94342014D01*
X228500841Y-94342014D02*
X228434174Y-94375347D01*
X228434174Y-94375347D02*
X228167507Y-94375347D01*
X228167507Y-94375347D02*
X228167507Y-93675347D01*
X228167507Y-93675347D02*
X228400841Y-93675347D01*
X228400841Y-93675347D02*
X228467507Y-93708680D01*
X228467507Y-93708680D02*
X228500841Y-93742014D01*
X228500841Y-93742014D02*
X228534174Y-93808680D01*
X228534174Y-93808680D02*
X228534174Y-93875347D01*
X228534174Y-93875347D02*
X228500841Y-93942014D01*
X228500841Y-93942014D02*
X228467507Y-93975347D01*
X228467507Y-93975347D02*
X228400841Y-94008680D01*
X228400841Y-94008680D02*
X228167507Y-94008680D01*
X229200841Y-94375347D02*
X228867507Y-94375347D01*
X228867507Y-94375347D02*
X228867507Y-93675347D01*
X229434174Y-94008680D02*
X229667508Y-94008680D01*
X229767508Y-94375347D02*
X229434174Y-94375347D01*
X229434174Y-94375347D02*
X229434174Y-93675347D01*
X229434174Y-93675347D02*
X229767508Y-93675347D01*
X219256808Y-70643548D02*
X219223474Y-70676881D01*
X219223474Y-70676881D02*
X219123474Y-70743548D01*
X219123474Y-70743548D02*
X219056808Y-70776881D01*
X219056808Y-70776881D02*
X218956808Y-70810215D01*
X218956808Y-70810215D02*
X218790141Y-70843548D01*
X218790141Y-70843548D02*
X218656808Y-70843548D01*
X218656808Y-70843548D02*
X218490141Y-70810215D01*
X218490141Y-70810215D02*
X218390141Y-70776881D01*
X218390141Y-70776881D02*
X218323474Y-70743548D01*
X218323474Y-70743548D02*
X218223474Y-70676881D01*
X218223474Y-70676881D02*
X218190141Y-70643548D01*
X218990141Y-70376881D02*
X218290141Y-70376881D01*
X218290141Y-70376881D02*
X218290141Y-70210214D01*
X218290141Y-70210214D02*
X218323474Y-70110214D01*
X218323474Y-70110214D02*
X218390141Y-70043548D01*
X218390141Y-70043548D02*
X218456808Y-70010214D01*
X218456808Y-70010214D02*
X218590141Y-69976881D01*
X218590141Y-69976881D02*
X218690141Y-69976881D01*
X218690141Y-69976881D02*
X218823474Y-70010214D01*
X218823474Y-70010214D02*
X218890141Y-70043548D01*
X218890141Y-70043548D02*
X218956808Y-70110214D01*
X218956808Y-70110214D02*
X218990141Y-70210214D01*
X218990141Y-70210214D02*
X218990141Y-70376881D01*
X218990141Y-69276881D02*
X218656808Y-69510214D01*
X218990141Y-69676881D02*
X218290141Y-69676881D01*
X218290141Y-69676881D02*
X218290141Y-69410214D01*
X218290141Y-69410214D02*
X218323474Y-69343548D01*
X218323474Y-69343548D02*
X218356808Y-69310214D01*
X218356808Y-69310214D02*
X218423474Y-69276881D01*
X218423474Y-69276881D02*
X218523474Y-69276881D01*
X218523474Y-69276881D02*
X218590141Y-69310214D01*
X218590141Y-69310214D02*
X218623474Y-69343548D01*
X218623474Y-69343548D02*
X218656808Y-69410214D01*
X218656808Y-69410214D02*
X218656808Y-69676881D01*
X218290141Y-69076881D02*
X218990141Y-68843548D01*
X218990141Y-68843548D02*
X218290141Y-68610214D01*
X218356808Y-68410214D02*
X218323474Y-68376881D01*
X218323474Y-68376881D02*
X218290141Y-68310214D01*
X218290141Y-68310214D02*
X218290141Y-68143548D01*
X218290141Y-68143548D02*
X218323474Y-68076881D01*
X218323474Y-68076881D02*
X218356808Y-68043548D01*
X218356808Y-68043548D02*
X218423474Y-68010214D01*
X218423474Y-68010214D02*
X218490141Y-68010214D01*
X218490141Y-68010214D02*
X218590141Y-68043548D01*
X218590141Y-68043548D02*
X218990141Y-68443548D01*
X218990141Y-68443548D02*
X218990141Y-68010214D01*
X218290141Y-67410214D02*
X218290141Y-67543547D01*
X218290141Y-67543547D02*
X218323474Y-67610214D01*
X218323474Y-67610214D02*
X218356808Y-67643547D01*
X218356808Y-67643547D02*
X218456808Y-67710214D01*
X218456808Y-67710214D02*
X218590141Y-67743547D01*
X218590141Y-67743547D02*
X218856808Y-67743547D01*
X218856808Y-67743547D02*
X218923474Y-67710214D01*
X218923474Y-67710214D02*
X218956808Y-67676881D01*
X218956808Y-67676881D02*
X218990141Y-67610214D01*
X218990141Y-67610214D02*
X218990141Y-67476881D01*
X218990141Y-67476881D02*
X218956808Y-67410214D01*
X218956808Y-67410214D02*
X218923474Y-67376881D01*
X218923474Y-67376881D02*
X218856808Y-67343547D01*
X218856808Y-67343547D02*
X218690141Y-67343547D01*
X218690141Y-67343547D02*
X218623474Y-67376881D01*
X218623474Y-67376881D02*
X218590141Y-67410214D01*
X218590141Y-67410214D02*
X218556808Y-67476881D01*
X218556808Y-67476881D02*
X218556808Y-67610214D01*
X218556808Y-67610214D02*
X218590141Y-67676881D01*
X218590141Y-67676881D02*
X218623474Y-67710214D01*
X218623474Y-67710214D02*
X218690141Y-67743547D01*
X218290141Y-66910214D02*
X218290141Y-66843547D01*
X218290141Y-66843547D02*
X218323474Y-66776880D01*
X218323474Y-66776880D02*
X218356808Y-66743547D01*
X218356808Y-66743547D02*
X218423474Y-66710214D01*
X218423474Y-66710214D02*
X218556808Y-66676880D01*
X218556808Y-66676880D02*
X218723474Y-66676880D01*
X218723474Y-66676880D02*
X218856808Y-66710214D01*
X218856808Y-66710214D02*
X218923474Y-66743547D01*
X218923474Y-66743547D02*
X218956808Y-66776880D01*
X218956808Y-66776880D02*
X218990141Y-66843547D01*
X218990141Y-66843547D02*
X218990141Y-66910214D01*
X218990141Y-66910214D02*
X218956808Y-66976880D01*
X218956808Y-66976880D02*
X218923474Y-67010214D01*
X218923474Y-67010214D02*
X218856808Y-67043547D01*
X218856808Y-67043547D02*
X218723474Y-67076880D01*
X218723474Y-67076880D02*
X218556808Y-67076880D01*
X218556808Y-67076880D02*
X218423474Y-67043547D01*
X218423474Y-67043547D02*
X218356808Y-67010214D01*
X218356808Y-67010214D02*
X218323474Y-66976880D01*
X218323474Y-66976880D02*
X218290141Y-66910214D01*
X218290141Y-66043547D02*
X218290141Y-66376880D01*
X218290141Y-66376880D02*
X218623474Y-66410213D01*
X218623474Y-66410213D02*
X218590141Y-66376880D01*
X218590141Y-66376880D02*
X218556808Y-66310213D01*
X218556808Y-66310213D02*
X218556808Y-66143547D01*
X218556808Y-66143547D02*
X218590141Y-66076880D01*
X218590141Y-66076880D02*
X218623474Y-66043547D01*
X218623474Y-66043547D02*
X218690141Y-66010213D01*
X218690141Y-66010213D02*
X218856808Y-66010213D01*
X218856808Y-66010213D02*
X218923474Y-66043547D01*
X218923474Y-66043547D02*
X218956808Y-66076880D01*
X218956808Y-66076880D02*
X218990141Y-66143547D01*
X218990141Y-66143547D02*
X218990141Y-66310213D01*
X218990141Y-66310213D02*
X218956808Y-66376880D01*
X218956808Y-66376880D02*
X218923474Y-66410213D01*
X218990141Y-65376880D02*
X218990141Y-65710213D01*
X218990141Y-65710213D02*
X218290141Y-65710213D01*
X219256808Y-65210213D02*
X219223474Y-65176879D01*
X219223474Y-65176879D02*
X219123474Y-65110213D01*
X219123474Y-65110213D02*
X219056808Y-65076879D01*
X219056808Y-65076879D02*
X218956808Y-65043546D01*
X218956808Y-65043546D02*
X218790141Y-65010213D01*
X218790141Y-65010213D02*
X218656808Y-65010213D01*
X218656808Y-65010213D02*
X218490141Y-65043546D01*
X218490141Y-65043546D02*
X218390141Y-65076879D01*
X218390141Y-65076879D02*
X218323474Y-65110213D01*
X218323474Y-65110213D02*
X218223474Y-65176879D01*
X218223474Y-65176879D02*
X218190141Y-65210213D01*
X230223537Y-64404738D02*
X229990204Y-64071405D01*
X229823537Y-64404738D02*
X229823537Y-63704738D01*
X229823537Y-63704738D02*
X230090204Y-63704738D01*
X230090204Y-63704738D02*
X230156871Y-63738071D01*
X230156871Y-63738071D02*
X230190204Y-63771405D01*
X230190204Y-63771405D02*
X230223537Y-63838071D01*
X230223537Y-63838071D02*
X230223537Y-63938071D01*
X230223537Y-63938071D02*
X230190204Y-64004738D01*
X230190204Y-64004738D02*
X230156871Y-64038071D01*
X230156871Y-64038071D02*
X230090204Y-64071405D01*
X230090204Y-64071405D02*
X229823537Y-64071405D01*
X230890204Y-64404738D02*
X230490204Y-64404738D01*
X230690204Y-64404738D02*
X230690204Y-63704738D01*
X230690204Y-63704738D02*
X230623537Y-63804738D01*
X230623537Y-63804738D02*
X230556871Y-63871405D01*
X230556871Y-63871405D02*
X230490204Y-63904738D01*
D11*
X134278509Y-121517720D02*
X134230889Y-121660577D01*
X134230889Y-121660577D02*
X134230889Y-121898672D01*
X134230889Y-121898672D02*
X134278509Y-121993910D01*
X134278509Y-121993910D02*
X134326128Y-122041529D01*
X134326128Y-122041529D02*
X134421366Y-122089148D01*
X134421366Y-122089148D02*
X134516604Y-122089148D01*
X134516604Y-122089148D02*
X134611842Y-122041529D01*
X134611842Y-122041529D02*
X134659461Y-121993910D01*
X134659461Y-121993910D02*
X134707080Y-121898672D01*
X134707080Y-121898672D02*
X134754699Y-121708196D01*
X134754699Y-121708196D02*
X134802318Y-121612958D01*
X134802318Y-121612958D02*
X134849937Y-121565339D01*
X134849937Y-121565339D02*
X134945175Y-121517720D01*
X134945175Y-121517720D02*
X135040413Y-121517720D01*
X135040413Y-121517720D02*
X135135651Y-121565339D01*
X135135651Y-121565339D02*
X135183270Y-121612958D01*
X135183270Y-121612958D02*
X135230889Y-121708196D01*
X135230889Y-121708196D02*
X135230889Y-121946291D01*
X135230889Y-121946291D02*
X135183270Y-122089148D01*
X134326128Y-123089148D02*
X134278509Y-123041529D01*
X134278509Y-123041529D02*
X134230889Y-122898672D01*
X134230889Y-122898672D02*
X134230889Y-122803434D01*
X134230889Y-122803434D02*
X134278509Y-122660577D01*
X134278509Y-122660577D02*
X134373747Y-122565339D01*
X134373747Y-122565339D02*
X134468985Y-122517720D01*
X134468985Y-122517720D02*
X134659461Y-122470101D01*
X134659461Y-122470101D02*
X134802318Y-122470101D01*
X134802318Y-122470101D02*
X134992794Y-122517720D01*
X134992794Y-122517720D02*
X135088032Y-122565339D01*
X135088032Y-122565339D02*
X135183270Y-122660577D01*
X135183270Y-122660577D02*
X135230889Y-122803434D01*
X135230889Y-122803434D02*
X135230889Y-122898672D01*
X135230889Y-122898672D02*
X135183270Y-123041529D01*
X135183270Y-123041529D02*
X135135651Y-123089148D01*
X134230889Y-123993910D02*
X134230889Y-123517720D01*
X134230889Y-123517720D02*
X135230889Y-123517720D01*
D10*
X224128533Y-80839252D02*
X223522316Y-80489252D01*
X223522316Y-80489252D02*
X224071995Y-80537179D01*
X224071995Y-80537179D02*
X223755649Y-80085106D01*
X223755649Y-80085106D02*
X224361867Y-80435106D01*
X223988982Y-79680961D02*
X224055649Y-79565491D01*
X224055649Y-79565491D02*
X224117850Y-79524423D01*
X224117850Y-79524423D02*
X224208918Y-79500021D01*
X224208918Y-79500021D02*
X224341055Y-79537820D01*
X224341055Y-79537820D02*
X224543128Y-79654487D01*
X224543128Y-79654487D02*
X224641931Y-79750021D01*
X224641931Y-79750021D02*
X224666333Y-79841090D01*
X224666333Y-79841090D02*
X224661867Y-79915491D01*
X224661867Y-79915491D02*
X224595200Y-80030961D01*
X224595200Y-80030961D02*
X224532999Y-80072030D01*
X224532999Y-80072030D02*
X224441931Y-80096431D01*
X224441931Y-80096431D02*
X224309794Y-80058632D01*
X224309794Y-80058632D02*
X224107722Y-79941966D01*
X224107722Y-79941966D02*
X224008918Y-79846431D01*
X224008918Y-79846431D02*
X223984517Y-79755363D01*
X223984517Y-79755363D02*
X223988982Y-79680961D01*
X209750131Y-64251808D02*
X209850131Y-64285141D01*
X209850131Y-64285141D02*
X210016798Y-64285141D01*
X210016798Y-64285141D02*
X210083464Y-64251808D01*
X210083464Y-64251808D02*
X210116798Y-64218474D01*
X210116798Y-64218474D02*
X210150131Y-64151808D01*
X210150131Y-64151808D02*
X210150131Y-64085141D01*
X210150131Y-64085141D02*
X210116798Y-64018474D01*
X210116798Y-64018474D02*
X210083464Y-63985141D01*
X210083464Y-63985141D02*
X210016798Y-63951808D01*
X210016798Y-63951808D02*
X209883464Y-63918474D01*
X209883464Y-63918474D02*
X209816798Y-63885141D01*
X209816798Y-63885141D02*
X209783464Y-63851808D01*
X209783464Y-63851808D02*
X209750131Y-63785141D01*
X209750131Y-63785141D02*
X209750131Y-63718474D01*
X209750131Y-63718474D02*
X209783464Y-63651808D01*
X209783464Y-63651808D02*
X209816798Y-63618474D01*
X209816798Y-63618474D02*
X209883464Y-63585141D01*
X209883464Y-63585141D02*
X210050131Y-63585141D01*
X210050131Y-63585141D02*
X210150131Y-63618474D01*
X210450131Y-64285141D02*
X210450131Y-63585141D01*
X210450131Y-63585141D02*
X210616798Y-63585141D01*
X210616798Y-63585141D02*
X210716798Y-63618474D01*
X210716798Y-63618474D02*
X210783465Y-63685141D01*
X210783465Y-63685141D02*
X210816798Y-63751808D01*
X210816798Y-63751808D02*
X210850131Y-63885141D01*
X210850131Y-63885141D02*
X210850131Y-63985141D01*
X210850131Y-63985141D02*
X210816798Y-64118474D01*
X210816798Y-64118474D02*
X210783465Y-64185141D01*
X210783465Y-64185141D02*
X210716798Y-64251808D01*
X210716798Y-64251808D02*
X210616798Y-64285141D01*
X210616798Y-64285141D02*
X210450131Y-64285141D01*
X211116798Y-64085141D02*
X211450131Y-64085141D01*
X211050131Y-64285141D02*
X211283465Y-63585141D01*
X211283465Y-63585141D02*
X211516798Y-64285141D01*
X221930129Y-66891798D02*
X222030129Y-66925131D01*
X222030129Y-66925131D02*
X222196796Y-66925131D01*
X222196796Y-66925131D02*
X222263462Y-66891798D01*
X222263462Y-66891798D02*
X222296796Y-66858464D01*
X222296796Y-66858464D02*
X222330129Y-66791798D01*
X222330129Y-66791798D02*
X222330129Y-66725131D01*
X222330129Y-66725131D02*
X222296796Y-66658464D01*
X222296796Y-66658464D02*
X222263462Y-66625131D01*
X222263462Y-66625131D02*
X222196796Y-66591798D01*
X222196796Y-66591798D02*
X222063462Y-66558464D01*
X222063462Y-66558464D02*
X221996796Y-66525131D01*
X221996796Y-66525131D02*
X221963462Y-66491798D01*
X221963462Y-66491798D02*
X221930129Y-66425131D01*
X221930129Y-66425131D02*
X221930129Y-66358464D01*
X221930129Y-66358464D02*
X221963462Y-66291798D01*
X221963462Y-66291798D02*
X221996796Y-66258464D01*
X221996796Y-66258464D02*
X222063462Y-66225131D01*
X222063462Y-66225131D02*
X222230129Y-66225131D01*
X222230129Y-66225131D02*
X222330129Y-66258464D01*
X223030129Y-66858464D02*
X222996796Y-66891798D01*
X222996796Y-66891798D02*
X222896796Y-66925131D01*
X222896796Y-66925131D02*
X222830129Y-66925131D01*
X222830129Y-66925131D02*
X222730129Y-66891798D01*
X222730129Y-66891798D02*
X222663463Y-66825131D01*
X222663463Y-66825131D02*
X222630129Y-66758464D01*
X222630129Y-66758464D02*
X222596796Y-66625131D01*
X222596796Y-66625131D02*
X222596796Y-66525131D01*
X222596796Y-66525131D02*
X222630129Y-66391798D01*
X222630129Y-66391798D02*
X222663463Y-66325131D01*
X222663463Y-66325131D02*
X222730129Y-66258464D01*
X222730129Y-66258464D02*
X222830129Y-66225131D01*
X222830129Y-66225131D02*
X222896796Y-66225131D01*
X222896796Y-66225131D02*
X222996796Y-66258464D01*
X222996796Y-66258464D02*
X223030129Y-66291798D01*
X223663463Y-66925131D02*
X223330129Y-66925131D01*
X223330129Y-66925131D02*
X223330129Y-66225131D01*
X222270131Y-68818464D02*
X222203464Y-68785131D01*
X222203464Y-68785131D02*
X222103464Y-68785131D01*
X222103464Y-68785131D02*
X222003464Y-68818464D01*
X222003464Y-68818464D02*
X221936798Y-68885131D01*
X221936798Y-68885131D02*
X221903464Y-68951798D01*
X221903464Y-68951798D02*
X221870131Y-69085131D01*
X221870131Y-69085131D02*
X221870131Y-69185131D01*
X221870131Y-69185131D02*
X221903464Y-69318464D01*
X221903464Y-69318464D02*
X221936798Y-69385131D01*
X221936798Y-69385131D02*
X222003464Y-69451798D01*
X222003464Y-69451798D02*
X222103464Y-69485131D01*
X222103464Y-69485131D02*
X222170131Y-69485131D01*
X222170131Y-69485131D02*
X222270131Y-69451798D01*
X222270131Y-69451798D02*
X222303464Y-69418464D01*
X222303464Y-69418464D02*
X222303464Y-69185131D01*
X222303464Y-69185131D02*
X222170131Y-69185131D01*
X222603464Y-69485131D02*
X222603464Y-68785131D01*
X222603464Y-68785131D02*
X223003464Y-69485131D01*
X223003464Y-69485131D02*
X223003464Y-68785131D01*
X223336797Y-69485131D02*
X223336797Y-68785131D01*
X223336797Y-68785131D02*
X223503464Y-68785131D01*
X223503464Y-68785131D02*
X223603464Y-68818464D01*
X223603464Y-68818464D02*
X223670131Y-68885131D01*
X223670131Y-68885131D02*
X223703464Y-68951798D01*
X223703464Y-68951798D02*
X223736797Y-69085131D01*
X223736797Y-69085131D02*
X223736797Y-69185131D01*
X223736797Y-69185131D02*
X223703464Y-69318464D01*
X223703464Y-69318464D02*
X223670131Y-69385131D01*
X223670131Y-69385131D02*
X223603464Y-69451798D01*
X223603464Y-69451798D02*
X223503464Y-69485131D01*
X223503464Y-69485131D02*
X223336797Y-69485131D01*
D11*
X153901882Y-116973483D02*
X152901882Y-117306816D01*
X152901882Y-117306816D02*
X153901882Y-117640149D01*
X152997121Y-118544911D02*
X152949502Y-118497292D01*
X152949502Y-118497292D02*
X152901882Y-118354435D01*
X152901882Y-118354435D02*
X152901882Y-118259197D01*
X152901882Y-118259197D02*
X152949502Y-118116340D01*
X152949502Y-118116340D02*
X153044740Y-118021102D01*
X153044740Y-118021102D02*
X153139978Y-117973483D01*
X153139978Y-117973483D02*
X153330454Y-117925864D01*
X153330454Y-117925864D02*
X153473311Y-117925864D01*
X153473311Y-117925864D02*
X153663787Y-117973483D01*
X153663787Y-117973483D02*
X153759025Y-118021102D01*
X153759025Y-118021102D02*
X153854263Y-118116340D01*
X153854263Y-118116340D02*
X153901882Y-118259197D01*
X153901882Y-118259197D02*
X153901882Y-118354435D01*
X153901882Y-118354435D02*
X153854263Y-118497292D01*
X153854263Y-118497292D02*
X153806644Y-118544911D01*
X152997121Y-119544911D02*
X152949502Y-119497292D01*
X152949502Y-119497292D02*
X152901882Y-119354435D01*
X152901882Y-119354435D02*
X152901882Y-119259197D01*
X152901882Y-119259197D02*
X152949502Y-119116340D01*
X152949502Y-119116340D02*
X153044740Y-119021102D01*
X153044740Y-119021102D02*
X153139978Y-118973483D01*
X153139978Y-118973483D02*
X153330454Y-118925864D01*
X153330454Y-118925864D02*
X153473311Y-118925864D01*
X153473311Y-118925864D02*
X153663787Y-118973483D01*
X153663787Y-118973483D02*
X153759025Y-119021102D01*
X153759025Y-119021102D02*
X153854263Y-119116340D01*
X153854263Y-119116340D02*
X153901882Y-119259197D01*
X153901882Y-119259197D02*
X153901882Y-119354435D01*
X153901882Y-119354435D02*
X153854263Y-119497292D01*
X153854263Y-119497292D02*
X153806644Y-119544911D01*
D10*
X210863461Y-79518472D02*
X210830128Y-79551806D01*
X210830128Y-79551806D02*
X210730128Y-79585139D01*
X210730128Y-79585139D02*
X210663461Y-79585139D01*
X210663461Y-79585139D02*
X210563461Y-79551806D01*
X210563461Y-79551806D02*
X210496795Y-79485139D01*
X210496795Y-79485139D02*
X210463461Y-79418472D01*
X210463461Y-79418472D02*
X210430128Y-79285139D01*
X210430128Y-79285139D02*
X210430128Y-79185139D01*
X210430128Y-79185139D02*
X210463461Y-79051806D01*
X210463461Y-79051806D02*
X210496795Y-78985139D01*
X210496795Y-78985139D02*
X210563461Y-78918472D01*
X210563461Y-78918472D02*
X210663461Y-78885139D01*
X210663461Y-78885139D02*
X210730128Y-78885139D01*
X210730128Y-78885139D02*
X210830128Y-78918472D01*
X210830128Y-78918472D02*
X210863461Y-78951806D01*
X211130128Y-78951806D02*
X211163461Y-78918472D01*
X211163461Y-78918472D02*
X211230128Y-78885139D01*
X211230128Y-78885139D02*
X211396795Y-78885139D01*
X211396795Y-78885139D02*
X211463461Y-78918472D01*
X211463461Y-78918472D02*
X211496795Y-78951806D01*
X211496795Y-78951806D02*
X211530128Y-79018472D01*
X211530128Y-79018472D02*
X211530128Y-79085139D01*
X211530128Y-79085139D02*
X211496795Y-79185139D01*
X211496795Y-79185139D02*
X211096795Y-79585139D01*
X211096795Y-79585139D02*
X211530128Y-79585139D01*
X210813461Y-71798465D02*
X210780128Y-71831799D01*
X210780128Y-71831799D02*
X210680128Y-71865132D01*
X210680128Y-71865132D02*
X210613461Y-71865132D01*
X210613461Y-71865132D02*
X210513461Y-71831799D01*
X210513461Y-71831799D02*
X210446795Y-71765132D01*
X210446795Y-71765132D02*
X210413461Y-71698465D01*
X210413461Y-71698465D02*
X210380128Y-71565132D01*
X210380128Y-71565132D02*
X210380128Y-71465132D01*
X210380128Y-71465132D02*
X210413461Y-71331799D01*
X210413461Y-71331799D02*
X210446795Y-71265132D01*
X210446795Y-71265132D02*
X210513461Y-71198465D01*
X210513461Y-71198465D02*
X210613461Y-71165132D01*
X210613461Y-71165132D02*
X210680128Y-71165132D01*
X210680128Y-71165132D02*
X210780128Y-71198465D01*
X210780128Y-71198465D02*
X210813461Y-71231799D01*
X211446795Y-71165132D02*
X211113461Y-71165132D01*
X211113461Y-71165132D02*
X211080128Y-71498465D01*
X211080128Y-71498465D02*
X211113461Y-71465132D01*
X211113461Y-71465132D02*
X211180128Y-71431799D01*
X211180128Y-71431799D02*
X211346795Y-71431799D01*
X211346795Y-71431799D02*
X211413461Y-71465132D01*
X211413461Y-71465132D02*
X211446795Y-71498465D01*
X211446795Y-71498465D02*
X211480128Y-71565132D01*
X211480128Y-71565132D02*
X211480128Y-71731799D01*
X211480128Y-71731799D02*
X211446795Y-71798465D01*
X211446795Y-71798465D02*
X211413461Y-71831799D01*
X211413461Y-71831799D02*
X211346795Y-71865132D01*
X211346795Y-71865132D02*
X211180128Y-71865132D01*
X211180128Y-71865132D02*
X211113461Y-71831799D01*
X211113461Y-71831799D02*
X211080128Y-71798465D01*
X221533005Y-80851462D02*
X221611873Y-80781526D01*
X221611873Y-80781526D02*
X221695206Y-80637188D01*
X221695206Y-80637188D02*
X221699672Y-80562786D01*
X221699672Y-80562786D02*
X221687471Y-80517252D01*
X221687471Y-80517252D02*
X221646403Y-80455051D01*
X221646403Y-80455051D02*
X221588668Y-80421718D01*
X221588668Y-80421718D02*
X221514266Y-80417252D01*
X221514266Y-80417252D02*
X221468732Y-80429453D01*
X221468732Y-80429453D02*
X221406531Y-80470521D01*
X221406531Y-80470521D02*
X221310997Y-80569325D01*
X221310997Y-80569325D02*
X221248796Y-80610393D01*
X221248796Y-80610393D02*
X221203262Y-80622594D01*
X221203262Y-80622594D02*
X221128860Y-80618128D01*
X221128860Y-80618128D02*
X221071125Y-80584795D01*
X221071125Y-80584795D02*
X221030057Y-80522594D01*
X221030057Y-80522594D02*
X221017856Y-80477060D01*
X221017856Y-80477060D02*
X221022322Y-80402658D01*
X221022322Y-80402658D02*
X221105655Y-80258321D01*
X221105655Y-80258321D02*
X221184523Y-80188385D01*
X222054138Y-79882167D02*
X222066339Y-79927701D01*
X222066339Y-79927701D02*
X222045206Y-80030970D01*
X222045206Y-80030970D02*
X222011873Y-80088705D01*
X222011873Y-80088705D02*
X221933005Y-80158641D01*
X221933005Y-80158641D02*
X221841937Y-80183043D01*
X221841937Y-80183043D02*
X221767535Y-80178577D01*
X221767535Y-80178577D02*
X221635399Y-80140778D01*
X221635399Y-80140778D02*
X221548796Y-80090778D01*
X221548796Y-80090778D02*
X221449993Y-79995243D01*
X221449993Y-79995243D02*
X221408924Y-79933043D01*
X221408924Y-79933043D02*
X221384523Y-79841974D01*
X221384523Y-79841974D02*
X221405655Y-79738705D01*
X221405655Y-79738705D02*
X221438989Y-79680970D01*
X221438989Y-79680970D02*
X221517856Y-79611034D01*
X221517856Y-79611034D02*
X221563390Y-79598833D01*
X222261873Y-79655692D02*
X221655655Y-79305692D01*
X222461873Y-79309282D02*
X221965463Y-79369090D01*
X221855655Y-78959282D02*
X222002065Y-79505692D01*
X222006798Y-71325135D02*
X222440131Y-71325135D01*
X222440131Y-71325135D02*
X222206798Y-71591802D01*
X222206798Y-71591802D02*
X222306798Y-71591802D01*
X222306798Y-71591802D02*
X222373464Y-71625135D01*
X222373464Y-71625135D02*
X222406798Y-71658468D01*
X222406798Y-71658468D02*
X222440131Y-71725135D01*
X222440131Y-71725135D02*
X222440131Y-71891802D01*
X222440131Y-71891802D02*
X222406798Y-71958468D01*
X222406798Y-71958468D02*
X222373464Y-71991802D01*
X222373464Y-71991802D02*
X222306798Y-72025135D01*
X222306798Y-72025135D02*
X222106798Y-72025135D01*
X222106798Y-72025135D02*
X222040131Y-71991802D01*
X222040131Y-71991802D02*
X222006798Y-71958468D01*
X222640131Y-71325135D02*
X222873465Y-72025135D01*
X222873465Y-72025135D02*
X223106798Y-71325135D01*
X210813457Y-69378468D02*
X210780124Y-69411802D01*
X210780124Y-69411802D02*
X210680124Y-69445135D01*
X210680124Y-69445135D02*
X210613457Y-69445135D01*
X210613457Y-69445135D02*
X210513457Y-69411802D01*
X210513457Y-69411802D02*
X210446791Y-69345135D01*
X210446791Y-69345135D02*
X210413457Y-69278468D01*
X210413457Y-69278468D02*
X210380124Y-69145135D01*
X210380124Y-69145135D02*
X210380124Y-69045135D01*
X210380124Y-69045135D02*
X210413457Y-68911802D01*
X210413457Y-68911802D02*
X210446791Y-68845135D01*
X210446791Y-68845135D02*
X210513457Y-68778468D01*
X210513457Y-68778468D02*
X210613457Y-68745135D01*
X210613457Y-68745135D02*
X210680124Y-68745135D01*
X210680124Y-68745135D02*
X210780124Y-68778468D01*
X210780124Y-68778468D02*
X210813457Y-68811802D01*
X211413457Y-68745135D02*
X211280124Y-68745135D01*
X211280124Y-68745135D02*
X211213457Y-68778468D01*
X211213457Y-68778468D02*
X211180124Y-68811802D01*
X211180124Y-68811802D02*
X211113457Y-68911802D01*
X211113457Y-68911802D02*
X211080124Y-69045135D01*
X211080124Y-69045135D02*
X211080124Y-69311802D01*
X211080124Y-69311802D02*
X211113457Y-69378468D01*
X211113457Y-69378468D02*
X211146791Y-69411802D01*
X211146791Y-69411802D02*
X211213457Y-69445135D01*
X211213457Y-69445135D02*
X211346791Y-69445135D01*
X211346791Y-69445135D02*
X211413457Y-69411802D01*
X211413457Y-69411802D02*
X211446791Y-69378468D01*
X211446791Y-69378468D02*
X211480124Y-69311802D01*
X211480124Y-69311802D02*
X211480124Y-69145135D01*
X211480124Y-69145135D02*
X211446791Y-69078468D01*
X211446791Y-69078468D02*
X211413457Y-69045135D01*
X211413457Y-69045135D02*
X211346791Y-69011802D01*
X211346791Y-69011802D02*
X211213457Y-69011802D01*
X211213457Y-69011802D02*
X211146791Y-69045135D01*
X211146791Y-69045135D02*
X211113457Y-69078468D01*
X211113457Y-69078468D02*
X211080124Y-69145135D01*
X210863468Y-81908468D02*
X210830135Y-81941802D01*
X210830135Y-81941802D02*
X210730135Y-81975135D01*
X210730135Y-81975135D02*
X210663468Y-81975135D01*
X210663468Y-81975135D02*
X210563468Y-81941802D01*
X210563468Y-81941802D02*
X210496802Y-81875135D01*
X210496802Y-81875135D02*
X210463468Y-81808468D01*
X210463468Y-81808468D02*
X210430135Y-81675135D01*
X210430135Y-81675135D02*
X210430135Y-81575135D01*
X210430135Y-81575135D02*
X210463468Y-81441802D01*
X210463468Y-81441802D02*
X210496802Y-81375135D01*
X210496802Y-81375135D02*
X210563468Y-81308468D01*
X210563468Y-81308468D02*
X210663468Y-81275135D01*
X210663468Y-81275135D02*
X210730135Y-81275135D01*
X210730135Y-81275135D02*
X210830135Y-81308468D01*
X210830135Y-81308468D02*
X210863468Y-81341802D01*
X211530135Y-81975135D02*
X211130135Y-81975135D01*
X211330135Y-81975135D02*
X211330135Y-81275135D01*
X211330135Y-81275135D02*
X211263468Y-81375135D01*
X211263468Y-81375135D02*
X211196802Y-81441802D01*
X211196802Y-81441802D02*
X211130135Y-81475135D01*
X210883462Y-56688466D02*
X210850129Y-56721800D01*
X210850129Y-56721800D02*
X210750129Y-56755133D01*
X210750129Y-56755133D02*
X210683462Y-56755133D01*
X210683462Y-56755133D02*
X210583462Y-56721800D01*
X210583462Y-56721800D02*
X210516796Y-56655133D01*
X210516796Y-56655133D02*
X210483462Y-56588466D01*
X210483462Y-56588466D02*
X210450129Y-56455133D01*
X210450129Y-56455133D02*
X210450129Y-56355133D01*
X210450129Y-56355133D02*
X210483462Y-56221800D01*
X210483462Y-56221800D02*
X210516796Y-56155133D01*
X210516796Y-56155133D02*
X210583462Y-56088466D01*
X210583462Y-56088466D02*
X210683462Y-56055133D01*
X210683462Y-56055133D02*
X210750129Y-56055133D01*
X210750129Y-56055133D02*
X210850129Y-56088466D01*
X210850129Y-56088466D02*
X210883462Y-56121800D01*
X211116796Y-56055133D02*
X211583462Y-56055133D01*
X211583462Y-56055133D02*
X211283462Y-56755133D01*
D11*
X134331512Y-116903722D02*
X134283892Y-117046579D01*
X134283892Y-117046579D02*
X134283892Y-117284674D01*
X134283892Y-117284674D02*
X134331512Y-117379912D01*
X134331512Y-117379912D02*
X134379131Y-117427531D01*
X134379131Y-117427531D02*
X134474369Y-117475150D01*
X134474369Y-117475150D02*
X134569607Y-117475150D01*
X134569607Y-117475150D02*
X134664845Y-117427531D01*
X134664845Y-117427531D02*
X134712464Y-117379912D01*
X134712464Y-117379912D02*
X134760083Y-117284674D01*
X134760083Y-117284674D02*
X134807702Y-117094198D01*
X134807702Y-117094198D02*
X134855321Y-116998960D01*
X134855321Y-116998960D02*
X134902940Y-116951341D01*
X134902940Y-116951341D02*
X134998178Y-116903722D01*
X134998178Y-116903722D02*
X135093416Y-116903722D01*
X135093416Y-116903722D02*
X135188654Y-116951341D01*
X135188654Y-116951341D02*
X135236273Y-116998960D01*
X135236273Y-116998960D02*
X135283892Y-117094198D01*
X135283892Y-117094198D02*
X135283892Y-117332293D01*
X135283892Y-117332293D02*
X135236273Y-117475150D01*
X134283892Y-117903722D02*
X135283892Y-117903722D01*
X135283892Y-117903722D02*
X135283892Y-118141817D01*
X135283892Y-118141817D02*
X135236273Y-118284674D01*
X135236273Y-118284674D02*
X135141035Y-118379912D01*
X135141035Y-118379912D02*
X135045797Y-118427531D01*
X135045797Y-118427531D02*
X134855321Y-118475150D01*
X134855321Y-118475150D02*
X134712464Y-118475150D01*
X134712464Y-118475150D02*
X134521988Y-118427531D01*
X134521988Y-118427531D02*
X134426750Y-118379912D01*
X134426750Y-118379912D02*
X134331512Y-118284674D01*
X134331512Y-118284674D02*
X134283892Y-118141817D01*
X134283892Y-118141817D02*
X134283892Y-117903722D01*
X134569607Y-118856103D02*
X134569607Y-119332293D01*
X134283892Y-118760865D02*
X135283892Y-119094198D01*
X135283892Y-119094198D02*
X134283892Y-119427531D01*
D10*
X210060132Y-61108477D02*
X209993465Y-61075144D01*
X209993465Y-61075144D02*
X209893465Y-61075144D01*
X209893465Y-61075144D02*
X209793465Y-61108477D01*
X209793465Y-61108477D02*
X209726799Y-61175144D01*
X209726799Y-61175144D02*
X209693465Y-61241811D01*
X209693465Y-61241811D02*
X209660132Y-61375144D01*
X209660132Y-61375144D02*
X209660132Y-61475144D01*
X209660132Y-61475144D02*
X209693465Y-61608477D01*
X209693465Y-61608477D02*
X209726799Y-61675144D01*
X209726799Y-61675144D02*
X209793465Y-61741811D01*
X209793465Y-61741811D02*
X209893465Y-61775144D01*
X209893465Y-61775144D02*
X209960132Y-61775144D01*
X209960132Y-61775144D02*
X210060132Y-61741811D01*
X210060132Y-61741811D02*
X210093465Y-61708477D01*
X210093465Y-61708477D02*
X210093465Y-61475144D01*
X210093465Y-61475144D02*
X209960132Y-61475144D01*
X210393465Y-61775144D02*
X210393465Y-61075144D01*
X210393465Y-61075144D02*
X210793465Y-61775144D01*
X210793465Y-61775144D02*
X210793465Y-61075144D01*
X211126798Y-61775144D02*
X211126798Y-61075144D01*
X211126798Y-61075144D02*
X211293465Y-61075144D01*
X211293465Y-61075144D02*
X211393465Y-61108477D01*
X211393465Y-61108477D02*
X211460132Y-61175144D01*
X211460132Y-61175144D02*
X211493465Y-61241811D01*
X211493465Y-61241811D02*
X211526798Y-61375144D01*
X211526798Y-61375144D02*
X211526798Y-61475144D01*
X211526798Y-61475144D02*
X211493465Y-61608477D01*
X211493465Y-61608477D02*
X211460132Y-61675144D01*
X211460132Y-61675144D02*
X211393465Y-61741811D01*
X211393465Y-61741811D02*
X211293465Y-61775144D01*
X211293465Y-61775144D02*
X211126798Y-61775144D01*
X216728535Y-80919257D02*
X216122318Y-80569257D01*
X216122318Y-80569257D02*
X216671997Y-80617184D01*
X216671997Y-80617184D02*
X216355651Y-80165111D01*
X216355651Y-80165111D02*
X216961869Y-80515111D01*
X217128535Y-80226436D02*
X216522318Y-79876436D01*
X75260215Y-125537276D02*
X75260215Y-125137276D01*
X75960215Y-125337276D02*
X75260215Y-125337276D01*
X75260215Y-124770610D02*
X75260215Y-124637276D01*
X75260215Y-124637276D02*
X75293548Y-124570610D01*
X75293548Y-124570610D02*
X75360215Y-124503943D01*
X75360215Y-124503943D02*
X75493548Y-124470610D01*
X75493548Y-124470610D02*
X75726882Y-124470610D01*
X75726882Y-124470610D02*
X75860215Y-124503943D01*
X75860215Y-124503943D02*
X75926882Y-124570610D01*
X75926882Y-124570610D02*
X75960215Y-124637276D01*
X75960215Y-124637276D02*
X75960215Y-124770610D01*
X75960215Y-124770610D02*
X75926882Y-124837276D01*
X75926882Y-124837276D02*
X75860215Y-124903943D01*
X75860215Y-124903943D02*
X75726882Y-124937276D01*
X75726882Y-124937276D02*
X75493548Y-124937276D01*
X75493548Y-124937276D02*
X75360215Y-124903943D01*
X75360215Y-124903943D02*
X75293548Y-124837276D01*
X75293548Y-124837276D02*
X75260215Y-124770610D01*
X75593548Y-123403944D02*
X75626882Y-123303944D01*
X75626882Y-123303944D02*
X75660215Y-123270610D01*
X75660215Y-123270610D02*
X75726882Y-123237277D01*
X75726882Y-123237277D02*
X75826882Y-123237277D01*
X75826882Y-123237277D02*
X75893548Y-123270610D01*
X75893548Y-123270610D02*
X75926882Y-123303944D01*
X75926882Y-123303944D02*
X75960215Y-123370610D01*
X75960215Y-123370610D02*
X75960215Y-123637277D01*
X75960215Y-123637277D02*
X75260215Y-123637277D01*
X75260215Y-123637277D02*
X75260215Y-123403944D01*
X75260215Y-123403944D02*
X75293548Y-123337277D01*
X75293548Y-123337277D02*
X75326882Y-123303944D01*
X75326882Y-123303944D02*
X75393548Y-123270610D01*
X75393548Y-123270610D02*
X75460215Y-123270610D01*
X75460215Y-123270610D02*
X75526882Y-123303944D01*
X75526882Y-123303944D02*
X75560215Y-123337277D01*
X75560215Y-123337277D02*
X75593548Y-123403944D01*
X75593548Y-123403944D02*
X75593548Y-123637277D01*
X75260215Y-122803944D02*
X75260215Y-122670610D01*
X75260215Y-122670610D02*
X75293548Y-122603944D01*
X75293548Y-122603944D02*
X75360215Y-122537277D01*
X75360215Y-122537277D02*
X75493548Y-122503944D01*
X75493548Y-122503944D02*
X75726882Y-122503944D01*
X75726882Y-122503944D02*
X75860215Y-122537277D01*
X75860215Y-122537277D02*
X75926882Y-122603944D01*
X75926882Y-122603944D02*
X75960215Y-122670610D01*
X75960215Y-122670610D02*
X75960215Y-122803944D01*
X75960215Y-122803944D02*
X75926882Y-122870610D01*
X75926882Y-122870610D02*
X75860215Y-122937277D01*
X75860215Y-122937277D02*
X75726882Y-122970610D01*
X75726882Y-122970610D02*
X75493548Y-122970610D01*
X75493548Y-122970610D02*
X75360215Y-122937277D01*
X75360215Y-122937277D02*
X75293548Y-122870610D01*
X75293548Y-122870610D02*
X75260215Y-122803944D01*
X75260215Y-122303944D02*
X75260215Y-121903944D01*
X75960215Y-122103944D02*
X75260215Y-122103944D01*
X75260215Y-121770611D02*
X75260215Y-121370611D01*
X75960215Y-121570611D02*
X75260215Y-121570611D01*
X75260215Y-121003945D02*
X75260215Y-120870611D01*
X75260215Y-120870611D02*
X75293548Y-120803945D01*
X75293548Y-120803945D02*
X75360215Y-120737278D01*
X75360215Y-120737278D02*
X75493548Y-120703945D01*
X75493548Y-120703945D02*
X75726882Y-120703945D01*
X75726882Y-120703945D02*
X75860215Y-120737278D01*
X75860215Y-120737278D02*
X75926882Y-120803945D01*
X75926882Y-120803945D02*
X75960215Y-120870611D01*
X75960215Y-120870611D02*
X75960215Y-121003945D01*
X75960215Y-121003945D02*
X75926882Y-121070611D01*
X75926882Y-121070611D02*
X75860215Y-121137278D01*
X75860215Y-121137278D02*
X75726882Y-121170611D01*
X75726882Y-121170611D02*
X75493548Y-121170611D01*
X75493548Y-121170611D02*
X75360215Y-121137278D01*
X75360215Y-121137278D02*
X75293548Y-121070611D01*
X75293548Y-121070611D02*
X75260215Y-121003945D01*
X75960215Y-120403945D02*
X75260215Y-120403945D01*
X75260215Y-120403945D02*
X75760215Y-120170612D01*
X75760215Y-120170612D02*
X75260215Y-119937278D01*
X75260215Y-119937278D02*
X75960215Y-119937278D01*
X75960215Y-119070612D02*
X75260215Y-119070612D01*
X75593548Y-119070612D02*
X75593548Y-118670612D01*
X75960215Y-118670612D02*
X75260215Y-118670612D01*
X75760215Y-118370612D02*
X75760215Y-118037279D01*
X75960215Y-118437279D02*
X75260215Y-118203946D01*
X75260215Y-118203946D02*
X75960215Y-117970612D01*
X75960215Y-117403946D02*
X75960215Y-117737279D01*
X75960215Y-117737279D02*
X75260215Y-117737279D01*
X75593548Y-116937279D02*
X75593548Y-117170612D01*
X75960215Y-117170612D02*
X75260215Y-117170612D01*
X75260215Y-117170612D02*
X75260215Y-116837279D01*
X210080127Y-58498468D02*
X210013460Y-58465135D01*
X210013460Y-58465135D02*
X209913460Y-58465135D01*
X209913460Y-58465135D02*
X209813460Y-58498468D01*
X209813460Y-58498468D02*
X209746794Y-58565135D01*
X209746794Y-58565135D02*
X209713460Y-58631802D01*
X209713460Y-58631802D02*
X209680127Y-58765135D01*
X209680127Y-58765135D02*
X209680127Y-58865135D01*
X209680127Y-58865135D02*
X209713460Y-58998468D01*
X209713460Y-58998468D02*
X209746794Y-59065135D01*
X209746794Y-59065135D02*
X209813460Y-59131802D01*
X209813460Y-59131802D02*
X209913460Y-59165135D01*
X209913460Y-59165135D02*
X209980127Y-59165135D01*
X209980127Y-59165135D02*
X210080127Y-59131802D01*
X210080127Y-59131802D02*
X210113460Y-59098468D01*
X210113460Y-59098468D02*
X210113460Y-58865135D01*
X210113460Y-58865135D02*
X209980127Y-58865135D01*
X210413460Y-59165135D02*
X210413460Y-58465135D01*
X210413460Y-58465135D02*
X210813460Y-59165135D01*
X210813460Y-59165135D02*
X210813460Y-58465135D01*
X211146793Y-59165135D02*
X211146793Y-58465135D01*
X211146793Y-58465135D02*
X211313460Y-58465135D01*
X211313460Y-58465135D02*
X211413460Y-58498468D01*
X211413460Y-58498468D02*
X211480127Y-58565135D01*
X211480127Y-58565135D02*
X211513460Y-58631802D01*
X211513460Y-58631802D02*
X211546793Y-58765135D01*
X211546793Y-58765135D02*
X211546793Y-58865135D01*
X211546793Y-58865135D02*
X211513460Y-58998468D01*
X211513460Y-58998468D02*
X211480127Y-59065135D01*
X211480127Y-59065135D02*
X211413460Y-59131802D01*
X211413460Y-59131802D02*
X211313460Y-59165135D01*
X211313460Y-59165135D02*
X211146793Y-59165135D01*
D11*
X169812890Y-113445092D02*
X169812890Y-114064139D01*
X169812890Y-114064139D02*
X169431938Y-113730806D01*
X169431938Y-113730806D02*
X169431938Y-113873663D01*
X169431938Y-113873663D02*
X169384319Y-113968901D01*
X169384319Y-113968901D02*
X169336700Y-114016520D01*
X169336700Y-114016520D02*
X169241462Y-114064139D01*
X169241462Y-114064139D02*
X169003367Y-114064139D01*
X169003367Y-114064139D02*
X168908129Y-114016520D01*
X168908129Y-114016520D02*
X168860510Y-113968901D01*
X168860510Y-113968901D02*
X168812890Y-113873663D01*
X168812890Y-113873663D02*
X168812890Y-113587949D01*
X168812890Y-113587949D02*
X168860510Y-113492711D01*
X168860510Y-113492711D02*
X168908129Y-113445092D01*
X168908129Y-114492711D02*
X168860510Y-114540330D01*
X168860510Y-114540330D02*
X168812890Y-114492711D01*
X168812890Y-114492711D02*
X168860510Y-114445092D01*
X168860510Y-114445092D02*
X168908129Y-114492711D01*
X168908129Y-114492711D02*
X168812890Y-114492711D01*
X169812890Y-114873663D02*
X169812890Y-115492710D01*
X169812890Y-115492710D02*
X169431938Y-115159377D01*
X169431938Y-115159377D02*
X169431938Y-115302234D01*
X169431938Y-115302234D02*
X169384319Y-115397472D01*
X169384319Y-115397472D02*
X169336700Y-115445091D01*
X169336700Y-115445091D02*
X169241462Y-115492710D01*
X169241462Y-115492710D02*
X169003367Y-115492710D01*
X169003367Y-115492710D02*
X168908129Y-115445091D01*
X168908129Y-115445091D02*
X168860510Y-115397472D01*
X168860510Y-115397472D02*
X168812890Y-115302234D01*
X168812890Y-115302234D02*
X168812890Y-115016520D01*
X168812890Y-115016520D02*
X168860510Y-114921282D01*
X168860510Y-114921282D02*
X168908129Y-114873663D01*
X169812890Y-115778425D02*
X168812890Y-116111758D01*
X168812890Y-116111758D02*
X169812890Y-116445091D01*
X220216028Y-83375124D02*
X220835075Y-83375124D01*
X220835075Y-83375124D02*
X220501742Y-83756076D01*
X220501742Y-83756076D02*
X220644599Y-83756076D01*
X220644599Y-83756076D02*
X220739837Y-83803695D01*
X220739837Y-83803695D02*
X220787456Y-83851314D01*
X220787456Y-83851314D02*
X220835075Y-83946552D01*
X220835075Y-83946552D02*
X220835075Y-84184647D01*
X220835075Y-84184647D02*
X220787456Y-84279885D01*
X220787456Y-84279885D02*
X220739837Y-84327505D01*
X220739837Y-84327505D02*
X220644599Y-84375124D01*
X220644599Y-84375124D02*
X220358885Y-84375124D01*
X220358885Y-84375124D02*
X220263647Y-84327505D01*
X220263647Y-84327505D02*
X220216028Y-84279885D01*
X221216028Y-83470362D02*
X221263647Y-83422743D01*
X221263647Y-83422743D02*
X221358885Y-83375124D01*
X221358885Y-83375124D02*
X221596980Y-83375124D01*
X221596980Y-83375124D02*
X221692218Y-83422743D01*
X221692218Y-83422743D02*
X221739837Y-83470362D01*
X221739837Y-83470362D02*
X221787456Y-83565600D01*
X221787456Y-83565600D02*
X221787456Y-83660838D01*
X221787456Y-83660838D02*
X221739837Y-83803695D01*
X221739837Y-83803695D02*
X221168409Y-84375124D01*
X221168409Y-84375124D02*
X221787456Y-84375124D01*
X222120790Y-84375124D02*
X222644599Y-83708457D01*
X222120790Y-83708457D02*
X222644599Y-84375124D01*
X223549361Y-84375124D02*
X222977933Y-84375124D01*
X223263647Y-84375124D02*
X223263647Y-83375124D01*
X223263647Y-83375124D02*
X223168409Y-83517981D01*
X223168409Y-83517981D02*
X223073171Y-83613219D01*
X223073171Y-83613219D02*
X222977933Y-83660838D01*
X223930314Y-83470362D02*
X223977933Y-83422743D01*
X223977933Y-83422743D02*
X224073171Y-83375124D01*
X224073171Y-83375124D02*
X224311266Y-83375124D01*
X224311266Y-83375124D02*
X224406504Y-83422743D01*
X224406504Y-83422743D02*
X224454123Y-83470362D01*
X224454123Y-83470362D02*
X224501742Y-83565600D01*
X224501742Y-83565600D02*
X224501742Y-83660838D01*
X224501742Y-83660838D02*
X224454123Y-83803695D01*
X224454123Y-83803695D02*
X223882695Y-84375124D01*
X223882695Y-84375124D02*
X224501742Y-84375124D01*
X225073171Y-83803695D02*
X224977933Y-83756076D01*
X224977933Y-83756076D02*
X224930314Y-83708457D01*
X224930314Y-83708457D02*
X224882695Y-83613219D01*
X224882695Y-83613219D02*
X224882695Y-83565600D01*
X224882695Y-83565600D02*
X224930314Y-83470362D01*
X224930314Y-83470362D02*
X224977933Y-83422743D01*
X224977933Y-83422743D02*
X225073171Y-83375124D01*
X225073171Y-83375124D02*
X225263647Y-83375124D01*
X225263647Y-83375124D02*
X225358885Y-83422743D01*
X225358885Y-83422743D02*
X225406504Y-83470362D01*
X225406504Y-83470362D02*
X225454123Y-83565600D01*
X225454123Y-83565600D02*
X225454123Y-83613219D01*
X225454123Y-83613219D02*
X225406504Y-83708457D01*
X225406504Y-83708457D02*
X225358885Y-83756076D01*
X225358885Y-83756076D02*
X225263647Y-83803695D01*
X225263647Y-83803695D02*
X225073171Y-83803695D01*
X225073171Y-83803695D02*
X224977933Y-83851314D01*
X224977933Y-83851314D02*
X224930314Y-83898933D01*
X224930314Y-83898933D02*
X224882695Y-83994171D01*
X224882695Y-83994171D02*
X224882695Y-84184647D01*
X224882695Y-84184647D02*
X224930314Y-84279885D01*
X224930314Y-84279885D02*
X224977933Y-84327505D01*
X224977933Y-84327505D02*
X225073171Y-84375124D01*
X225073171Y-84375124D02*
X225263647Y-84375124D01*
X225263647Y-84375124D02*
X225358885Y-84327505D01*
X225358885Y-84327505D02*
X225406504Y-84279885D01*
X225406504Y-84279885D02*
X225454123Y-84184647D01*
X225454123Y-84184647D02*
X225454123Y-83994171D01*
X225454123Y-83994171D02*
X225406504Y-83898933D01*
X225406504Y-83898933D02*
X225358885Y-83851314D01*
X225358885Y-83851314D02*
X225263647Y-83803695D01*
D10*
X229903535Y-76638068D02*
X230136869Y-76638068D01*
X230236869Y-77004735D02*
X229903535Y-77004735D01*
X229903535Y-77004735D02*
X229903535Y-76304735D01*
X229903535Y-76304735D02*
X230236869Y-76304735D01*
X230503535Y-76371402D02*
X230536868Y-76338068D01*
X230536868Y-76338068D02*
X230603535Y-76304735D01*
X230603535Y-76304735D02*
X230770202Y-76304735D01*
X230770202Y-76304735D02*
X230836868Y-76338068D01*
X230836868Y-76338068D02*
X230870202Y-76371402D01*
X230870202Y-76371402D02*
X230903535Y-76438068D01*
X230903535Y-76438068D02*
X230903535Y-76504735D01*
X230903535Y-76504735D02*
X230870202Y-76604735D01*
X230870202Y-76604735D02*
X230470202Y-77004735D01*
X230470202Y-77004735D02*
X230903535Y-77004735D01*
D11*
X153799275Y-122010156D02*
X153846894Y-121914918D01*
X153846894Y-121914918D02*
X153846894Y-121772061D01*
X153846894Y-121772061D02*
X153799275Y-121629204D01*
X153799275Y-121629204D02*
X153704037Y-121533966D01*
X153704037Y-121533966D02*
X153608799Y-121486347D01*
X153608799Y-121486347D02*
X153418323Y-121438728D01*
X153418323Y-121438728D02*
X153275466Y-121438728D01*
X153275466Y-121438728D02*
X153084990Y-121486347D01*
X153084990Y-121486347D02*
X152989752Y-121533966D01*
X152989752Y-121533966D02*
X152894514Y-121629204D01*
X152894514Y-121629204D02*
X152846894Y-121772061D01*
X152846894Y-121772061D02*
X152846894Y-121867299D01*
X152846894Y-121867299D02*
X152894514Y-122010156D01*
X152894514Y-122010156D02*
X152942133Y-122057775D01*
X152942133Y-122057775D02*
X153275466Y-122057775D01*
X153275466Y-122057775D02*
X153275466Y-121867299D01*
X152846894Y-122486347D02*
X153846894Y-122486347D01*
X153846894Y-122486347D02*
X152846894Y-123057775D01*
X152846894Y-123057775D02*
X153846894Y-123057775D01*
X152846894Y-123533966D02*
X153846894Y-123533966D01*
X153846894Y-123533966D02*
X153846894Y-123772061D01*
X153846894Y-123772061D02*
X153799275Y-123914918D01*
X153799275Y-123914918D02*
X153704037Y-124010156D01*
X153704037Y-124010156D02*
X153608799Y-124057775D01*
X153608799Y-124057775D02*
X153418323Y-124105394D01*
X153418323Y-124105394D02*
X153275466Y-124105394D01*
X153275466Y-124105394D02*
X153084990Y-124057775D01*
X153084990Y-124057775D02*
X152989752Y-124010156D01*
X152989752Y-124010156D02*
X152894514Y-123914918D01*
X152894514Y-123914918D02*
X152846894Y-123772061D01*
X152846894Y-123772061D02*
X152846894Y-123533966D01*
D10*
X230001869Y-51519723D02*
X229668535Y-51519723D01*
X229668535Y-51519723D02*
X229668535Y-50819723D01*
X230235202Y-51153056D02*
X230468536Y-51153056D01*
X230568536Y-51519723D02*
X230235202Y-51519723D01*
X230235202Y-51519723D02*
X230235202Y-50819723D01*
X230235202Y-50819723D02*
X230568536Y-50819723D01*
X230868535Y-51519723D02*
X230868535Y-50819723D01*
X230868535Y-50819723D02*
X231035202Y-50819723D01*
X231035202Y-50819723D02*
X231135202Y-50853056D01*
X231135202Y-50853056D02*
X231201869Y-50919723D01*
X231201869Y-50919723D02*
X231235202Y-50986390D01*
X231235202Y-50986390D02*
X231268535Y-51119723D01*
X231268535Y-51119723D02*
X231268535Y-51219723D01*
X231268535Y-51219723D02*
X231235202Y-51353056D01*
X231235202Y-51353056D02*
X231201869Y-51419723D01*
X231201869Y-51419723D02*
X231135202Y-51486390D01*
X231135202Y-51486390D02*
X231035202Y-51519723D01*
X231035202Y-51519723D02*
X230868535Y-51519723D01*
X216704255Y-91369020D02*
X216789970Y-91397591D01*
X216789970Y-91397591D02*
X216932827Y-91397591D01*
X216932827Y-91397591D02*
X216989970Y-91369020D01*
X216989970Y-91369020D02*
X217018541Y-91340448D01*
X217018541Y-91340448D02*
X217047112Y-91283305D01*
X217047112Y-91283305D02*
X217047112Y-91226162D01*
X217047112Y-91226162D02*
X217018541Y-91169020D01*
X217018541Y-91169020D02*
X216989970Y-91140448D01*
X216989970Y-91140448D02*
X216932827Y-91111877D01*
X216932827Y-91111877D02*
X216818541Y-91083305D01*
X216818541Y-91083305D02*
X216761398Y-91054734D01*
X216761398Y-91054734D02*
X216732827Y-91026162D01*
X216732827Y-91026162D02*
X216704255Y-90969020D01*
X216704255Y-90969020D02*
X216704255Y-90911877D01*
X216704255Y-90911877D02*
X216732827Y-90854734D01*
X216732827Y-90854734D02*
X216761398Y-90826162D01*
X216761398Y-90826162D02*
X216818541Y-90797591D01*
X216818541Y-90797591D02*
X216961398Y-90797591D01*
X216961398Y-90797591D02*
X217047112Y-90826162D01*
X217389970Y-91397591D02*
X217332827Y-91369020D01*
X217332827Y-91369020D02*
X217304256Y-91340448D01*
X217304256Y-91340448D02*
X217275684Y-91283305D01*
X217275684Y-91283305D02*
X217275684Y-91111877D01*
X217275684Y-91111877D02*
X217304256Y-91054734D01*
X217304256Y-91054734D02*
X217332827Y-91026162D01*
X217332827Y-91026162D02*
X217389970Y-90997591D01*
X217389970Y-90997591D02*
X217475684Y-90997591D01*
X217475684Y-90997591D02*
X217532827Y-91026162D01*
X217532827Y-91026162D02*
X217561399Y-91054734D01*
X217561399Y-91054734D02*
X217589970Y-91111877D01*
X217589970Y-91111877D02*
X217589970Y-91283305D01*
X217589970Y-91283305D02*
X217561399Y-91340448D01*
X217561399Y-91340448D02*
X217532827Y-91369020D01*
X217532827Y-91369020D02*
X217475684Y-91397591D01*
X217475684Y-91397591D02*
X217389970Y-91397591D01*
X217932827Y-91397591D02*
X217875684Y-91369020D01*
X217875684Y-91369020D02*
X217847113Y-91311877D01*
X217847113Y-91311877D02*
X217847113Y-90797591D01*
X218418542Y-91397591D02*
X218418542Y-90797591D01*
X218418542Y-91369020D02*
X218361399Y-91397591D01*
X218361399Y-91397591D02*
X218247113Y-91397591D01*
X218247113Y-91397591D02*
X218189970Y-91369020D01*
X218189970Y-91369020D02*
X218161399Y-91340448D01*
X218161399Y-91340448D02*
X218132827Y-91283305D01*
X218132827Y-91283305D02*
X218132827Y-91111877D01*
X218132827Y-91111877D02*
X218161399Y-91054734D01*
X218161399Y-91054734D02*
X218189970Y-91026162D01*
X218189970Y-91026162D02*
X218247113Y-90997591D01*
X218247113Y-90997591D02*
X218361399Y-90997591D01*
X218361399Y-90997591D02*
X218418542Y-91026162D01*
X218932827Y-91369020D02*
X218875684Y-91397591D01*
X218875684Y-91397591D02*
X218761399Y-91397591D01*
X218761399Y-91397591D02*
X218704256Y-91369020D01*
X218704256Y-91369020D02*
X218675684Y-91311877D01*
X218675684Y-91311877D02*
X218675684Y-91083305D01*
X218675684Y-91083305D02*
X218704256Y-91026162D01*
X218704256Y-91026162D02*
X218761399Y-90997591D01*
X218761399Y-90997591D02*
X218875684Y-90997591D01*
X218875684Y-90997591D02*
X218932827Y-91026162D01*
X218932827Y-91026162D02*
X218961399Y-91083305D01*
X218961399Y-91083305D02*
X218961399Y-91140448D01*
X218961399Y-91140448D02*
X218675684Y-91197591D01*
X219218542Y-91397591D02*
X219218542Y-90997591D01*
X219218542Y-91111877D02*
X219247113Y-91054734D01*
X219247113Y-91054734D02*
X219275685Y-91026162D01*
X219275685Y-91026162D02*
X219332827Y-90997591D01*
X219332827Y-90997591D02*
X219389970Y-90997591D01*
X220047114Y-90797591D02*
X220047114Y-91283305D01*
X220047114Y-91283305D02*
X220075685Y-91340448D01*
X220075685Y-91340448D02*
X220104257Y-91369020D01*
X220104257Y-91369020D02*
X220161399Y-91397591D01*
X220161399Y-91397591D02*
X220275685Y-91397591D01*
X220275685Y-91397591D02*
X220332828Y-91369020D01*
X220332828Y-91369020D02*
X220361399Y-91340448D01*
X220361399Y-91340448D02*
X220389971Y-91283305D01*
X220389971Y-91283305D02*
X220389971Y-90797591D01*
X220675685Y-90997591D02*
X220675685Y-91397591D01*
X220675685Y-91054734D02*
X220704256Y-91026162D01*
X220704256Y-91026162D02*
X220761399Y-90997591D01*
X220761399Y-90997591D02*
X220847113Y-90997591D01*
X220847113Y-90997591D02*
X220904256Y-91026162D01*
X220904256Y-91026162D02*
X220932828Y-91083305D01*
X220932828Y-91083305D02*
X220932828Y-91397591D01*
X221475685Y-91397591D02*
X221475685Y-90797591D01*
X221475685Y-91369020D02*
X221418542Y-91397591D01*
X221418542Y-91397591D02*
X221304256Y-91397591D01*
X221304256Y-91397591D02*
X221247113Y-91369020D01*
X221247113Y-91369020D02*
X221218542Y-91340448D01*
X221218542Y-91340448D02*
X221189970Y-91283305D01*
X221189970Y-91283305D02*
X221189970Y-91111877D01*
X221189970Y-91111877D02*
X221218542Y-91054734D01*
X221218542Y-91054734D02*
X221247113Y-91026162D01*
X221247113Y-91026162D02*
X221304256Y-90997591D01*
X221304256Y-90997591D02*
X221418542Y-90997591D01*
X221418542Y-90997591D02*
X221475685Y-91026162D01*
X221989970Y-91369020D02*
X221932827Y-91397591D01*
X221932827Y-91397591D02*
X221818542Y-91397591D01*
X221818542Y-91397591D02*
X221761399Y-91369020D01*
X221761399Y-91369020D02*
X221732827Y-91311877D01*
X221732827Y-91311877D02*
X221732827Y-91083305D01*
X221732827Y-91083305D02*
X221761399Y-91026162D01*
X221761399Y-91026162D02*
X221818542Y-90997591D01*
X221818542Y-90997591D02*
X221932827Y-90997591D01*
X221932827Y-90997591D02*
X221989970Y-91026162D01*
X221989970Y-91026162D02*
X222018542Y-91083305D01*
X222018542Y-91083305D02*
X222018542Y-91140448D01*
X222018542Y-91140448D02*
X221732827Y-91197591D01*
X222275685Y-91397591D02*
X222275685Y-90997591D01*
X222275685Y-91111877D02*
X222304256Y-91054734D01*
X222304256Y-91054734D02*
X222332828Y-91026162D01*
X222332828Y-91026162D02*
X222389970Y-90997591D01*
X222389970Y-90997591D02*
X222447113Y-90997591D01*
X222647114Y-90997591D02*
X222647114Y-91397591D01*
X222647114Y-91054734D02*
X222675685Y-91026162D01*
X222675685Y-91026162D02*
X222732828Y-90997591D01*
X222732828Y-90997591D02*
X222818542Y-90997591D01*
X222818542Y-90997591D02*
X222875685Y-91026162D01*
X222875685Y-91026162D02*
X222904257Y-91083305D01*
X222904257Y-91083305D02*
X222904257Y-91397591D01*
X223418542Y-91369020D02*
X223361399Y-91397591D01*
X223361399Y-91397591D02*
X223247114Y-91397591D01*
X223247114Y-91397591D02*
X223189971Y-91369020D01*
X223189971Y-91369020D02*
X223161399Y-91311877D01*
X223161399Y-91311877D02*
X223161399Y-91083305D01*
X223161399Y-91083305D02*
X223189971Y-91026162D01*
X223189971Y-91026162D02*
X223247114Y-90997591D01*
X223247114Y-90997591D02*
X223361399Y-90997591D01*
X223361399Y-90997591D02*
X223418542Y-91026162D01*
X223418542Y-91026162D02*
X223447114Y-91083305D01*
X223447114Y-91083305D02*
X223447114Y-91140448D01*
X223447114Y-91140448D02*
X223161399Y-91197591D01*
X223961400Y-91397591D02*
X223961400Y-91083305D01*
X223961400Y-91083305D02*
X223932828Y-91026162D01*
X223932828Y-91026162D02*
X223875685Y-90997591D01*
X223875685Y-90997591D02*
X223761400Y-90997591D01*
X223761400Y-90997591D02*
X223704257Y-91026162D01*
X223961400Y-91369020D02*
X223904257Y-91397591D01*
X223904257Y-91397591D02*
X223761400Y-91397591D01*
X223761400Y-91397591D02*
X223704257Y-91369020D01*
X223704257Y-91369020D02*
X223675685Y-91311877D01*
X223675685Y-91311877D02*
X223675685Y-91254734D01*
X223675685Y-91254734D02*
X223704257Y-91197591D01*
X223704257Y-91197591D02*
X223761400Y-91169020D01*
X223761400Y-91169020D02*
X223904257Y-91169020D01*
X223904257Y-91169020D02*
X223961400Y-91140448D01*
X224161399Y-90997591D02*
X224389971Y-90997591D01*
X224247114Y-90797591D02*
X224247114Y-91311877D01*
X224247114Y-91311877D02*
X224275685Y-91369020D01*
X224275685Y-91369020D02*
X224332828Y-91397591D01*
X224332828Y-91397591D02*
X224389971Y-91397591D01*
X224589971Y-91397591D02*
X224589971Y-90797591D01*
X224847114Y-91397591D02*
X224847114Y-91083305D01*
X224847114Y-91083305D02*
X224818542Y-91026162D01*
X224818542Y-91026162D02*
X224761399Y-90997591D01*
X224761399Y-90997591D02*
X224675685Y-90997591D01*
X224675685Y-90997591D02*
X224618542Y-91026162D01*
X224618542Y-91026162D02*
X224589971Y-91054734D01*
X225968676Y-80458128D02*
X226135342Y-80169453D01*
X226108547Y-80615863D02*
X225618996Y-80063791D01*
X225618996Y-80063791D02*
X226341881Y-80211718D01*
X226204402Y-79516504D02*
X226608547Y-79749838D01*
X226054402Y-79776312D02*
X226371945Y-79959645D01*
X226371945Y-79959645D02*
X226446347Y-79964111D01*
X226446347Y-79964111D02*
X226508547Y-79923043D01*
X226508547Y-79923043D02*
X226558547Y-79836440D01*
X226558547Y-79836440D02*
X226563013Y-79762039D01*
X226563013Y-79762039D02*
X226550812Y-79716504D01*
X226925214Y-79201355D02*
X226318996Y-78851355D01*
X226896346Y-79184689D02*
X226891881Y-79259090D01*
X226891881Y-79259090D02*
X226825214Y-79374560D01*
X226825214Y-79374560D02*
X226763013Y-79415629D01*
X226763013Y-79415629D02*
X226717479Y-79427830D01*
X226717479Y-79427830D02*
X226643077Y-79423364D01*
X226643077Y-79423364D02*
X226469872Y-79323364D01*
X226469872Y-79323364D02*
X226428804Y-79261163D01*
X226428804Y-79261163D02*
X226416603Y-79215629D01*
X226416603Y-79215629D02*
X226421069Y-79141227D01*
X226421069Y-79141227D02*
X226487735Y-79025757D01*
X226487735Y-79025757D02*
X226549936Y-78984689D01*
X227034145Y-78879347D02*
X227079680Y-78867146D01*
X227079680Y-78867146D02*
X227091880Y-78912680D01*
X227091880Y-78912680D02*
X227046346Y-78924881D01*
X227046346Y-78924881D02*
X227034145Y-78879347D01*
X227034145Y-78879347D02*
X227091880Y-78912680D01*
D11*
X221243451Y-111935708D02*
X221560470Y-112038713D01*
X221534469Y-112581031D02*
X221081585Y-112433880D01*
X221081585Y-112433880D02*
X221390602Y-111482824D01*
X221390602Y-111482824D02*
X221843486Y-111629975D01*
X222514956Y-112799471D02*
X222454952Y-112830045D01*
X222454952Y-112830045D02*
X222304372Y-112831188D01*
X222304372Y-112831188D02*
X222213795Y-112801758D01*
X222213795Y-112801758D02*
X222092645Y-112712324D01*
X222092645Y-112712324D02*
X222031499Y-112592317D01*
X222031499Y-112592317D02*
X222015640Y-112487025D01*
X222015640Y-112487025D02*
X222029212Y-112291156D01*
X222029212Y-112291156D02*
X222073358Y-112155291D01*
X222073358Y-112155291D02*
X222177506Y-111988853D01*
X222177506Y-111988853D02*
X222252225Y-111912991D01*
X222252225Y-111912991D02*
X222372232Y-111851844D01*
X222372232Y-111851844D02*
X222522812Y-111850701D01*
X222522812Y-111850701D02*
X222613389Y-111880131D01*
X222613389Y-111880131D02*
X222734539Y-111969565D01*
X222734539Y-111969565D02*
X222765112Y-112029568D01*
X223391294Y-113184350D02*
X222847833Y-113007769D01*
X223119563Y-113096060D02*
X223428580Y-112145003D01*
X223428580Y-112145003D02*
X223293858Y-112251438D01*
X223293858Y-112251438D02*
X223173851Y-112312585D01*
X223173851Y-112312585D02*
X223068559Y-112328443D01*
X224297062Y-113478652D02*
X223753601Y-113302071D01*
X224025332Y-113390361D02*
X224334349Y-112439305D01*
X224334349Y-112439305D02*
X224199626Y-112545740D01*
X224199626Y-112545740D02*
X224079619Y-112606887D01*
X224079619Y-112606887D02*
X223974328Y-112622745D01*
D12*
%TO.C,REF\u002A\u002A*%
X152782003Y-89555001D02*
X152782003Y-104755001D01*
X152782003Y-104755001D02*
X167982003Y-104755001D01*
X167982003Y-89555001D02*
X152782003Y-89555001D01*
X167982003Y-104755001D02*
X167982003Y-89555001D01*
X186880524Y-136040313D02*
X200770213Y-138992660D01*
X189832871Y-122150624D02*
X186880524Y-136040313D01*
X200770213Y-138992660D02*
X203722560Y-125102971D01*
X203722560Y-125102971D02*
X189832871Y-122150624D01*
D10*
%TO.C,D14*%
X192769494Y-138876666D02*
X193160745Y-138959839D01*
X193160745Y-138959839D02*
X193046394Y-139497820D01*
X193160745Y-138959839D02*
X193275097Y-138421858D01*
X193160745Y-138959839D02*
X193830799Y-138693327D01*
X193664469Y-139475845D02*
X193160745Y-138959839D01*
X193747632Y-139084585D02*
X194236700Y-139188550D01*
X193830799Y-138693327D02*
X193664469Y-139475845D01*
D12*
%TO.C,REF\u002A\u002A*%
X133782009Y-67555007D02*
X133782009Y-81755007D01*
X133782009Y-81755007D02*
X147982009Y-81755007D01*
X147982009Y-67555007D02*
X133782009Y-67555007D01*
X147982009Y-81755007D02*
X147982009Y-67555007D01*
X75282007Y-73555006D02*
X75282007Y-87755006D01*
X75282007Y-87755006D02*
X89482007Y-87755006D01*
X89482007Y-73555006D02*
X75282007Y-73555006D01*
X89482007Y-87755006D02*
X89482007Y-73555006D01*
X113782008Y-50555008D02*
X113782008Y-65755008D01*
X113782008Y-65755008D02*
X128982008Y-65755008D01*
X128982008Y-50555008D02*
X113782008Y-50555008D01*
X128982008Y-65755008D02*
X128982008Y-50555008D01*
X192282007Y-83305007D02*
X192282007Y-97505007D01*
X192282007Y-97505007D02*
X206482007Y-97505007D01*
X206482007Y-83305007D02*
X192282007Y-83305007D01*
X206482007Y-97505007D02*
X206482007Y-83305007D01*
D10*
%TO.C,D14*%
X229014990Y-119656467D02*
X229775833Y-119903678D01*
X229086395Y-120731127D02*
X229210000Y-120350705D01*
X229210000Y-120350705D02*
X228686919Y-120180745D01*
X229210000Y-120350705D02*
X229014990Y-119656467D01*
X229210000Y-120350705D02*
X229733081Y-120520664D01*
X229395410Y-119780065D02*
X229549917Y-119304543D01*
X229775833Y-119903678D02*
X229210000Y-120350705D01*
D12*
%TO.C,REF\u002A\u002A*%
X75282008Y-54054998D02*
X75282008Y-68254998D01*
X75282008Y-68254998D02*
X89482008Y-68254998D01*
X89482008Y-54054998D02*
X75282008Y-54054998D01*
X89482008Y-68254998D02*
X89482008Y-54054998D01*
X172282009Y-53555004D02*
X172282009Y-68755004D01*
X172282009Y-68755004D02*
X187482009Y-68755004D01*
X187482009Y-53555004D02*
X172282009Y-53555004D01*
X187482009Y-68755004D02*
X187482009Y-53555004D01*
X113782003Y-70054999D02*
X113782003Y-85254999D01*
X113782003Y-85254999D02*
X128982003Y-85254999D01*
X128982003Y-70054999D02*
X113782003Y-70054999D01*
X128982003Y-85254999D02*
X128982003Y-70054999D01*
X213747522Y-121382020D02*
X215014492Y-117482688D01*
X216030059Y-122123675D02*
X213747522Y-121382020D01*
X216250560Y-113678462D02*
X217517531Y-109779131D01*
X220595119Y-123606938D02*
X218122382Y-122803498D01*
X221398268Y-116928247D02*
X221089251Y-117879304D01*
X221719285Y-117558291D02*
X220768231Y-117249267D01*
X224969994Y-125028412D02*
X222687451Y-124286779D01*
X226236959Y-121129089D02*
X224969994Y-125028412D01*
X227175401Y-111445116D02*
X227553424Y-111252504D01*
X227368012Y-111823138D02*
X227175401Y-111445116D01*
X227473026Y-117324865D02*
X228739994Y-113425532D01*
X227553424Y-111252504D02*
X227368012Y-111823138D01*
X228739994Y-113425532D02*
X217517531Y-109779131D01*
X224243762Y-117403776D02*
G75*
G02*
X218243762Y-117403776I-3000000J0D01*
G01*
X218243762Y-117403776D02*
G75*
G02*
X224243762Y-117403776I3000000J0D01*
G01*
D10*
%TO.C,D14*%
X81632009Y-69805016D02*
X82032009Y-69805020D01*
X82032009Y-69805020D02*
X82032009Y-69255020D01*
X82032009Y-69805020D02*
X82032009Y-70355020D01*
X82032009Y-69805020D02*
X82632009Y-69405020D01*
X82631999Y-69805019D02*
X83132009Y-69805024D01*
X82632009Y-69405020D02*
X82632009Y-70205020D01*
X82632009Y-70205020D02*
X82032009Y-69805020D01*
D12*
%TO.C,REF\u002A\u002A*%
X75282000Y-93055009D02*
X75282000Y-107255009D01*
X75282000Y-107255009D02*
X89482000Y-107255009D01*
X89482000Y-93055009D02*
X75282000Y-93055009D01*
X89482000Y-107255009D02*
X89482000Y-93055009D01*
X219812182Y-107163841D02*
X220430213Y-105261730D01*
X220430213Y-105261730D02*
X223093174Y-106126975D01*
X222475143Y-108029086D02*
X219812182Y-107163841D01*
X223093174Y-106126975D02*
X222475143Y-108029086D01*
X74782008Y-53554998D02*
X74782008Y-68754998D01*
X74782008Y-68754998D02*
X89982008Y-68754998D01*
X89982008Y-53554998D02*
X74782008Y-53554998D01*
X89982008Y-68754998D02*
X89982008Y-53554998D01*
X74782000Y-92555009D02*
X74782000Y-107755009D01*
X74782000Y-107755009D02*
X89982000Y-107755009D01*
X89982000Y-92555009D02*
X74782000Y-92555009D01*
X89982000Y-107755009D02*
X89982000Y-92555009D01*
D10*
%TO.C,D14*%
X120632005Y-86305000D02*
X121032005Y-86305004D01*
X121032005Y-86305004D02*
X121032005Y-85755004D01*
X121032005Y-86305004D02*
X121032005Y-86855004D01*
X121032005Y-86305004D02*
X121632005Y-85905004D01*
X121631995Y-86305003D02*
X122132005Y-86305008D01*
X121632005Y-85905004D02*
X121632005Y-86705004D01*
X121632005Y-86705004D02*
X121032005Y-86305004D01*
X87632006Y-128304998D02*
X88032006Y-128305002D01*
X88032006Y-128305002D02*
X88032006Y-127755002D01*
X88032006Y-128305002D02*
X88032006Y-128855002D01*
X88032006Y-128305002D02*
X88632006Y-127905002D01*
X88631996Y-128305001D02*
X89132006Y-128305006D01*
X88632006Y-127905002D02*
X88632006Y-128705002D01*
X88632006Y-128705002D02*
X88032006Y-128305002D01*
D12*
%TO.C,REF\u002A\u002A*%
X205467086Y-140748709D02*
X219923145Y-145445768D01*
X210164145Y-126292650D02*
X205467086Y-140748709D01*
X219923145Y-145445768D02*
X224620204Y-130989709D01*
X224620204Y-130989709D02*
X210164145Y-126292650D01*
D10*
%TO.C,D14*%
X211657359Y-143864080D02*
X212037781Y-143987685D01*
X212037781Y-143987685D02*
X211867822Y-144510766D01*
X212037781Y-143987685D02*
X212207741Y-143464604D01*
X212037781Y-143987685D02*
X212732019Y-143792675D01*
X212484808Y-144553518D02*
X212037781Y-143987685D01*
X212608421Y-144173095D02*
X213083943Y-144327602D01*
X212732019Y-143792675D02*
X212484808Y-144553518D01*
X201138356Y-103441014D02*
X201529607Y-103524187D01*
X201529607Y-103524187D02*
X201415256Y-104062168D01*
X201529607Y-103524187D02*
X201643959Y-102986206D01*
X201529607Y-103524187D02*
X202199661Y-103257675D01*
X202033331Y-104040193D02*
X201529607Y-103524187D01*
X202116494Y-103648933D02*
X202605562Y-103752898D01*
X202199661Y-103257675D02*
X202033331Y-104040193D01*
D12*
%TO.C,REF\u002A\u002A*%
X186287491Y-136425435D02*
X201155335Y-139585693D01*
X189447749Y-121557591D02*
X186287491Y-136425435D01*
X201155335Y-139585693D02*
X204315593Y-124717849D01*
X204315593Y-124717849D02*
X189447749Y-121557591D01*
X223504504Y-87548010D02*
X223504504Y-90348010D01*
X223504504Y-90348010D02*
X225504504Y-90348010D01*
X225504504Y-87548010D02*
X223504504Y-87548010D01*
X225504504Y-90348010D02*
X225504504Y-87548010D01*
D13*
X211773509Y-52483014D02*
X211773505Y-82963022D01*
X211773509Y-52483014D02*
X216853505Y-52483014D01*
X216853505Y-52483014D02*
X216853507Y-49943019D01*
X216853507Y-49943019D02*
X224473506Y-49943017D01*
X224473504Y-52483024D02*
X229553507Y-52483012D01*
X224473506Y-49943017D02*
X224473504Y-52483024D01*
X229553503Y-82963020D02*
X211773505Y-82963022D01*
X229553507Y-52483012D02*
X229553503Y-82963020D01*
D12*
X172282004Y-92555001D02*
X172282004Y-107755001D01*
X172282004Y-107755001D02*
X187482004Y-107755001D01*
X187482004Y-92555001D02*
X172282004Y-92555001D01*
X187482004Y-107755001D02*
X187482004Y-92555001D01*
X191782007Y-82805007D02*
X191782007Y-98005007D01*
X191782007Y-98005007D02*
X206982007Y-98005007D01*
X206982007Y-82805007D02*
X191782007Y-82805007D01*
X206982007Y-98005007D02*
X206982007Y-82805007D01*
X100282009Y-111055000D02*
X100282009Y-126255000D01*
X100282009Y-126255000D02*
X115482009Y-126255000D01*
X115482009Y-111055000D02*
X100282009Y-111055000D01*
X115482009Y-126255000D02*
X115482009Y-111055000D01*
X133282009Y-67055007D02*
X133282009Y-82255007D01*
X133282009Y-82255007D02*
X148482009Y-82255007D01*
X148482009Y-67055007D02*
X133282009Y-67055007D01*
X148482009Y-82255007D02*
X148482009Y-67055007D01*
X225537183Y-109018834D02*
X226155214Y-107116723D01*
X226155214Y-107116723D02*
X228818175Y-107981968D01*
X228200144Y-109884079D02*
X225537183Y-109018834D01*
X228818175Y-107981968D02*
X228200144Y-109884079D01*
X100782009Y-111555000D02*
X100782009Y-125755000D01*
X100782009Y-125755000D02*
X114982009Y-125755000D01*
X114982009Y-111555000D02*
X100782009Y-111555000D01*
X114982009Y-125755000D02*
X114982009Y-111555000D01*
D10*
%TO.C,D14*%
X179132010Y-69805000D02*
X179532010Y-69805004D01*
X179532010Y-69805004D02*
X179532010Y-69255004D01*
X179532010Y-69805004D02*
X179532010Y-70355004D01*
X179532010Y-69805004D02*
X180132010Y-69405004D01*
X180132000Y-69805003D02*
X180632010Y-69805008D01*
X180132010Y-69405004D02*
X180132010Y-70205004D01*
X180132010Y-70205004D02*
X179532010Y-69805004D01*
D12*
%TO.C,REF\u002A\u002A*%
X172782000Y-73554999D02*
X172782000Y-87754999D01*
X172782000Y-87754999D02*
X186982000Y-87754999D01*
X186982000Y-73554999D02*
X172782000Y-73554999D01*
X186982000Y-87754999D02*
X186982000Y-73554999D01*
X114282002Y-90055009D02*
X114282002Y-104255009D01*
X114282002Y-104255009D02*
X128482002Y-104255009D01*
X128482002Y-90055009D02*
X114282002Y-90055009D01*
X128482002Y-104255009D02*
X128482002Y-90055009D01*
X192282012Y-63804997D02*
X192282012Y-78004997D01*
X192282012Y-78004997D02*
X206482012Y-78004997D01*
X206482012Y-63804997D02*
X192282012Y-63804997D01*
X206482012Y-78004997D02*
X206482012Y-63804997D01*
X133282007Y-47555016D02*
X133282007Y-62755016D01*
X133282007Y-62755016D02*
X148482007Y-62755016D01*
X148482007Y-47555016D02*
X133282007Y-47555016D01*
X148482007Y-62755016D02*
X148482007Y-47555016D01*
D10*
%TO.C,D14*%
X81632005Y-89305006D02*
X82032005Y-89305010D01*
X82032005Y-89305010D02*
X82032005Y-88755010D01*
X82032005Y-89305010D02*
X82032005Y-89855010D01*
X82032005Y-89305010D02*
X82632005Y-88905010D01*
X82631995Y-89305009D02*
X83132005Y-89305014D01*
X82632005Y-88905010D02*
X82632005Y-89705010D01*
X82632005Y-89705010D02*
X82032005Y-89305010D01*
D12*
%TO.C,REF\u002A\u002A*%
X222914723Y-127146996D02*
X223532754Y-125244885D01*
X223532754Y-125244885D02*
X226195715Y-126110130D01*
X225577684Y-128012241D02*
X222914723Y-127146996D01*
X226195715Y-126110130D02*
X225577684Y-128012241D01*
D10*
%TO.C,D14*%
X159631997Y-105805001D02*
X160031997Y-105805005D01*
X160031997Y-105805005D02*
X160031997Y-105255005D01*
X160031997Y-105805005D02*
X160031997Y-106355005D01*
X160031997Y-105805005D02*
X160631997Y-105405005D01*
X160631987Y-105805004D02*
X161131997Y-105805009D01*
X160631997Y-105405005D02*
X160631997Y-106205005D01*
X160631997Y-106205005D02*
X160031997Y-105805005D01*
D12*
%TO.C,REF\u002A\u002A*%
X114282003Y-70554999D02*
X114282003Y-84754999D01*
X114282003Y-84754999D02*
X128482003Y-84754999D01*
X128482003Y-70554999D02*
X114282003Y-70554999D01*
X128482003Y-84754999D02*
X128482003Y-70554999D01*
X94782011Y-92055001D02*
X94782011Y-106255001D01*
X94782011Y-106255001D02*
X108982011Y-106255001D01*
X108982011Y-92055001D02*
X94782011Y-92055001D01*
X108982011Y-106255001D02*
X108982011Y-92055001D01*
X153282003Y-90055001D02*
X153282003Y-104255001D01*
X153282003Y-104255001D02*
X167482003Y-104255001D01*
X167482003Y-90055001D02*
X153282003Y-90055001D01*
X167482003Y-104255001D02*
X167482003Y-90055001D01*
X74782007Y-73055006D02*
X74782007Y-88255006D01*
X74782007Y-88255006D02*
X89982007Y-88255006D01*
X89982007Y-73055006D02*
X74782007Y-73055006D01*
X89982007Y-88255006D02*
X89982007Y-73055006D01*
X80782015Y-112055001D02*
X80782015Y-127255001D01*
X80782015Y-127255001D02*
X95982015Y-127255001D01*
X95982015Y-112055001D02*
X80782015Y-112055001D01*
X95982015Y-127255001D02*
X95982015Y-112055001D01*
X172282000Y-73054999D02*
X172282000Y-88254999D01*
X172282000Y-88254999D02*
X187482000Y-88254999D01*
X187482000Y-73054999D02*
X172282000Y-73054999D01*
X187482000Y-88254999D02*
X187482000Y-73054999D01*
X74586003Y-117191007D02*
G75*
G02*
X73186005Y-117191007I-699999J0D01*
G01*
X73186005Y-117191007D02*
G75*
G02*
X74586003Y-117191007I699999J0D01*
G01*
D10*
%TO.C,D14*%
X159632011Y-66805000D02*
X160032011Y-66805004D01*
X160032011Y-66805004D02*
X160032011Y-66255004D01*
X160032011Y-66805004D02*
X160032011Y-67355004D01*
X160032011Y-66805004D02*
X160632011Y-66405004D01*
X160632001Y-66805003D02*
X161132011Y-66805008D01*
X160632011Y-66405004D02*
X160632011Y-67205004D01*
X160632011Y-67205004D02*
X160032011Y-66805004D01*
D12*
%TO.C,REF\u002A\u002A*%
X172782004Y-93055001D02*
X172782004Y-107255001D01*
X172782004Y-107255001D02*
X186982004Y-107255001D01*
X186982004Y-93055001D02*
X172782004Y-93055001D01*
X186982004Y-107255001D02*
X186982004Y-93055001D01*
D10*
%TO.C,D14*%
X140132004Y-63804998D02*
X140532004Y-63805002D01*
X140532004Y-63805002D02*
X140532004Y-63255002D01*
X140532004Y-63805002D02*
X140532004Y-64355002D01*
X140532004Y-63805002D02*
X141132004Y-63405002D01*
X141131994Y-63805001D02*
X141632004Y-63805006D01*
X141132004Y-63405002D02*
X141132004Y-64205002D01*
X141132004Y-64205002D02*
X140532004Y-63805002D01*
D12*
%TO.C,REF\u002A\u002A*%
X133782007Y-48055016D02*
X133782007Y-62255016D01*
X133782007Y-62255016D02*
X147982007Y-62255016D01*
X147982007Y-48055016D02*
X133782007Y-48055016D01*
X147982007Y-62255016D02*
X147982007Y-48055016D01*
X94782010Y-72554997D02*
X94782010Y-86754997D01*
X94782010Y-86754997D02*
X108982010Y-86754997D01*
X108982010Y-72554997D02*
X94782010Y-72554997D01*
X108982010Y-86754997D02*
X108982010Y-72554997D01*
D14*
X190095693Y-118404892D02*
X205159169Y-121606735D01*
X190511519Y-116448599D02*
X190095693Y-118404892D01*
X193006457Y-104710828D02*
X192590645Y-106667124D01*
X193593342Y-104835567D02*
X193006457Y-104710828D01*
X208069932Y-107912668D02*
X197408123Y-105646432D01*
D12*
X153282013Y-51054996D02*
X153282013Y-65254996D01*
X153282013Y-65254996D02*
X167482013Y-65254996D01*
X167482013Y-51054996D02*
X153282013Y-51054996D01*
X167482013Y-65254996D02*
X167482013Y-51054996D01*
X133782004Y-87055009D02*
X133782004Y-101255009D01*
X133782004Y-101255009D02*
X147982004Y-101255009D01*
X147982004Y-87055009D02*
X133782004Y-87055009D01*
X147982004Y-101255009D02*
X147982004Y-87055009D01*
X74586006Y-125191002D02*
G75*
G02*
X73186008Y-125191002I-699999J0D01*
G01*
X73186008Y-125191002D02*
G75*
G02*
X74586006Y-125191002I699999J0D01*
G01*
D10*
%TO.C,D14*%
X120632007Y-105805001D02*
X121032007Y-105805005D01*
X121032007Y-105805005D02*
X121032007Y-105255005D01*
X121032007Y-105805005D02*
X121032007Y-106355005D01*
X121032007Y-105805005D02*
X121632007Y-105405005D01*
X121631997Y-105805004D02*
X122132007Y-105805009D01*
X121632007Y-105405005D02*
X121632007Y-106205005D01*
X121632007Y-106205005D02*
X121032007Y-105805005D01*
D12*
%TO.C,REF\u002A\u002A*%
X139437999Y-123603003D02*
X148738001Y-123603008D01*
X139438001Y-117803007D02*
X139438001Y-119143008D01*
X139438001Y-121863008D02*
X139437999Y-123603003D01*
X140927999Y-117803005D02*
X139438001Y-117803007D01*
X140927999Y-117803005D02*
X140927997Y-116603005D01*
X147248001Y-117803010D02*
X148738000Y-117803016D01*
X148738000Y-117803016D02*
X148737990Y-119143012D01*
X148738001Y-123603008D02*
X148738002Y-121863001D01*
D13*
%TO.C,B1*%
X192041009Y-54161006D02*
X192041014Y-56661002D01*
X193541012Y-58161009D02*
X192041014Y-56661002D01*
X193541016Y-52661008D02*
X192041009Y-54161006D01*
X196041008Y-58161004D02*
X193541012Y-58161009D01*
X196041008Y-58161004D02*
X197541015Y-56661006D01*
X196041012Y-52661003D02*
X193541016Y-52661008D01*
X196041012Y-52661003D02*
X197541010Y-54161010D01*
X197541010Y-54161010D02*
X197541015Y-56661006D01*
D10*
%TO.C,D14*%
X81632005Y-108805002D02*
X82032005Y-108805006D01*
X82032005Y-108805006D02*
X82032005Y-108255006D01*
X82032005Y-108805006D02*
X82032005Y-109355006D01*
X82032005Y-108805006D02*
X82632005Y-108405006D01*
X82631995Y-108805005D02*
X83132005Y-108805010D01*
X82632005Y-108405006D02*
X82632005Y-109205006D01*
X82632005Y-109205006D02*
X82032005Y-108805006D01*
D12*
%TO.C,REF\u002A\u002A*%
X74586010Y-121191003D02*
G75*
G02*
X73186012Y-121191003I-699999J0D01*
G01*
X73186012Y-121191003D02*
G75*
G02*
X74586010Y-121191003I699999J0D01*
G01*
D10*
%TO.C,D14*%
X159632001Y-86305000D02*
X160032001Y-86305004D01*
X160032001Y-86305004D02*
X160032001Y-85755004D01*
X160032001Y-86305004D02*
X160032001Y-86855004D01*
X160032001Y-86305004D02*
X160632001Y-85905004D01*
X160631991Y-86305003D02*
X161132001Y-86305008D01*
X160632001Y-85905004D02*
X160632001Y-86705004D01*
X160632001Y-86705004D02*
X160032001Y-86305004D01*
D12*
%TO.C,REF\u002A\u002A*%
X206097122Y-140427690D02*
X219602126Y-144815732D01*
X210485164Y-126922686D02*
X206097122Y-140427690D01*
X219602126Y-144815732D02*
X223990168Y-131310728D01*
X223990168Y-131310728D02*
X210485164Y-126922686D01*
X94782005Y-53055008D02*
X94782005Y-67255008D01*
X94782005Y-67255008D02*
X108982005Y-67255008D01*
X108982005Y-53055008D02*
X94782005Y-53055008D01*
X108982005Y-67255008D02*
X108982005Y-53055008D01*
D10*
%TO.C,D14*%
X101132003Y-107804997D02*
X101532003Y-107805001D01*
X101532003Y-107805001D02*
X101532003Y-107255001D01*
X101532003Y-107805001D02*
X101532003Y-108355001D01*
X101532003Y-107805001D02*
X102132003Y-107405001D01*
X102131993Y-107805000D02*
X102632003Y-107805005D01*
X102132003Y-107405001D02*
X102132003Y-108205001D01*
X102132003Y-108205001D02*
X101532003Y-107805001D01*
X107132008Y-127304998D02*
X107532008Y-127305002D01*
X107532008Y-127305002D02*
X107532008Y-126755002D01*
X107532008Y-127305002D02*
X107532008Y-127855002D01*
X107532008Y-127305002D02*
X108132008Y-126905002D01*
X108131998Y-127305001D02*
X108632008Y-127305006D01*
X108132008Y-126905002D02*
X108132008Y-127705002D01*
X108132008Y-127705002D02*
X107532008Y-127305002D01*
D12*
%TO.C,REF\u002A\u002A*%
X81282015Y-112555001D02*
X81282015Y-126755001D01*
X81282015Y-126755001D02*
X95482015Y-126755001D01*
X95482015Y-112555001D02*
X81282015Y-112555001D01*
X95482015Y-126755001D02*
X95482015Y-112555001D01*
X94282010Y-72054997D02*
X94282010Y-87254997D01*
X94282010Y-87254997D02*
X109482010Y-87254997D01*
X109482010Y-72054997D02*
X94282010Y-72054997D01*
X109482010Y-87254997D02*
X109482010Y-72054997D01*
X152782005Y-70055007D02*
X152782005Y-85255007D01*
X152782005Y-85255007D02*
X167982005Y-85255007D01*
X167982005Y-70055007D02*
X152782005Y-70055007D01*
X167982005Y-85255007D02*
X167982005Y-70055007D01*
X113782002Y-89555009D02*
X113782002Y-104755009D01*
X113782002Y-104755009D02*
X128982002Y-104755009D01*
X128982002Y-89555009D02*
X113782002Y-89555009D01*
X128982002Y-104755009D02*
X128982002Y-89555009D01*
D10*
%TO.C,D14*%
X173463766Y-135890919D02*
X173861579Y-135932730D01*
X173861579Y-135932730D02*
X173804089Y-136479717D01*
X173861579Y-135932730D02*
X173919070Y-135385743D01*
X173861579Y-135932730D02*
X174500104Y-135597638D01*
X174416482Y-136393256D02*
X173861579Y-135932730D01*
X174458292Y-135995447D02*
X174955558Y-136047711D01*
X174500104Y-135597638D02*
X174416482Y-136393256D01*
D12*
%TO.C,REF\u002A\u002A*%
X220964510Y-87547999D02*
X220964510Y-90347999D01*
X220964510Y-90347999D02*
X222964510Y-90347999D01*
X222964510Y-87547999D02*
X220964510Y-87547999D01*
X222964510Y-90347999D02*
X222964510Y-87547999D01*
D10*
%TO.C,D14*%
X198632013Y-99055008D02*
X199032013Y-99055012D01*
X199032013Y-99055012D02*
X199032013Y-98505012D01*
X199032013Y-99055012D02*
X199032013Y-99605012D01*
X199032013Y-99055012D02*
X199632013Y-98655012D01*
X199632003Y-99055011D02*
X200132013Y-99055016D01*
X199632013Y-98655012D02*
X199632013Y-99455012D01*
X199632013Y-99455012D02*
X199032013Y-99055012D01*
X140132016Y-83305003D02*
X140532016Y-83305007D01*
X140532016Y-83305007D02*
X140532016Y-82755007D01*
X140532016Y-83305007D02*
X140532016Y-83855007D01*
X140532016Y-83305007D02*
X141132016Y-82905007D01*
X141132006Y-83305006D02*
X141632016Y-83305011D01*
X141132016Y-82905007D02*
X141132016Y-83705007D01*
X141132016Y-83705007D02*
X140532016Y-83305007D01*
D12*
%TO.C,REF\u002A\u002A*%
X94282011Y-91555001D02*
X94282011Y-106755001D01*
X94282011Y-106755001D02*
X109482011Y-106755001D01*
X109482011Y-91555001D02*
X94282011Y-91555001D01*
X109482011Y-106755001D02*
X109482011Y-91555001D01*
X114282008Y-51055008D02*
X114282008Y-65255008D01*
X114282008Y-65255008D02*
X128482008Y-65255008D01*
X128482008Y-51055008D02*
X114282008Y-51055008D01*
X128482008Y-65255008D02*
X128482008Y-51055008D01*
X211502051Y-123438787D02*
X212120082Y-121536676D01*
X212120082Y-121536676D02*
X214783043Y-122401921D01*
X214165012Y-124304032D02*
X211502051Y-123438787D01*
X214783043Y-122401921D02*
X214165012Y-124304032D01*
X74585998Y-119190999D02*
G75*
G02*
X73186000Y-119190999I-699999J0D01*
G01*
X73186000Y-119190999D02*
G75*
G02*
X74585998Y-119190999I699999J0D01*
G01*
X74586005Y-123191009D02*
G75*
G02*
X73186007Y-123191009I-699999J0D01*
G01*
X73186007Y-123191009D02*
G75*
G02*
X74586005Y-123191009I699999J0D01*
G01*
D10*
%TO.C,D14*%
X140132008Y-102804995D02*
X140532008Y-102804999D01*
X140532008Y-102804999D02*
X140532008Y-102254999D01*
X140532008Y-102804999D02*
X140532008Y-103354999D01*
X140532008Y-102804999D02*
X141132008Y-102404999D01*
X141131998Y-102804998D02*
X141632008Y-102805003D01*
X141132008Y-102404999D02*
X141132008Y-103204999D01*
X141132008Y-103204999D02*
X140532008Y-102804999D01*
D12*
%TO.C,REF\u002A\u002A*%
X172782009Y-54055004D02*
X172782009Y-68255004D01*
X172782009Y-68255004D02*
X186982009Y-68255004D01*
X186982009Y-54055004D02*
X172782009Y-54055004D01*
X186982009Y-68255004D02*
X186982009Y-54055004D01*
X167310576Y-133685650D02*
X181432787Y-135169957D01*
X168794883Y-119563439D02*
X167310576Y-133685650D01*
X181432787Y-135169957D02*
X182917094Y-121047746D01*
X182917094Y-121047746D02*
X168794883Y-119563439D01*
X170510003Y-114174008D02*
X173310003Y-114174008D01*
X170510003Y-116174008D02*
X170510003Y-114174008D01*
X173310003Y-114174008D02*
X173310003Y-116174008D01*
X173310003Y-116174008D02*
X170510003Y-116174008D01*
X152782013Y-50554996D02*
X152782013Y-65754996D01*
X152782013Y-65754996D02*
X167982013Y-65754996D01*
X167982013Y-50554996D02*
X152782013Y-50554996D01*
X167982013Y-65754996D02*
X167982013Y-50554996D01*
D10*
%TO.C,D14*%
X101132003Y-88305000D02*
X101532003Y-88305004D01*
X101532003Y-88305004D02*
X101532003Y-87755004D01*
X101532003Y-88305004D02*
X101532003Y-88855004D01*
X101532003Y-88305004D02*
X102132003Y-87905004D01*
X102131993Y-88305003D02*
X102632003Y-88305008D01*
X102132003Y-87905004D02*
X102132003Y-88705004D01*
X102132003Y-88705004D02*
X101532003Y-88305004D01*
D12*
%TO.C,REF\u002A\u002A*%
X94282005Y-52555008D02*
X94282005Y-67755008D01*
X94282005Y-67755008D02*
X109482005Y-67755008D01*
X109482005Y-52555008D02*
X94282005Y-52555008D01*
X109482005Y-67755008D02*
X109482005Y-52555008D01*
X218424506Y-87548009D02*
X218424506Y-90348009D01*
X218424506Y-90348009D02*
X220424506Y-90348009D01*
X220424506Y-87548009D02*
X218424506Y-87548009D01*
X220424506Y-90348009D02*
X220424506Y-87548009D01*
D10*
%TO.C,D14*%
X179132007Y-89304999D02*
X179532007Y-89305003D01*
X179532007Y-89305003D02*
X179532007Y-88755003D01*
X179532007Y-89305003D02*
X179532007Y-89855003D01*
X179532007Y-89305003D02*
X180132007Y-88905003D01*
X180131997Y-89305002D02*
X180632007Y-89305007D01*
X180132007Y-88905003D02*
X180132007Y-89705003D01*
X180132007Y-89705003D02*
X179532007Y-89305003D01*
D12*
%TO.C,REF\u002A\u002A*%
X215884510Y-87548010D02*
X215884510Y-90348010D01*
X215884510Y-90348010D02*
X217884510Y-90348010D01*
X217884510Y-87548010D02*
X215884510Y-87548010D01*
X217884510Y-90348010D02*
X217884510Y-87548010D01*
X170570005Y-110863999D02*
X173370005Y-110863999D01*
X170570005Y-112863999D02*
X170570005Y-110863999D01*
X173370005Y-110863999D02*
X173370005Y-112863999D01*
X173370005Y-112863999D02*
X170570005Y-112863999D01*
D13*
%TO.C,B1*%
X202781009Y-54475998D02*
X202781014Y-56975994D01*
X204281012Y-58476001D02*
X202781014Y-56975994D01*
X204281016Y-52976000D02*
X202781009Y-54475998D01*
X206781008Y-58475996D02*
X204281012Y-58476001D01*
X206781008Y-58475996D02*
X208281015Y-56975998D01*
X206781012Y-52975995D02*
X204281016Y-52976000D01*
X206781012Y-52975995D02*
X208281010Y-54476002D01*
X208281010Y-54476002D02*
X208281015Y-56975998D01*
D10*
%TO.C,D14*%
X179132009Y-108804995D02*
X179532009Y-108804999D01*
X179532009Y-108804999D02*
X179532009Y-108254999D01*
X179532009Y-108804999D02*
X179532009Y-109354999D01*
X179532009Y-108804999D02*
X180132009Y-108404999D01*
X180131999Y-108804998D02*
X180632009Y-108805003D01*
X180132009Y-108404999D02*
X180132009Y-109204999D01*
X180132009Y-109204999D02*
X179532009Y-108804999D01*
X198632009Y-79555008D02*
X199032009Y-79555012D01*
X199032009Y-79555012D02*
X199032009Y-79005012D01*
X199032009Y-79555012D02*
X199032009Y-80105012D01*
X199032009Y-79555012D02*
X199632009Y-79155012D01*
X199631999Y-79555011D02*
X200132009Y-79555016D01*
X199632009Y-79155012D02*
X199632009Y-79955012D01*
X199632009Y-79955012D02*
X199032009Y-79555012D01*
D12*
%TO.C,REF\u002A\u002A*%
X191782012Y-63304997D02*
X191782012Y-78504997D01*
X191782012Y-78504997D02*
X206982012Y-78504997D01*
X206982012Y-63304997D02*
X191782012Y-63304997D01*
X206982012Y-78504997D02*
X206982012Y-63304997D01*
D10*
%TO.C,D14*%
X120631999Y-66805005D02*
X121031999Y-66805009D01*
X121031999Y-66805009D02*
X121031999Y-66255009D01*
X121031999Y-66805009D02*
X121031999Y-67355009D01*
X121031999Y-66805009D02*
X121631999Y-66405009D01*
X121631989Y-66805008D02*
X122131999Y-66805013D01*
X121631999Y-66405009D02*
X121631999Y-67205009D01*
X121631999Y-67205009D02*
X121031999Y-66805009D01*
D12*
%TO.C,REF\u002A\u002A*%
X153282005Y-70555007D02*
X153282005Y-84755007D01*
X153282005Y-84755007D02*
X167482005Y-84755007D01*
X167482005Y-70555007D02*
X153282005Y-70555007D01*
X167482005Y-84755007D02*
X167482005Y-70555007D01*
D10*
%TO.C,D14*%
X101132006Y-68804994D02*
X101532006Y-68804998D01*
X101532006Y-68804998D02*
X101532006Y-68254998D01*
X101532006Y-68804998D02*
X101532006Y-69354998D01*
X101532006Y-68804998D02*
X102132006Y-68404998D01*
X102131996Y-68804997D02*
X102632006Y-68805002D01*
X102132006Y-68404998D02*
X102132006Y-69204998D01*
X102132006Y-69204998D02*
X101532006Y-68804998D01*
D12*
%TO.C,REF\u002A\u002A*%
X166761052Y-134130648D02*
X181877785Y-135719481D01*
X168349885Y-119013915D02*
X166761052Y-134130648D01*
X181877785Y-135719481D02*
X183466618Y-120602748D01*
X183466618Y-120602748D02*
X168349885Y-119013915D01*
X133282004Y-86555009D02*
X133282004Y-101755009D01*
X133282004Y-101755009D02*
X148482004Y-101755009D01*
X148482004Y-86555009D02*
X133282004Y-86555009D01*
X148482004Y-101755009D02*
X148482004Y-86555009D01*
X78282001Y-107055009D02*
X83382000Y-107055009D01*
X82182000Y-102855009D02*
X87281993Y-102855006D01*
X78282001Y-107055009D02*
G75*
G02*
X76282000Y-105055010I9J2000010D01*
G01*
X82182000Y-102855009D02*
G75*
G02*
X80181999Y-100855009I-1J2000000D01*
G01*
X78282009Y-68054998D02*
X83382008Y-68054998D01*
X82182008Y-63854998D02*
X87282001Y-63854995D01*
X78282009Y-68054998D02*
G75*
G02*
X76282008Y-66054999I9J2000010D01*
G01*
X82182008Y-63854998D02*
G75*
G02*
X80182007Y-61854998I-1J2000000D01*
G01*
X97782012Y-106055001D02*
X102882011Y-106055001D01*
X101682011Y-101855001D02*
X106782004Y-101854998D01*
X97782012Y-106055001D02*
G75*
G02*
X95782011Y-104055002I9J2000010D01*
G01*
X101682011Y-101855001D02*
G75*
G02*
X99682010Y-99855001I-1J2000000D01*
G01*
X133236004Y-91859009D02*
X133236004Y-92801009D01*
X133236004Y-92801009D02*
X137322018Y-92801012D01*
X133599007Y-91858996D02*
X133236004Y-91859009D01*
X133601010Y-88545994D02*
X133515994Y-88973011D01*
X133790007Y-88263006D02*
X133601010Y-88545994D01*
X134073004Y-88074009D02*
X133790007Y-88263006D01*
X134400005Y-88009006D02*
X134073004Y-88074009D01*
X137200003Y-88009011D02*
X134400005Y-88009006D01*
X137322018Y-92801012D02*
X137632004Y-92742009D01*
X137632004Y-92742009D02*
X137906016Y-92572015D01*
X137638011Y-87922006D02*
X137200003Y-88009011D01*
X137906016Y-92572015D02*
X138098998Y-92314014D01*
X138005008Y-87678019D02*
X137638011Y-87922006D01*
X138098998Y-92314014D02*
X138181004Y-92016009D01*
X138181004Y-92016009D02*
X138335004Y-91458009D01*
X138248995Y-87311020D02*
X138005008Y-87678019D01*
X138335004Y-91458009D02*
X138673005Y-91005011D01*
X138336004Y-86651013D02*
X138336009Y-86873009D01*
X138336009Y-86873009D02*
X138248995Y-87311020D01*
X138673005Y-91005011D02*
X139152011Y-90706005D01*
X138869002Y-86118009D02*
X138336004Y-86651013D01*
X139152011Y-90706005D02*
X139713991Y-90601008D01*
X139211015Y-85889018D02*
X138869002Y-86118009D01*
X139614004Y-85809009D02*
X139211015Y-85889018D01*
X139713991Y-90601008D02*
X142361004Y-90601009D01*
X142361001Y-85809011D02*
X139614004Y-85809009D01*
X142361004Y-90601009D02*
X143382001Y-89580007D01*
X143298004Y-86746010D02*
X142361001Y-85809011D01*
X175782001Y-87554999D02*
X180882000Y-87554999D01*
X179682000Y-83354999D02*
X184781993Y-83354996D01*
X175782001Y-87554999D02*
G75*
G02*
X173782000Y-85555000I9J2000010D01*
G01*
X179682000Y-83354999D02*
G75*
G02*
X177681999Y-81354999I-1J2000000D01*
G01*
X117282009Y-65055008D02*
X122382008Y-65055008D01*
X121182008Y-60855008D02*
X126282001Y-60855005D01*
X117282009Y-65055008D02*
G75*
G02*
X115282008Y-63055009I9J2000010D01*
G01*
X121182008Y-60855008D02*
G75*
G02*
X119182007Y-58855008I-1J2000000D01*
G01*
X172236000Y-78358999D02*
X172236000Y-79300999D01*
X172236000Y-79300999D02*
X176322014Y-79301002D01*
X172599003Y-78358986D02*
X172236000Y-78358999D01*
X172601006Y-75045984D02*
X172515990Y-75473001D01*
X172790003Y-74762996D02*
X172601006Y-75045984D01*
X173073000Y-74573999D02*
X172790003Y-74762996D01*
X173400001Y-74508996D02*
X173073000Y-74573999D01*
X176199999Y-74509001D02*
X173400001Y-74508996D01*
X176322014Y-79301002D02*
X176632000Y-79241999D01*
X176632000Y-79241999D02*
X176906012Y-79072005D01*
X176638007Y-74421996D02*
X176199999Y-74509001D01*
X176906012Y-79072005D02*
X177098994Y-78814004D01*
X177005004Y-74178009D02*
X176638007Y-74421996D01*
X177098994Y-78814004D02*
X177181000Y-78515999D01*
X177181000Y-78515999D02*
X177335000Y-77957999D01*
X177248991Y-73811010D02*
X177005004Y-74178009D01*
X177335000Y-77957999D02*
X177673001Y-77505001D01*
X177336000Y-73151003D02*
X177336005Y-73372999D01*
X177336005Y-73372999D02*
X177248991Y-73811010D01*
X177673001Y-77505001D02*
X178152007Y-77205995D01*
X177868998Y-72617999D02*
X177336000Y-73151003D01*
X178152007Y-77205995D02*
X178713987Y-77100998D01*
X178211011Y-72389008D02*
X177868998Y-72617999D01*
X178614000Y-72308999D02*
X178211011Y-72389008D01*
X178713987Y-77100998D02*
X181361000Y-77100999D01*
X181360997Y-72309001D02*
X178614000Y-72308999D01*
X181361000Y-77100999D02*
X182381997Y-76079997D01*
X182298000Y-73246000D02*
X181360997Y-72309001D01*
X172236004Y-97859001D02*
X172236004Y-98801001D01*
X172236004Y-98801001D02*
X176322018Y-98801004D01*
X172599007Y-97858988D02*
X172236004Y-97859001D01*
X172601010Y-94545986D02*
X172515994Y-94973003D01*
X172790007Y-94262998D02*
X172601010Y-94545986D01*
X173073004Y-94074001D02*
X172790007Y-94262998D01*
X173400005Y-94008998D02*
X173073004Y-94074001D01*
X176200003Y-94009003D02*
X173400005Y-94008998D01*
X176322018Y-98801004D02*
X176632004Y-98742001D01*
X176632004Y-98742001D02*
X176906016Y-98572007D01*
X176638011Y-93921998D02*
X176200003Y-94009003D01*
X176906016Y-98572007D02*
X177098998Y-98314006D01*
X177005008Y-93678011D02*
X176638011Y-93921998D01*
X177098998Y-98314006D02*
X177181004Y-98016001D01*
X177181004Y-98016001D02*
X177335004Y-97458001D01*
X177248995Y-93311012D02*
X177005008Y-93678011D01*
X177335004Y-97458001D02*
X177673005Y-97005003D01*
X177336004Y-92651005D02*
X177336009Y-92873001D01*
X177336009Y-92873001D02*
X177248995Y-93311012D01*
X177673005Y-97005003D02*
X178152011Y-96705997D01*
X177869002Y-92118001D02*
X177336004Y-92651005D01*
X178152011Y-96705997D02*
X178713991Y-96601000D01*
X178211015Y-91889010D02*
X177869002Y-92118001D01*
X178614004Y-91809001D02*
X178211015Y-91889010D01*
X178713991Y-96601000D02*
X181361004Y-96601001D01*
X181361001Y-91809003D02*
X178614004Y-91809001D01*
X181361004Y-96601001D02*
X182382001Y-95579999D01*
X182298004Y-92746002D02*
X181361001Y-91809003D01*
X156282006Y-84555007D02*
X161382005Y-84555007D01*
X160182005Y-80355007D02*
X165281998Y-80355004D01*
X156282006Y-84555007D02*
G75*
G02*
X154282005Y-82555008I9J2000010D01*
G01*
X160182005Y-80355007D02*
G75*
G02*
X158182004Y-78355007I-1J2000000D01*
G01*
X100236009Y-116359000D02*
X100236009Y-117301000D01*
X100236009Y-117301000D02*
X104322023Y-117301003D01*
X100599012Y-116358987D02*
X100236009Y-116359000D01*
X100601015Y-113045985D02*
X100515999Y-113473002D01*
X100790012Y-112762997D02*
X100601015Y-113045985D01*
X101073009Y-112574000D02*
X100790012Y-112762997D01*
X101400010Y-112508997D02*
X101073009Y-112574000D01*
X104200008Y-112509002D02*
X101400010Y-112508997D01*
X104322023Y-117301003D02*
X104632009Y-117242000D01*
X104632009Y-117242000D02*
X104906021Y-117072006D01*
X104638016Y-112421997D02*
X104200008Y-112509002D01*
X104906021Y-117072006D02*
X105099003Y-116814005D01*
X105005013Y-112178010D02*
X104638016Y-112421997D01*
X105099003Y-116814005D02*
X105181009Y-116516000D01*
X105181009Y-116516000D02*
X105335009Y-115958000D01*
X105249000Y-111811011D02*
X105005013Y-112178010D01*
X105335009Y-115958000D02*
X105673010Y-115505002D01*
X105336009Y-111151004D02*
X105336014Y-111373000D01*
X105336014Y-111373000D02*
X105249000Y-111811011D01*
X105673010Y-115505002D02*
X106152016Y-115205996D01*
X105869007Y-110618000D02*
X105336009Y-111151004D01*
X106152016Y-115205996D02*
X106713996Y-115100999D01*
X106211020Y-110389009D02*
X105869007Y-110618000D01*
X106614009Y-110309000D02*
X106211020Y-110389009D01*
X106713996Y-115100999D02*
X109361009Y-115101000D01*
X109361006Y-110309002D02*
X106614009Y-110309000D01*
X109361009Y-115101000D02*
X110382006Y-114079998D01*
X110298009Y-111246001D02*
X109361006Y-110309002D01*
X172236009Y-58859004D02*
X172236009Y-59801004D01*
X172236009Y-59801004D02*
X176322023Y-59801007D01*
X172599012Y-58858991D02*
X172236009Y-58859004D01*
X172601015Y-55545989D02*
X172515999Y-55973006D01*
X172790012Y-55263001D02*
X172601015Y-55545989D01*
X173073009Y-55074004D02*
X172790012Y-55263001D01*
X173400010Y-55009001D02*
X173073009Y-55074004D01*
X176200008Y-55009006D02*
X173400010Y-55009001D01*
X176322023Y-59801007D02*
X176632009Y-59742004D01*
X176632009Y-59742004D02*
X176906021Y-59572010D01*
X176638016Y-54922001D02*
X176200008Y-55009006D01*
X176906021Y-59572010D02*
X177099003Y-59314009D01*
X177005013Y-54678014D02*
X176638016Y-54922001D01*
X177099003Y-59314009D02*
X177181009Y-59016004D01*
X177181009Y-59016004D02*
X177335009Y-58458004D01*
X177249000Y-54311015D02*
X177005013Y-54678014D01*
X177335009Y-58458004D02*
X177673010Y-58005006D01*
X177336009Y-53651008D02*
X177336014Y-53873004D01*
X177336014Y-53873004D02*
X177249000Y-54311015D01*
X177673010Y-58005006D02*
X178152016Y-57706000D01*
X177869007Y-53118004D02*
X177336009Y-53651008D01*
X178152016Y-57706000D02*
X178713996Y-57601003D01*
X178211020Y-52889013D02*
X177869007Y-53118004D01*
X178614009Y-52809004D02*
X178211020Y-52889013D01*
X178713996Y-57601003D02*
X181361009Y-57601004D01*
X181361006Y-52809006D02*
X178614009Y-52809004D01*
X181361009Y-57601004D02*
X182382006Y-56580002D01*
X182298009Y-53746005D02*
X181361006Y-52809006D01*
X133236007Y-52859016D02*
X133236007Y-53801016D01*
X133236007Y-53801016D02*
X137322021Y-53801019D01*
X133599010Y-52859003D02*
X133236007Y-52859016D01*
X133601013Y-49546001D02*
X133515997Y-49973018D01*
X133790010Y-49263013D02*
X133601013Y-49546001D01*
X134073007Y-49074016D02*
X133790010Y-49263013D01*
X134400008Y-49009013D02*
X134073007Y-49074016D01*
X137200006Y-49009018D02*
X134400008Y-49009013D01*
X137322021Y-53801019D02*
X137632007Y-53742016D01*
X137632007Y-53742016D02*
X137906019Y-53572022D01*
X137638014Y-48922013D02*
X137200006Y-49009018D01*
X137906019Y-53572022D02*
X138099001Y-53314021D01*
X138005011Y-48678026D02*
X137638014Y-48922013D01*
X138099001Y-53314021D02*
X138181007Y-53016016D01*
X138181007Y-53016016D02*
X138335007Y-52458016D01*
X138248998Y-48311027D02*
X138005011Y-48678026D01*
X138335007Y-52458016D02*
X138673008Y-52005018D01*
X138336007Y-47651020D02*
X138336012Y-47873016D01*
X138336012Y-47873016D02*
X138248998Y-48311027D01*
X138673008Y-52005018D02*
X139152014Y-51706012D01*
X138869005Y-47118016D02*
X138336007Y-47651020D01*
X139152014Y-51706012D02*
X139713994Y-51601015D01*
X139211018Y-46889025D02*
X138869005Y-47118016D01*
X139614007Y-46809016D02*
X139211018Y-46889025D01*
X139713994Y-51601015D02*
X142361007Y-51601016D01*
X142361004Y-46809018D02*
X139614007Y-46809016D01*
X142361007Y-51601016D02*
X143382004Y-50580014D01*
X143298007Y-47746017D02*
X142361004Y-46809018D01*
X136782010Y-81555007D02*
X141882009Y-81555007D01*
X140682009Y-77355007D02*
X145782002Y-77355004D01*
X136782010Y-81555007D02*
G75*
G02*
X134782009Y-79555008I9J2000010D01*
G01*
X140682009Y-77355007D02*
G75*
G02*
X138682008Y-75355007I-1J2000000D01*
G01*
X152736003Y-94859001D02*
X152736003Y-95801001D01*
X152736003Y-95801001D02*
X156822017Y-95801004D01*
X153099006Y-94858988D02*
X152736003Y-94859001D01*
X153101009Y-91545986D02*
X153015993Y-91973003D01*
X153290006Y-91262998D02*
X153101009Y-91545986D01*
X153573003Y-91074001D02*
X153290006Y-91262998D01*
X153900004Y-91008998D02*
X153573003Y-91074001D01*
X156700002Y-91009003D02*
X153900004Y-91008998D01*
X156822017Y-95801004D02*
X157132003Y-95742001D01*
X157132003Y-95742001D02*
X157406015Y-95572007D01*
X157138010Y-90921998D02*
X156700002Y-91009003D01*
X157406015Y-95572007D02*
X157598997Y-95314006D01*
X157505007Y-90678011D02*
X157138010Y-90921998D01*
X157598997Y-95314006D02*
X157681003Y-95016001D01*
X157681003Y-95016001D02*
X157835003Y-94458001D01*
X157748994Y-90311012D02*
X157505007Y-90678011D01*
X157835003Y-94458001D02*
X158173004Y-94005003D01*
X157836003Y-89651005D02*
X157836008Y-89873001D01*
X157836008Y-89873001D02*
X157748994Y-90311012D01*
X158173004Y-94005003D02*
X158652010Y-93705997D01*
X158369001Y-89118001D02*
X157836003Y-89651005D01*
X158652010Y-93705997D02*
X159213990Y-93601000D01*
X158711014Y-88889010D02*
X158369001Y-89118001D01*
X159114003Y-88809001D02*
X158711014Y-88889010D01*
X159213990Y-93601000D02*
X161861003Y-93601001D01*
X161861000Y-88809003D02*
X159114003Y-88809001D01*
X161861003Y-93601001D02*
X162882000Y-92579999D01*
X162798003Y-89746002D02*
X161861000Y-88809003D01*
X113736008Y-55859008D02*
X113736008Y-56801008D01*
X113736008Y-56801008D02*
X117822022Y-56801011D01*
X114099011Y-55858995D02*
X113736008Y-55859008D01*
X114101014Y-52545993D02*
X114015998Y-52973010D01*
X114290011Y-52263005D02*
X114101014Y-52545993D01*
X114573008Y-52074008D02*
X114290011Y-52263005D01*
X114900009Y-52009005D02*
X114573008Y-52074008D01*
X117700007Y-52009010D02*
X114900009Y-52009005D01*
X117822022Y-56801011D02*
X118132008Y-56742008D01*
X118132008Y-56742008D02*
X118406020Y-56572014D01*
X118138015Y-51922005D02*
X117700007Y-52009010D01*
X118406020Y-56572014D02*
X118599002Y-56314013D01*
X118505012Y-51678018D02*
X118138015Y-51922005D01*
X118599002Y-56314013D02*
X118681008Y-56016008D01*
X118681008Y-56016008D02*
X118835008Y-55458008D01*
X118748999Y-51311019D02*
X118505012Y-51678018D01*
X118835008Y-55458008D02*
X119173009Y-55005010D01*
X118836008Y-50651012D02*
X118836013Y-50873008D01*
X118836013Y-50873008D02*
X118748999Y-51311019D01*
X119173009Y-55005010D02*
X119652015Y-54706004D01*
X119369006Y-50118008D02*
X118836008Y-50651012D01*
X119652015Y-54706004D02*
X120213995Y-54601007D01*
X119711019Y-49889017D02*
X119369006Y-50118008D01*
X120114008Y-49809008D02*
X119711019Y-49889017D01*
X120213995Y-54601007D02*
X122861008Y-54601008D01*
X122861005Y-49809010D02*
X120114008Y-49809008D01*
X122861008Y-54601008D02*
X123882005Y-53580006D01*
X123798008Y-50746009D02*
X122861005Y-49809010D01*
X94236011Y-96859001D02*
X94236011Y-97801001D01*
X94236011Y-97801001D02*
X98322025Y-97801004D01*
X94599014Y-96858988D02*
X94236011Y-96859001D01*
X94601017Y-93545986D02*
X94516001Y-93973003D01*
X94790014Y-93262998D02*
X94601017Y-93545986D01*
X95073011Y-93074001D02*
X94790014Y-93262998D01*
X95400012Y-93008998D02*
X95073011Y-93074001D01*
X98200010Y-93009003D02*
X95400012Y-93008998D01*
X98322025Y-97801004D02*
X98632011Y-97742001D01*
X98632011Y-97742001D02*
X98906023Y-97572007D01*
X98638018Y-92921998D02*
X98200010Y-93009003D01*
X98906023Y-97572007D02*
X99099005Y-97314006D01*
X99005015Y-92678011D02*
X98638018Y-92921998D01*
X99099005Y-97314006D02*
X99181011Y-97016001D01*
X99181011Y-97016001D02*
X99335011Y-96458001D01*
X99249002Y-92311012D02*
X99005015Y-92678011D01*
X99335011Y-96458001D02*
X99673012Y-96005003D01*
X99336011Y-91651005D02*
X99336016Y-91873001D01*
X99336016Y-91873001D02*
X99249002Y-92311012D01*
X99673012Y-96005003D02*
X100152018Y-95705997D01*
X99869009Y-91118001D02*
X99336011Y-91651005D01*
X100152018Y-95705997D02*
X100713998Y-95601000D01*
X100211022Y-90889010D02*
X99869009Y-91118001D01*
X100614011Y-90809001D02*
X100211022Y-90889010D01*
X100713998Y-95601000D02*
X103361011Y-95601001D01*
X103361008Y-90809003D02*
X100614011Y-90809001D01*
X103361011Y-95601001D02*
X104382008Y-94579999D01*
X104298011Y-91746002D02*
X103361008Y-90809003D01*
X195282008Y-97305007D02*
X200382007Y-97305007D01*
X199182007Y-93105007D02*
X204282000Y-93105004D01*
X195282008Y-97305007D02*
G75*
G02*
X193282007Y-95305008I9J2000010D01*
G01*
X199182007Y-93105007D02*
G75*
G02*
X197182006Y-91105007I-1J2000000D01*
G01*
X188104144Y-127657532D02*
X192100849Y-128507065D01*
X188299991Y-126736122D02*
X188104144Y-127657532D01*
X188655057Y-126811599D02*
X188299991Y-126736122D01*
X189345826Y-123571407D02*
X189173906Y-123971401D01*
X189589533Y-123333886D02*
X189345826Y-123571407D01*
X189905646Y-123207856D02*
X189589533Y-123333886D01*
X190239011Y-123212261D02*
X189905646Y-123207856D01*
X192100849Y-128507065D02*
X192416342Y-128513804D01*
X192416342Y-128513804D02*
X192719695Y-128404490D01*
X192719695Y-128404490D02*
X192962122Y-128192256D01*
X192962122Y-128192256D02*
X193104276Y-127917815D01*
X192977826Y-123794410D02*
X190239011Y-123212261D01*
X193104276Y-127917815D02*
X193370939Y-127404022D01*
X193370939Y-127404022D02*
X193795732Y-127031200D01*
X193424347Y-123800385D02*
X192977826Y-123794410D01*
X193795732Y-127031200D02*
X194326436Y-126838317D01*
X193834060Y-123638022D02*
X193424347Y-123800385D01*
X194149023Y-123329768D02*
X193834060Y-123638022D01*
X194325191Y-122919419D02*
X194149023Y-123329768D01*
X194326436Y-126838317D02*
X194897985Y-126852455D01*
X194371348Y-122702279D02*
X194325191Y-122919419D01*
X194897985Y-126852455D02*
X197487149Y-127402807D01*
X195003514Y-122291749D02*
X194371348Y-122702279D01*
X195385656Y-122138860D02*
X195003514Y-122291749D01*
X195796482Y-122144390D02*
X195385656Y-122138860D01*
X197487149Y-127402807D02*
X198698105Y-126616395D01*
X198483453Y-122715525D02*
X195796482Y-122144390D01*
X199205167Y-123826865D02*
X198483453Y-122715525D01*
X94236005Y-57859008D02*
X94236005Y-58801008D01*
X94236005Y-58801008D02*
X98322019Y-58801011D01*
X94599008Y-57858995D02*
X94236005Y-57859008D01*
X94601011Y-54545993D02*
X94515995Y-54973010D01*
X94790008Y-54263005D02*
X94601011Y-54545993D01*
X95073005Y-54074008D02*
X94790008Y-54263005D01*
X95400006Y-54009005D02*
X95073005Y-54074008D01*
X98200004Y-54009010D02*
X95400006Y-54009005D01*
X98322019Y-58801011D02*
X98632005Y-58742008D01*
X98632005Y-58742008D02*
X98906017Y-58572014D01*
X98638012Y-53922005D02*
X98200004Y-54009010D01*
X98906017Y-58572014D02*
X99098999Y-58314013D01*
X99005009Y-53678018D02*
X98638012Y-53922005D01*
X99098999Y-58314013D02*
X99181005Y-58016008D01*
X99181005Y-58016008D02*
X99335005Y-57458008D01*
X99248996Y-53311019D02*
X99005009Y-53678018D01*
X99335005Y-57458008D02*
X99673006Y-57005010D01*
X99336005Y-52651012D02*
X99336010Y-52873008D01*
X99336010Y-52873008D02*
X99248996Y-53311019D01*
X99673006Y-57005010D02*
X100152012Y-56706004D01*
X99869003Y-52118008D02*
X99336005Y-52651012D01*
X100152012Y-56706004D02*
X100713992Y-56601007D01*
X100211016Y-51889017D02*
X99869003Y-52118008D01*
X100614005Y-51809008D02*
X100211016Y-51889017D01*
X100713992Y-56601007D02*
X103361005Y-56601008D01*
X103361002Y-51809010D02*
X100614005Y-51809008D01*
X103361005Y-56601008D02*
X104382002Y-55580006D01*
X104298005Y-52746009D02*
X103361002Y-51809010D01*
X94236010Y-77358997D02*
X94236010Y-78300997D01*
X94236010Y-78300997D02*
X98322024Y-78301000D01*
X94599013Y-77358984D02*
X94236010Y-77358997D01*
X94601016Y-74045982D02*
X94516000Y-74472999D01*
X94790013Y-73762994D02*
X94601016Y-74045982D01*
X95073010Y-73573997D02*
X94790013Y-73762994D01*
X95400011Y-73508994D02*
X95073010Y-73573997D01*
X98200009Y-73508999D02*
X95400011Y-73508994D01*
X98322024Y-78301000D02*
X98632010Y-78241997D01*
X98632010Y-78241997D02*
X98906022Y-78072003D01*
X98638017Y-73421994D02*
X98200009Y-73508999D01*
X98906022Y-78072003D02*
X99099004Y-77814002D01*
X99005014Y-73178007D02*
X98638017Y-73421994D01*
X99099004Y-77814002D02*
X99181010Y-77515997D01*
X99181010Y-77515997D02*
X99335010Y-76957997D01*
X99249001Y-72811008D02*
X99005014Y-73178007D01*
X99335010Y-76957997D02*
X99673011Y-76504999D01*
X99336010Y-72151001D02*
X99336015Y-72372997D01*
X99336015Y-72372997D02*
X99249001Y-72811008D01*
X99673011Y-76504999D02*
X100152017Y-76205993D01*
X99869008Y-71617997D02*
X99336010Y-72151001D01*
X100152017Y-76205993D02*
X100713997Y-76100996D01*
X100211021Y-71389006D02*
X99869008Y-71617997D01*
X100614010Y-71308997D02*
X100211021Y-71389006D01*
X100713997Y-76100996D02*
X103361010Y-76100997D01*
X103361007Y-71308999D02*
X100614010Y-71308997D01*
X103361010Y-76100997D02*
X104382007Y-75079995D01*
X104298010Y-72245998D02*
X103361007Y-71308999D01*
X136782008Y-62055016D02*
X141882007Y-62055016D01*
X140682007Y-57855016D02*
X145782000Y-57855013D01*
X136782008Y-62055016D02*
G75*
G02*
X134782007Y-60055017I9J2000010D01*
G01*
X140682007Y-57855016D02*
G75*
G02*
X138682006Y-55855016I-1J2000000D01*
G01*
X167651252Y-125220891D02*
X171714881Y-125648003D01*
X167749718Y-124284051D02*
X167651252Y-125220891D01*
X168110732Y-124321994D02*
X167749718Y-124284051D01*
X168459034Y-121027354D02*
X168329854Y-121443124D01*
X168676570Y-120765672D02*
X168459034Y-121027354D01*
X168977773Y-120607276D02*
X168676570Y-120765672D01*
X169309776Y-120576813D02*
X168977773Y-120607276D01*
X171714881Y-125648003D02*
X172029337Y-125621723D01*
X172029337Y-125621723D02*
X172319607Y-125481292D01*
X172094437Y-120869494D02*
X169309776Y-120576813D01*
X172319607Y-125481292D02*
X172538514Y-125244880D01*
X172538514Y-125244880D02*
X172651217Y-124957084D01*
X172539136Y-120828754D02*
X172094437Y-120869494D01*
X172651217Y-124957084D02*
X172862701Y-124418238D01*
X172862701Y-124418238D02*
X173246200Y-124003055D01*
X172929618Y-120624455D02*
X172539136Y-120828754D01*
X173210652Y-120284966D02*
X172929618Y-120624455D01*
X173246200Y-124003055D02*
X173753833Y-123755758D01*
X173342956Y-119858458D02*
X173210652Y-120284966D01*
X173366164Y-119637676D02*
X173342956Y-119858458D01*
X173753833Y-123755758D02*
X174323715Y-123710076D01*
X173951955Y-119163315D02*
X173366164Y-119637676D01*
X174316020Y-118971319D02*
X173951955Y-119163315D01*
X174323715Y-123710076D02*
X176956227Y-123986765D01*
X174725176Y-118933876D02*
X174316020Y-118971319D01*
X176956227Y-123986765D02*
X178078356Y-123078080D01*
X177457127Y-119221016D02*
X174725176Y-118933876D01*
X178291050Y-120250828D02*
X177457127Y-119221016D01*
X113736003Y-75358999D02*
X113736003Y-76300999D01*
X113736003Y-76300999D02*
X117822017Y-76301002D01*
X114099006Y-75358986D02*
X113736003Y-75358999D01*
X114101009Y-72045984D02*
X114015993Y-72473001D01*
X114290006Y-71762996D02*
X114101009Y-72045984D01*
X114573003Y-71573999D02*
X114290006Y-71762996D01*
X114900004Y-71508996D02*
X114573003Y-71573999D01*
X117700002Y-71509001D02*
X114900004Y-71508996D01*
X117822017Y-76301002D02*
X118132003Y-76241999D01*
X118132003Y-76241999D02*
X118406015Y-76072005D01*
X118138010Y-71421996D02*
X117700002Y-71509001D01*
X118406015Y-76072005D02*
X118598997Y-75814004D01*
X118505007Y-71178009D02*
X118138010Y-71421996D01*
X118598997Y-75814004D02*
X118681003Y-75515999D01*
X118681003Y-75515999D02*
X118835003Y-74957999D01*
X118748994Y-70811010D02*
X118505007Y-71178009D01*
X118835003Y-74957999D02*
X119173004Y-74505001D01*
X118836003Y-70151003D02*
X118836008Y-70372999D01*
X118836008Y-70372999D02*
X118748994Y-70811010D01*
X119173004Y-74505001D02*
X119652010Y-74205995D01*
X119369001Y-69617999D02*
X118836003Y-70151003D01*
X119652010Y-74205995D02*
X120213990Y-74100998D01*
X119711014Y-69389008D02*
X119369001Y-69617999D01*
X120114003Y-69308999D02*
X119711014Y-69389008D01*
X120213990Y-74100998D02*
X122861003Y-74100999D01*
X122861000Y-69309001D02*
X120114003Y-69308999D01*
X122861003Y-74100999D02*
X123882000Y-73079997D01*
X123798003Y-70246000D02*
X122861000Y-69309001D01*
X97782011Y-86554997D02*
X102882010Y-86554997D01*
X101682010Y-82354997D02*
X106782003Y-82354994D01*
X97782011Y-86554997D02*
G75*
G02*
X95782010Y-84554998I9J2000010D01*
G01*
X101682010Y-82354997D02*
G75*
G02*
X99682009Y-80354997I-1J2000000D01*
G01*
X117282004Y-84554999D02*
X122382003Y-84554999D01*
X121182003Y-80354999D02*
X126281996Y-80354996D01*
X117282004Y-84554999D02*
G75*
G02*
X115282003Y-82555000I9J2000010D01*
G01*
X121182003Y-80354999D02*
G75*
G02*
X119182002Y-78354999I-1J2000000D01*
G01*
X156282004Y-104055001D02*
X161382003Y-104055001D01*
X160182003Y-99855001D02*
X165281996Y-99854998D01*
X156282004Y-104055001D02*
G75*
G02*
X154282003Y-102055002I9J2000010D01*
G01*
X160182003Y-99855001D02*
G75*
G02*
X158182002Y-97855001I-1J2000000D01*
G01*
X156282014Y-65054996D02*
X161382013Y-65054996D01*
X160182013Y-60854996D02*
X165282006Y-60854993D01*
X156282014Y-65054996D02*
G75*
G02*
X154282013Y-63054997I9J2000010D01*
G01*
X160182013Y-60854996D02*
G75*
G02*
X158182012Y-58854996I-1J2000000D01*
G01*
X208190276Y-132218735D02*
X212076293Y-133481378D01*
X208481370Y-131322839D02*
X208190276Y-132218735D01*
X208826602Y-131435012D02*
X208481370Y-131322839D01*
X209852279Y-128284780D02*
X209639489Y-128664615D01*
X210119478Y-128074035D02*
X209852279Y-128284780D01*
X210447036Y-127981739D02*
X210119478Y-128074035D01*
X210778108Y-128020968D02*
X210447036Y-127981739D01*
X212076293Y-133481378D02*
X212389353Y-133521060D01*
X212389353Y-133521060D02*
X212702477Y-133444055D01*
X212702477Y-133444055D02*
X212965753Y-133258321D01*
X212965753Y-133258321D02*
X213135829Y-133000244D01*
X213135829Y-133000244D02*
X213454716Y-132517139D01*
X213441073Y-128886215D02*
X210778108Y-128020968D01*
X213454716Y-132517139D02*
X213916165Y-132190761D01*
X213884521Y-128938822D02*
X213441073Y-128886215D01*
X213916165Y-132190761D02*
X214464117Y-132054416D01*
X214308958Y-128820174D02*
X213884521Y-128938822D01*
X214464117Y-132054416D02*
X215031056Y-132128210D01*
X214654426Y-128546536D02*
X214308958Y-128820174D01*
X214872511Y-128156855D02*
X214654426Y-128546536D01*
X214941117Y-127945725D02*
X214872511Y-128156855D01*
X215031056Y-132128210D02*
X217548504Y-132946190D01*
X215612738Y-127603517D02*
X214941117Y-127945725D01*
X216008764Y-127491408D02*
X215612738Y-127603517D01*
X216416761Y-127539858D02*
X216008764Y-127491408D01*
X217548504Y-132946190D02*
X218835036Y-132290673D01*
X219029309Y-128388724D02*
X216416761Y-127539858D01*
X219630904Y-129569416D02*
X219029309Y-128388724D01*
X191736012Y-68608997D02*
X191736012Y-69550997D01*
X191736012Y-69550997D02*
X195822026Y-69551000D01*
X192099015Y-68608984D02*
X191736012Y-68608997D01*
X192101018Y-65295982D02*
X192016002Y-65722999D01*
X192290015Y-65012994D02*
X192101018Y-65295982D01*
X192573012Y-64823997D02*
X192290015Y-65012994D01*
X192900013Y-64758994D02*
X192573012Y-64823997D01*
X195700011Y-64758999D02*
X192900013Y-64758994D01*
X195822026Y-69551000D02*
X196132012Y-69491997D01*
X196132012Y-69491997D02*
X196406024Y-69322003D01*
X196138019Y-64671994D02*
X195700011Y-64758999D01*
X196406024Y-69322003D02*
X196599006Y-69064002D01*
X196505016Y-64428007D02*
X196138019Y-64671994D01*
X196599006Y-69064002D02*
X196681012Y-68765997D01*
X196681012Y-68765997D02*
X196835012Y-68207997D01*
X196749003Y-64061008D02*
X196505016Y-64428007D01*
X196835012Y-68207997D02*
X197173013Y-67754999D01*
X196836012Y-63401001D02*
X196836017Y-63622997D01*
X196836017Y-63622997D02*
X196749003Y-64061008D01*
X197173013Y-67754999D02*
X197652019Y-67455993D01*
X197369010Y-62867997D02*
X196836012Y-63401001D01*
X197652019Y-67455993D02*
X198213999Y-67350996D01*
X197711023Y-62639006D02*
X197369010Y-62867997D01*
X198114012Y-62558997D02*
X197711023Y-62639006D01*
X198213999Y-67350996D02*
X200861012Y-67350997D01*
X200861009Y-62558999D02*
X198114012Y-62558997D01*
X200861012Y-67350997D02*
X201882009Y-66329995D01*
X201798012Y-63495998D02*
X200861009Y-62558999D01*
X74736007Y-78359006D02*
X74736007Y-79301006D01*
X74736007Y-79301006D02*
X78822021Y-79301009D01*
X75099010Y-78358993D02*
X74736007Y-78359006D01*
X75101013Y-75045991D02*
X75015997Y-75473008D01*
X75290010Y-74763003D02*
X75101013Y-75045991D01*
X75573007Y-74574006D02*
X75290010Y-74763003D01*
X75900008Y-74509003D02*
X75573007Y-74574006D01*
X78700006Y-74509008D02*
X75900008Y-74509003D01*
X78822021Y-79301009D02*
X79132007Y-79242006D01*
X79132007Y-79242006D02*
X79406019Y-79072012D01*
X79138014Y-74422003D02*
X78700006Y-74509008D01*
X79406019Y-79072012D02*
X79599001Y-78814011D01*
X79505011Y-74178016D02*
X79138014Y-74422003D01*
X79599001Y-78814011D02*
X79681007Y-78516006D01*
X79681007Y-78516006D02*
X79835007Y-77958006D01*
X79748998Y-73811017D02*
X79505011Y-74178016D01*
X79835007Y-77958006D02*
X80173008Y-77505008D01*
X79836007Y-73151010D02*
X79836012Y-73373006D01*
X79836012Y-73373006D02*
X79748998Y-73811017D01*
X80173008Y-77505008D02*
X80652014Y-77206002D01*
X80369005Y-72618006D02*
X79836007Y-73151010D01*
X80652014Y-77206002D02*
X81213994Y-77101005D01*
X80711018Y-72389015D02*
X80369005Y-72618006D01*
X81114007Y-72309006D02*
X80711018Y-72389015D01*
X81213994Y-77101005D02*
X83861007Y-77101006D01*
X83861004Y-72309008D02*
X81114007Y-72309006D01*
X83861007Y-77101006D02*
X84882004Y-76080004D01*
X84798007Y-73246007D02*
X83861004Y-72309008D01*
X189856540Y-136468426D02*
X194845098Y-137528774D01*
X194544549Y-133171058D02*
X199533099Y-134231408D01*
X189856540Y-136468426D02*
G75*
G02*
X188316075Y-134096304I415829J1956294D01*
G01*
X194544549Y-133171058D02*
G75*
G02*
X193004080Y-130798940I415834J1956300D01*
G01*
X103782010Y-125555000D02*
X108882009Y-125555000D01*
X107682009Y-121355000D02*
X112782002Y-121354997D01*
X103782010Y-125555000D02*
G75*
G02*
X101782009Y-123555001I9J2000010D01*
G01*
X107682009Y-121355000D02*
G75*
G02*
X105682008Y-119355000I-1J2000000D01*
G01*
X191736007Y-88109007D02*
X191736007Y-89051007D01*
X191736007Y-89051007D02*
X195822021Y-89051010D01*
X192099010Y-88108994D02*
X191736007Y-88109007D01*
X192101013Y-84795992D02*
X192015997Y-85223009D01*
X192290010Y-84513004D02*
X192101013Y-84795992D01*
X192573007Y-84324007D02*
X192290010Y-84513004D01*
X192900008Y-84259004D02*
X192573007Y-84324007D01*
X195700006Y-84259009D02*
X192900008Y-84259004D01*
X195822021Y-89051010D02*
X196132007Y-88992007D01*
X196132007Y-88992007D02*
X196406019Y-88822013D01*
X196138014Y-84172004D02*
X195700006Y-84259009D01*
X196406019Y-88822013D02*
X196599001Y-88564012D01*
X196505011Y-83928017D02*
X196138014Y-84172004D01*
X196599001Y-88564012D02*
X196681007Y-88266007D01*
X196681007Y-88266007D02*
X196835007Y-87708007D01*
X196748998Y-83561018D02*
X196505011Y-83928017D01*
X196835007Y-87708007D02*
X197173008Y-87255009D01*
X196836007Y-82901011D02*
X196836012Y-83123007D01*
X196836012Y-83123007D02*
X196748998Y-83561018D01*
X197173008Y-87255009D02*
X197652014Y-86956003D01*
X197369005Y-82368007D02*
X196836007Y-82901011D01*
X197652014Y-86956003D02*
X198213994Y-86851006D01*
X197711018Y-82139016D02*
X197369005Y-82368007D01*
X198114007Y-82059007D02*
X197711018Y-82139016D01*
X198213994Y-86851006D02*
X200861007Y-86851007D01*
X200861004Y-82059009D02*
X198114007Y-82059007D01*
X200861007Y-86851007D02*
X201882004Y-85830005D01*
X201798007Y-82996008D02*
X200861004Y-82059009D01*
X74736008Y-58858998D02*
X74736008Y-59800998D01*
X74736008Y-59800998D02*
X78822022Y-59801001D01*
X75099011Y-58858985D02*
X74736008Y-58858998D01*
X75101014Y-55545983D02*
X75015998Y-55973000D01*
X75290011Y-55262995D02*
X75101014Y-55545983D01*
X75573008Y-55073998D02*
X75290011Y-55262995D01*
X75900009Y-55008995D02*
X75573008Y-55073998D01*
X78700007Y-55009000D02*
X75900009Y-55008995D01*
X78822022Y-59801001D02*
X79132008Y-59741998D01*
X79132008Y-59741998D02*
X79406020Y-59572004D01*
X79138015Y-54921995D02*
X78700007Y-55009000D01*
X79406020Y-59572004D02*
X79599002Y-59314003D01*
X79505012Y-54678008D02*
X79138015Y-54921995D01*
X79599002Y-59314003D02*
X79681008Y-59015998D01*
X79681008Y-59015998D02*
X79835008Y-58457998D01*
X79748999Y-54311009D02*
X79505012Y-54678008D01*
X79835008Y-58457998D02*
X80173009Y-58005000D01*
X79836008Y-53651002D02*
X79836013Y-53872998D01*
X79836013Y-53872998D02*
X79748999Y-54311009D01*
X80173009Y-58005000D02*
X80652015Y-57705994D01*
X80369006Y-53117998D02*
X79836008Y-53651002D01*
X80652015Y-57705994D02*
X81213995Y-57600997D01*
X80711019Y-52889007D02*
X80369006Y-53117998D01*
X81114008Y-52808998D02*
X80711019Y-52889007D01*
X81213995Y-57600997D02*
X83861008Y-57600998D01*
X83861005Y-52809000D02*
X81114008Y-52808998D01*
X83861008Y-57600998D02*
X84882005Y-56579996D01*
X84798008Y-53745999D02*
X83861005Y-52809000D01*
X113736002Y-94859009D02*
X113736002Y-95801009D01*
X113736002Y-95801009D02*
X117822016Y-95801012D01*
X114099005Y-94858996D02*
X113736002Y-94859009D01*
X114101008Y-91545994D02*
X114015992Y-91973011D01*
X114290005Y-91263006D02*
X114101008Y-91545994D01*
X114573002Y-91074009D02*
X114290005Y-91263006D01*
X114900003Y-91009006D02*
X114573002Y-91074009D01*
X117700001Y-91009011D02*
X114900003Y-91009006D01*
X117822016Y-95801012D02*
X118132002Y-95742009D01*
X118132002Y-95742009D02*
X118406014Y-95572015D01*
X118138009Y-90922006D02*
X117700001Y-91009011D01*
X118406014Y-95572015D02*
X118598996Y-95314014D01*
X118505006Y-90678019D02*
X118138009Y-90922006D01*
X118598996Y-95314014D02*
X118681002Y-95016009D01*
X118681002Y-95016009D02*
X118835002Y-94458009D01*
X118748993Y-90311020D02*
X118505006Y-90678019D01*
X118835002Y-94458009D02*
X119173003Y-94005011D01*
X118836002Y-89651013D02*
X118836007Y-89873009D01*
X118836007Y-89873009D02*
X118748993Y-90311020D01*
X119173003Y-94005011D02*
X119652009Y-93706005D01*
X119369000Y-89118009D02*
X118836002Y-89651013D01*
X119652009Y-93706005D02*
X120213989Y-93601008D01*
X119711013Y-88889018D02*
X119369000Y-89118009D01*
X120114002Y-88809009D02*
X119711013Y-88889018D01*
X120213989Y-93601008D02*
X122861002Y-93601009D01*
X122860999Y-88809011D02*
X120114002Y-88809009D01*
X122861002Y-93601009D02*
X123881999Y-92580007D01*
X123798002Y-89746010D02*
X122860999Y-88809011D01*
X136782005Y-101055009D02*
X141882004Y-101055009D01*
X140682004Y-96855009D02*
X145781997Y-96855006D01*
X136782005Y-101055009D02*
G75*
G02*
X134782004Y-99055010I9J2000010D01*
G01*
X140682004Y-96855009D02*
G75*
G02*
X138682003Y-94855009I-1J2000000D01*
G01*
X152736005Y-75359007D02*
X152736005Y-76301007D01*
X152736005Y-76301007D02*
X156822019Y-76301010D01*
X153099008Y-75358994D02*
X152736005Y-75359007D01*
X153101011Y-72045992D02*
X153015995Y-72473009D01*
X153290008Y-71763004D02*
X153101011Y-72045992D01*
X153573005Y-71574007D02*
X153290008Y-71763004D01*
X153900006Y-71509004D02*
X153573005Y-71574007D01*
X156700004Y-71509009D02*
X153900006Y-71509004D01*
X156822019Y-76301010D02*
X157132005Y-76242007D01*
X157132005Y-76242007D02*
X157406017Y-76072013D01*
X157138012Y-71422004D02*
X156700004Y-71509009D01*
X157406017Y-76072013D02*
X157598999Y-75814012D01*
X157505009Y-71178017D02*
X157138012Y-71422004D01*
X157598999Y-75814012D02*
X157681005Y-75516007D01*
X157681005Y-75516007D02*
X157835005Y-74958007D01*
X157748996Y-70811018D02*
X157505009Y-71178017D01*
X157835005Y-74958007D02*
X158173006Y-74505009D01*
X157836005Y-70151011D02*
X157836010Y-70373007D01*
X157836010Y-70373007D02*
X157748996Y-70811018D01*
X158173006Y-74505009D02*
X158652012Y-74206003D01*
X158369003Y-69618007D02*
X157836005Y-70151011D01*
X158652012Y-74206003D02*
X159213992Y-74101006D01*
X158711016Y-69389016D02*
X158369003Y-69618007D01*
X159114005Y-69309007D02*
X158711016Y-69389016D01*
X159213992Y-74101006D02*
X161861005Y-74101007D01*
X161861002Y-69309009D02*
X159114005Y-69309007D01*
X161861005Y-74101007D02*
X162882002Y-73080005D01*
X162798005Y-70246008D02*
X161861002Y-69309009D01*
X80736015Y-117359001D02*
X80736015Y-118301001D01*
X80736015Y-118301001D02*
X84822029Y-118301004D01*
X81099018Y-117358988D02*
X80736015Y-117359001D01*
X81101021Y-114045986D02*
X81016005Y-114473003D01*
X81290018Y-113762998D02*
X81101021Y-114045986D01*
X81573015Y-113574001D02*
X81290018Y-113762998D01*
X81900016Y-113508998D02*
X81573015Y-113574001D01*
X84700014Y-113509003D02*
X81900016Y-113508998D01*
X84822029Y-118301004D02*
X85132015Y-118242001D01*
X85132015Y-118242001D02*
X85406027Y-118072007D01*
X85138022Y-113421998D02*
X84700014Y-113509003D01*
X85406027Y-118072007D02*
X85599009Y-117814006D01*
X85505019Y-113178011D02*
X85138022Y-113421998D01*
X85599009Y-117814006D02*
X85681015Y-117516001D01*
X85681015Y-117516001D02*
X85835015Y-116958001D01*
X85749006Y-112811012D02*
X85505019Y-113178011D01*
X85835015Y-116958001D02*
X86173016Y-116505003D01*
X85836015Y-112151005D02*
X85836020Y-112373001D01*
X85836020Y-112373001D02*
X85749006Y-112811012D01*
X86173016Y-116505003D02*
X86652022Y-116205997D01*
X86369013Y-111618001D02*
X85836015Y-112151005D01*
X86652022Y-116205997D02*
X87214002Y-116101000D01*
X86711026Y-111389010D02*
X86369013Y-111618001D01*
X87114015Y-111309001D02*
X86711026Y-111389010D01*
X87214002Y-116101000D02*
X89861015Y-116101001D01*
X89861012Y-111309003D02*
X87114015Y-111309001D01*
X89861015Y-116101001D02*
X90882012Y-115079999D01*
X90798015Y-112246002D02*
X89861012Y-111309003D01*
X170315047Y-133800343D02*
X175387111Y-134333429D01*
X174632698Y-130031006D02*
X179704765Y-130564097D01*
X170315047Y-133800343D02*
G75*
G02*
X168535063Y-131602232I209050J1989037D01*
G01*
X174632698Y-130031006D02*
G75*
G02*
X172852717Y-127832901I209073J1989052D01*
G01*
X74736000Y-97859009D02*
X74736000Y-98801009D01*
X74736000Y-98801009D02*
X78822014Y-98801012D01*
X75099003Y-97858996D02*
X74736000Y-97859009D01*
X75101006Y-94545994D02*
X75015990Y-94973011D01*
X75290003Y-94263006D02*
X75101006Y-94545994D01*
X75573000Y-94074009D02*
X75290003Y-94263006D01*
X75900001Y-94009006D02*
X75573000Y-94074009D01*
X78699999Y-94009011D02*
X75900001Y-94009006D01*
X78822014Y-98801012D02*
X79132000Y-98742009D01*
X79132000Y-98742009D02*
X79406012Y-98572015D01*
X79138007Y-93922006D02*
X78699999Y-94009011D01*
X79406012Y-98572015D02*
X79598994Y-98314014D01*
X79505004Y-93678019D02*
X79138007Y-93922006D01*
X79598994Y-98314014D02*
X79681000Y-98016009D01*
X79681000Y-98016009D02*
X79835000Y-97458009D01*
X79748991Y-93311020D02*
X79505004Y-93678019D01*
X79835000Y-97458009D02*
X80173001Y-97005011D01*
X79836000Y-92651013D02*
X79836005Y-92873009D01*
X79836005Y-92873009D02*
X79748991Y-93311020D01*
X80173001Y-97005011D02*
X80652007Y-96706005D01*
X80368998Y-92118009D02*
X79836000Y-92651013D01*
X80652007Y-96706005D02*
X81213987Y-96601008D01*
X80711011Y-91889018D02*
X80368998Y-92118009D01*
X81114000Y-91809009D02*
X80711011Y-91889018D01*
X81213987Y-96601008D02*
X83861000Y-96601009D01*
X83860997Y-91809011D02*
X81114000Y-91809009D01*
X83861000Y-96601009D02*
X84881997Y-95580007D01*
X84798000Y-92746010D02*
X83860997Y-91809011D01*
X209012096Y-141164530D02*
X213862475Y-142740512D01*
X214019088Y-138375258D02*
X218869477Y-139951244D01*
X209012096Y-141164530D02*
G75*
G02*
X207728019Y-138644378I618036J1902114D01*
G01*
X214019088Y-138375258D02*
G75*
G02*
X212735009Y-135855112I618025J1902108D01*
G01*
X175782005Y-107055001D02*
X180882004Y-107055001D01*
X179682004Y-102855001D02*
X184781997Y-102854998D01*
X175782005Y-107055001D02*
G75*
G02*
X173782004Y-105055002I9J2000010D01*
G01*
X179682004Y-102855001D02*
G75*
G02*
X177682003Y-100855001I-1J2000000D01*
G01*
X133236009Y-72359007D02*
X133236009Y-73301007D01*
X133236009Y-73301007D02*
X137322023Y-73301010D01*
X133599012Y-72358994D02*
X133236009Y-72359007D01*
X133601015Y-69045992D02*
X133515999Y-69473009D01*
X133790012Y-68763004D02*
X133601015Y-69045992D01*
X134073009Y-68574007D02*
X133790012Y-68763004D01*
X134400010Y-68509004D02*
X134073009Y-68574007D01*
X137200008Y-68509009D02*
X134400010Y-68509004D01*
X137322023Y-73301010D02*
X137632009Y-73242007D01*
X137632009Y-73242007D02*
X137906021Y-73072013D01*
X137638016Y-68422004D02*
X137200008Y-68509009D01*
X137906021Y-73072013D02*
X138099003Y-72814012D01*
X138005013Y-68178017D02*
X137638016Y-68422004D01*
X138099003Y-72814012D02*
X138181009Y-72516007D01*
X138181009Y-72516007D02*
X138335009Y-71958007D01*
X138249000Y-67811018D02*
X138005013Y-68178017D01*
X138335009Y-71958007D02*
X138673010Y-71505009D01*
X138336009Y-67151011D02*
X138336014Y-67373007D01*
X138336014Y-67373007D02*
X138249000Y-67811018D01*
X138673010Y-71505009D02*
X139152016Y-71206003D01*
X138869007Y-66618007D02*
X138336009Y-67151011D01*
X139152016Y-71206003D02*
X139713996Y-71101006D01*
X139211020Y-66389016D02*
X138869007Y-66618007D01*
X139614009Y-66309007D02*
X139211020Y-66389016D01*
X139713996Y-71101006D02*
X142361009Y-71101007D01*
X142361006Y-66309009D02*
X139614009Y-66309007D01*
X142361009Y-71101007D02*
X143382006Y-70080005D01*
X143298009Y-67246008D02*
X142361006Y-66309009D01*
X152736013Y-55858996D02*
X152736013Y-56800996D01*
X152736013Y-56800996D02*
X156822027Y-56800999D01*
X153099016Y-55858983D02*
X152736013Y-55858996D01*
X153101019Y-52545981D02*
X153016003Y-52972998D01*
X153290016Y-52262993D02*
X153101019Y-52545981D01*
X153573013Y-52073996D02*
X153290016Y-52262993D01*
X153900014Y-52008993D02*
X153573013Y-52073996D01*
X156700012Y-52008998D02*
X153900014Y-52008993D01*
X156822027Y-56800999D02*
X157132013Y-56741996D01*
X157132013Y-56741996D02*
X157406025Y-56572002D01*
X157138020Y-51921993D02*
X156700012Y-52008998D01*
X157406025Y-56572002D02*
X157599007Y-56314001D01*
X157505017Y-51678006D02*
X157138020Y-51921993D01*
X157599007Y-56314001D02*
X157681013Y-56015996D01*
X157681013Y-56015996D02*
X157835013Y-55457996D01*
X157749004Y-51311007D02*
X157505017Y-51678006D01*
X157835013Y-55457996D02*
X158173014Y-55004998D01*
X157836013Y-50651000D02*
X157836018Y-50872996D01*
X157836018Y-50872996D02*
X157749004Y-51311007D01*
X158173014Y-55004998D02*
X158652020Y-54705992D01*
X158369011Y-50117996D02*
X157836013Y-50651000D01*
X158652020Y-54705992D02*
X159214000Y-54600995D01*
X158711024Y-49889005D02*
X158369011Y-50117996D01*
X159114013Y-49808996D02*
X158711024Y-49889005D01*
X159214000Y-54600995D02*
X161861013Y-54600996D01*
X161861010Y-49808998D02*
X159114013Y-49808996D01*
X161861013Y-54600996D02*
X162882010Y-53579994D01*
X162798013Y-50745997D02*
X161861010Y-49808998D01*
X175782010Y-68055004D02*
X180882009Y-68055004D01*
X179682009Y-63855004D02*
X184782002Y-63855001D01*
X175782010Y-68055004D02*
G75*
G02*
X173782009Y-66055005I9J2000010D01*
G01*
X179682009Y-63855004D02*
G75*
G02*
X177682008Y-61855004I-1J2000000D01*
G01*
X84282016Y-126555001D02*
X89382015Y-126555001D01*
X88182015Y-122355001D02*
X93282008Y-122354998D01*
X84282016Y-126555001D02*
G75*
G02*
X82282015Y-124555002I9J2000010D01*
G01*
X88182015Y-122355001D02*
G75*
G02*
X86182014Y-120355001I-1J2000000D01*
G01*
X78282008Y-87555006D02*
X83382007Y-87555006D01*
X82182007Y-83355006D02*
X87282000Y-83355003D01*
X78282008Y-87555006D02*
G75*
G02*
X76282007Y-85555007I9J2000010D01*
G01*
X82182007Y-83355006D02*
G75*
G02*
X80182006Y-81355006I-1J2000000D01*
G01*
X195282013Y-77804997D02*
X200382012Y-77804997D01*
X199182012Y-73604997D02*
X204282005Y-73604994D01*
X195282013Y-77804997D02*
G75*
G02*
X193282012Y-75804998I9J2000010D01*
G01*
X199182012Y-73604997D02*
G75*
G02*
X197182011Y-71604997I-1J2000000D01*
G01*
X117282003Y-104055009D02*
X122382002Y-104055009D01*
X121182002Y-99855009D02*
X126281995Y-99855006D01*
X117282003Y-104055009D02*
G75*
G02*
X115282002Y-102055010I9J2000010D01*
G01*
X121182002Y-99855009D02*
G75*
G02*
X119182001Y-97855009I-1J2000000D01*
G01*
X97782006Y-67055008D02*
X102882005Y-67055008D01*
X101682005Y-62855008D02*
X106781998Y-62855005D01*
X97782006Y-67055008D02*
G75*
G02*
X95782005Y-65055009I9J2000010D01*
G01*
X101682005Y-62855008D02*
G75*
G02*
X99682004Y-60855008I-1J2000000D01*
G01*
%TD*%
D15*
%TO.C,*%
X215921014Y-58285999D03*
%TD*%
%TO.C,*%
X228284507Y-51213002D03*
%TD*%
%TO.C,*%
X225744510Y-81692999D03*
%TD*%
%TO.C,REF\u002A\u002A*%
X213043506Y-53753017D03*
X213043504Y-56293014D03*
X213043506Y-58833017D03*
X213043505Y-61373017D03*
X213043505Y-63913019D03*
X213043500Y-66453007D03*
X213043500Y-68993021D03*
X213043504Y-71533005D03*
X213043512Y-74073017D03*
X213043506Y-76613020D03*
X213043504Y-79153016D03*
X213043506Y-81693017D03*
X228283506Y-81693017D03*
X228283508Y-79153020D03*
X228283506Y-76613017D03*
X228283507Y-74073017D03*
X228283507Y-71533015D03*
X228283512Y-68993027D03*
X228283512Y-66453013D03*
X228283508Y-63913029D03*
X228283500Y-61373017D03*
X228283506Y-58833014D03*
X228283508Y-56293018D03*
X228283506Y-53753017D03*
%TD*%
D16*
%TO.C,*%
X216896508Y-85762001D03*
%TD*%
D15*
%TO.C,*%
X223204508Y-81692999D03*
%TD*%
%TO.C,*%
X224516501Y-85762007D03*
%TD*%
%TO.C,*%
X215584520Y-79153000D03*
%TD*%
%TO.C,*%
X219436512Y-85762004D03*
%TD*%
%TO.C,*%
X220711002Y-63856001D03*
%TD*%
%TO.C,*%
X220711004Y-66396011D03*
%TD*%
%TO.C,*%
X215584512Y-81693007D03*
%TD*%
%TO.C,*%
X151588011Y-122643005D03*
%TD*%
%TO.C,*%
X220711010Y-68935997D03*
%TD*%
%TO.C,*%
X220711007Y-71476005D03*
%TD*%
%TO.C,*%
X221976507Y-85761994D03*
%TD*%
%TO.C,*%
X136588001Y-122643000D03*
%TD*%
%TO.C,*%
X218124506Y-81693004D03*
%TD*%
%TO.C,*%
X213044503Y-51213009D03*
%TD*%
%TO.C,*%
X151588013Y-118103007D03*
%TD*%
%TO.C,*%
X136588002Y-118103009D03*
%TD*%
%TO.C,*%
X220664509Y-81693011D03*
%TD*%
M02*
