M48
; DRILL file {KiCad 8.0.3+1} date 2024-08-06T22:55:25-0400
; FORMAT={-:-/ absolute / inch / decimal}
; #@! TF.CreationDate,2024-08-06T22:55:25-04:00
; #@! TF.GenerationSoftware,Kicad,Pcbnew,8.0.3+1
; #@! TF.FileFunction,Plated,1,2,PTH
FMAT,2
INCH
; #@! TA.AperFunction,Plated,PTH,ViaDrill
T1C0.0118
; #@! TA.AperFunction,Plated,PTH,ComponentDrill
T2C0.0354
; #@! TA.AperFunction,Plated,PTH,ComponentDrill
T3C0.0390
; #@! TA.AperFunction,Plated,PTH,ComponentDrill
T4C0.0394
; #@! TA.AperFunction,Plated,PTH,ComponentDrill
T5C0.0433
; #@! TA.AperFunction,Plated,PTH,ComponentDrill
T6C0.0591
%
G90
G05
T1
X2.9731Y-2.3854
X2.9731Y-3.1472
X2.9731Y-3.9336
X2.9959Y-4.7173
X2.9973Y-4.7929
X3.0028Y-4.6429
X3.02Y-4.85
X3.0336Y-4.9288
X3.2095Y-4.6761
X3.2368Y-2.6853
X3.2406Y-4.2186
X3.2433Y-3.8006
X3.2443Y-3.4509
X3.2443Y-2.2648
X3.2451Y-3.0329
X3.3654Y-3.8835
X3.3678Y-3.1156
X3.4158Y-2.3473
X3.4776Y-4.9845
X3.478Y-4.5682
X3.5137Y-3.1452
X3.5137Y-3.9277
X3.5139Y-2.417
X3.5612Y-4.1285
X3.5637Y-3.3576
X3.5643Y-2.6078
X3.6091Y-4.652
X3.7406Y-3.1025
X3.7406Y-2.3259
X3.7408Y-3.872
X3.7499Y-4.68
X3.799Y-4.8909
X3.977Y-4.6371
X4.0093Y-2.6432
X4.0096Y-4.1806
X4.0097Y-3.7607
X4.0115Y-2.2258
X4.0118Y-3.4117
X4.0126Y-2.9931
X4.1493Y-2.3109
X4.1528Y-3.8479
X4.1611Y-3.0776
X4.2459Y-4.9452
X4.2467Y-4.5288
X4.2814Y-3.8708
X4.2814Y-2.3694
X4.2814Y-3.1094
X4.3275Y-3.3198
X4.3277Y-4.0856
X4.3315Y-2.5565
X4.3859Y-4.6148
X4.5085Y-3.7929
X4.5085Y-2.2531
X4.5087Y-3.0242
X4.5176Y-4.6407
X4.5695Y-4.8521
X4.7776Y-2.568
X4.7787Y-3.3351
X4.7788Y-3.6819
X4.779Y-2.9144
X4.7791Y-4.1019
X4.7792Y-2.1471
X4.9209Y-3.7674
X4.9209Y-2.2304
X4.927Y-3.0004
X5.0489Y-3.0291
X5.0491Y-3.7879
X5.0493Y-2.2924
X5.0984Y-3.2403
X5.0988Y-4.0082
X5.1033Y-2.4842
X5.276Y-3.6716
X5.2762Y-2.1352
X5.2762Y-2.907
X5.5443Y-3.2129
X5.5463Y-2.7963
X5.5465Y-3.5638
X5.5469Y-2.0284
X5.5472Y-2.4464
X5.5476Y-3.9812
X5.6038Y-4.5516
X5.6235Y-4.7845
X5.6713Y-3.6447
X5.6853Y-2.1134
X5.6931Y-2.8811
X5.8171Y-2.921
X5.8174Y-3.6771
X5.8178Y-2.1635
X5.863Y-3.8915
X5.8651Y-3.121
X5.8715Y-2.347
X6.0439Y-3.0303
X6.0439Y-3.7909
X6.0439Y-2.2568
X6.311Y-4.0987
X6.3128Y-3.3314
X6.3132Y-3.6819
X6.3142Y-2.5704
X6.3144Y-2.9148
X6.3158Y-2.1465
X6.4461Y-3.768
X6.4481Y-2.9993
X6.4508Y-2.2331
X6.5846Y-3.8106
X6.5846Y-2.2901
X6.5848Y-3.0304
X6.6291Y-4.9518
X6.6321Y-3.238
X6.6354Y-4.009
X6.6391Y-2.463
X6.7052Y-4.47
X6.7396Y-4.4694
X6.8062Y-4.4381
X6.8117Y-3.9184
X6.8117Y-3.1474
X6.8117Y-2.3669
X6.8178Y-4.5019
X6.8628Y-5.2875
X6.9094Y-4.8749
X7.0504Y-4.9697
X7.0619Y-2.6493
X7.0797Y-4.217
X7.0802Y-3.7998
X7.0831Y-3.4509
X7.0833Y-3.0329
X7.0853Y-2.2652
X7.1669Y-5.0057
X7.1921Y-5.2313
X7.2256Y-2.3514
X7.2262Y-3.1199
X7.2323Y-3.8851
X7.3521Y-3.9121
X7.3523Y-2.3739
X7.3523Y-3.1714
X7.3964Y-2.6343
X7.3994Y-3.3572
X7.4013Y-4.1281
X7.4314Y-5.0536
X7.5792Y-2.7629
X7.5794Y-3.5249
X7.5961Y-2.1906
X7.6294Y-5.4093
X7.7158Y-5.0042
X7.7418Y-2.1865
X7.8137Y-3.8328
X7.8364Y-5.1099
X7.8502Y-3.0653
X7.8512Y-2.6489
X7.8522Y-3.4162
X7.9595Y-5.3873
X7.9597Y-5.1685
X7.9825Y-4.4146
X7.9884Y-2.7341
X7.9933Y-3.4977
X8.0016Y-4.3164
X8.0189Y-2.1948
X8.12Y-2.7604
X8.12Y-3.5558
X8.1646Y-2.1962
X8.1671Y-2.9734
X8.1673Y-3.7409
X8.2076Y-3.1489
X8.2088Y-2.4395
X8.2133Y-2.5499
X8.2184Y-2.5026
X8.2221Y-5.2257
X8.379Y-5.609
X8.3966Y-3.9458
X8.4697Y-3.8846
X8.513Y-5.2157
X8.6311Y-5.3407
X8.637Y-3.2669
X8.6473Y-4.3869
X8.6481Y-3.685
X8.6593Y-4.8126
X8.6594Y-2.8936
X8.6643Y-3.5844
X8.6797Y-3.6472
X8.713Y-5.6216
X8.7333Y-5.4019
X8.7598Y-4.1059
X8.8434Y-2.2414
X8.9164Y-2.6651
X8.9174Y-2.5627
X8.918Y-2.7711
X8.9582Y-3.5664
X8.9649Y-3.6641
X8.9903Y-4.4565
X9.077Y-3.528
T2
X7.625Y-4.543
X7.6458Y-4.4452
X7.6598Y-4.1475
X7.6666Y-4.3474
X7.6874Y-4.2496
X7.731Y-4.1627
X8.0578Y-4.635
X8.0785Y-4.5372
X8.0993Y-4.4394
X8.1156Y-4.2444
X8.1201Y-4.3416
X8.1869Y-4.2596
T3
X3.0934Y-3.5159
X3.0934Y-4.2837
X3.0934Y-2.7482
X3.3296Y-5.0514
X3.3934Y-3.5159
X3.3934Y-4.2837
X3.3934Y-2.7482
X3.6296Y-5.0514
X3.8611Y-3.4766
X3.8611Y-4.2443
X3.8611Y-2.7089
X4.0973Y-5.012
X4.1611Y-3.4766
X4.1611Y-4.2443
X4.1611Y-2.7089
X4.3973Y-5.012
X4.6288Y-2.6301
X4.6288Y-3.3978
X4.6288Y-4.1656
X4.9288Y-2.6301
X4.9288Y-3.3978
X4.9288Y-4.1656
X5.3965Y-2.512
X5.3965Y-4.0474
X5.3965Y-3.2797
X5.6965Y-2.512
X5.6965Y-4.0474
X5.6965Y-3.2797
X6.1643Y-4.1656
X6.1643Y-3.3978
X6.1643Y-2.6301
X6.4643Y-4.1656
X6.4643Y-3.3978
X6.4643Y-2.6301
X6.7095Y-5.3374
X6.932Y-3.5159
X6.932Y-4.2837
X6.932Y-2.7482
X7.0078Y-5.3688
X7.232Y-3.5159
X7.232Y-4.2837
X7.232Y-2.7482
X7.4715Y-5.4425
X7.6997Y-3.1321
X7.6997Y-3.8998
X7.765Y-5.5049
X7.801Y-4.0474
X7.9997Y-3.1321
X7.9997Y-3.8998
X8.0944Y-4.1098
X8.2184Y-5.6267
X8.5037Y-5.7194
X8.9819Y-4.8678
X9.0746Y-4.5825
T4
X8.5316Y-4.8539
X8.708Y-4.311
X8.7188Y-4.9147
X8.8016Y-4.3414
X8.8952Y-4.3718
T5
X5.3775Y-4.8285
X5.3775Y-4.6497
X5.968Y-4.8285
X5.968Y-4.6497
X8.3875Y-2.6163
X8.3875Y-2.7163
X8.3875Y-2.2163
X8.3875Y-2.8163
X8.3875Y-3.1163
X8.3875Y-2.4163
X8.3875Y-2.5163
X8.3875Y-2.1163
X8.3875Y-2.3163
X8.3875Y-3.0163
X8.3875Y-3.2163
X8.3875Y-2.9163
X8.3876Y-2.0163
X8.4876Y-3.2163
X8.4876Y-3.1163
X8.5008Y-2.2947
X8.5392Y-3.3765
X8.5876Y-3.2163
X8.6392Y-3.3765
X8.6876Y-3.2163
X8.6894Y-2.514
X8.6894Y-2.614
X8.6894Y-2.814
X8.6894Y-2.714
X8.7392Y-3.3765
X8.7876Y-3.2163
X8.8392Y-3.3765
X8.8876Y-3.2163
X8.9875Y-2.4163
X8.9875Y-2.1163
X8.9875Y-2.3163
X8.9875Y-3.0163
X8.9875Y-3.2163
X8.9875Y-2.8163
X8.9875Y-2.9163
X8.9875Y-2.2163
X8.9875Y-2.5163
X8.9875Y-3.1163
X8.9875Y-2.6163
X8.9875Y-2.7163
X8.9876Y-2.0163
T2
G00X8.6962Y-3.9456
M15
G01X8.6726Y-3.9456
M16
G05
G00X8.6962Y-3.855
M15
G01X8.6726Y-3.855
M16
G05
G00X8.7395Y-3.7645
M15
G01X8.7159Y-3.7645
M16
G05
G00X8.7395Y-4.0361
M15
G01X8.7159Y-4.0361
M16
G05
G00X8.897Y-3.7645
M15
G01X8.8733Y-3.7645
M16
G05
G00X8.897Y-4.0361
M15
G01X8.8733Y-4.0361
M16
G05
G00X9.0151Y-3.7645
M15
G01X8.9915Y-3.7645
M16
G05
G00X9.0151Y-4.0361
M15
G01X8.9915Y-4.0361
M16
G05
T6
G00X8.5086Y-4.5297
M15
G01X8.4928Y-4.5784
M16
G05
G00X8.928Y-4.666
M15
G01X8.9122Y-4.7147
M16
G05
M30
