%TF.GenerationSoftware,KiCad,Pcbnew,8.0.3+1*%
%TF.CreationDate,2024-08-06T22:55:28-04:00*%
%TF.ProjectId,iyada_flip,69796164-615f-4666-9c69-702e6b696361,rev?*%
%TF.SameCoordinates,Original*%
%TF.FileFunction,Soldermask,Bot*%
%TF.FilePolarity,Negative*%
%FSLAX46Y46*%
G04 Gerber Fmt 4.6, Leading zero omitted, Abs format (unit mm)*
G04 Created by KiCad (PCBNEW 8.0.3+1) date 2024-08-06 22:55:28*
%MOMM*%
%LPD*%
G01*
G04 APERTURE LIST*
G04 Aperture macros list*
%AMRoundRect*
0 Rectangle with rounded corners*
0 $1 Rounding radius*
0 $2 $3 $4 $5 $6 $7 $8 $9 X,Y pos of 4 corners*
0 Add a 4 corners polygon primitive as box body*
4,1,4,$2,$3,$4,$5,$6,$7,$8,$9,$2,$3,0*
0 Add four circle primitives for the rounded corners*
1,1,$1+$1,$2,$3*
1,1,$1+$1,$4,$5*
1,1,$1+$1,$6,$7*
1,1,$1+$1,$8,$9*
0 Add four rect primitives between the rounded corners*
20,1,$1+$1,$2,$3,$4,$5,0*
20,1,$1+$1,$4,$5,$6,$7,0*
20,1,$1+$1,$6,$7,$8,$9,0*
20,1,$1+$1,$8,$9,$2,$3,0*%
%AMRotRect*
0 Rectangle, with rotation*
0 The origin of the aperture is its center*
0 $1 length*
0 $2 width*
0 $3 Rotation angle, in degrees counterclockwise*
0 Add horizontal line*
21,1,$1,$2,0,0,$3*%
%AMOutline5P*
0 Free polygon, 5 corners , with rotation*
0 The origin of the aperture is its center*
0 number of corners: always 5*
0 $1 to $10 corner X, Y*
0 $11 Rotation angle, in degrees counterclockwise*
0 create outline with 5 corners*
4,1,5,$1,$2,$3,$4,$5,$6,$7,$8,$9,$10,$1,$2,$11*%
%AMOutline6P*
0 Free polygon, 6 corners , with rotation*
0 The origin of the aperture is its center*
0 number of corners: always 6*
0 $1 to $12 corner X, Y*
0 $13 Rotation angle, in degrees counterclockwise*
0 create outline with 6 corners*
4,1,6,$1,$2,$3,$4,$5,$6,$7,$8,$9,$10,$11,$12,$1,$2,$13*%
%AMOutline7P*
0 Free polygon, 7 corners , with rotation*
0 The origin of the aperture is its center*
0 number of corners: always 7*
0 $1 to $14 corner X, Y*
0 $15 Rotation angle, in degrees counterclockwise*
0 create outline with 7 corners*
4,1,7,$1,$2,$3,$4,$5,$6,$7,$8,$9,$10,$11,$12,$13,$14,$1,$2,$15*%
%AMOutline8P*
0 Free polygon, 8 corners , with rotation*
0 The origin of the aperture is its center*
0 number of corners: always 8*
0 $1 to $16 corner X, Y*
0 $17 Rotation angle, in degrees counterclockwise*
0 create outline with 8 corners*
4,1,8,$1,$2,$3,$4,$5,$6,$7,$8,$9,$10,$11,$12,$13,$14,$15,$16,$1,$2,$17*%
%AMFreePoly0*
4,1,6,1.000000,0.000000,0.500000,-0.750000,-0.500000,-0.750000,-0.500000,0.750000,0.500000,0.750000,1.000000,0.000000,1.000000,0.000000,$1*%
%AMFreePoly1*
4,1,6,0.500000,-0.750000,-0.650000,-0.750000,-0.150000,0.000001,-0.650000,0.750000,0.500000,0.750000,0.500000,-0.750000,0.500000,-0.750000,$1*%
G04 Aperture macros list end*
%ADD10C,1.600000*%
%ADD11C,3.050000*%
%ADD12C,5.050000*%
%ADD13RoundRect,0.240000X-0.960000X-0.960000X0.960000X-0.960000X0.960000X0.960000X-0.960000X0.960000X0*%
%ADD14C,1.750000*%
%ADD15C,4.000000*%
%ADD16RoundRect,0.240000X1.138617X0.739426X-0.739426X1.138617X-1.138617X-0.739426X0.739426X-1.138617X0*%
%ADD17RotRect,1.500000X1.500000X348.000000*%
%ADD18RotRect,0.900000X1.200000X348.000000*%
%ADD19RoundRect,0.240000X0.960000X0.960000X-0.960000X0.960000X-0.960000X-0.960000X0.960000X-0.960000X0*%
%ADD20O,2.100000X1.500000*%
%ADD21C,2.200000*%
%ADD22RotRect,1.500000X1.500000X72.000000*%
%ADD23RotRect,0.900000X1.200000X72.000000*%
%ADD24RotRect,2.000000X2.000000X252.000000*%
%ADD25C,2.000000*%
%ADD26RotRect,3.200000X2.000000X252.000000*%
%ADD27R,1.500000X1.500000*%
%ADD28R,0.900000X1.200000*%
%ADD29RoundRect,0.240000X-1.209671X-0.616358X0.616358X-1.209671X1.209671X0.616358X-0.616358X1.209671X0*%
%ADD30RotRect,1.500000X1.500000X342.000000*%
%ADD31RotRect,0.900000X1.200000X342.000000*%
%ADD32RoundRect,0.240000X-1.138617X-0.739426X0.739426X-1.138617X1.138617X0.739426X-0.739426X1.138617X0*%
%ADD33R,1.600000X1.600000*%
%ADD34C,1.500000*%
%ADD35RoundRect,0.240000X1.209671X0.616358X-0.616358X1.209671X-1.209671X-0.616358X0.616358X-1.209671X0*%
%ADD36RotRect,1.500000X1.500000X354.000000*%
%ADD37RotRect,0.900000X1.200000X354.000000*%
%ADD38RoundRect,0.240000X1.055088X0.854394X-0.854394X1.055088X-1.055088X-0.854394X0.854394X-1.055088X0*%
%ADD39RoundRect,0.240000X-1.055088X-0.854394X0.854394X-1.055088X1.055088X0.854394X-0.854394X1.055088X0*%
%ADD40FreePoly0,342.000000*%
%ADD41FreePoly1,342.000000*%
%ADD42Outline8P,-0.900000X0.275000X-0.625000X0.550000X0.625000X0.550000X0.900000X0.275000X0.900000X-0.275000X0.625000X-0.550000X-0.625000X-0.550000X-0.900000X-0.275000X270.000000*%
%ADD43C,1.000000*%
%ADD44FreePoly0,0.000000*%
%ADD45FreePoly1,0.000000*%
%ADD46FreePoly0,270.000000*%
%ADD47FreePoly1,270.000000*%
%ADD48FreePoly0,162.000000*%
%ADD49FreePoly1,162.000000*%
%ADD50R,0.300000X1.300000*%
%ADD51R,1.800000X2.200000*%
G04 APERTURE END LIST*
D10*
%TO.C,REF\u002A\u002A*%
X155382003Y-102305001D03*
D11*
X160382003Y-91255002D03*
D12*
X160382003Y-97155001D03*
D11*
X165381997Y-93355000D03*
D13*
X156882006Y-91155010D03*
X168882003Y-93355001D03*
%TD*%
D14*
%TO.C,REF\u002A\u002A*%
X200270535Y-131627822D03*
D11*
X198500189Y-133848279D03*
D15*
X195301542Y-130571642D03*
D11*
X191760843Y-135012538D03*
D14*
X190332549Y-129515462D03*
D16*
X201703622Y-134529191D03*
X188531012Y-134326012D03*
%TD*%
D17*
%TO.C,D14*%
X189776353Y-138240464D03*
D18*
X191889155Y-138689554D03*
X195117039Y-139375662D03*
D10*
X197229841Y-139824752D03*
%TD*%
D14*
%TO.C,REF\u002A\u002A*%
X145962008Y-74655005D03*
D11*
X144692006Y-77195004D03*
D15*
X140882009Y-74655007D03*
D11*
X138342011Y-79735012D03*
D14*
X135802010Y-74655009D03*
D19*
X147967007Y-77195010D03*
X135040009Y-79735008D03*
%TD*%
D20*
%TO.C,*%
X221682842Y-95618033D03*
%TD*%
%TO.C,*%
X228682848Y-95618031D03*
%TD*%
D21*
%TO.C,CiHole1*%
X169651014Y-87546002D03*
%TD*%
D14*
%TO.C,REF\u002A\u002A*%
X87462006Y-80655004D03*
D11*
X86192004Y-83195003D03*
D15*
X82382007Y-80655006D03*
D11*
X79842009Y-85735011D03*
D14*
X77302008Y-80655008D03*
D19*
X89467005Y-83195009D03*
X76540007Y-85735007D03*
%TD*%
D10*
%TO.C,REF\u002A\u002A*%
X116382008Y-63305008D03*
D11*
X121382008Y-52255009D03*
D12*
X121382008Y-58155008D03*
D11*
X126382002Y-54355007D03*
D13*
X117882011Y-52155017D03*
X129882008Y-54355008D03*
%TD*%
D14*
%TO.C,REF\u002A\u002A*%
X204462006Y-90405005D03*
D11*
X203192004Y-92945004D03*
D15*
X199382007Y-90405007D03*
D11*
X196842009Y-95485012D03*
D14*
X194302008Y-90405009D03*
D19*
X206467005Y-92945010D03*
X193540007Y-95485008D03*
%TD*%
D22*
%TO.C,D14*%
X228140803Y-123641360D03*
D23*
X228808278Y-121587078D03*
X229828034Y-118448592D03*
D10*
X230495509Y-116394310D03*
%TD*%
D14*
%TO.C,REF\u002A\u002A*%
X87462007Y-61154996D03*
D11*
X86192005Y-63694995D03*
D15*
X82382008Y-61154998D03*
D11*
X79842010Y-66235003D03*
D14*
X77302009Y-61155000D03*
D19*
X89467006Y-63695001D03*
X76540008Y-66234999D03*
%TD*%
D10*
%TO.C,REF\u002A\u002A*%
X174882009Y-66305004D03*
D11*
X179882009Y-55255005D03*
D12*
X179882009Y-61155004D03*
D11*
X184882003Y-57355003D03*
D13*
X176382012Y-55155013D03*
X188382009Y-57355004D03*
%TD*%
D10*
%TO.C,REF\u002A\u002A*%
X116382003Y-82804999D03*
D11*
X121382003Y-71755000D03*
D12*
X121382003Y-77654999D03*
D11*
X126381997Y-73854998D03*
D13*
X117882006Y-71655008D03*
X129882003Y-73854999D03*
%TD*%
D24*
%TO.C,REF\u002A\u002A*%
X225939028Y-111043394D03*
D25*
X221183734Y-109498305D03*
X223561389Y-110270852D03*
D26*
X215917843Y-115673273D03*
X226569674Y-119134271D03*
D25*
X216702996Y-123288629D03*
X221458296Y-124833714D03*
%TD*%
D27*
%TO.C,D14*%
X78572010Y-69805017D03*
D28*
X80732005Y-69805019D03*
X84032013Y-69805021D03*
D10*
X86192008Y-69805023D03*
%TD*%
D14*
%TO.C,REF\u002A\u002A*%
X87461999Y-100155007D03*
D11*
X86191997Y-102695006D03*
D15*
X82382000Y-100155009D03*
D11*
X79842002Y-105235014D03*
D14*
X77302001Y-100155011D03*
D19*
X89466998Y-102695012D03*
X76540000Y-105235010D03*
%TD*%
D10*
%TO.C,REF\u002A\u002A*%
X77382008Y-66304998D03*
D11*
X82382008Y-55254999D03*
D12*
X82382008Y-61154998D03*
D11*
X87382002Y-57354997D03*
D13*
X78882011Y-55155007D03*
X90882008Y-57354998D03*
%TD*%
D20*
%TO.C,*%
X220582850Y-100218031D03*
%TD*%
D10*
%TO.C,REF\u002A\u002A*%
X77382000Y-105305009D03*
D11*
X82382000Y-94255010D03*
D12*
X82382000Y-100155009D03*
D11*
X87381994Y-96355008D03*
D13*
X78882003Y-94155018D03*
X90882000Y-96355009D03*
%TD*%
D21*
%TO.C,CiHole1*%
X221871015Y-147066004D03*
%TD*%
D27*
%TO.C,D14*%
X117572006Y-86305001D03*
D28*
X119732001Y-86305003D03*
X123032009Y-86305005D03*
D10*
X125192004Y-86305007D03*
%TD*%
D27*
%TO.C,D14*%
X84572007Y-128304999D03*
D28*
X86732002Y-128305001D03*
X90032010Y-128305003D03*
D10*
X92192005Y-128305005D03*
%TD*%
%TO.C,REF\u002A\u002A*%
X208696928Y-139222069D03*
D12*
X215043645Y-135869209D03*
D11*
X216866846Y-130257977D03*
X220973180Y-133800281D03*
D29*
X213569049Y-129081310D03*
X224301890Y-134881839D03*
%TD*%
D30*
%TO.C,D14*%
X208747130Y-142918491D03*
D31*
X210801408Y-143585963D03*
X213939894Y-144605719D03*
D10*
X215994172Y-145273191D03*
%TD*%
D17*
%TO.C,D14*%
X198145215Y-102804812D03*
D18*
X200258017Y-103253902D03*
X203485901Y-103940010D03*
D10*
X205598703Y-104389100D03*
%TD*%
%TO.C,REF\u002A\u002A*%
X189340050Y-134569542D03*
D11*
X196528221Y-124800571D03*
D12*
X195301542Y-130571642D03*
D11*
X200982345Y-127894236D03*
D32*
X193125486Y-123975059D03*
X204405861Y-128621931D03*
%TD*%
D10*
%TO.C,*%
X215921014Y-58285999D03*
%TD*%
%TO.C,*%
X228284507Y-51213002D03*
%TD*%
D21*
%TO.C,CiHole1*%
X199781010Y-51676001D03*
%TD*%
D10*
%TO.C,*%
X225744510Y-81692999D03*
%TD*%
%TO.C,REF\u002A\u002A*%
X213043506Y-53753017D03*
X213043504Y-56293014D03*
X213043506Y-58833017D03*
X213043505Y-61373017D03*
X213043505Y-63913019D03*
X213043500Y-66453007D03*
X213043500Y-68993021D03*
X213043504Y-71533005D03*
X213043512Y-74073017D03*
X213043506Y-76613020D03*
X213043504Y-79153016D03*
X213043506Y-81693017D03*
X228283506Y-81693017D03*
X228283508Y-79153020D03*
X228283506Y-76613017D03*
X228283507Y-74073017D03*
X228283507Y-71533015D03*
X228283512Y-68993027D03*
X228283512Y-66453013D03*
X228283508Y-63913029D03*
X228283500Y-61373017D03*
X228283506Y-58833014D03*
X228283508Y-56293018D03*
X228283506Y-53753017D03*
%TD*%
%TO.C,REF\u002A\u002A*%
X174882004Y-105305001D03*
D11*
X179882004Y-94255002D03*
D12*
X179882004Y-100155001D03*
D11*
X184881998Y-96355000D03*
D13*
X176382007Y-94155010D03*
X188382004Y-96355001D03*
%TD*%
D10*
%TO.C,REF\u002A\u002A*%
X194382007Y-95555007D03*
D11*
X199382007Y-84505008D03*
D12*
X199382007Y-90405007D03*
D11*
X204382001Y-86605006D03*
D13*
X195882010Y-84405016D03*
X207882007Y-86605007D03*
%TD*%
D10*
%TO.C,REF\u002A\u002A*%
X102882009Y-123805000D03*
D11*
X107882009Y-112755001D03*
D12*
X107882009Y-118655000D03*
D11*
X112882003Y-114854999D03*
D13*
X104382012Y-112655009D03*
X116382009Y-114855000D03*
%TD*%
D10*
%TO.C,REF\u002A\u002A*%
X135882009Y-79805007D03*
D11*
X140882009Y-68755008D03*
D12*
X140882009Y-74655007D03*
D11*
X145882003Y-70855006D03*
D13*
X137382012Y-68655016D03*
X149382009Y-70855007D03*
%TD*%
D33*
%TO.C,*%
X216896508Y-85762001D03*
%TD*%
D14*
%TO.C,REF\u002A\u002A*%
X112962008Y-118654998D03*
D11*
X111692006Y-121194997D03*
D15*
X107882009Y-118655000D03*
D11*
X105342011Y-123735005D03*
D14*
X102802010Y-118655002D03*
D19*
X114967007Y-121195003D03*
X102040009Y-123735001D03*
%TD*%
D10*
%TO.C,*%
X223204508Y-81692999D03*
%TD*%
D27*
%TO.C,D14*%
X176072011Y-69805001D03*
D28*
X178232006Y-69805003D03*
X181532014Y-69805005D03*
D10*
X183692009Y-69805007D03*
%TD*%
D14*
%TO.C,REF\u002A\u002A*%
X184961999Y-80654997D03*
D11*
X183691997Y-83194996D03*
D15*
X179882000Y-80654999D03*
D11*
X177342002Y-85735004D03*
D14*
X174802001Y-80655001D03*
D19*
X186966998Y-83195002D03*
X174040000Y-85735000D03*
%TD*%
D10*
%TO.C,*%
X224516501Y-85762007D03*
%TD*%
D14*
%TO.C,REF\u002A\u002A*%
X126462001Y-97155007D03*
D11*
X125191999Y-99695006D03*
D15*
X121382002Y-97155009D03*
D11*
X118842004Y-102235014D03*
D14*
X116302003Y-97155011D03*
D19*
X128467000Y-99695012D03*
X115540002Y-102235010D03*
%TD*%
D14*
%TO.C,REF\u002A\u002A*%
X204462011Y-70904995D03*
D11*
X203192009Y-73444994D03*
D15*
X199382012Y-70904997D03*
D11*
X196842014Y-75985002D03*
D14*
X194302013Y-70904999D03*
D19*
X206467010Y-73445000D03*
X193540012Y-75984998D03*
%TD*%
D10*
%TO.C,REF\u002A\u002A*%
X135882007Y-60305016D03*
D11*
X140882007Y-49255017D03*
D12*
X140882007Y-55155016D03*
D11*
X145882001Y-51355015D03*
D13*
X137382010Y-49155025D03*
X149382007Y-51355016D03*
%TD*%
D27*
%TO.C,D14*%
X78572006Y-89305007D03*
D28*
X80732001Y-89305009D03*
X84032009Y-89305011D03*
D10*
X86192004Y-89305013D03*
%TD*%
D20*
%TO.C,*%
X228682851Y-102518032D03*
%TD*%
D27*
%TO.C,D14*%
X156571998Y-105805002D03*
D28*
X158731993Y-105805004D03*
X162032001Y-105805006D03*
D10*
X164191996Y-105805008D03*
%TD*%
D14*
%TO.C,REF\u002A\u002A*%
X126462002Y-77654997D03*
D11*
X125192000Y-80194996D03*
D15*
X121382003Y-77654999D03*
D11*
X118842005Y-82735004D03*
D14*
X116302004Y-77655001D03*
D19*
X128467001Y-80195002D03*
X115540003Y-82735000D03*
%TD*%
D14*
%TO.C,REF\u002A\u002A*%
X106962010Y-99154999D03*
D11*
X105692008Y-101694998D03*
D15*
X101882011Y-99155001D03*
D11*
X99342013Y-104235006D03*
D14*
X96802012Y-99155003D03*
D19*
X108967009Y-101695004D03*
X96040011Y-104235002D03*
%TD*%
D14*
%TO.C,REF\u002A\u002A*%
X165462002Y-97154999D03*
D11*
X164192000Y-99694998D03*
D15*
X160382003Y-97155001D03*
D11*
X157842005Y-102235006D03*
D14*
X155302004Y-97155003D03*
D19*
X167467001Y-99695004D03*
X154540003Y-102235002D03*
%TD*%
D10*
%TO.C,REF\u002A\u002A*%
X77382007Y-85805006D03*
D11*
X82382007Y-74755007D03*
D12*
X82382007Y-80655006D03*
D11*
X87382001Y-76855005D03*
D13*
X78882010Y-74655015D03*
X90882007Y-76855006D03*
%TD*%
D10*
%TO.C,*%
X215584520Y-79153000D03*
%TD*%
%TO.C,REF\u002A\u002A*%
X83382015Y-124805001D03*
D11*
X88382015Y-113755002D03*
D12*
X88382015Y-119655001D03*
D11*
X93382009Y-115855000D03*
D13*
X84882018Y-113655010D03*
X96882015Y-115855001D03*
%TD*%
D10*
%TO.C,REF\u002A\u002A*%
X174882000Y-85804999D03*
D11*
X179882000Y-74755000D03*
D12*
X179882000Y-80654999D03*
D11*
X184881994Y-76854998D03*
D13*
X176382003Y-74655008D03*
X188382000Y-76854999D03*
%TD*%
D27*
%TO.C,D14*%
X156572012Y-66805001D03*
D28*
X158732007Y-66805003D03*
X162032015Y-66805005D03*
D10*
X164192010Y-66805007D03*
%TD*%
D14*
%TO.C,REF\u002A\u002A*%
X184962003Y-100154999D03*
D11*
X183692001Y-102694998D03*
D15*
X179882004Y-100155001D03*
D11*
X177342006Y-105235006D03*
D14*
X174802005Y-100155003D03*
D19*
X186967002Y-102695004D03*
X174040004Y-105235002D03*
%TD*%
D27*
%TO.C,D14*%
X137072005Y-63804999D03*
D28*
X139232000Y-63805001D03*
X142532008Y-63805003D03*
D10*
X144692003Y-63805005D03*
%TD*%
D14*
%TO.C,REF\u002A\u002A*%
X145962006Y-55155014D03*
D11*
X144692004Y-57695013D03*
D15*
X140882007Y-55155016D03*
D11*
X138342009Y-60235021D03*
D14*
X135802008Y-55155018D03*
D19*
X147967005Y-57695019D03*
X135040007Y-60235017D03*
%TD*%
D14*
%TO.C,REF\u002A\u002A*%
X106962009Y-79654995D03*
D11*
X105692007Y-82194994D03*
D15*
X101882010Y-79654997D03*
D11*
X99342012Y-84735002D03*
D14*
X96802011Y-79654999D03*
D19*
X108967008Y-82195000D03*
X96040010Y-84734998D03*
%TD*%
D34*
%TO.C,REF\u002A\u002A*%
X193157361Y-117828862D03*
D10*
X195259349Y-107939792D03*
X194731256Y-110424280D03*
X194203161Y-112908781D03*
X193675064Y-115393276D03*
X194558028Y-105347325D03*
X196367601Y-105731964D03*
%TD*%
D14*
%TO.C,REF\u002A\u002A*%
X165462012Y-58154994D03*
D11*
X164192010Y-60694993D03*
D15*
X160382013Y-58154996D03*
D11*
X157842015Y-63235001D03*
D14*
X155302014Y-58154998D03*
D19*
X167467011Y-60694999D03*
X154540013Y-63234997D03*
%TD*%
D14*
%TO.C,REF\u002A\u002A*%
X145962003Y-94155007D03*
D11*
X144692001Y-96695006D03*
D15*
X140882004Y-94155009D03*
D11*
X138342006Y-99235014D03*
D14*
X135802005Y-94155011D03*
D19*
X147967002Y-96695012D03*
X135040004Y-99235010D03*
%TD*%
D20*
%TO.C,*%
X225682846Y-95618030D03*
%TD*%
%TO.C,*%
X225682850Y-102518032D03*
%TD*%
D27*
%TO.C,D14*%
X117572008Y-105805002D03*
D28*
X119732003Y-105805004D03*
X123032011Y-105805006D03*
D10*
X125192006Y-105805008D03*
%TD*%
D27*
%TO.C,D14*%
X78572006Y-108805003D03*
D28*
X80732001Y-108805005D03*
X84032009Y-108805007D03*
D10*
X86192004Y-108805009D03*
%TD*%
%TO.C,*%
X219436512Y-85762004D03*
%TD*%
%TO.C,*%
X220711002Y-63856001D03*
%TD*%
D21*
%TO.C,CiHole1*%
X169651009Y-67996002D03*
%TD*%
D10*
%TO.C,*%
X220711004Y-66396011D03*
%TD*%
D27*
%TO.C,D14*%
X156572002Y-86305001D03*
D28*
X158731997Y-86305003D03*
X162032005Y-86305005D03*
D10*
X164192000Y-86305007D03*
%TD*%
D14*
%TO.C,REF\u002A\u002A*%
X219875011Y-137439014D03*
D11*
X217882267Y-139462246D03*
D15*
X215043645Y-135869209D03*
D11*
X211058155Y-139915673D03*
D14*
X210212279Y-134299404D03*
D35*
X220996977Y-140474278D03*
X207917767Y-138895299D03*
%TD*%
D14*
%TO.C,REF\u002A\u002A*%
X106962004Y-60155006D03*
D11*
X105692002Y-62695005D03*
D15*
X101882005Y-60155008D03*
D11*
X99342007Y-65235013D03*
D14*
X96802006Y-60155010D03*
D19*
X108967003Y-62695011D03*
X96040005Y-65235009D03*
%TD*%
D27*
%TO.C,D14*%
X98072004Y-107804998D03*
D28*
X100231999Y-107805000D03*
X103532007Y-107805002D03*
D10*
X105692002Y-107805004D03*
%TD*%
D27*
%TO.C,D14*%
X104072009Y-127304999D03*
D28*
X106232004Y-127305001D03*
X109532012Y-127305003D03*
D10*
X111692007Y-127305005D03*
%TD*%
D14*
%TO.C,REF\u002A\u002A*%
X93462014Y-119654999D03*
D11*
X92192012Y-122194998D03*
D15*
X88382015Y-119655001D03*
D11*
X85842017Y-124735006D03*
D14*
X83302016Y-119655003D03*
D19*
X95467013Y-122195004D03*
X82540015Y-124735002D03*
%TD*%
D10*
%TO.C,*%
X215584512Y-81693007D03*
%TD*%
%TO.C,REF\u002A\u002A*%
X96882010Y-84804997D03*
D11*
X101882010Y-73754998D03*
D12*
X101882010Y-79654997D03*
D11*
X106882004Y-75854996D03*
D13*
X98382013Y-73655006D03*
X110382010Y-75854997D03*
%TD*%
D10*
%TO.C,REF\u002A\u002A*%
X155382005Y-82805007D03*
D11*
X160382005Y-71755008D03*
D12*
X160382005Y-77655007D03*
D11*
X165381999Y-73855006D03*
D13*
X156882008Y-71655016D03*
X168882005Y-73855007D03*
%TD*%
D10*
%TO.C,REF\u002A\u002A*%
X116382002Y-102305009D03*
D11*
X121382002Y-91255010D03*
D12*
X121382002Y-97155009D03*
D11*
X126381996Y-93355008D03*
D13*
X117882005Y-91155018D03*
X129882002Y-93355009D03*
%TD*%
D36*
%TO.C,D14*%
X170420532Y-135571061D03*
D37*
X172568701Y-135796843D03*
X175850623Y-136141787D03*
D10*
X177998792Y-136367569D03*
%TD*%
D20*
%TO.C,*%
X221682842Y-102518031D03*
%TD*%
%TO.C,*%
X220582856Y-97918025D03*
%TD*%
D27*
%TO.C,D14*%
X195572014Y-99055009D03*
D28*
X197732009Y-99055011D03*
X201032017Y-99055013D03*
D10*
X203192012Y-99055015D03*
%TD*%
D27*
%TO.C,D14*%
X137072017Y-83305004D03*
D28*
X139232012Y-83305006D03*
X142532020Y-83305008D03*
D10*
X144692015Y-83305010D03*
%TD*%
%TO.C,*%
X151588011Y-122643005D03*
%TD*%
%TO.C,REF\u002A\u002A*%
X96882011Y-104305001D03*
D11*
X101882011Y-93255002D03*
D12*
X101882011Y-99155001D03*
D11*
X106882005Y-95355000D03*
D13*
X98382014Y-93155010D03*
X110382011Y-95355001D03*
%TD*%
D14*
%TO.C,REF\u002A\u002A*%
X126462007Y-58155006D03*
D11*
X125192005Y-60695005D03*
D15*
X121382008Y-58155008D03*
D11*
X118842010Y-63235013D03*
D14*
X116302009Y-58155010D03*
D19*
X128467006Y-60695011D03*
X115540008Y-63235009D03*
%TD*%
D21*
%TO.C,CiHole1*%
X110011007Y-48876003D03*
%TD*%
D10*
%TO.C,*%
X220711010Y-68935997D03*
%TD*%
%TO.C,*%
X220711007Y-71476005D03*
%TD*%
D21*
%TO.C,CiHole1*%
X74441006Y-130676007D03*
%TD*%
D10*
%TO.C,*%
X221976507Y-85761994D03*
%TD*%
D27*
%TO.C,D14*%
X137072009Y-102804996D03*
D28*
X139232004Y-102804998D03*
X142532012Y-102805000D03*
D10*
X144692007Y-102805002D03*
%TD*%
D21*
%TO.C,CiHole1*%
X73636011Y-70891002D03*
%TD*%
D14*
%TO.C,REF\u002A\u002A*%
X184962008Y-61155002D03*
D11*
X183692006Y-63695001D03*
D15*
X179882009Y-61155004D03*
D11*
X177342011Y-66235009D03*
D14*
X174802010Y-61155006D03*
D19*
X186967007Y-63695007D03*
X174040009Y-66235005D03*
%TD*%
D10*
%TO.C,*%
X136588001Y-122643000D03*
%TD*%
D21*
%TO.C,CiHole1*%
X160977009Y-117706011D03*
%TD*%
D14*
%TO.C,REF\u002A\u002A*%
X180166008Y-127897689D03*
D11*
X178637461Y-130291037D03*
D15*
X175113835Y-127366698D03*
D11*
X172056745Y-132153370D03*
D14*
X170061662Y-126835707D03*
D38*
X181894518Y-130633361D03*
X168772830Y-131808213D03*
%TD*%
D10*
%TO.C,*%
X218124506Y-81693004D03*
%TD*%
%TO.C,REF\u002A\u002A*%
X155382013Y-63304996D03*
D11*
X160382013Y-52254997D03*
D12*
X160382013Y-58154996D03*
D11*
X165382007Y-54354995D03*
D13*
X156882016Y-52155005D03*
X168882013Y-54354996D03*
%TD*%
D10*
%TO.C,*%
X213044503Y-51213009D03*
%TD*%
D27*
%TO.C,D14*%
X98072004Y-88305001D03*
D28*
X100231999Y-88305003D03*
X103532007Y-88305005D03*
D10*
X105692002Y-88305007D03*
%TD*%
%TO.C,REF\u002A\u002A*%
X96882005Y-65305008D03*
D11*
X101882005Y-54255009D03*
D12*
X101882005Y-60155008D03*
D11*
X106881999Y-56355007D03*
D13*
X98382008Y-54155017D03*
X110382005Y-56355008D03*
%TD*%
D27*
%TO.C,D14*%
X176072008Y-89305000D03*
D28*
X178232003Y-89305002D03*
X181532011Y-89305004D03*
D10*
X183692006Y-89305006D03*
%TD*%
%TO.C,*%
X151588013Y-118103007D03*
%TD*%
D21*
%TO.C,CiHole1*%
X112091011Y-87426011D03*
%TD*%
D10*
%TO.C,*%
X136588002Y-118103009D03*
%TD*%
D27*
%TO.C,D14*%
X176072010Y-108804996D03*
D28*
X178232005Y-108804998D03*
X181532013Y-108805000D03*
D10*
X183692008Y-108805002D03*
%TD*%
D27*
%TO.C,D14*%
X195572010Y-79555009D03*
D28*
X197732005Y-79555011D03*
X201032013Y-79555013D03*
D10*
X203192008Y-79555015D03*
%TD*%
%TO.C,REF\u002A\u002A*%
X194382012Y-76054997D03*
D11*
X199382012Y-65004998D03*
D12*
X199382012Y-70904997D03*
D11*
X204382006Y-67104996D03*
D13*
X195882015Y-64905006D03*
X207882012Y-67104997D03*
%TD*%
D27*
%TO.C,D14*%
X117572000Y-66805006D03*
D28*
X119731995Y-66805008D03*
X123032003Y-66805010D03*
D10*
X125191998Y-66805012D03*
%TD*%
D14*
%TO.C,REF\u002A\u002A*%
X165462004Y-77655005D03*
D11*
X164192002Y-80195004D03*
D15*
X160382005Y-77655007D03*
D11*
X157842007Y-82735012D03*
D14*
X155302006Y-77655009D03*
D19*
X167467003Y-80195010D03*
X154540005Y-82735008D03*
%TD*%
D27*
%TO.C,D14*%
X98072007Y-68804995D03*
D28*
X100232002Y-68804997D03*
X103532010Y-68804999D03*
D10*
X105692005Y-68805001D03*
%TD*%
%TO.C,*%
X220664509Y-81693011D03*
%TD*%
%TO.C,REF\u002A\u002A*%
X169602895Y-131965842D03*
D11*
X175730553Y-121499019D03*
D12*
X175113835Y-127366698D03*
D11*
X180483642Y-124110154D03*
D39*
X172260177Y-121033720D03*
X183964479Y-124476007D03*
%TD*%
D10*
%TO.C,REF\u002A\u002A*%
X135882004Y-99305009D03*
D11*
X140882004Y-88255010D03*
D12*
X140882004Y-94155009D03*
D11*
X145881998Y-90355008D03*
D13*
X137382007Y-88155018D03*
X149382004Y-90355009D03*
%TD*%
D40*
%TO.C,REF\u002A\u002A*%
X223865703Y-126404526D03*
D41*
X225244735Y-126852600D03*
%TD*%
D14*
%TO.C,REF\u002A\u002A*%
X77302001Y-100155011D03*
D11*
X78571992Y-102695005D03*
D15*
X82382000Y-100155009D03*
D11*
X84922000Y-105235009D03*
D14*
X87461999Y-100155007D03*
%TD*%
%TO.C,REF\u002A\u002A*%
X77302009Y-61155000D03*
D11*
X78572000Y-63694994D03*
D15*
X82382008Y-61154998D03*
D11*
X84922008Y-66234998D03*
D14*
X87462007Y-61154996D03*
%TD*%
%TO.C,REF\u002A\u002A*%
X96802012Y-99155003D03*
D11*
X98072003Y-101694997D03*
D15*
X101882011Y-99155001D03*
D11*
X104422011Y-104235001D03*
D14*
X106962010Y-99154999D03*
%TD*%
D10*
%TO.C,REF\u002A\u002A*%
X145882004Y-99304999D03*
D12*
X140882004Y-94155009D03*
D11*
X140882004Y-88255010D03*
X135881988Y-90355007D03*
%TD*%
D14*
%TO.C,REF\u002A\u002A*%
X174802001Y-80655001D03*
D11*
X176071992Y-83194995D03*
D15*
X179882000Y-80654999D03*
D11*
X182422000Y-85734999D03*
D14*
X184961999Y-80654997D03*
%TD*%
%TO.C,REF\u002A\u002A*%
X116302009Y-58155010D03*
D11*
X117572000Y-60695004D03*
D15*
X121382008Y-58155008D03*
D11*
X123922008Y-63235008D03*
D14*
X126462007Y-58155006D03*
%TD*%
D42*
%TO.C,B1*%
X192941003Y-52311007D03*
X192941009Y-58511009D03*
X196641015Y-52311003D03*
X196641021Y-58511005D03*
%TD*%
D10*
%TO.C,REF\u002A\u002A*%
X184882000Y-85804989D03*
D12*
X179882000Y-80654999D03*
D11*
X179882000Y-74755000D03*
X174881984Y-76854997D03*
%TD*%
D43*
%TO.C,REF\u002A\u002A*%
X73886004Y-117191007D03*
%TD*%
%TO.C,REF\u002A\u002A*%
X73886011Y-121191003D03*
%TD*%
D10*
%TO.C,REF\u002A\u002A*%
X184882004Y-105304991D03*
D12*
X179882004Y-100155001D03*
D11*
X179882004Y-94255002D03*
X174881988Y-96354999D03*
%TD*%
D14*
%TO.C,REF\u002A\u002A*%
X155302006Y-77655009D03*
D11*
X156571997Y-80195003D03*
D15*
X160382005Y-77655007D03*
D11*
X162922005Y-82735007D03*
D14*
X165462004Y-77655005D03*
%TD*%
D44*
%TO.C,REF\u002A\u002A*%
X171185003Y-115174008D03*
D45*
X172635003Y-115174008D03*
%TD*%
D46*
%TO.C,REF\u002A\u002A*%
X224504504Y-88223010D03*
D47*
X224504504Y-89673010D03*
%TD*%
D48*
%TO.C,REF\u002A\u002A*%
X222142194Y-106869445D03*
D49*
X220763162Y-106421371D03*
%TD*%
D10*
%TO.C,REF\u002A\u002A*%
X112882009Y-123804990D03*
D12*
X107882009Y-118655000D03*
D11*
X107882009Y-112755001D03*
X102881993Y-114854998D03*
%TD*%
D44*
%TO.C,REF\u002A\u002A*%
X171245005Y-111863999D03*
D45*
X172695005Y-111863999D03*
%TD*%
D40*
%TO.C,REF\u002A\u002A*%
X226488163Y-108276364D03*
D41*
X227867195Y-108724438D03*
%TD*%
D10*
%TO.C,REF\u002A\u002A*%
X184882009Y-66304994D03*
D12*
X179882009Y-61155004D03*
D11*
X179882009Y-55255005D03*
X174881993Y-57355002D03*
%TD*%
D10*
%TO.C,REF\u002A\u002A*%
X145882007Y-60305006D03*
D12*
X140882007Y-55155016D03*
D11*
X140882007Y-49255017D03*
X135881991Y-51355014D03*
%TD*%
D14*
%TO.C,REF\u002A\u002A*%
X135802010Y-74655009D03*
D11*
X137072001Y-77195003D03*
D15*
X140882009Y-74655007D03*
D11*
X143422009Y-79735007D03*
D14*
X145962008Y-74655005D03*
%TD*%
D10*
%TO.C,REF\u002A\u002A*%
X165382003Y-102304991D03*
D12*
X160382003Y-97155001D03*
D11*
X160382003Y-91255002D03*
X155381987Y-93354999D03*
%TD*%
D10*
%TO.C,REF\u002A\u002A*%
X126382008Y-63304998D03*
D12*
X121382008Y-58155008D03*
D11*
X121382008Y-52255009D03*
X116381992Y-54355006D03*
%TD*%
D10*
%TO.C,REF\u002A\u002A*%
X106882011Y-104304991D03*
D12*
X101882011Y-99155001D03*
D11*
X101882011Y-93255002D03*
X96881995Y-95354999D03*
%TD*%
D42*
%TO.C,B1*%
X203681003Y-52625999D03*
X203681009Y-58826001D03*
X207381015Y-52625995D03*
X207381021Y-58825997D03*
%TD*%
D14*
%TO.C,REF\u002A\u002A*%
X194302008Y-90405009D03*
D11*
X195571999Y-92945003D03*
D15*
X199382007Y-90405007D03*
D11*
X201922007Y-95485007D03*
D14*
X204462006Y-90405005D03*
%TD*%
D10*
%TO.C,REF\u002A\u002A*%
X199121542Y-136648665D03*
D12*
X195301542Y-130571642D03*
D11*
X196528221Y-124800571D03*
X191200869Y-125815120D03*
%TD*%
D10*
%TO.C,REF\u002A\u002A*%
X106882005Y-65304998D03*
D12*
X101882005Y-60155008D03*
D11*
X101882005Y-54255009D03*
X96881989Y-56355006D03*
%TD*%
D10*
%TO.C,REF\u002A\u002A*%
X106882010Y-84804987D03*
D12*
X101882010Y-79654997D03*
D11*
X101882010Y-73754998D03*
X96881994Y-75854995D03*
%TD*%
D14*
%TO.C,REF\u002A\u002A*%
X135802008Y-55155018D03*
D11*
X137071999Y-57695012D03*
D15*
X140882007Y-55155016D03*
D11*
X143422007Y-60235016D03*
D14*
X145962006Y-55155014D03*
%TD*%
D10*
%TO.C,REF\u002A\u002A*%
X179548127Y-133011128D03*
D12*
X175113835Y-127366698D03*
D11*
X175730553Y-121499019D03*
X170538433Y-123064872D03*
%TD*%
D10*
%TO.C,REF\u002A\u002A*%
X126382003Y-82804989D03*
D12*
X121382003Y-77654999D03*
D11*
X121382003Y-71755000D03*
X116381987Y-73854997D03*
%TD*%
D14*
%TO.C,REF\u002A\u002A*%
X96802011Y-79654999D03*
D11*
X98072002Y-82194993D03*
D15*
X101882010Y-79654997D03*
D11*
X104422010Y-84734997D03*
D14*
X106962009Y-79654995D03*
%TD*%
D43*
%TO.C,REF\u002A\u002A*%
X73885999Y-119190999D03*
%TD*%
D14*
%TO.C,REF\u002A\u002A*%
X116302004Y-77655001D03*
D11*
X117571995Y-80194995D03*
D15*
X121382003Y-77654999D03*
D11*
X123922003Y-82734999D03*
D14*
X126462002Y-77654997D03*
%TD*%
%TO.C,REF\u002A\u002A*%
X155302004Y-97155003D03*
D11*
X156571995Y-99694997D03*
D15*
X160382003Y-97155001D03*
D11*
X162922003Y-102235001D03*
D14*
X165462002Y-97154999D03*
%TD*%
%TO.C,REF\u002A\u002A*%
X155302014Y-58154998D03*
D11*
X156572005Y-60694992D03*
D15*
X160382013Y-58154996D03*
D11*
X162922013Y-63234996D03*
D14*
X165462012Y-58154994D03*
%TD*%
D50*
%TO.C,REF\u002A\u002A*%
X146838015Y-117253010D03*
X146338000Y-117253009D03*
X145838000Y-117253008D03*
X145338001Y-117253008D03*
X144838001Y-117253008D03*
X144337998Y-117253005D03*
X143838000Y-117253008D03*
X143337996Y-117253013D03*
X142837998Y-117253009D03*
X142338001Y-117253008D03*
X141838002Y-117253004D03*
X141338001Y-117253008D03*
D51*
X148738001Y-120503008D03*
X139438001Y-120503008D03*
%TD*%
D10*
%TO.C,REF\u002A\u002A*%
X218207490Y-142312235D03*
D11*
X216866846Y-130257977D03*
D12*
X215043645Y-135869209D03*
D11*
X211462617Y-130710106D03*
%TD*%
D10*
%TO.C,REF\u002A\u002A*%
X204382012Y-76054987D03*
D12*
X199382012Y-70904997D03*
D11*
X199382012Y-65004998D03*
X194381996Y-67104995D03*
%TD*%
D43*
%TO.C,REF\u002A\u002A*%
X73886007Y-125191002D03*
%TD*%
D46*
%TO.C,REF\u002A\u002A*%
X221964510Y-88222999D03*
D47*
X221964510Y-89672999D03*
%TD*%
D10*
%TO.C,REF\u002A\u002A*%
X87382007Y-85804996D03*
D12*
X82382007Y-80655006D03*
D11*
X82382007Y-74755007D03*
X77381991Y-76855004D03*
%TD*%
D14*
%TO.C,REF\u002A\u002A*%
X190332549Y-129515462D03*
D11*
X191046704Y-132263993D03*
D15*
X195301542Y-130571642D03*
D11*
X196729846Y-136068728D03*
D14*
X200270535Y-131627822D03*
%TD*%
D43*
%TO.C,REF\u002A\u002A*%
X73886006Y-123191009D03*
%TD*%
D14*
%TO.C,REF\u002A\u002A*%
X102802010Y-118655002D03*
D11*
X104072001Y-121194996D03*
D15*
X107882009Y-118655000D03*
D11*
X110422009Y-123735000D03*
D14*
X112962008Y-118654998D03*
%TD*%
D10*
%TO.C,REF\u002A\u002A*%
X204382007Y-95554997D03*
D12*
X199382007Y-90405007D03*
D11*
X199382007Y-84505008D03*
X194381991Y-86605005D03*
%TD*%
D10*
%TO.C,REF\u002A\u002A*%
X87382008Y-66304988D03*
D12*
X82382008Y-61154998D03*
D11*
X82382008Y-55254999D03*
X77381992Y-57354996D03*
%TD*%
D10*
%TO.C,REF\u002A\u002A*%
X126382002Y-102304999D03*
D12*
X121382002Y-97155009D03*
D11*
X121382002Y-91255010D03*
X116381986Y-93355007D03*
%TD*%
D14*
%TO.C,REF\u002A\u002A*%
X135802005Y-94155011D03*
D11*
X137071996Y-96695005D03*
D15*
X140882004Y-94155009D03*
D11*
X143422004Y-99235009D03*
D14*
X145962003Y-94155007D03*
%TD*%
D10*
%TO.C,REF\u002A\u002A*%
X165382005Y-82804997D03*
D12*
X160382005Y-77655007D03*
D11*
X160382005Y-71755008D03*
X155381989Y-73855005D03*
%TD*%
D10*
%TO.C,REF\u002A\u002A*%
X93382015Y-124804991D03*
D12*
X88382015Y-119655001D03*
D11*
X88382015Y-113755002D03*
X83381999Y-115854999D03*
%TD*%
D14*
%TO.C,REF\u002A\u002A*%
X170061662Y-126835707D03*
D11*
X171059204Y-129494530D03*
D15*
X175113835Y-127366698D03*
D11*
X177108927Y-132684369D03*
D14*
X180166008Y-127897689D03*
%TD*%
D48*
%TO.C,REF\u002A\u002A*%
X213832063Y-123144391D03*
D49*
X212453031Y-122696317D03*
%TD*%
D10*
%TO.C,REF\u002A\u002A*%
X87382000Y-105304999D03*
D12*
X82382000Y-100155009D03*
D11*
X82382000Y-94255010D03*
X77381984Y-96355007D03*
%TD*%
D46*
%TO.C,REF\u002A\u002A*%
X219424506Y-88223009D03*
D47*
X219424506Y-89673009D03*
%TD*%
D14*
%TO.C,REF\u002A\u002A*%
X210212279Y-134299404D03*
D11*
X210635217Y-137107540D03*
D15*
X215043645Y-135869209D03*
D11*
X215889510Y-141485482D03*
D14*
X219875011Y-137439014D03*
%TD*%
D34*
%TO.C,REF\u002A\u002A*%
X204149304Y-120165254D03*
D10*
X206251285Y-110276192D03*
X205723188Y-112760687D03*
X205195093Y-115245188D03*
X204667000Y-117729676D03*
X207946430Y-108193114D03*
X206136851Y-107808474D03*
%TD*%
D14*
%TO.C,REF\u002A\u002A*%
X174802005Y-100155003D03*
D11*
X176071996Y-102694997D03*
D15*
X179882004Y-100155001D03*
D11*
X182422004Y-105235001D03*
D14*
X184962003Y-100154999D03*
%TD*%
D10*
%TO.C,REF\u002A\u002A*%
X145882009Y-79804997D03*
D12*
X140882009Y-74655007D03*
D11*
X140882009Y-68755008D03*
X135881993Y-70855005D03*
%TD*%
D10*
%TO.C,REF\u002A\u002A*%
X165382013Y-63304986D03*
D12*
X160382013Y-58154996D03*
D11*
X160382013Y-52254997D03*
X155381997Y-54354994D03*
%TD*%
D14*
%TO.C,REF\u002A\u002A*%
X174802010Y-61155006D03*
D11*
X176072001Y-63695000D03*
D15*
X179882009Y-61155004D03*
D11*
X182422009Y-66235004D03*
D14*
X184962008Y-61155002D03*
%TD*%
%TO.C,REF\u002A\u002A*%
X83302016Y-119655003D03*
D11*
X84572007Y-122194997D03*
D15*
X88382015Y-119655001D03*
D11*
X90922015Y-124735001D03*
D14*
X93462014Y-119654999D03*
%TD*%
%TO.C,REF\u002A\u002A*%
X77302008Y-80655008D03*
D11*
X78571999Y-83195002D03*
D15*
X82382007Y-80655006D03*
D11*
X84922007Y-85735006D03*
D14*
X87462006Y-80655004D03*
%TD*%
%TO.C,REF\u002A\u002A*%
X194302013Y-70904999D03*
D11*
X195572004Y-73444993D03*
D15*
X199382012Y-70904997D03*
D11*
X201922012Y-75984997D03*
D14*
X204462011Y-70904995D03*
%TD*%
D46*
%TO.C,REF\u002A\u002A*%
X216884510Y-88223010D03*
D47*
X216884510Y-89673010D03*
%TD*%
D14*
%TO.C,REF\u002A\u002A*%
X116302003Y-97155011D03*
D11*
X117571994Y-99695005D03*
D15*
X121382002Y-97155009D03*
D11*
X123922002Y-102235009D03*
D14*
X126462001Y-97155007D03*
%TD*%
%TO.C,REF\u002A\u002A*%
X96802006Y-60155010D03*
D11*
X98071997Y-62695004D03*
D15*
X101882005Y-60155008D03*
D11*
X104422005Y-65235008D03*
D14*
X106962004Y-60155006D03*
%TD*%
M02*
