%TF.GenerationSoftware,KiCad,Pcbnew,8.0.3+1*%
%TF.CreationDate,2024-08-06T22:55:28-04:00*%
%TF.ProjectId,iyada_flip,69796164-615f-4666-9c69-702e6b696361,rev?*%
%TF.SameCoordinates,Original*%
%TF.FileFunction,Profile,NP*%
%FSLAX46Y46*%
G04 Gerber Fmt 4.6, Leading zero omitted, Abs format (unit mm)*
G04 Created by KiCad (PCBNEW 8.0.3+1) date 2024-08-06 22:55:28*
%MOMM*%
%LPD*%
G01*
G04 APERTURE LIST*
%TA.AperFunction,Profile*%
%ADD10C,0.050000*%
%TD*%
G04 APERTURE END LIST*
D10*
X167674889Y-44841616D02*
X114300009Y-44841012D01*
X202341005Y-143915999D02*
X221845203Y-149677473D01*
X113923619Y-44877835D02*
X73188008Y-50418015D01*
X227471007Y-138606010D02*
X232747251Y-120945409D01*
X230737010Y-48673009D02*
X210572395Y-48674845D01*
X232747251Y-120945409D02*
X232713965Y-93018961D01*
X118871015Y-133856000D02*
X183431003Y-140105999D01*
X71079586Y-127393057D02*
G75*
G02*
X71486590Y-126748765I713214J157D01*
G01*
X71374013Y-113021705D02*
G75*
G02*
X71781046Y-113666000I-306413J-644295D01*
G01*
X227471007Y-138606010D02*
X224217309Y-148137000D01*
X183431003Y-140105999D02*
X202341005Y-143915999D01*
X224217309Y-148137000D02*
G75*
G02*
X221845212Y-149677433I-1956309J415900D01*
G01*
X71786003Y-123666007D02*
X71791004Y-126165997D01*
X71188001Y-52418007D02*
G75*
G02*
X73188008Y-50418001I1999999J7D01*
G01*
X71069590Y-112438955D02*
X71188001Y-52418007D01*
X113923619Y-44877835D02*
G75*
G02*
X114300009Y-44841021I359681J-1734865D01*
G01*
X230737010Y-48673009D02*
G75*
G02*
X232736991Y-50673000I90J-1999891D01*
G01*
X73063292Y-133794222D02*
G75*
G02*
X71063278Y-131794211I8J2000022D01*
G01*
X210572395Y-48674845D02*
X168051275Y-44878441D01*
X71781006Y-113666000D02*
X71786003Y-123666007D01*
X73063292Y-133794222D02*
X118871015Y-133856000D01*
X71791004Y-126165997D02*
G75*
G02*
X71486583Y-126748755I-709804J-103D01*
G01*
X71079586Y-127393057D02*
X71063303Y-131794211D01*
X232713965Y-93018961D02*
X232737004Y-50673000D01*
X71374013Y-113021718D02*
G75*
G02*
X71069549Y-112438955I405787J582918D01*
G01*
X167674889Y-44841616D02*
G75*
G02*
X168051276Y-44878437I16511J-1773384D01*
G01*
%TO.C,REF\u002A\u002A*%
X205920902Y-121870882D02*
X207681559Y-122245116D01*
X208037379Y-122014049D02*
X210864978Y-108711241D01*
X208517415Y-108212247D02*
X205689825Y-121515061D01*
X210633907Y-108355424D02*
X208873255Y-107981185D01*
X205920902Y-121870882D02*
G75*
G02*
X205689824Y-121515061I62367J293447D01*
G01*
X208037379Y-122014049D02*
G75*
G02*
X207681558Y-122245119I-293444J62373D01*
G01*
X208517415Y-108212247D02*
G75*
G02*
X208873257Y-107981176I293453J-62380D01*
G01*
X210633907Y-108355424D02*
G75*
G02*
X210864978Y-108711241I-62373J-293444D01*
G01*
X189084530Y-118292192D02*
X190845196Y-118666433D01*
X191201017Y-118435368D02*
X194028614Y-105132551D01*
X191681058Y-104633567D02*
X188853456Y-117936371D01*
X193797548Y-104776739D02*
X192036876Y-104402496D01*
X189084530Y-118292192D02*
G75*
G02*
X188853459Y-117936372I62373J293445D01*
G01*
X191201017Y-118435368D02*
G75*
G02*
X190845195Y-118666437I-293448J62380D01*
G01*
X191681058Y-104633567D02*
G75*
G02*
X192036876Y-104402496I293444J-62373D01*
G01*
X193797548Y-104776739D02*
G75*
G02*
X194028612Y-105132551I-62380J-293442D01*
G01*
%TD*%
M02*
