M48
; DRILL file {KiCad 8.0.3+1} date 2024-08-06T22:55:25-0400
; FORMAT={-:-/ absolute / inch / decimal}
; #@! TF.CreationDate,2024-08-06T22:55:25-04:00
; #@! TF.GenerationSoftware,Kicad,Pcbnew,8.0.3+1
; #@! TF.FileFunction,NonPlated,1,2,NPTH
FMAT,2
INCH
; #@! TA.AperFunction,NonPlated,NPTH,ComponentDrill
T1C0.0591
; #@! TA.AperFunction,NonPlated,NPTH,ComponentDrill
T2C0.0630
; #@! TA.AperFunction,NonPlated,NPTH,ComponentDrill
T3C0.0689
; #@! TA.AperFunction,NonPlated,NPTH,ComponentDrill
T4C0.0866
; #@! TA.AperFunction,NonPlated,NPTH,ComponentDrill
T5C0.1201
; #@! TA.AperFunction,NonPlated,NPTH,ComponentDrill
T6C0.1575
; #@! TA.AperFunction,NonPlated,NPTH,ComponentDrill
T7C0.1988
%
G90
G05
T1
X7.6046Y-4.6389
X8.0374Y-4.7309
T2
X3.0465Y-4.1459
X3.0465Y-3.3781
X3.0465Y-2.6104
X3.2828Y-4.9136
X3.4402Y-4.1459
X3.4402Y-3.3781
X3.4402Y-2.6104
X3.6765Y-4.9136
X3.8143Y-2.5711
X3.8143Y-3.3388
X3.8143Y-4.1065
X4.0505Y-4.8742
X4.208Y-2.5711
X4.208Y-3.3388
X4.208Y-4.1065
X4.4442Y-4.8742
X4.582Y-4.0278
X4.582Y-3.26
X4.582Y-2.4923
X4.9757Y-4.0278
X4.9757Y-3.26
X4.9757Y-2.4923
X5.3497Y-3.9096
X5.3497Y-2.3742
X5.3497Y-3.1419
X5.7434Y-3.9096
X5.7434Y-2.3742
X5.7434Y-3.1419
X6.1174Y-4.0278
X6.1174Y-3.26
X6.1174Y-2.4923
X6.5111Y-4.0278
X6.5111Y-3.26
X6.5111Y-2.4923
X6.6773Y-5.1955
X6.8851Y-3.3781
X6.8851Y-4.1459
X6.8851Y-2.6104
X7.0688Y-5.2367
X7.2788Y-3.3781
X7.2788Y-4.1459
X7.2788Y-2.6104
X7.4543Y-5.298
X7.6528Y-3.762
X7.6528Y-2.9943
X7.8394Y-5.3799
X8.0465Y-3.762
X8.0465Y-2.9943
X8.2164Y-5.4812
X8.5908Y-5.6028
T3
X3.0434Y-3.9431
X3.0434Y-3.9431
X3.0434Y-3.1754
X3.0434Y-3.1754
X3.0434Y-2.4077
X3.0434Y-2.4077
X3.2796Y-4.7108
X3.2796Y-4.7108
X3.4434Y-3.9431
X3.4434Y-3.9431
X3.4434Y-3.1754
X3.4434Y-3.1754
X3.4434Y-2.4077
X3.4434Y-2.4077
X3.6796Y-4.7108
X3.6796Y-4.7108
X3.8111Y-2.3683
X3.8111Y-2.3683
X3.8111Y-3.136
X3.8111Y-3.136
X3.8111Y-3.9037
X3.8111Y-3.9037
X4.0473Y-4.6715
X4.0473Y-4.6715
X4.2111Y-2.3683
X4.2111Y-2.3683
X4.2111Y-3.136
X4.2111Y-3.136
X4.2111Y-3.9037
X4.2111Y-3.9037
X4.4473Y-4.6715
X4.4473Y-4.6715
X4.5788Y-3.825
X4.5788Y-3.825
X4.5788Y-3.0573
X4.5788Y-3.0573
X4.5788Y-2.2896
X4.5788Y-2.2896
X4.9788Y-3.825
X4.9788Y-3.825
X4.9788Y-3.0573
X4.9788Y-3.0573
X4.9788Y-2.2896
X4.9788Y-2.2896
X5.3465Y-3.7069
X5.3465Y-3.7069
X5.3465Y-2.1715
X5.3465Y-2.1715
X5.3465Y-2.9392
X5.3465Y-2.9392
X5.7465Y-3.7069
X5.7465Y-3.7069
X5.7465Y-2.1715
X5.7465Y-2.1715
X5.7465Y-2.9392
X5.7465Y-2.9392
X6.1143Y-3.825
X6.1143Y-3.825
X6.1143Y-3.0573
X6.1143Y-3.0573
X6.1143Y-2.2896
X6.1143Y-2.2896
X6.5143Y-3.825
X6.5143Y-3.825
X6.5143Y-3.0573
X6.5143Y-3.0573
X6.5143Y-2.2896
X6.5143Y-2.2896
X6.6953Y-4.9935
X6.6953Y-4.9935
X6.882Y-3.1754
X6.882Y-3.1754
X6.882Y-3.9431
X6.882Y-3.9431
X6.882Y-2.4077
X6.882Y-2.4077
X7.0931Y-5.0353
X7.0931Y-5.0353
X7.282Y-3.1754
X7.282Y-3.1754
X7.282Y-3.9431
X7.282Y-3.9431
X7.282Y-2.4077
X7.282Y-2.4077
X7.4934Y-5.099
X7.4934Y-5.099
X7.6497Y-3.5593
X7.6497Y-3.5593
X7.6497Y-2.7915
X7.6497Y-2.7915
X7.8847Y-5.1822
X7.8847Y-5.1822
X8.0497Y-3.5593
X8.0497Y-3.5593
X8.0497Y-2.7915
X8.0497Y-2.7915
X8.2761Y-5.2874
X8.2761Y-5.2874
X8.6565Y-5.411
X8.6565Y-5.411
T4
X2.8991Y-2.791
X2.9307Y-5.1447
X4.3311Y-1.9243
X4.413Y-3.442
X6.3377Y-4.6341
X6.6792Y-2.677
X6.6792Y-3.4467
X7.8654Y-2.0345
X8.7351Y-5.79
T5
X3.0465Y-3.7935
X3.0465Y-3.0258
X3.0465Y-2.2581
X3.0934Y-4.0431
X3.0934Y-3.2754
X3.0934Y-2.5077
X3.1434Y-4.1431
X3.1434Y-3.3754
X3.1434Y-2.6077
X3.2434Y-3.7108
X3.2434Y-3.7108
X3.2434Y-2.9431
X3.2434Y-2.9431
X3.2434Y-2.1754
X3.2434Y-2.1754
X3.2828Y-4.5612
X3.3296Y-4.8108
X3.3434Y-4.1431
X3.3434Y-3.3754
X3.3434Y-2.6077
X3.3796Y-4.9108
X3.3934Y-4.0431
X3.3934Y-3.2754
X3.3934Y-2.5077
X3.4402Y-3.7935
X3.4402Y-3.0258
X3.4402Y-2.2581
X3.4796Y-4.4785
X3.4796Y-4.4785
X3.5796Y-4.9108
X3.6296Y-4.8108
X3.6765Y-4.5612
X3.8143Y-2.2187
X3.8143Y-2.9864
X3.8143Y-3.7541
X3.8611Y-2.4683
X3.8611Y-3.236
X3.8611Y-4.0037
X3.9111Y-2.5683
X3.9111Y-3.336
X3.9111Y-4.1037
X4.0111Y-2.136
X4.0111Y-2.136
X4.0111Y-2.9037
X4.0111Y-2.9037
X4.0111Y-3.6715
X4.0111Y-3.6715
X4.0505Y-4.5219
X4.0973Y-4.7715
X4.1111Y-2.5683
X4.1111Y-3.336
X4.1111Y-4.1037
X4.1473Y-4.8715
X4.1611Y-2.4683
X4.1611Y-3.236
X4.1611Y-4.0037
X4.208Y-2.2187
X4.208Y-2.9864
X4.208Y-3.7541
X4.2473Y-4.4392
X4.2473Y-4.4392
X4.3473Y-4.8715
X4.3973Y-4.7715
X4.4442Y-4.5219
X4.582Y-3.6754
X4.582Y-2.9077
X4.582Y-2.14
X4.6288Y-3.925
X4.6288Y-3.1573
X4.6288Y-2.3896
X4.6788Y-4.025
X4.6788Y-3.2573
X4.6788Y-2.4896
X4.7788Y-3.5927
X4.7788Y-3.5927
X4.7788Y-2.825
X4.7788Y-2.825
X4.7788Y-2.0573
X4.7788Y-2.0573
X4.8788Y-4.025
X4.8788Y-3.2573
X4.8788Y-2.4896
X4.9288Y-3.925
X4.9288Y-3.1573
X4.9288Y-2.3896
X4.9757Y-3.6754
X4.9757Y-2.9077
X4.9757Y-2.14
X5.3497Y-3.5573
X5.3497Y-2.0219
X5.3497Y-2.7896
X5.3965Y-3.8069
X5.3965Y-2.2715
X5.3965Y-3.0392
X5.4465Y-3.9069
X5.4465Y-2.3715
X5.4465Y-3.1392
X5.5465Y-3.4746
X5.5465Y-3.4746
X5.5465Y-1.9392
X5.5465Y-1.9392
X5.5465Y-2.7069
X5.5465Y-2.7069
X5.6465Y-3.9069
X5.6465Y-2.3715
X5.6465Y-3.1392
X5.6965Y-3.8069
X5.6965Y-2.2715
X5.6965Y-3.0392
X5.7434Y-3.5573
X5.7434Y-2.0219
X5.7434Y-2.7896
X6.1174Y-3.6754
X6.1174Y-2.9077
X6.1174Y-2.14
X6.1643Y-3.925
X6.1643Y-3.1573
X6.1643Y-2.3896
X6.2143Y-4.025
X6.2143Y-3.2573
X6.2143Y-2.4896
X6.3143Y-3.5927
X6.3143Y-3.5927
X6.3143Y-2.825
X6.3143Y-2.825
X6.3143Y-2.0573
X6.3143Y-2.0573
X6.4143Y-4.025
X6.4143Y-3.2573
X6.4143Y-2.4896
X6.4643Y-3.925
X6.4643Y-3.1573
X6.4643Y-2.3896
X6.5111Y-3.6754
X6.5111Y-2.9077
X6.5111Y-2.14
X6.7141Y-4.8451
X6.7346Y-5.0982
X6.7739Y-5.2029
X6.8851Y-3.0258
X6.8851Y-3.7935
X6.8851Y-2.2581
X6.9185Y-4.7834
X6.9185Y-4.7834
X6.932Y-3.2754
X6.932Y-4.0431
X6.932Y-2.5077
X6.9728Y-5.2238
X6.982Y-3.3754
X6.982Y-4.1431
X6.982Y-2.6077
X7.033Y-5.1296
X7.082Y-2.9431
X7.082Y-2.9431
X7.082Y-3.7108
X7.082Y-3.7108
X7.082Y-2.1754
X7.082Y-2.1754
X7.1057Y-4.8862
X7.182Y-3.3754
X7.182Y-4.1431
X7.182Y-2.6077
X7.232Y-3.2754
X7.232Y-4.0431
X7.232Y-2.5077
X7.2788Y-3.0258
X7.2788Y-3.7935
X7.2788Y-2.2581
X7.5215Y-5.2072
X7.5276Y-4.9534
X7.5496Y-5.3155
X7.6528Y-3.4096
X7.6528Y-2.6419
X7.6997Y-3.6593
X7.6997Y-2.8915
X7.7373Y-4.9134
X7.7373Y-4.9134
X7.7453Y-5.357
X7.7497Y-3.7593
X7.7497Y-2.9915
X7.815Y-5.2696
X7.8497Y-3.327
X7.8497Y-3.327
X7.8497Y-2.5593
X7.8497Y-2.5593
X7.9127Y-5.0352
X7.9497Y-3.7593
X7.9497Y-2.9915
X7.9997Y-3.6593
X7.9997Y-2.8915
X8.0465Y-3.4096
X8.0465Y-2.6419
X8.2927Y-5.3979
X8.3094Y-5.5085
X8.3253Y-5.1461
X8.4996Y-5.5703
X8.5381Y-5.1283
X8.5381Y-5.1283
X8.578Y-5.4906
X8.6997Y-5.2677
T6
X3.2434Y-3.9431
X3.2434Y-3.9431
X3.2434Y-3.1754
X3.2434Y-3.1754
X3.2434Y-2.4077
X3.2434Y-2.4077
X3.4796Y-4.7108
X3.4796Y-4.7108
X4.0111Y-2.3683
X4.0111Y-2.3683
X4.0111Y-3.136
X4.0111Y-3.136
X4.0111Y-3.9037
X4.0111Y-3.9037
X4.2473Y-4.6715
X4.2473Y-4.6715
X4.7788Y-3.825
X4.7788Y-3.825
X4.7788Y-3.0573
X4.7788Y-3.0573
X4.7788Y-2.2896
X4.7788Y-2.2896
X5.5465Y-3.7069
X5.5465Y-3.7069
X5.5465Y-2.1715
X5.5465Y-2.1715
X5.5465Y-2.9392
X5.5465Y-2.9392
X6.3143Y-3.825
X6.3143Y-3.825
X6.3143Y-3.0573
X6.3143Y-3.0573
X6.3143Y-2.2896
X6.3143Y-2.2896
X6.8942Y-5.0144
X6.8942Y-5.0144
X7.082Y-3.1754
X7.082Y-3.1754
X7.082Y-3.9431
X7.082Y-3.9431
X7.082Y-2.4077
X7.082Y-2.4077
X7.689Y-5.1406
X7.689Y-5.1406
X7.8497Y-3.5593
X7.8497Y-3.5593
X7.8497Y-2.7915
X7.8497Y-2.7915
X8.4663Y-5.3492
X8.4663Y-5.3492
T7
X3.2434Y-3.9431
X3.2434Y-3.9431
X3.2434Y-3.1754
X3.2434Y-3.1754
X3.2434Y-2.4077
X3.2434Y-2.4077
X3.4796Y-4.7108
X3.4796Y-4.7108
X4.0111Y-2.3683
X4.0111Y-2.3683
X4.0111Y-3.136
X4.0111Y-3.136
X4.0111Y-3.9037
X4.0111Y-3.9037
X4.2473Y-4.6715
X4.2473Y-4.6715
X4.7788Y-3.825
X4.7788Y-3.825
X4.7788Y-3.0573
X4.7788Y-3.0573
X4.7788Y-2.2896
X4.7788Y-2.2896
X5.5465Y-3.7069
X5.5465Y-3.7069
X5.5465Y-2.1715
X5.5465Y-2.1715
X5.5465Y-2.9392
X5.5465Y-2.9392
X6.3143Y-3.825
X6.3143Y-3.825
X6.3143Y-3.0573
X6.3143Y-3.0573
X6.3143Y-2.2896
X6.3143Y-2.2896
X6.8942Y-5.0144
X6.8942Y-5.0144
X7.082Y-3.1754
X7.082Y-3.1754
X7.082Y-3.9431
X7.082Y-3.9431
X7.082Y-2.4077
X7.082Y-2.4077
X7.689Y-5.1406
X7.689Y-5.1406
X7.8497Y-3.5593
X7.8497Y-3.5593
X7.8497Y-2.7915
X7.8497Y-2.7915
X8.4663Y-5.3492
X8.4663Y-5.3492
M30
