%TF.GenerationSoftware,KiCad,Pcbnew,8.0.3+1*%
%TF.CreationDate,2024-08-06T22:55:28-04:00*%
%TF.ProjectId,iyada_flip,69796164-615f-4666-9c69-702e6b696361,rev?*%
%TF.SameCoordinates,Original*%
%TF.FileFunction,Paste,Bot*%
%TF.FilePolarity,Positive*%
%FSLAX46Y46*%
G04 Gerber Fmt 4.6, Leading zero omitted, Abs format (unit mm)*
G04 Created by KiCad (PCBNEW 8.0.3+1) date 2024-08-06 22:55:28*
%MOMM*%
%LPD*%
G01*
G04 APERTURE LIST*
G04 Aperture macros list*
%AMRoundRect*
0 Rectangle with rounded corners*
0 $1 Rounding radius*
0 $2 $3 $4 $5 $6 $7 $8 $9 X,Y pos of 4 corners*
0 Add a 4 corners polygon primitive as box body*
4,1,4,$2,$3,$4,$5,$6,$7,$8,$9,$2,$3,0*
0 Add four circle primitives for the rounded corners*
1,1,$1+$1,$2,$3*
1,1,$1+$1,$4,$5*
1,1,$1+$1,$6,$7*
1,1,$1+$1,$8,$9*
0 Add four rect primitives between the rounded corners*
20,1,$1+$1,$2,$3,$4,$5,0*
20,1,$1+$1,$4,$5,$6,$7,0*
20,1,$1+$1,$6,$7,$8,$9,0*
20,1,$1+$1,$8,$9,$2,$3,0*%
%AMRotRect*
0 Rectangle, with rotation*
0 The origin of the aperture is its center*
0 $1 length*
0 $2 width*
0 $3 Rotation angle, in degrees counterclockwise*
0 Add horizontal line*
21,1,$1,$2,0,0,$3*%
%AMOutline5P*
0 Free polygon, 5 corners , with rotation*
0 The origin of the aperture is its center*
0 number of corners: always 5*
0 $1 to $10 corner X, Y*
0 $11 Rotation angle, in degrees counterclockwise*
0 create outline with 5 corners*
4,1,5,$1,$2,$3,$4,$5,$6,$7,$8,$9,$10,$1,$2,$11*%
%AMOutline6P*
0 Free polygon, 6 corners , with rotation*
0 The origin of the aperture is its center*
0 number of corners: always 6*
0 $1 to $12 corner X, Y*
0 $13 Rotation angle, in degrees counterclockwise*
0 create outline with 6 corners*
4,1,6,$1,$2,$3,$4,$5,$6,$7,$8,$9,$10,$11,$12,$1,$2,$13*%
%AMOutline7P*
0 Free polygon, 7 corners , with rotation*
0 The origin of the aperture is its center*
0 number of corners: always 7*
0 $1 to $14 corner X, Y*
0 $15 Rotation angle, in degrees counterclockwise*
0 create outline with 7 corners*
4,1,7,$1,$2,$3,$4,$5,$6,$7,$8,$9,$10,$11,$12,$13,$14,$1,$2,$15*%
%AMOutline8P*
0 Free polygon, 8 corners , with rotation*
0 The origin of the aperture is its center*
0 number of corners: always 8*
0 $1 to $16 corner X, Y*
0 $17 Rotation angle, in degrees counterclockwise*
0 create outline with 8 corners*
4,1,8,$1,$2,$3,$4,$5,$6,$7,$8,$9,$10,$11,$12,$13,$14,$15,$16,$1,$2,$17*%
G04 Aperture macros list end*
%ADD10RoundRect,0.240000X-0.960000X-0.960000X0.960000X-0.960000X0.960000X0.960000X-0.960000X0.960000X0*%
%ADD11RoundRect,0.240000X1.138617X0.739426X-0.739426X1.138617X-1.138617X-0.739426X0.739426X-1.138617X0*%
%ADD12RotRect,0.900000X1.200000X348.000000*%
%ADD13RoundRect,0.240000X0.960000X0.960000X-0.960000X0.960000X-0.960000X-0.960000X0.960000X-0.960000X0*%
%ADD14RotRect,0.900000X1.200000X72.000000*%
%ADD15R,0.900000X1.200000*%
%ADD16RoundRect,0.240000X-1.209671X-0.616358X0.616358X-1.209671X1.209671X0.616358X-0.616358X1.209671X0*%
%ADD17RotRect,0.900000X1.200000X342.000000*%
%ADD18RoundRect,0.240000X-1.138617X-0.739426X0.739426X-1.138617X1.138617X0.739426X-0.739426X1.138617X0*%
%ADD19RoundRect,0.240000X1.209671X0.616358X-0.616358X1.209671X-1.209671X-0.616358X0.616358X-1.209671X0*%
%ADD20RotRect,0.900000X1.200000X354.000000*%
%ADD21RoundRect,0.240000X1.055088X0.854394X-0.854394X1.055088X-1.055088X-0.854394X0.854394X-1.055088X0*%
%ADD22RoundRect,0.240000X-1.055088X-0.854394X0.854394X-1.055088X1.055088X0.854394X-0.854394X1.055088X0*%
%ADD23Outline8P,-0.900000X0.275000X-0.625000X0.550000X0.625000X0.550000X0.900000X0.275000X0.900000X-0.275000X0.625000X-0.550000X-0.625000X-0.550000X-0.900000X-0.275000X270.000000*%
%ADD24R,0.300000X1.300000*%
%ADD25R,1.800000X2.200000*%
G04 APERTURE END LIST*
D10*
%TO.C,REF\u002A\u002A*%
X156882006Y-91155010D03*
X168882003Y-93355001D03*
%TD*%
D11*
%TO.C,REF\u002A\u002A*%
X201703622Y-134529191D03*
X188531012Y-134326012D03*
%TD*%
D12*
%TO.C,D14*%
X191889155Y-138689554D03*
X195117039Y-139375662D03*
%TD*%
D13*
%TO.C,REF\u002A\u002A*%
X147967007Y-77195010D03*
X135040009Y-79735008D03*
%TD*%
%TO.C,REF\u002A\u002A*%
X89467005Y-83195009D03*
X76540007Y-85735007D03*
%TD*%
D10*
%TO.C,REF\u002A\u002A*%
X117882011Y-52155017D03*
X129882008Y-54355008D03*
%TD*%
D13*
%TO.C,REF\u002A\u002A*%
X206467005Y-92945010D03*
X193540007Y-95485008D03*
%TD*%
D14*
%TO.C,D14*%
X228808278Y-121587078D03*
X229828034Y-118448592D03*
%TD*%
D13*
%TO.C,REF\u002A\u002A*%
X89467006Y-63695001D03*
X76540008Y-66234999D03*
%TD*%
D10*
%TO.C,REF\u002A\u002A*%
X176382012Y-55155013D03*
X188382009Y-57355004D03*
%TD*%
%TO.C,REF\u002A\u002A*%
X117882006Y-71655008D03*
X129882003Y-73854999D03*
%TD*%
D15*
%TO.C,D14*%
X80732005Y-69805019D03*
X84032013Y-69805021D03*
%TD*%
D13*
%TO.C,REF\u002A\u002A*%
X89466998Y-102695012D03*
X76540000Y-105235010D03*
%TD*%
D10*
%TO.C,REF\u002A\u002A*%
X78882011Y-55155007D03*
X90882008Y-57354998D03*
%TD*%
%TO.C,REF\u002A\u002A*%
X78882003Y-94155018D03*
X90882000Y-96355009D03*
%TD*%
D15*
%TO.C,D14*%
X119732001Y-86305003D03*
X123032009Y-86305005D03*
%TD*%
%TO.C,D14*%
X86732002Y-128305001D03*
X90032010Y-128305003D03*
%TD*%
D16*
%TO.C,REF\u002A\u002A*%
X213569049Y-129081310D03*
X224301890Y-134881839D03*
%TD*%
D17*
%TO.C,D14*%
X210801408Y-143585963D03*
X213939894Y-144605719D03*
%TD*%
D12*
%TO.C,D14*%
X200258017Y-103253902D03*
X203485901Y-103940010D03*
%TD*%
D18*
%TO.C,REF\u002A\u002A*%
X193125486Y-123975059D03*
X204405861Y-128621931D03*
%TD*%
D10*
%TO.C,REF\u002A\u002A*%
X176382007Y-94155010D03*
X188382004Y-96355001D03*
%TD*%
%TO.C,REF\u002A\u002A*%
X195882010Y-84405016D03*
X207882007Y-86605007D03*
%TD*%
%TO.C,REF\u002A\u002A*%
X104382012Y-112655009D03*
X116382009Y-114855000D03*
%TD*%
%TO.C,REF\u002A\u002A*%
X137382012Y-68655016D03*
X149382009Y-70855007D03*
%TD*%
D13*
%TO.C,REF\u002A\u002A*%
X114967007Y-121195003D03*
X102040009Y-123735001D03*
%TD*%
D15*
%TO.C,D14*%
X178232006Y-69805003D03*
X181532014Y-69805005D03*
%TD*%
D13*
%TO.C,REF\u002A\u002A*%
X186966998Y-83195002D03*
X174040000Y-85735000D03*
%TD*%
%TO.C,REF\u002A\u002A*%
X128467000Y-99695012D03*
X115540002Y-102235010D03*
%TD*%
%TO.C,REF\u002A\u002A*%
X206467010Y-73445000D03*
X193540012Y-75984998D03*
%TD*%
D10*
%TO.C,REF\u002A\u002A*%
X137382010Y-49155025D03*
X149382007Y-51355016D03*
%TD*%
D15*
%TO.C,D14*%
X80732001Y-89305009D03*
X84032009Y-89305011D03*
%TD*%
%TO.C,D14*%
X158731993Y-105805004D03*
X162032001Y-105805006D03*
%TD*%
D13*
%TO.C,REF\u002A\u002A*%
X128467001Y-80195002D03*
X115540003Y-82735000D03*
%TD*%
%TO.C,REF\u002A\u002A*%
X108967009Y-101695004D03*
X96040011Y-104235002D03*
%TD*%
%TO.C,REF\u002A\u002A*%
X167467001Y-99695004D03*
X154540003Y-102235002D03*
%TD*%
D10*
%TO.C,REF\u002A\u002A*%
X78882010Y-74655015D03*
X90882007Y-76855006D03*
%TD*%
%TO.C,REF\u002A\u002A*%
X84882018Y-113655010D03*
X96882015Y-115855001D03*
%TD*%
%TO.C,REF\u002A\u002A*%
X176382003Y-74655008D03*
X188382000Y-76854999D03*
%TD*%
D15*
%TO.C,D14*%
X158732007Y-66805003D03*
X162032015Y-66805005D03*
%TD*%
D13*
%TO.C,REF\u002A\u002A*%
X186967002Y-102695004D03*
X174040004Y-105235002D03*
%TD*%
D15*
%TO.C,D14*%
X139232000Y-63805001D03*
X142532008Y-63805003D03*
%TD*%
D13*
%TO.C,REF\u002A\u002A*%
X147967005Y-57695019D03*
X135040007Y-60235017D03*
%TD*%
%TO.C,REF\u002A\u002A*%
X108967008Y-82195000D03*
X96040010Y-84734998D03*
%TD*%
%TO.C,REF\u002A\u002A*%
X167467011Y-60694999D03*
X154540013Y-63234997D03*
%TD*%
%TO.C,REF\u002A\u002A*%
X147967002Y-96695012D03*
X135040004Y-99235010D03*
%TD*%
D15*
%TO.C,D14*%
X119732003Y-105805004D03*
X123032011Y-105805006D03*
%TD*%
%TO.C,D14*%
X80732001Y-108805005D03*
X84032009Y-108805007D03*
%TD*%
%TO.C,D14*%
X158731997Y-86305003D03*
X162032005Y-86305005D03*
%TD*%
D19*
%TO.C,REF\u002A\u002A*%
X220996977Y-140474278D03*
X207917767Y-138895299D03*
%TD*%
D13*
%TO.C,REF\u002A\u002A*%
X108967003Y-62695011D03*
X96040005Y-65235009D03*
%TD*%
D15*
%TO.C,D14*%
X100231999Y-107805000D03*
X103532007Y-107805002D03*
%TD*%
%TO.C,D14*%
X106232004Y-127305001D03*
X109532012Y-127305003D03*
%TD*%
D13*
%TO.C,REF\u002A\u002A*%
X95467013Y-122195004D03*
X82540015Y-124735002D03*
%TD*%
D10*
%TO.C,REF\u002A\u002A*%
X98382013Y-73655006D03*
X110382010Y-75854997D03*
%TD*%
%TO.C,REF\u002A\u002A*%
X156882008Y-71655016D03*
X168882005Y-73855007D03*
%TD*%
%TO.C,REF\u002A\u002A*%
X117882005Y-91155018D03*
X129882002Y-93355009D03*
%TD*%
D20*
%TO.C,D14*%
X172568701Y-135796843D03*
X175850623Y-136141787D03*
%TD*%
D15*
%TO.C,D14*%
X197732009Y-99055011D03*
X201032017Y-99055013D03*
%TD*%
%TO.C,D14*%
X139232012Y-83305006D03*
X142532020Y-83305008D03*
%TD*%
D10*
%TO.C,REF\u002A\u002A*%
X98382014Y-93155010D03*
X110382011Y-95355001D03*
%TD*%
D13*
%TO.C,REF\u002A\u002A*%
X128467006Y-60695011D03*
X115540008Y-63235009D03*
%TD*%
D15*
%TO.C,D14*%
X139232004Y-102804998D03*
X142532012Y-102805000D03*
%TD*%
D13*
%TO.C,REF\u002A\u002A*%
X186967007Y-63695007D03*
X174040009Y-66235005D03*
%TD*%
D21*
%TO.C,REF\u002A\u002A*%
X181894518Y-130633361D03*
X168772830Y-131808213D03*
%TD*%
D10*
%TO.C,REF\u002A\u002A*%
X156882016Y-52155005D03*
X168882013Y-54354996D03*
%TD*%
D15*
%TO.C,D14*%
X100231999Y-88305003D03*
X103532007Y-88305005D03*
%TD*%
D10*
%TO.C,REF\u002A\u002A*%
X98382008Y-54155017D03*
X110382005Y-56355008D03*
%TD*%
D15*
%TO.C,D14*%
X178232003Y-89305002D03*
X181532011Y-89305004D03*
%TD*%
%TO.C,D14*%
X178232005Y-108804998D03*
X181532013Y-108805000D03*
%TD*%
%TO.C,D14*%
X197732005Y-79555011D03*
X201032013Y-79555013D03*
%TD*%
D10*
%TO.C,REF\u002A\u002A*%
X195882015Y-64905006D03*
X207882012Y-67104997D03*
%TD*%
D15*
%TO.C,D14*%
X119731995Y-66805008D03*
X123032003Y-66805010D03*
%TD*%
D13*
%TO.C,REF\u002A\u002A*%
X167467003Y-80195010D03*
X154540005Y-82735008D03*
%TD*%
D15*
%TO.C,D14*%
X100232002Y-68804997D03*
X103532010Y-68804999D03*
%TD*%
D22*
%TO.C,REF\u002A\u002A*%
X172260177Y-121033720D03*
X183964479Y-124476007D03*
%TD*%
D10*
%TO.C,REF\u002A\u002A*%
X137382007Y-88155018D03*
X149382004Y-90355009D03*
%TD*%
D23*
%TO.C,B1*%
X192941003Y-52311007D03*
X192941009Y-58511009D03*
X196641015Y-52311003D03*
X196641021Y-58511005D03*
%TD*%
%TO.C,B1*%
X203681003Y-52625999D03*
X203681009Y-58826001D03*
X207381015Y-52625995D03*
X207381021Y-58825997D03*
%TD*%
D24*
%TO.C,REF\u002A\u002A*%
X146838015Y-117253010D03*
X146338000Y-117253009D03*
X145838000Y-117253008D03*
X145338001Y-117253008D03*
X144838001Y-117253008D03*
X144337998Y-117253005D03*
X143838000Y-117253008D03*
X143337996Y-117253013D03*
X142837998Y-117253009D03*
X142338001Y-117253008D03*
X141838002Y-117253004D03*
X141338001Y-117253008D03*
D25*
X148738001Y-120503008D03*
X139438001Y-120503008D03*
%TD*%
M02*
