%TF.GenerationSoftware,KiCad,Pcbnew,8.0.3+1*%
%TF.CreationDate,2024-08-06T22:55:26-04:00*%
%TF.ProjectId,iyada_flip,69796164-615f-4666-9c69-702e6b696361,rev?*%
%TF.SameCoordinates,Original*%
%TF.FileFunction,Drillmap*%
%TF.FilePolarity,Positive*%
%FSLAX45Y45*%
G04 Gerber Fmt 4.5, Leading zero omitted, Abs format (unit mm)*
G04 Created by KiCad (PCBNEW 8.0.3+1) date 2024-08-06 22:55:26*
%MOMM*%
%LPD*%
G01*
G04 APERTURE LIST*
%ADD10C,0.050000*%
%ADD11C,0.200000*%
%ADD12C,0.100000*%
%ADD13C,0.110000*%
%ADD14C,0.150000*%
G04 APERTURE END LIST*
D10*
X16767489Y-4484162D02*
X11430001Y-4484101D01*
X20234101Y-14391600D02*
X22184520Y-14967747D01*
X11392362Y-4487784D02*
X7318801Y-5041802D01*
X22747101Y-13860601D02*
X23274725Y-12094541D01*
X23073701Y-4867301D02*
X21057240Y-4867485D01*
X23274725Y-12094541D02*
X23271396Y-9301896D01*
X11887101Y-13385600D02*
X18343100Y-14010600D01*
X7107959Y-12739306D02*
G75*
G02*
X7148659Y-12674876I71321J16D01*
G01*
X7137401Y-11302170D02*
G75*
G02*
X7178105Y-11366600I-30641J-64430D01*
G01*
X22747101Y-13860601D02*
X22421731Y-14813700D01*
X18343100Y-14010600D02*
X20234101Y-14391600D01*
X22421731Y-14813700D02*
G75*
G02*
X22184521Y-14967743I-195631J41590D01*
G01*
X7178600Y-12366601D02*
X7179100Y-12616600D01*
X7118800Y-5241801D02*
G75*
G02*
X7318801Y-5041800I200000J1D01*
G01*
X7106959Y-11243895D02*
X7118800Y-5241801D01*
X11392362Y-4487784D02*
G75*
G02*
X11430001Y-4484102I35968J-173487D01*
G01*
X23073701Y-4867301D02*
G75*
G02*
X23273699Y-5067300I9J-199989D01*
G01*
X7306329Y-13379422D02*
G75*
G02*
X7106328Y-13179421I1J200002D01*
G01*
X21057240Y-4867485D02*
X16805128Y-4487844D01*
X7178101Y-11366600D02*
X7178600Y-12366601D01*
X7306329Y-13379422D02*
X11887101Y-13385600D01*
X7179100Y-12616600D02*
G75*
G02*
X7148658Y-12674875I-70980J-10D01*
G01*
X7107959Y-12739306D02*
X7106330Y-13179421D01*
X23271396Y-9301896D02*
X23273700Y-5067300D01*
X7137401Y-11302172D02*
G75*
G02*
X7106955Y-11243895I40579J58292D01*
G01*
X16767489Y-4484162D02*
G75*
G02*
X16805128Y-4487844I1651J-177338D01*
G01*
X20592090Y-12187088D02*
X20768156Y-12224512D01*
X20803738Y-12201405D02*
X21086498Y-10871124D01*
X20851742Y-10821225D02*
X20568983Y-12151506D01*
X21063391Y-10835542D02*
X20887326Y-10798119D01*
X20592090Y-12187088D02*
G75*
G02*
X20568982Y-12151506I6237J29345D01*
G01*
X20803738Y-12201405D02*
G75*
G02*
X20768156Y-12224512I-29344J6237D01*
G01*
X20851742Y-10821225D02*
G75*
G02*
X20887326Y-10798118I29345J-6238D01*
G01*
X21063391Y-10835542D02*
G75*
G02*
X21086498Y-10871124I-6237J-29344D01*
G01*
X18908453Y-11829219D02*
X19084520Y-11866643D01*
X19120102Y-11843537D02*
X19402861Y-10513255D01*
X19168106Y-10463357D02*
X18885346Y-11793637D01*
X19379755Y-10477674D02*
X19203688Y-10440250D01*
X18908453Y-11829219D02*
G75*
G02*
X18885346Y-11793637I6237J29345D01*
G01*
X19120102Y-11843537D02*
G75*
G02*
X19084520Y-11866644I-29345J6238D01*
G01*
X19168106Y-10463357D02*
G75*
G02*
X19203688Y-10440250I29344J-6237D01*
G01*
X19379755Y-10477674D02*
G75*
G02*
X19402861Y-10513255I-6238J-29344D01*
G01*
D11*
D12*
X7536613Y-6043846D02*
X7566613Y-6073846D01*
X7566613Y-6043846D02*
X7536613Y-6073846D01*
X7536614Y-7978845D02*
X7566614Y-8008845D01*
X7566614Y-7978845D02*
X7536614Y-8008845D01*
X7536614Y-9976347D02*
X7566614Y-10006347D01*
X7566614Y-9976347D02*
X7536614Y-10006347D01*
X7594700Y-11966886D02*
X7624700Y-11996886D01*
X7624700Y-11966886D02*
X7594700Y-11996886D01*
X7598200Y-12158887D02*
X7628200Y-12188887D01*
X7628200Y-12158887D02*
X7598200Y-12188887D01*
X7612200Y-11777887D02*
X7642200Y-11807887D01*
X7642200Y-11777887D02*
X7612200Y-11807887D01*
X7655914Y-12304100D02*
X7685914Y-12334100D01*
X7685914Y-12304100D02*
X7655914Y-12334100D01*
X7690414Y-12504100D02*
X7720414Y-12534100D01*
X7720414Y-12504100D02*
X7690414Y-12534100D01*
X8137114Y-11862346D02*
X8167114Y-11892346D01*
X8167114Y-11862346D02*
X8137114Y-11892346D01*
X8206509Y-6805747D02*
X8236509Y-6835747D01*
X8236509Y-6805747D02*
X8206509Y-6835747D01*
X8216009Y-10700248D02*
X8246009Y-10730248D01*
X8246009Y-10700248D02*
X8216009Y-10730248D01*
X8223101Y-9638602D02*
X8253101Y-9668602D01*
X8253101Y-9638602D02*
X8223101Y-9668602D01*
X8225509Y-8750248D02*
X8255509Y-8780248D01*
X8255509Y-8750248D02*
X8225509Y-8780248D01*
X8225601Y-5737600D02*
X8255601Y-5767600D01*
X8255601Y-5737600D02*
X8225601Y-5767600D01*
X8227601Y-7688601D02*
X8257601Y-7718601D01*
X8257601Y-7688601D02*
X8227601Y-7718601D01*
X8533102Y-9849100D02*
X8563102Y-9879100D01*
X8563102Y-9849100D02*
X8533102Y-9879100D01*
X8539102Y-7898601D02*
X8569102Y-7928601D01*
X8569102Y-7898601D02*
X8539102Y-7928601D01*
X8661100Y-5947101D02*
X8691100Y-5977101D01*
X8691100Y-5947101D02*
X8661100Y-5977101D01*
X8818009Y-12645748D02*
X8848009Y-12675748D01*
X8848009Y-12645748D02*
X8818009Y-12675748D01*
X8819101Y-11588102D02*
X8849101Y-11618102D01*
X8849101Y-11588102D02*
X8819101Y-11618102D01*
X8909811Y-7973797D02*
X8939811Y-8003797D01*
X8939811Y-7973797D02*
X8909811Y-8003797D01*
X8909811Y-9961296D02*
X8939811Y-9991296D01*
X8939811Y-9961296D02*
X8909811Y-9991296D01*
X8910311Y-6124298D02*
X8940311Y-6154298D01*
X8940311Y-6124298D02*
X8910311Y-6154298D01*
X9030417Y-10471396D02*
X9060417Y-10501396D01*
X9060417Y-10471396D02*
X9030417Y-10501396D01*
X9036917Y-8513396D02*
X9066917Y-8543396D01*
X9066917Y-8513396D02*
X9036917Y-8543396D01*
X9038417Y-6608895D02*
X9068417Y-6638895D01*
X9068417Y-6608895D02*
X9038417Y-6638895D01*
X9152102Y-11801100D02*
X9182102Y-11831100D01*
X9182102Y-11801100D02*
X9152102Y-11831100D01*
X9486113Y-7865347D02*
X9516113Y-7895347D01*
X9516113Y-7865347D02*
X9486113Y-7895347D01*
X9486114Y-5892846D02*
X9516114Y-5922846D01*
X9516114Y-5892846D02*
X9486114Y-5922846D01*
X9486614Y-9819846D02*
X9516614Y-9849846D01*
X9516614Y-9819846D02*
X9486614Y-9849846D01*
X9509811Y-11872296D02*
X9539811Y-11902296D01*
X9539811Y-11872296D02*
X9509811Y-11902296D01*
X9634416Y-12407895D02*
X9664416Y-12437895D01*
X9664416Y-12407895D02*
X9634416Y-12437895D01*
X10086614Y-11763347D02*
X10116614Y-11793347D01*
X10116614Y-11763347D02*
X10086614Y-11793347D01*
X10168509Y-6698748D02*
X10198509Y-6728748D01*
X10198509Y-6698748D02*
X10168509Y-6728748D01*
X10169509Y-10603749D02*
X10199509Y-10633749D01*
X10199509Y-10603749D02*
X10169509Y-10633749D01*
X10169601Y-9537101D02*
X10199601Y-9567101D01*
X10199601Y-9537101D02*
X10169601Y-9567101D01*
X10174101Y-5638600D02*
X10204101Y-5668600D01*
X10204101Y-5638600D02*
X10174101Y-5668600D01*
X10175009Y-8650748D02*
X10205009Y-8680748D01*
X10205009Y-8650748D02*
X10175009Y-8680748D01*
X10177101Y-7587601D02*
X10207101Y-7617601D01*
X10207101Y-7587601D02*
X10177101Y-7617601D01*
X10524101Y-5854601D02*
X10554101Y-5884601D01*
X10554101Y-5854601D02*
X10524101Y-5884601D01*
X10533101Y-9758600D02*
X10563101Y-9788600D01*
X10563101Y-9758600D02*
X10533101Y-9788600D01*
X10554101Y-7802100D02*
X10584101Y-7832100D01*
X10584101Y-7802100D02*
X10554101Y-7832100D01*
X10769509Y-12545747D02*
X10799509Y-12575747D01*
X10799509Y-12545747D02*
X10769509Y-12575747D01*
X10771601Y-11488102D02*
X10801601Y-11518102D01*
X10801601Y-11488102D02*
X10771601Y-11518102D01*
X10859811Y-9816797D02*
X10889811Y-9846797D01*
X10889811Y-9816797D02*
X10859811Y-9846797D01*
X10859811Y-6003298D02*
X10889811Y-6033298D01*
X10889811Y-6003298D02*
X10859811Y-6033298D01*
X10859811Y-7882797D02*
X10889811Y-7912797D01*
X10889811Y-7882797D02*
X10859811Y-7912797D01*
X10976917Y-8417395D02*
X11006917Y-8447395D01*
X11006917Y-8417395D02*
X10976917Y-8447395D01*
X10977417Y-10362396D02*
X11007417Y-10392396D01*
X11007417Y-10362396D02*
X10977417Y-10392396D01*
X10986916Y-6478396D02*
X11016916Y-6508396D01*
X11016916Y-6478396D02*
X10986916Y-6508396D01*
X11125101Y-11706601D02*
X11155101Y-11736601D01*
X11155101Y-11706601D02*
X11125101Y-11736601D01*
X11436614Y-9618846D02*
X11466614Y-9648846D01*
X11466614Y-9618846D02*
X11436614Y-9648846D01*
X11436615Y-5707847D02*
X11466615Y-5737847D01*
X11466615Y-5707847D02*
X11436615Y-5737847D01*
X11437114Y-7666346D02*
X11467114Y-7696346D01*
X11467114Y-7666346D02*
X11437114Y-7696346D01*
X11459811Y-11772297D02*
X11489811Y-11802297D01*
X11489811Y-11772297D02*
X11459811Y-11802297D01*
X11591416Y-12309396D02*
X11621416Y-12339396D01*
X11621416Y-12309396D02*
X11591416Y-12339396D01*
X12120009Y-6507747D02*
X12150009Y-6537747D01*
X12150009Y-6507747D02*
X12120009Y-6537747D01*
X12123009Y-8456248D02*
X12153009Y-8486248D01*
X12153009Y-8456248D02*
X12123009Y-8486248D01*
X12123101Y-9337101D02*
X12153101Y-9367101D01*
X12153101Y-9337101D02*
X12123101Y-9367101D01*
X12123601Y-7387600D02*
X12153601Y-7417600D01*
X12153601Y-7387600D02*
X12123601Y-7417600D01*
X12124009Y-10403748D02*
X12154009Y-10433748D01*
X12154009Y-10403748D02*
X12124009Y-10433748D01*
X12124101Y-5438600D02*
X12154101Y-5468600D01*
X12154101Y-5438600D02*
X12124101Y-5468600D01*
X12484101Y-9554101D02*
X12514101Y-9584101D01*
X12514101Y-9554101D02*
X12484101Y-9584101D01*
X12484102Y-5650101D02*
X12514102Y-5680101D01*
X12514102Y-5650101D02*
X12484102Y-5680101D01*
X12499601Y-7606101D02*
X12529601Y-7636101D01*
X12529601Y-7606101D02*
X12499601Y-7636101D01*
X12809311Y-7678798D02*
X12839311Y-7708798D01*
X12839311Y-7678798D02*
X12809311Y-7708798D01*
X12809811Y-9606297D02*
X12839811Y-9636297D01*
X12839811Y-9606297D02*
X12809811Y-9636297D01*
X12810312Y-5807797D02*
X12840312Y-5837797D01*
X12840312Y-5807797D02*
X12810312Y-5837797D01*
X12934916Y-8215395D02*
X12964916Y-8245395D01*
X12964916Y-8215395D02*
X12934916Y-8245395D01*
X12935917Y-10165895D02*
X12965917Y-10195895D01*
X12965917Y-10165895D02*
X12935917Y-10195895D01*
X12947417Y-6294895D02*
X12977417Y-6324895D01*
X12977417Y-6294895D02*
X12947417Y-6324895D01*
X13386114Y-9310847D02*
X13416114Y-9340847D01*
X13416114Y-9310847D02*
X13386114Y-9340847D01*
X13386614Y-5408346D02*
X13416614Y-5438346D01*
X13416614Y-5408346D02*
X13386614Y-5438346D01*
X13386614Y-7368845D02*
X13416614Y-7398845D01*
X13416614Y-7368845D02*
X13386614Y-7398845D01*
X14067508Y-8145747D02*
X14097508Y-8175747D01*
X14097508Y-8145747D02*
X14067508Y-8175747D01*
X14072600Y-7087600D02*
X14102600Y-7117600D01*
X14102600Y-7087600D02*
X14072600Y-7117600D01*
X14073100Y-9037101D02*
X14103100Y-9067101D01*
X14103100Y-9037101D02*
X14073100Y-9067101D01*
X14074101Y-5137100D02*
X14104101Y-5167100D01*
X14104101Y-5137100D02*
X14074101Y-5167100D01*
X14075009Y-6198747D02*
X14105009Y-6228747D01*
X14105009Y-6198747D02*
X14075009Y-6228747D01*
X14076009Y-10097248D02*
X14106009Y-10127248D01*
X14106009Y-10097248D02*
X14076009Y-10127248D01*
X14218595Y-11546190D02*
X14248595Y-11576190D01*
X14248595Y-11546190D02*
X14218595Y-11576190D01*
X14268595Y-12137690D02*
X14298595Y-12167690D01*
X14298595Y-12137690D02*
X14268595Y-12167690D01*
X14390100Y-9242600D02*
X14420100Y-9272600D01*
X14420100Y-9242600D02*
X14390100Y-9272600D01*
X14425600Y-5353101D02*
X14455600Y-5383101D01*
X14455600Y-5353101D02*
X14425600Y-5383101D01*
X14445601Y-7303100D02*
X14475601Y-7333100D01*
X14475601Y-7303100D02*
X14445601Y-7333100D01*
X14760312Y-7404297D02*
X14790312Y-7434297D01*
X14790312Y-7404297D02*
X14760312Y-7434297D01*
X14761312Y-9324796D02*
X14791312Y-9354796D01*
X14791312Y-9324796D02*
X14761312Y-9354796D01*
X14762311Y-5480297D02*
X14792311Y-5510297D01*
X14792311Y-5480297D02*
X14762311Y-5510297D01*
X14876917Y-9869397D02*
X14906917Y-9899397D01*
X14906917Y-9869397D02*
X14876917Y-9899397D01*
X14882416Y-7912395D02*
X14912416Y-7942395D01*
X14912416Y-7912395D02*
X14882416Y-7942395D01*
X14898719Y-5946445D02*
X14928719Y-5976445D01*
X14928719Y-5946445D02*
X14898719Y-5976445D01*
X15336614Y-7681846D02*
X15366614Y-7711846D01*
X15366614Y-7681846D02*
X15336614Y-7711846D01*
X15336614Y-9613846D02*
X15366614Y-9643846D01*
X15366614Y-9613846D02*
X15336614Y-9643846D01*
X15336614Y-5717345D02*
X15366614Y-5747345D01*
X15366614Y-5717345D02*
X15336614Y-5747345D01*
X16015009Y-10395747D02*
X16045009Y-10425747D01*
X16045009Y-10395747D02*
X16015009Y-10425747D01*
X16019509Y-8446748D02*
X16049509Y-8476748D01*
X16049509Y-8446748D02*
X16019509Y-8476748D01*
X16020600Y-9337101D02*
X16050600Y-9367101D01*
X16050600Y-9337101D02*
X16020600Y-9367101D01*
X16023009Y-6513747D02*
X16053009Y-6543747D01*
X16053009Y-6513747D02*
X16023009Y-6543747D01*
X16023601Y-7388600D02*
X16053601Y-7418600D01*
X16053601Y-7388600D02*
X16023601Y-7418600D01*
X16027101Y-5437101D02*
X16057101Y-5467101D01*
X16057101Y-5437101D02*
X16027101Y-5467101D01*
X16358101Y-9555600D02*
X16388101Y-9585600D01*
X16388101Y-9555600D02*
X16358101Y-9585600D01*
X16363100Y-7603101D02*
X16393100Y-7633101D01*
X16393100Y-7603101D02*
X16363100Y-7633101D01*
X16370101Y-5657101D02*
X16400101Y-5687101D01*
X16400101Y-5657101D02*
X16370101Y-5687101D01*
X16709811Y-9663798D02*
X16739811Y-9693798D01*
X16739811Y-9663798D02*
X16709811Y-9693798D01*
X16709812Y-5801797D02*
X16739812Y-5831797D01*
X16739812Y-5801797D02*
X16709812Y-5831797D01*
X16710312Y-7682297D02*
X16740312Y-7712297D01*
X16740312Y-7682297D02*
X16710312Y-7712297D01*
X16822986Y-12562587D02*
X16852986Y-12592587D01*
X16852986Y-12562587D02*
X16822986Y-12592587D01*
X16830417Y-8209395D02*
X16860417Y-8239395D01*
X16860417Y-8209395D02*
X16830417Y-8239395D01*
X16838916Y-10167896D02*
X16868916Y-10197896D01*
X16868916Y-10167896D02*
X16838916Y-10197896D01*
X16848219Y-6240945D02*
X16878219Y-6270945D01*
X16878219Y-6240945D02*
X16848219Y-6270945D01*
X17016095Y-11338690D02*
X17046095Y-11368690D01*
X17046095Y-11338690D02*
X17016095Y-11368690D01*
X17103595Y-11337190D02*
X17133595Y-11367190D01*
X17133595Y-11337190D02*
X17103595Y-11367190D01*
X17272777Y-11257730D02*
X17302777Y-11287730D01*
X17302777Y-11257730D02*
X17272777Y-11287730D01*
X17286614Y-9937846D02*
X17316614Y-9967846D01*
X17316614Y-9937846D02*
X17286614Y-9967846D01*
X17286614Y-7979346D02*
X17316614Y-8009346D01*
X17316614Y-7979346D02*
X17286614Y-8009346D01*
X17286614Y-5996846D02*
X17316614Y-6026846D01*
X17316614Y-5996846D02*
X17286614Y-6026846D01*
X17302277Y-11419730D02*
X17332277Y-11449730D01*
X17332277Y-11419730D02*
X17302277Y-11449730D01*
X17416510Y-13415199D02*
X17446510Y-13445199D01*
X17446510Y-13415199D02*
X17416510Y-13445199D01*
X17534787Y-12367237D02*
X17564787Y-12397237D01*
X17564787Y-12367237D02*
X17534787Y-12397237D01*
X17893093Y-12607947D02*
X17923093Y-12637947D01*
X17923093Y-12607947D02*
X17893093Y-12637947D01*
X17922277Y-6714230D02*
X17952277Y-6744230D01*
X17952277Y-6714230D02*
X17922277Y-6744230D01*
X17967508Y-10696248D02*
X17997508Y-10726248D01*
X17997508Y-10696248D02*
X17967508Y-10726248D01*
X17968601Y-9636601D02*
X17998601Y-9666601D01*
X17998601Y-9636601D02*
X17968601Y-9666601D01*
X17976009Y-8750248D02*
X18006009Y-8780248D01*
X18006009Y-8750248D02*
X17976009Y-8780248D01*
X17976601Y-7688600D02*
X18006601Y-7718600D01*
X18006601Y-7688600D02*
X17976601Y-7718600D01*
X17981600Y-5738601D02*
X18011600Y-5768601D01*
X18011600Y-5738601D02*
X17981600Y-5768601D01*
X18188848Y-12699559D02*
X18218848Y-12729559D01*
X18218848Y-12699559D02*
X18188848Y-12729559D01*
X18252916Y-13272492D02*
X18282916Y-13302492D01*
X18282916Y-13272492D02*
X18252916Y-13302492D01*
X18338101Y-5957601D02*
X18368101Y-5987601D01*
X18368101Y-5957601D02*
X18338101Y-5987601D01*
X18339600Y-7909601D02*
X18369600Y-7939601D01*
X18369600Y-7909601D02*
X18339600Y-7939601D01*
X18355101Y-9853101D02*
X18385101Y-9883101D01*
X18385101Y-9853101D02*
X18355101Y-9883101D01*
X18659311Y-9921797D02*
X18689311Y-9951797D01*
X18689311Y-9921797D02*
X18659311Y-9951797D01*
X18659811Y-6014797D02*
X18689811Y-6044797D01*
X18689811Y-6014797D02*
X18659811Y-6044797D01*
X18659812Y-8040297D02*
X18689812Y-8070297D01*
X18689812Y-8040297D02*
X18659812Y-8070297D01*
X18771916Y-6676230D02*
X18801916Y-6706230D01*
X18801916Y-6676230D02*
X18771916Y-6706230D01*
X18779417Y-8512396D02*
X18809417Y-8542396D01*
X18809417Y-8512396D02*
X18779417Y-8542396D01*
X18784417Y-10470395D02*
X18814417Y-10500395D01*
X18814417Y-10470395D02*
X18784417Y-10500395D01*
X18860673Y-12821268D02*
X18890673Y-12851268D01*
X18890673Y-12821268D02*
X18860673Y-12851268D01*
X19236114Y-7002846D02*
X19266114Y-7032846D01*
X19266114Y-7002846D02*
X19236114Y-7032846D01*
X19236614Y-8938347D02*
X19266614Y-8968347D01*
X19266614Y-8938347D02*
X19236614Y-8968347D01*
X19279101Y-5549230D02*
X19309101Y-5579230D01*
X19309101Y-5549230D02*
X19279101Y-5579230D01*
X19363768Y-13724507D02*
X19393768Y-13754507D01*
X19393768Y-13724507D02*
X19363768Y-13754507D01*
X19583192Y-12695680D02*
X19613192Y-12725680D01*
X19613192Y-12695680D02*
X19583192Y-12725680D01*
X19649100Y-5538730D02*
X19679100Y-5568730D01*
X19679100Y-5538730D02*
X19649100Y-5568730D01*
X19831777Y-9720230D02*
X19861777Y-9750230D01*
X19861777Y-9720230D02*
X19831777Y-9750230D01*
X19889457Y-12964037D02*
X19919457Y-12994037D01*
X19919457Y-12964037D02*
X19889457Y-12994037D01*
X19924509Y-7770748D02*
X19954509Y-7800748D01*
X19954509Y-7770748D02*
X19924509Y-7800748D01*
X19927101Y-6713100D02*
X19957101Y-6743100D01*
X19957101Y-6713100D02*
X19927101Y-6743100D01*
X19929600Y-8662101D02*
X19959600Y-8692101D01*
X19959600Y-8662101D02*
X19929600Y-8692101D01*
X20202090Y-13668733D02*
X20232090Y-13698733D01*
X20232090Y-13668733D02*
X20202090Y-13698733D01*
X20202521Y-13113082D02*
X20232521Y-13143082D01*
X20232521Y-13113082D02*
X20202521Y-13143082D01*
X20260479Y-11197974D02*
X20290479Y-11227974D01*
X20290479Y-11197974D02*
X20260479Y-11227974D01*
X20275601Y-6929601D02*
X20305601Y-6959601D01*
X20305601Y-6929601D02*
X20275601Y-6959601D01*
X20288101Y-8869101D02*
X20318101Y-8899101D01*
X20318101Y-8869101D02*
X20288101Y-8899101D01*
X20309128Y-10948641D02*
X20339128Y-10978641D01*
X20339128Y-10948641D02*
X20309128Y-10978641D01*
X20353101Y-5559730D02*
X20383101Y-5589730D01*
X20383101Y-5559730D02*
X20353101Y-5589730D01*
X20609811Y-6996297D02*
X20639811Y-7026297D01*
X20639811Y-6996297D02*
X20609811Y-7026297D01*
X20609811Y-9016797D02*
X20639811Y-9046797D01*
X20639811Y-9016797D02*
X20609811Y-9046797D01*
X20723100Y-5563230D02*
X20753100Y-5593230D01*
X20753100Y-5563230D02*
X20723100Y-5593230D01*
X20729416Y-7537396D02*
X20759416Y-7567396D01*
X20759416Y-7537396D02*
X20729416Y-7567396D01*
X20729916Y-9486896D02*
X20759916Y-9516896D01*
X20759916Y-9486896D02*
X20729916Y-9516896D01*
X20832277Y-7983230D02*
X20862277Y-8013230D01*
X20862277Y-7983230D02*
X20832277Y-8013230D01*
X20835277Y-6181230D02*
X20865277Y-6211230D01*
X20865277Y-6181230D02*
X20835277Y-6211230D01*
X20846777Y-6461730D02*
X20876777Y-6491730D01*
X20876777Y-6461730D02*
X20846777Y-6491730D01*
X20859777Y-6341730D02*
X20889777Y-6371730D01*
X20889777Y-6341730D02*
X20859777Y-6371730D01*
X20869027Y-13258282D02*
X20899027Y-13288282D01*
X20899027Y-13258282D02*
X20869027Y-13288282D01*
X21267534Y-14231986D02*
X21297534Y-14261986D01*
X21297534Y-14231986D02*
X21267534Y-14261986D01*
X21312433Y-10007293D02*
X21342433Y-10037293D01*
X21342433Y-10007293D02*
X21312433Y-10037293D01*
X21497951Y-9851965D02*
X21527951Y-9881965D01*
X21527951Y-9851965D02*
X21497951Y-9881965D01*
X21607986Y-13232994D02*
X21637986Y-13262994D01*
X21637986Y-13232994D02*
X21607986Y-13262994D01*
X21908092Y-13550423D02*
X21938092Y-13580423D01*
X21938092Y-13550423D02*
X21908092Y-13580423D01*
X21922878Y-8282955D02*
X21952878Y-8312955D01*
X21952878Y-8282955D02*
X21922878Y-8312955D01*
X21949043Y-11127741D02*
X21979043Y-11157741D01*
X21979043Y-11127741D02*
X21949043Y-11157741D01*
X21951121Y-9344953D02*
X21981121Y-9374953D01*
X21981121Y-9344953D02*
X21951121Y-9374953D01*
X21979660Y-12208989D02*
X22009660Y-12238989D01*
X22009660Y-12208989D02*
X21979660Y-12238989D01*
X21979777Y-7334730D02*
X22009777Y-7364730D01*
X22009777Y-7334730D02*
X21979777Y-7364730D01*
X21992378Y-9089455D02*
X22022378Y-9119455D01*
X22022378Y-9089455D02*
X21992378Y-9119455D01*
X22031378Y-9248955D02*
X22061378Y-9278955D01*
X22061378Y-9248955D02*
X22031378Y-9278955D01*
X22116106Y-14263919D02*
X22146106Y-14293919D01*
X22146106Y-14263919D02*
X22116106Y-14293919D01*
X22167459Y-13705877D02*
X22197459Y-13735877D01*
X22197459Y-13705877D02*
X22167459Y-13735877D01*
X22234835Y-10413974D02*
X22264835Y-10443974D01*
X22264835Y-10413974D02*
X22234835Y-10443974D01*
X22447276Y-5678230D02*
X22477276Y-5708230D01*
X22477276Y-5678230D02*
X22447276Y-5708230D01*
X22632776Y-6754230D02*
X22662776Y-6784230D01*
X22662776Y-6754230D02*
X22632776Y-6784230D01*
X22635276Y-6494230D02*
X22665276Y-6524230D01*
X22665276Y-6494230D02*
X22635276Y-6524230D01*
X22636776Y-7023600D02*
X22666776Y-7053600D01*
X22666776Y-7023600D02*
X22636776Y-7053600D01*
X22738776Y-9043730D02*
X22768776Y-9073730D01*
X22768776Y-9043730D02*
X22738776Y-9073730D01*
X22755785Y-9291803D02*
X22785785Y-9321803D01*
X22785785Y-9291803D02*
X22755785Y-9321803D01*
X22820486Y-11304456D02*
X22850486Y-11334456D01*
X22850486Y-11304456D02*
X22820486Y-11334456D01*
X23040607Y-8946235D02*
X23070607Y-8976235D01*
X23070607Y-8946235D02*
X23040607Y-8976235D01*
X19412506Y-11539328D02*
G75*
G02*
X19322506Y-11539328I-45000J0D01*
G01*
X19322506Y-11539328D02*
G75*
G02*
X19412506Y-11539328I45000J0D01*
G01*
X19465316Y-11290878D02*
G75*
G02*
X19375316Y-11290878I-45000J0D01*
G01*
X19375316Y-11290878D02*
G75*
G02*
X19465316Y-11290878I45000J0D01*
G01*
X19500803Y-10534733D02*
G75*
G02*
X19410803Y-10534733I-45000J0D01*
G01*
X19410803Y-10534733D02*
G75*
G02*
X19500803Y-10534733I45000J0D01*
G01*
X19518126Y-11042428D02*
G75*
G02*
X19428126Y-11042428I-45000J0D01*
G01*
X19428126Y-11042428D02*
G75*
G02*
X19518126Y-11042428I45000J0D01*
G01*
X19570935Y-10793979D02*
G75*
G02*
X19480935Y-10793979I-45000J0D01*
G01*
X19480935Y-10793979D02*
G75*
G02*
X19570935Y-10793979I45000J0D01*
G01*
X19681760Y-10573196D02*
G75*
G02*
X19591760Y-10573196I-45000J0D01*
G01*
X19591760Y-10573196D02*
G75*
G02*
X19681760Y-10573196I45000J0D01*
G01*
X20511700Y-11772968D02*
G75*
G02*
X20421700Y-11772968I-45000J0D01*
G01*
X20421700Y-11772968D02*
G75*
G02*
X20511700Y-11772968I45000J0D01*
G01*
X20564509Y-11524519D02*
G75*
G02*
X20474509Y-11524519I-45000J0D01*
G01*
X20474509Y-11524519D02*
G75*
G02*
X20564509Y-11524519I45000J0D01*
G01*
X20617319Y-11276069D02*
G75*
G02*
X20527319Y-11276069I-45000J0D01*
G01*
X20527319Y-11276069D02*
G75*
G02*
X20617319Y-11276069I45000J0D01*
G01*
X20658685Y-10780847D02*
G75*
G02*
X20568685Y-10780847I-45000J0D01*
G01*
X20568685Y-10780847D02*
G75*
G02*
X20658685Y-10780847I45000J0D01*
G01*
X20670129Y-11027619D02*
G75*
G02*
X20580129Y-11027619I-45000J0D01*
G01*
X20580129Y-11027619D02*
G75*
G02*
X20670129Y-11027619I45000J0D01*
G01*
X20839643Y-10819311D02*
G75*
G02*
X20749643Y-10819311I-45000J0D01*
G01*
X20749643Y-10819311D02*
G75*
G02*
X20839643Y-10819311I45000J0D01*
G01*
X22103285Y-10021803D02*
G75*
G02*
X22013285Y-10021803I-45000J0D01*
G01*
X22013285Y-10021803D02*
G75*
G02*
X22103285Y-10021803I45000J0D01*
G01*
X22088285Y-9976803D02*
X22028285Y-9976803D01*
X22028285Y-10066803D02*
G75*
G02*
X22028285Y-9976803I0J45000D01*
G01*
X22028285Y-10066803D02*
X22088285Y-10066803D01*
X22088285Y-10066803D02*
G75*
G03*
X22088285Y-9976803I0J45000D01*
G01*
X22103286Y-9791803D02*
G75*
G02*
X22013286Y-9791803I-45000J0D01*
G01*
X22013286Y-9791803D02*
G75*
G02*
X22103286Y-9791803I45000J0D01*
G01*
X22088286Y-9746803D02*
X22028286Y-9746803D01*
X22028286Y-9836803D02*
G75*
G02*
X22028286Y-9746803I0J45000D01*
G01*
X22028286Y-9836803D02*
X22088286Y-9836803D01*
X22088286Y-9836803D02*
G75*
G03*
X22088286Y-9746803I0J45000D01*
G01*
X22213284Y-9561803D02*
G75*
G02*
X22123284Y-9561803I-45000J0D01*
G01*
X22123284Y-9561803D02*
G75*
G02*
X22213284Y-9561803I45000J0D01*
G01*
X22198284Y-9516803D02*
X22138284Y-9516803D01*
X22138284Y-9606803D02*
G75*
G02*
X22138284Y-9516803I0J45000D01*
G01*
X22138284Y-9606803D02*
X22198284Y-9606803D01*
X22198284Y-9606803D02*
G75*
G03*
X22198284Y-9516803I0J45000D01*
G01*
X22213284Y-10251803D02*
G75*
G02*
X22123284Y-10251803I-45000J0D01*
G01*
X22123284Y-10251803D02*
G75*
G02*
X22213284Y-10251803I45000J0D01*
G01*
X22198284Y-10206803D02*
X22138284Y-10206803D01*
X22138284Y-10296803D02*
G75*
G02*
X22138284Y-10206803I0J45000D01*
G01*
X22138284Y-10296803D02*
X22198284Y-10296803D01*
X22198284Y-10296803D02*
G75*
G03*
X22198284Y-10206803I0J45000D01*
G01*
X22613285Y-9561803D02*
G75*
G02*
X22523285Y-9561803I-45000J0D01*
G01*
X22523285Y-9561803D02*
G75*
G02*
X22613285Y-9561803I45000J0D01*
G01*
X22598285Y-9516803D02*
X22538285Y-9516803D01*
X22538285Y-9606803D02*
G75*
G02*
X22538285Y-9516803I0J45000D01*
G01*
X22538285Y-9606803D02*
X22598285Y-9606803D01*
X22598285Y-9606803D02*
G75*
G03*
X22598285Y-9516803I0J45000D01*
G01*
X22613285Y-10251803D02*
G75*
G02*
X22523285Y-10251803I-45000J0D01*
G01*
X22523285Y-10251803D02*
G75*
G02*
X22613285Y-10251803I45000J0D01*
G01*
X22598285Y-10206803D02*
X22538285Y-10206803D01*
X22538285Y-10296803D02*
G75*
G02*
X22538285Y-10206803I0J45000D01*
G01*
X22538285Y-10296803D02*
X22598285Y-10296803D01*
X22598285Y-10296803D02*
G75*
G03*
X22598285Y-10206803I0J45000D01*
G01*
X22913285Y-9561803D02*
G75*
G02*
X22823285Y-9561803I-45000J0D01*
G01*
X22823285Y-9561803D02*
G75*
G02*
X22913285Y-9561803I45000J0D01*
G01*
X22898285Y-9516803D02*
X22838285Y-9516803D01*
X22838285Y-9606803D02*
G75*
G02*
X22838285Y-9516803I0J45000D01*
G01*
X22838285Y-9606803D02*
X22898285Y-9606803D01*
X22898285Y-9606803D02*
G75*
G03*
X22898285Y-9516803I0J45000D01*
G01*
X22913285Y-10251803D02*
G75*
G02*
X22823285Y-10251803I-45000J0D01*
G01*
X22823285Y-10251803D02*
G75*
G02*
X22913285Y-10251803I45000J0D01*
G01*
X22898285Y-10206803D02*
X22838285Y-10206803D01*
X22838285Y-10296803D02*
G75*
G02*
X22838285Y-10206803I0J45000D01*
G01*
X22838285Y-10296803D02*
X22898285Y-10296803D01*
X22898285Y-10296803D02*
G75*
G03*
X22898285Y-10206803I0J45000D01*
G01*
X7857201Y-8880971D02*
X7857201Y-8980031D01*
X7807671Y-8930501D02*
X7906731Y-8930501D01*
X7857201Y-10830970D02*
X7857201Y-10930030D01*
X7807671Y-10880500D02*
X7906731Y-10880500D01*
X7857201Y-6930972D02*
X7857201Y-7030032D01*
X7807671Y-6980502D02*
X7906731Y-6980502D01*
X8457201Y-12780970D02*
X8457201Y-12880030D01*
X8407671Y-12830500D02*
X8506731Y-12830500D01*
X8619200Y-8880971D02*
X8619200Y-8980031D01*
X8569670Y-8930501D02*
X8668730Y-8930501D01*
X8619200Y-10830971D02*
X8619200Y-10930031D01*
X8569670Y-10880501D02*
X8668730Y-10880501D01*
X8619201Y-6930972D02*
X8619201Y-7030032D01*
X8569671Y-6980502D02*
X8668731Y-6980502D01*
X9219201Y-12780970D02*
X9219201Y-12880030D01*
X9169671Y-12830500D02*
X9268731Y-12830500D01*
X9807200Y-8780970D02*
X9807200Y-8880030D01*
X9757670Y-8830500D02*
X9856730Y-8830500D01*
X9807200Y-10730970D02*
X9807200Y-10830030D01*
X9757670Y-10780500D02*
X9856730Y-10780500D01*
X9807201Y-6830969D02*
X9807201Y-6930029D01*
X9757671Y-6880499D02*
X9856731Y-6880499D01*
X10407201Y-12680970D02*
X10407201Y-12780030D01*
X10357671Y-12730500D02*
X10456731Y-12730500D01*
X10569200Y-8780971D02*
X10569200Y-8880031D01*
X10519670Y-8830501D02*
X10618730Y-8830501D01*
X10569200Y-10730970D02*
X10569200Y-10830030D01*
X10519670Y-10780500D02*
X10618730Y-10780500D01*
X10569201Y-6830970D02*
X10569201Y-6930030D01*
X10519671Y-6880500D02*
X10618731Y-6880500D01*
X11169201Y-12680970D02*
X11169201Y-12780030D01*
X11119671Y-12730500D02*
X11218731Y-12730500D01*
X11757200Y-6630971D02*
X11757200Y-6730031D01*
X11707670Y-6680501D02*
X11806730Y-6680501D01*
X11757201Y-8580970D02*
X11757201Y-8680030D01*
X11707671Y-8630500D02*
X11806731Y-8630500D01*
X11757201Y-10530970D02*
X11757201Y-10630030D01*
X11707671Y-10580500D02*
X11806731Y-10580500D01*
X12519200Y-6630971D02*
X12519200Y-6730031D01*
X12469670Y-6680501D02*
X12568730Y-6680501D01*
X12519200Y-8580971D02*
X12519200Y-8680031D01*
X12469670Y-8630501D02*
X12568730Y-8630501D01*
X12519201Y-10530971D02*
X12519201Y-10630031D01*
X12469671Y-10580501D02*
X12568731Y-10580501D01*
X13707200Y-6330970D02*
X13707200Y-6430030D01*
X13657670Y-6380500D02*
X13756730Y-6380500D01*
X13707201Y-10230970D02*
X13707201Y-10330030D01*
X13657671Y-10280500D02*
X13756731Y-10280500D01*
X13707202Y-8280970D02*
X13707202Y-8380030D01*
X13657672Y-8330500D02*
X13756732Y-8330500D01*
X14469200Y-6330970D02*
X14469200Y-6430030D01*
X14419670Y-6380500D02*
X14518730Y-6380500D01*
X14469201Y-10230970D02*
X14469201Y-10330030D01*
X14419671Y-10280500D02*
X14518731Y-10280500D01*
X14469201Y-8280971D02*
X14469201Y-8380031D01*
X14419671Y-8330501D02*
X14518731Y-8330501D01*
X15657200Y-10530970D02*
X15657200Y-10630030D01*
X15607670Y-10580500D02*
X15706730Y-10580500D01*
X15657200Y-8580970D02*
X15657200Y-8680030D01*
X15607670Y-8630500D02*
X15706730Y-8630500D01*
X15657201Y-6630970D02*
X15657201Y-6730030D01*
X15607671Y-6680500D02*
X15706731Y-6680500D01*
X16419200Y-10530971D02*
X16419200Y-10630031D01*
X16369670Y-10580501D02*
X16468730Y-10580501D01*
X16419200Y-8580971D02*
X16419200Y-8680031D01*
X16369670Y-8630501D02*
X16468730Y-8630501D01*
X16419201Y-6630971D02*
X16419201Y-6730031D01*
X16369671Y-6680501D02*
X16468731Y-6680501D01*
X17042053Y-13507576D02*
X17042053Y-13606636D01*
X16992523Y-13557106D02*
X17091583Y-13557106D01*
X17607201Y-8880970D02*
X17607201Y-8980030D01*
X17557671Y-8930500D02*
X17656731Y-8930500D01*
X17607201Y-10830970D02*
X17607201Y-10930030D01*
X17557671Y-10880500D02*
X17656731Y-10880500D01*
X17607201Y-6930970D02*
X17607201Y-7030030D01*
X17557671Y-6980500D02*
X17656731Y-6980500D01*
X17799879Y-13587227D02*
X17799879Y-13686287D01*
X17750349Y-13636757D02*
X17849409Y-13636757D01*
X18369201Y-8880971D02*
X18369201Y-8980031D01*
X18319671Y-8930501D02*
X18418731Y-8930501D01*
X18369201Y-10830970D02*
X18369201Y-10930030D01*
X18319671Y-10880500D02*
X18418731Y-10880500D01*
X18369201Y-6930971D02*
X18369201Y-7030031D01*
X18319671Y-6980501D02*
X18418731Y-6980501D01*
X18977635Y-13774516D02*
X18977635Y-13873576D01*
X18928105Y-13824046D02*
X19027165Y-13824046D01*
X19557201Y-7905971D02*
X19557201Y-8005031D01*
X19507671Y-7955501D02*
X19606731Y-7955501D01*
X19557201Y-9855971D02*
X19557201Y-9955031D01*
X19507671Y-9905501D02*
X19606731Y-9905501D01*
X19722984Y-13932945D02*
X19722984Y-14032005D01*
X19673454Y-13982475D02*
X19772514Y-13982475D01*
X19814522Y-10230951D02*
X19814522Y-10330011D01*
X19764992Y-10280481D02*
X19864052Y-10280481D01*
X20319201Y-7905971D02*
X20319201Y-8005031D01*
X20269671Y-7955501D02*
X20368731Y-7955501D01*
X20319201Y-9855972D02*
X20319201Y-9955032D01*
X20269671Y-9905502D02*
X20368731Y-9905502D01*
X20559870Y-10389380D02*
X20559870Y-10488440D01*
X20510340Y-10438910D02*
X20609400Y-10438910D01*
X20874713Y-14242319D02*
X20874713Y-14341379D01*
X20825183Y-14291849D02*
X20924243Y-14291849D01*
X21599417Y-14477789D02*
X21599417Y-14576849D01*
X21549887Y-14527319D02*
X21648947Y-14527319D01*
X22814080Y-12314606D02*
X22814080Y-12413666D01*
X22764550Y-12364136D02*
X22863610Y-12364136D01*
X23049551Y-11589901D02*
X23049551Y-11688961D01*
X23000021Y-11639431D02*
X23099081Y-11639431D01*
X21705655Y-12364219D02*
X21705655Y-12293507D01*
X21634944Y-12293507D01*
X21634944Y-12364219D01*
X21705655Y-12364219D01*
X22153729Y-10985186D02*
X22153729Y-10914475D01*
X22083018Y-10914475D01*
X22083018Y-10985186D01*
X22153729Y-10985186D01*
X22181185Y-12518727D02*
X22181185Y-12448016D01*
X22110474Y-12448016D01*
X22110474Y-12518727D01*
X22181185Y-12518727D01*
X22391495Y-11062441D02*
X22391495Y-10991730D01*
X22320783Y-10991730D01*
X22320783Y-11062441D01*
X22391495Y-11062441D01*
X22629258Y-11139695D02*
X22629258Y-11068984D01*
X22558547Y-11068984D01*
X22558547Y-11139695D01*
X22629258Y-11139695D01*
D13*
X13658800Y-12319300D02*
X13713800Y-12264300D01*
X13658800Y-12209300D01*
X13603800Y-12264300D01*
X13658800Y-12319300D01*
X13658800Y-11865301D02*
X13713800Y-11810301D01*
X13658800Y-11755301D01*
X13603800Y-11810301D01*
X13658800Y-11865301D01*
X15158801Y-12319300D02*
X15213801Y-12264300D01*
X15158801Y-12209300D01*
X15103801Y-12264300D01*
X15158801Y-12319300D01*
X15158801Y-11865301D02*
X15213801Y-11810301D01*
X15158801Y-11755301D01*
X15103801Y-11810301D01*
X15158801Y-11865301D01*
X21304350Y-6700301D02*
X21359350Y-6645301D01*
X21304350Y-6590301D01*
X21249350Y-6645301D01*
X21304350Y-6700301D01*
X21304350Y-6954302D02*
X21359350Y-6899302D01*
X21304350Y-6844302D01*
X21249350Y-6899302D01*
X21304350Y-6954302D01*
X21304350Y-5684301D02*
X21359350Y-5629301D01*
X21304350Y-5574301D01*
X21249350Y-5629301D01*
X21304350Y-5684301D01*
X21304350Y-7208300D02*
X21359350Y-7153300D01*
X21304350Y-7098300D01*
X21249350Y-7153300D01*
X21304350Y-7208300D01*
X21304350Y-7970302D02*
X21359350Y-7915302D01*
X21304350Y-7860302D01*
X21249350Y-7915302D01*
X21304350Y-7970302D01*
X21304351Y-6192302D02*
X21359351Y-6137302D01*
X21304351Y-6082302D01*
X21249351Y-6137302D01*
X21304351Y-6192302D01*
X21304351Y-6446302D02*
X21359351Y-6391302D01*
X21304351Y-6336302D01*
X21249351Y-6391302D01*
X21304351Y-6446302D01*
X21304351Y-5430302D02*
X21359351Y-5375302D01*
X21304351Y-5320302D01*
X21249351Y-5375302D01*
X21304351Y-5430302D01*
X21304351Y-5938302D02*
X21359351Y-5883302D01*
X21304351Y-5828302D01*
X21249351Y-5883302D01*
X21304351Y-5938302D01*
X21304351Y-7716302D02*
X21359351Y-7661302D01*
X21304351Y-7606302D01*
X21249351Y-7661302D01*
X21304351Y-7716302D01*
X21304351Y-8224302D02*
X21359351Y-8169302D01*
X21304351Y-8114302D01*
X21249351Y-8169302D01*
X21304351Y-8224302D01*
X21304351Y-7462302D02*
X21359351Y-7407302D01*
X21304351Y-7352302D01*
X21249351Y-7407302D01*
X21304351Y-7462302D01*
X21304450Y-5176301D02*
X21359450Y-5121301D01*
X21304450Y-5066301D01*
X21249450Y-5121301D01*
X21304450Y-5176301D01*
X21558451Y-8224301D02*
X21613451Y-8169301D01*
X21558451Y-8114301D01*
X21503451Y-8169301D01*
X21558451Y-8224301D01*
X21558452Y-7970300D02*
X21613452Y-7915300D01*
X21558452Y-7860300D01*
X21503452Y-7915300D01*
X21558452Y-7970300D01*
X21592101Y-5883600D02*
X21647101Y-5828600D01*
X21592101Y-5773600D01*
X21537101Y-5828600D01*
X21592101Y-5883600D01*
X21689651Y-8631200D02*
X21744651Y-8576200D01*
X21689651Y-8521200D01*
X21634651Y-8576200D01*
X21689651Y-8631200D01*
X21812451Y-8224300D02*
X21867451Y-8169300D01*
X21812451Y-8114300D01*
X21757451Y-8169300D01*
X21812451Y-8224300D01*
X21943651Y-8631200D02*
X21998651Y-8576200D01*
X21943651Y-8521200D01*
X21888651Y-8576200D01*
X21943651Y-8631200D01*
X22066451Y-8224301D02*
X22121451Y-8169301D01*
X22066451Y-8114301D01*
X22011451Y-8169301D01*
X22066451Y-8224301D01*
X22071100Y-6440600D02*
X22126100Y-6385600D01*
X22071100Y-6330600D01*
X22016100Y-6385600D01*
X22071100Y-6440600D01*
X22071100Y-6694601D02*
X22126100Y-6639601D01*
X22071100Y-6584601D01*
X22016100Y-6639601D01*
X22071100Y-6694601D01*
X22071101Y-7202600D02*
X22126101Y-7147600D01*
X22071101Y-7092600D01*
X22016101Y-7147600D01*
X22071101Y-7202600D01*
X22071101Y-6948600D02*
X22126101Y-6893600D01*
X22071101Y-6838600D01*
X22016101Y-6893600D01*
X22071101Y-6948600D01*
X22197651Y-8631199D02*
X22252651Y-8576199D01*
X22197651Y-8521199D01*
X22142651Y-8576199D01*
X22197651Y-8631199D01*
X22320451Y-8224300D02*
X22375451Y-8169300D01*
X22320451Y-8114300D01*
X22265451Y-8169300D01*
X22320451Y-8224300D01*
X22451650Y-8631201D02*
X22506650Y-8576201D01*
X22451650Y-8521201D01*
X22396650Y-8576201D01*
X22451650Y-8631201D01*
X22574451Y-8224300D02*
X22629451Y-8169300D01*
X22574451Y-8114300D01*
X22519451Y-8169300D01*
X22574451Y-8224300D01*
X22828350Y-6192302D02*
X22883350Y-6137302D01*
X22828350Y-6082302D01*
X22773350Y-6137302D01*
X22828350Y-6192302D01*
X22828351Y-5430302D02*
X22883351Y-5375302D01*
X22828351Y-5320302D01*
X22773351Y-5375302D01*
X22828351Y-5430302D01*
X22828351Y-5938301D02*
X22883351Y-5883301D01*
X22828351Y-5828301D01*
X22773351Y-5883301D01*
X22828351Y-5938301D01*
X22828351Y-7716302D02*
X22883351Y-7661302D01*
X22828351Y-7606302D01*
X22773351Y-7661302D01*
X22828351Y-7716302D01*
X22828351Y-8224302D02*
X22883351Y-8169302D01*
X22828351Y-8114302D01*
X22773351Y-8169302D01*
X22828351Y-8224302D01*
X22828351Y-7208301D02*
X22883351Y-7153301D01*
X22828351Y-7098301D01*
X22773351Y-7153301D01*
X22828351Y-7208301D01*
X22828351Y-7462302D02*
X22883351Y-7407302D01*
X22828351Y-7352302D01*
X22773351Y-7407302D01*
X22828351Y-7462302D01*
X22828351Y-5684302D02*
X22883351Y-5629302D01*
X22828351Y-5574302D01*
X22773351Y-5629302D01*
X22828351Y-5684302D01*
X22828351Y-6446303D02*
X22883351Y-6391303D01*
X22828351Y-6336303D01*
X22773351Y-6391303D01*
X22828351Y-6446303D01*
X22828351Y-7970302D02*
X22883351Y-7915302D01*
X22828351Y-7860302D01*
X22773351Y-7915302D01*
X22828351Y-7970302D01*
X22828351Y-6700301D02*
X22883351Y-6645301D01*
X22828351Y-6590301D01*
X22773351Y-6645301D01*
X22828351Y-6700301D01*
X22828351Y-6954303D02*
X22883351Y-6899303D01*
X22828351Y-6844303D01*
X22773351Y-6899303D01*
X22828351Y-6954303D01*
X22828451Y-5176300D02*
X22883451Y-5121300D01*
X22828451Y-5066300D01*
X22773451Y-5121300D01*
X22828451Y-5176300D01*
D14*
X21516784Y-11492327D02*
X21666784Y-11642327D01*
X21666784Y-11492327D02*
X21516784Y-11642327D01*
X21666784Y-11567327D02*
G75*
G02*
X21516784Y-11567327I-75000J0D01*
G01*
X21516784Y-11567327D02*
G75*
G02*
X21666784Y-11567327I75000J0D01*
G01*
D12*
X21540541Y-11482332D02*
X21500369Y-11605970D01*
X21643027Y-11652322D02*
G75*
G02*
X21500369Y-11605970I-71329J23176D01*
G01*
X21643027Y-11652322D02*
X21683200Y-11528685D01*
X21683200Y-11528685D02*
G75*
G03*
X21540541Y-11482332I-71329J23176D01*
G01*
D14*
X22581967Y-11838427D02*
X22731967Y-11988427D01*
X22731967Y-11838427D02*
X22581967Y-11988427D01*
X22731967Y-11913427D02*
G75*
G02*
X22581967Y-11913427I-75000J0D01*
G01*
X22581967Y-11913427D02*
G75*
G02*
X22731967Y-11913427I75000J0D01*
G01*
D12*
X22605724Y-11828432D02*
X22565552Y-11952069D01*
X22708210Y-11998422D02*
G75*
G02*
X22565552Y-11952069I-71329J23176D01*
G01*
X22708210Y-11998422D02*
X22748383Y-11874785D01*
X22748383Y-11874785D02*
G75*
G03*
X22605724Y-11828432I-71329J23176D01*
G01*
D11*
X7364607Y-15286097D02*
X7364607Y-15086097D01*
X7364607Y-15086097D02*
X7412226Y-15086097D01*
X7412226Y-15086097D02*
X7440798Y-15095620D01*
X7440798Y-15095620D02*
X7459845Y-15114668D01*
X7459845Y-15114668D02*
X7469369Y-15133716D01*
X7469369Y-15133716D02*
X7478893Y-15171811D01*
X7478893Y-15171811D02*
X7478893Y-15200382D01*
X7478893Y-15200382D02*
X7469369Y-15238478D01*
X7469369Y-15238478D02*
X7459845Y-15257525D01*
X7459845Y-15257525D02*
X7440798Y-15276573D01*
X7440798Y-15276573D02*
X7412226Y-15286097D01*
X7412226Y-15286097D02*
X7364607Y-15286097D01*
X7564607Y-15286097D02*
X7564607Y-15152763D01*
X7564607Y-15190859D02*
X7574131Y-15171811D01*
X7574131Y-15171811D02*
X7583655Y-15162287D01*
X7583655Y-15162287D02*
X7602702Y-15152763D01*
X7602702Y-15152763D02*
X7621750Y-15152763D01*
X7688417Y-15286097D02*
X7688417Y-15152763D01*
X7688417Y-15086097D02*
X7678893Y-15095620D01*
X7678893Y-15095620D02*
X7688417Y-15105144D01*
X7688417Y-15105144D02*
X7697940Y-15095620D01*
X7697940Y-15095620D02*
X7688417Y-15086097D01*
X7688417Y-15086097D02*
X7688417Y-15105144D01*
X7812226Y-15286097D02*
X7793178Y-15276573D01*
X7793178Y-15276573D02*
X7783655Y-15257525D01*
X7783655Y-15257525D02*
X7783655Y-15086097D01*
X7916988Y-15286097D02*
X7897940Y-15276573D01*
X7897940Y-15276573D02*
X7888417Y-15257525D01*
X7888417Y-15257525D02*
X7888417Y-15086097D01*
X8145559Y-15286097D02*
X8145559Y-15086097D01*
X8145559Y-15086097D02*
X8212226Y-15228954D01*
X8212226Y-15228954D02*
X8278893Y-15086097D01*
X8278893Y-15086097D02*
X8278893Y-15286097D01*
X8459845Y-15286097D02*
X8459845Y-15181335D01*
X8459845Y-15181335D02*
X8450321Y-15162287D01*
X8450321Y-15162287D02*
X8431274Y-15152763D01*
X8431274Y-15152763D02*
X8393179Y-15152763D01*
X8393179Y-15152763D02*
X8374131Y-15162287D01*
X8459845Y-15276573D02*
X8440798Y-15286097D01*
X8440798Y-15286097D02*
X8393179Y-15286097D01*
X8393179Y-15286097D02*
X8374131Y-15276573D01*
X8374131Y-15276573D02*
X8364607Y-15257525D01*
X8364607Y-15257525D02*
X8364607Y-15238478D01*
X8364607Y-15238478D02*
X8374131Y-15219430D01*
X8374131Y-15219430D02*
X8393179Y-15209906D01*
X8393179Y-15209906D02*
X8440798Y-15209906D01*
X8440798Y-15209906D02*
X8459845Y-15200382D01*
X8555083Y-15152763D02*
X8555083Y-15352763D01*
X8555083Y-15162287D02*
X8574131Y-15152763D01*
X8574131Y-15152763D02*
X8612226Y-15152763D01*
X8612226Y-15152763D02*
X8631274Y-15162287D01*
X8631274Y-15162287D02*
X8640798Y-15171811D01*
X8640798Y-15171811D02*
X8650321Y-15190859D01*
X8650321Y-15190859D02*
X8650321Y-15248001D01*
X8650321Y-15248001D02*
X8640798Y-15267049D01*
X8640798Y-15267049D02*
X8631274Y-15276573D01*
X8631274Y-15276573D02*
X8612226Y-15286097D01*
X8612226Y-15286097D02*
X8574131Y-15286097D01*
X8574131Y-15286097D02*
X8555083Y-15276573D01*
X8736036Y-15267049D02*
X8745560Y-15276573D01*
X8745560Y-15276573D02*
X8736036Y-15286097D01*
X8736036Y-15286097D02*
X8726512Y-15276573D01*
X8726512Y-15276573D02*
X8736036Y-15267049D01*
X8736036Y-15267049D02*
X8736036Y-15286097D01*
X8736036Y-15162287D02*
X8745560Y-15171811D01*
X8745560Y-15171811D02*
X8736036Y-15181335D01*
X8736036Y-15181335D02*
X8726512Y-15171811D01*
X8726512Y-15171811D02*
X8736036Y-15162287D01*
X8736036Y-15162287D02*
X8736036Y-15181335D01*
D12*
X7073830Y-15599613D02*
X7103830Y-15629613D01*
X7103830Y-15599613D02*
X7073830Y-15629613D01*
D11*
X7402702Y-15506097D02*
X7421750Y-15506097D01*
X7421750Y-15506097D02*
X7440798Y-15515620D01*
X7440798Y-15515620D02*
X7450321Y-15525144D01*
X7450321Y-15525144D02*
X7459845Y-15544192D01*
X7459845Y-15544192D02*
X7469369Y-15582287D01*
X7469369Y-15582287D02*
X7469369Y-15629906D01*
X7469369Y-15629906D02*
X7459845Y-15668001D01*
X7459845Y-15668001D02*
X7450321Y-15687049D01*
X7450321Y-15687049D02*
X7440798Y-15696573D01*
X7440798Y-15696573D02*
X7421750Y-15706097D01*
X7421750Y-15706097D02*
X7402702Y-15706097D01*
X7402702Y-15706097D02*
X7383655Y-15696573D01*
X7383655Y-15696573D02*
X7374131Y-15687049D01*
X7374131Y-15687049D02*
X7364607Y-15668001D01*
X7364607Y-15668001D02*
X7355083Y-15629906D01*
X7355083Y-15629906D02*
X7355083Y-15582287D01*
X7355083Y-15582287D02*
X7364607Y-15544192D01*
X7364607Y-15544192D02*
X7374131Y-15525144D01*
X7374131Y-15525144D02*
X7383655Y-15515620D01*
X7383655Y-15515620D02*
X7402702Y-15506097D01*
X7555083Y-15687049D02*
X7564607Y-15696573D01*
X7564607Y-15696573D02*
X7555083Y-15706097D01*
X7555083Y-15706097D02*
X7545559Y-15696573D01*
X7545559Y-15696573D02*
X7555083Y-15687049D01*
X7555083Y-15687049D02*
X7555083Y-15706097D01*
X7631274Y-15506097D02*
X7755083Y-15506097D01*
X7755083Y-15506097D02*
X7688417Y-15582287D01*
X7688417Y-15582287D02*
X7716988Y-15582287D01*
X7716988Y-15582287D02*
X7736036Y-15591811D01*
X7736036Y-15591811D02*
X7745559Y-15601335D01*
X7745559Y-15601335D02*
X7755083Y-15620382D01*
X7755083Y-15620382D02*
X7755083Y-15668001D01*
X7755083Y-15668001D02*
X7745559Y-15687049D01*
X7745559Y-15687049D02*
X7736036Y-15696573D01*
X7736036Y-15696573D02*
X7716988Y-15706097D01*
X7716988Y-15706097D02*
X7659845Y-15706097D01*
X7659845Y-15706097D02*
X7640798Y-15696573D01*
X7640798Y-15696573D02*
X7631274Y-15687049D01*
X7878893Y-15506097D02*
X7897940Y-15506097D01*
X7897940Y-15506097D02*
X7916988Y-15515620D01*
X7916988Y-15515620D02*
X7926512Y-15525144D01*
X7926512Y-15525144D02*
X7936036Y-15544192D01*
X7936036Y-15544192D02*
X7945559Y-15582287D01*
X7945559Y-15582287D02*
X7945559Y-15629906D01*
X7945559Y-15629906D02*
X7936036Y-15668001D01*
X7936036Y-15668001D02*
X7926512Y-15687049D01*
X7926512Y-15687049D02*
X7916988Y-15696573D01*
X7916988Y-15696573D02*
X7897940Y-15706097D01*
X7897940Y-15706097D02*
X7878893Y-15706097D01*
X7878893Y-15706097D02*
X7859845Y-15696573D01*
X7859845Y-15696573D02*
X7850321Y-15687049D01*
X7850321Y-15687049D02*
X7840798Y-15668001D01*
X7840798Y-15668001D02*
X7831274Y-15629906D01*
X7831274Y-15629906D02*
X7831274Y-15582287D01*
X7831274Y-15582287D02*
X7840798Y-15544192D01*
X7840798Y-15544192D02*
X7850321Y-15525144D01*
X7850321Y-15525144D02*
X7859845Y-15515620D01*
X7859845Y-15515620D02*
X7878893Y-15506097D01*
X8069369Y-15506097D02*
X8088417Y-15506097D01*
X8088417Y-15506097D02*
X8107464Y-15515620D01*
X8107464Y-15515620D02*
X8116988Y-15525144D01*
X8116988Y-15525144D02*
X8126512Y-15544192D01*
X8126512Y-15544192D02*
X8136036Y-15582287D01*
X8136036Y-15582287D02*
X8136036Y-15629906D01*
X8136036Y-15629906D02*
X8126512Y-15668001D01*
X8126512Y-15668001D02*
X8116988Y-15687049D01*
X8116988Y-15687049D02*
X8107464Y-15696573D01*
X8107464Y-15696573D02*
X8088417Y-15706097D01*
X8088417Y-15706097D02*
X8069369Y-15706097D01*
X8069369Y-15706097D02*
X8050321Y-15696573D01*
X8050321Y-15696573D02*
X8040798Y-15687049D01*
X8040798Y-15687049D02*
X8031274Y-15668001D01*
X8031274Y-15668001D02*
X8021750Y-15629906D01*
X8021750Y-15629906D02*
X8021750Y-15582287D01*
X8021750Y-15582287D02*
X8031274Y-15544192D01*
X8031274Y-15544192D02*
X8040798Y-15525144D01*
X8040798Y-15525144D02*
X8050321Y-15515620D01*
X8050321Y-15515620D02*
X8069369Y-15506097D01*
X8221750Y-15706097D02*
X8221750Y-15572763D01*
X8221750Y-15591811D02*
X8231274Y-15582287D01*
X8231274Y-15582287D02*
X8250321Y-15572763D01*
X8250321Y-15572763D02*
X8278893Y-15572763D01*
X8278893Y-15572763D02*
X8297940Y-15582287D01*
X8297940Y-15582287D02*
X8307464Y-15601335D01*
X8307464Y-15601335D02*
X8307464Y-15706097D01*
X8307464Y-15601335D02*
X8316988Y-15582287D01*
X8316988Y-15582287D02*
X8336036Y-15572763D01*
X8336036Y-15572763D02*
X8364607Y-15572763D01*
X8364607Y-15572763D02*
X8383655Y-15582287D01*
X8383655Y-15582287D02*
X8393179Y-15601335D01*
X8393179Y-15601335D02*
X8393179Y-15706097D01*
X8488417Y-15706097D02*
X8488417Y-15572763D01*
X8488417Y-15591811D02*
X8497941Y-15582287D01*
X8497941Y-15582287D02*
X8516988Y-15572763D01*
X8516988Y-15572763D02*
X8545560Y-15572763D01*
X8545560Y-15572763D02*
X8564607Y-15582287D01*
X8564607Y-15582287D02*
X8574131Y-15601335D01*
X8574131Y-15601335D02*
X8574131Y-15706097D01*
X8574131Y-15601335D02*
X8583655Y-15582287D01*
X8583655Y-15582287D02*
X8602702Y-15572763D01*
X8602702Y-15572763D02*
X8631274Y-15572763D01*
X8631274Y-15572763D02*
X8650322Y-15582287D01*
X8650322Y-15582287D02*
X8659845Y-15601335D01*
X8659845Y-15601335D02*
X8659845Y-15706097D01*
X9050322Y-15496573D02*
X8878893Y-15753716D01*
X9307464Y-15506097D02*
X9326512Y-15506097D01*
X9326512Y-15506097D02*
X9345560Y-15515620D01*
X9345560Y-15515620D02*
X9355084Y-15525144D01*
X9355084Y-15525144D02*
X9364607Y-15544192D01*
X9364607Y-15544192D02*
X9374131Y-15582287D01*
X9374131Y-15582287D02*
X9374131Y-15629906D01*
X9374131Y-15629906D02*
X9364607Y-15668001D01*
X9364607Y-15668001D02*
X9355084Y-15687049D01*
X9355084Y-15687049D02*
X9345560Y-15696573D01*
X9345560Y-15696573D02*
X9326512Y-15706097D01*
X9326512Y-15706097D02*
X9307464Y-15706097D01*
X9307464Y-15706097D02*
X9288417Y-15696573D01*
X9288417Y-15696573D02*
X9278893Y-15687049D01*
X9278893Y-15687049D02*
X9269369Y-15668001D01*
X9269369Y-15668001D02*
X9259845Y-15629906D01*
X9259845Y-15629906D02*
X9259845Y-15582287D01*
X9259845Y-15582287D02*
X9269369Y-15544192D01*
X9269369Y-15544192D02*
X9278893Y-15525144D01*
X9278893Y-15525144D02*
X9288417Y-15515620D01*
X9288417Y-15515620D02*
X9307464Y-15506097D01*
X9459845Y-15687049D02*
X9469369Y-15696573D01*
X9469369Y-15696573D02*
X9459845Y-15706097D01*
X9459845Y-15706097D02*
X9450322Y-15696573D01*
X9450322Y-15696573D02*
X9459845Y-15687049D01*
X9459845Y-15687049D02*
X9459845Y-15706097D01*
X9593179Y-15506097D02*
X9612226Y-15506097D01*
X9612226Y-15506097D02*
X9631274Y-15515620D01*
X9631274Y-15515620D02*
X9640798Y-15525144D01*
X9640798Y-15525144D02*
X9650322Y-15544192D01*
X9650322Y-15544192D02*
X9659845Y-15582287D01*
X9659845Y-15582287D02*
X9659845Y-15629906D01*
X9659845Y-15629906D02*
X9650322Y-15668001D01*
X9650322Y-15668001D02*
X9640798Y-15687049D01*
X9640798Y-15687049D02*
X9631274Y-15696573D01*
X9631274Y-15696573D02*
X9612226Y-15706097D01*
X9612226Y-15706097D02*
X9593179Y-15706097D01*
X9593179Y-15706097D02*
X9574131Y-15696573D01*
X9574131Y-15696573D02*
X9564607Y-15687049D01*
X9564607Y-15687049D02*
X9555084Y-15668001D01*
X9555084Y-15668001D02*
X9545560Y-15629906D01*
X9545560Y-15629906D02*
X9545560Y-15582287D01*
X9545560Y-15582287D02*
X9555084Y-15544192D01*
X9555084Y-15544192D02*
X9564607Y-15525144D01*
X9564607Y-15525144D02*
X9574131Y-15515620D01*
X9574131Y-15515620D02*
X9593179Y-15506097D01*
X9850322Y-15706097D02*
X9736036Y-15706097D01*
X9793179Y-15706097D02*
X9793179Y-15506097D01*
X9793179Y-15506097D02*
X9774131Y-15534668D01*
X9774131Y-15534668D02*
X9755084Y-15553716D01*
X9755084Y-15553716D02*
X9736036Y-15563239D01*
X10040798Y-15706097D02*
X9926512Y-15706097D01*
X9983655Y-15706097D02*
X9983655Y-15506097D01*
X9983655Y-15506097D02*
X9964607Y-15534668D01*
X9964607Y-15534668D02*
X9945560Y-15553716D01*
X9945560Y-15553716D02*
X9926512Y-15563239D01*
X10155084Y-15591811D02*
X10136036Y-15582287D01*
X10136036Y-15582287D02*
X10126512Y-15572763D01*
X10126512Y-15572763D02*
X10116988Y-15553716D01*
X10116988Y-15553716D02*
X10116988Y-15544192D01*
X10116988Y-15544192D02*
X10126512Y-15525144D01*
X10126512Y-15525144D02*
X10136036Y-15515620D01*
X10136036Y-15515620D02*
X10155084Y-15506097D01*
X10155084Y-15506097D02*
X10193179Y-15506097D01*
X10193179Y-15506097D02*
X10212226Y-15515620D01*
X10212226Y-15515620D02*
X10221750Y-15525144D01*
X10221750Y-15525144D02*
X10231274Y-15544192D01*
X10231274Y-15544192D02*
X10231274Y-15553716D01*
X10231274Y-15553716D02*
X10221750Y-15572763D01*
X10221750Y-15572763D02*
X10212226Y-15582287D01*
X10212226Y-15582287D02*
X10193179Y-15591811D01*
X10193179Y-15591811D02*
X10155084Y-15591811D01*
X10155084Y-15591811D02*
X10136036Y-15601335D01*
X10136036Y-15601335D02*
X10126512Y-15610859D01*
X10126512Y-15610859D02*
X10116988Y-15629906D01*
X10116988Y-15629906D02*
X10116988Y-15668001D01*
X10116988Y-15668001D02*
X10126512Y-15687049D01*
X10126512Y-15687049D02*
X10136036Y-15696573D01*
X10136036Y-15696573D02*
X10155084Y-15706097D01*
X10155084Y-15706097D02*
X10193179Y-15706097D01*
X10193179Y-15706097D02*
X10212226Y-15696573D01*
X10212226Y-15696573D02*
X10221750Y-15687049D01*
X10221750Y-15687049D02*
X10231274Y-15668001D01*
X10231274Y-15668001D02*
X10231274Y-15629906D01*
X10231274Y-15629906D02*
X10221750Y-15610859D01*
X10221750Y-15610859D02*
X10212226Y-15601335D01*
X10212226Y-15601335D02*
X10193179Y-15591811D01*
X10307465Y-15506097D02*
X10307465Y-15544192D01*
X10383655Y-15506097D02*
X10383655Y-15544192D01*
X10678893Y-15782287D02*
X10669369Y-15772763D01*
X10669369Y-15772763D02*
X10650322Y-15744192D01*
X10650322Y-15744192D02*
X10640798Y-15725144D01*
X10640798Y-15725144D02*
X10631274Y-15696573D01*
X10631274Y-15696573D02*
X10621750Y-15648954D01*
X10621750Y-15648954D02*
X10621750Y-15610859D01*
X10621750Y-15610859D02*
X10631274Y-15563239D01*
X10631274Y-15563239D02*
X10640798Y-15534668D01*
X10640798Y-15534668D02*
X10650322Y-15515620D01*
X10650322Y-15515620D02*
X10669369Y-15487049D01*
X10669369Y-15487049D02*
X10678893Y-15477525D01*
X10859846Y-15706097D02*
X10745560Y-15706097D01*
X10802703Y-15706097D02*
X10802703Y-15506097D01*
X10802703Y-15506097D02*
X10783655Y-15534668D01*
X10783655Y-15534668D02*
X10764607Y-15553716D01*
X10764607Y-15553716D02*
X10745560Y-15563239D01*
X10974131Y-15591811D02*
X10955084Y-15582287D01*
X10955084Y-15582287D02*
X10945560Y-15572763D01*
X10945560Y-15572763D02*
X10936036Y-15553716D01*
X10936036Y-15553716D02*
X10936036Y-15544192D01*
X10936036Y-15544192D02*
X10945560Y-15525144D01*
X10945560Y-15525144D02*
X10955084Y-15515620D01*
X10955084Y-15515620D02*
X10974131Y-15506097D01*
X10974131Y-15506097D02*
X11012227Y-15506097D01*
X11012227Y-15506097D02*
X11031274Y-15515620D01*
X11031274Y-15515620D02*
X11040798Y-15525144D01*
X11040798Y-15525144D02*
X11050322Y-15544192D01*
X11050322Y-15544192D02*
X11050322Y-15553716D01*
X11050322Y-15553716D02*
X11040798Y-15572763D01*
X11040798Y-15572763D02*
X11031274Y-15582287D01*
X11031274Y-15582287D02*
X11012227Y-15591811D01*
X11012227Y-15591811D02*
X10974131Y-15591811D01*
X10974131Y-15591811D02*
X10955084Y-15601335D01*
X10955084Y-15601335D02*
X10945560Y-15610859D01*
X10945560Y-15610859D02*
X10936036Y-15629906D01*
X10936036Y-15629906D02*
X10936036Y-15668001D01*
X10936036Y-15668001D02*
X10945560Y-15687049D01*
X10945560Y-15687049D02*
X10955084Y-15696573D01*
X10955084Y-15696573D02*
X10974131Y-15706097D01*
X10974131Y-15706097D02*
X11012227Y-15706097D01*
X11012227Y-15706097D02*
X11031274Y-15696573D01*
X11031274Y-15696573D02*
X11040798Y-15687049D01*
X11040798Y-15687049D02*
X11050322Y-15668001D01*
X11050322Y-15668001D02*
X11050322Y-15629906D01*
X11050322Y-15629906D02*
X11040798Y-15610859D01*
X11040798Y-15610859D02*
X11031274Y-15601335D01*
X11031274Y-15601335D02*
X11012227Y-15591811D01*
X11145560Y-15706097D02*
X11183655Y-15706097D01*
X11183655Y-15706097D02*
X11202703Y-15696573D01*
X11202703Y-15696573D02*
X11212226Y-15687049D01*
X11212226Y-15687049D02*
X11231274Y-15658478D01*
X11231274Y-15658478D02*
X11240798Y-15620382D01*
X11240798Y-15620382D02*
X11240798Y-15544192D01*
X11240798Y-15544192D02*
X11231274Y-15525144D01*
X11231274Y-15525144D02*
X11221750Y-15515620D01*
X11221750Y-15515620D02*
X11202703Y-15506097D01*
X11202703Y-15506097D02*
X11164607Y-15506097D01*
X11164607Y-15506097D02*
X11145560Y-15515620D01*
X11145560Y-15515620D02*
X11136036Y-15525144D01*
X11136036Y-15525144D02*
X11126512Y-15544192D01*
X11126512Y-15544192D02*
X11126512Y-15591811D01*
X11126512Y-15591811D02*
X11136036Y-15610859D01*
X11136036Y-15610859D02*
X11145560Y-15620382D01*
X11145560Y-15620382D02*
X11164607Y-15629906D01*
X11164607Y-15629906D02*
X11202703Y-15629906D01*
X11202703Y-15629906D02*
X11221750Y-15620382D01*
X11221750Y-15620382D02*
X11231274Y-15610859D01*
X11231274Y-15610859D02*
X11240798Y-15591811D01*
X11478893Y-15706097D02*
X11478893Y-15506097D01*
X11564607Y-15706097D02*
X11564607Y-15601335D01*
X11564607Y-15601335D02*
X11555084Y-15582287D01*
X11555084Y-15582287D02*
X11536036Y-15572763D01*
X11536036Y-15572763D02*
X11507465Y-15572763D01*
X11507465Y-15572763D02*
X11488417Y-15582287D01*
X11488417Y-15582287D02*
X11478893Y-15591811D01*
X11688417Y-15706097D02*
X11669369Y-15696573D01*
X11669369Y-15696573D02*
X11659846Y-15687049D01*
X11659846Y-15687049D02*
X11650322Y-15668001D01*
X11650322Y-15668001D02*
X11650322Y-15610859D01*
X11650322Y-15610859D02*
X11659846Y-15591811D01*
X11659846Y-15591811D02*
X11669369Y-15582287D01*
X11669369Y-15582287D02*
X11688417Y-15572763D01*
X11688417Y-15572763D02*
X11716988Y-15572763D01*
X11716988Y-15572763D02*
X11736036Y-15582287D01*
X11736036Y-15582287D02*
X11745560Y-15591811D01*
X11745560Y-15591811D02*
X11755084Y-15610859D01*
X11755084Y-15610859D02*
X11755084Y-15668001D01*
X11755084Y-15668001D02*
X11745560Y-15687049D01*
X11745560Y-15687049D02*
X11736036Y-15696573D01*
X11736036Y-15696573D02*
X11716988Y-15706097D01*
X11716988Y-15706097D02*
X11688417Y-15706097D01*
X11869369Y-15706097D02*
X11850322Y-15696573D01*
X11850322Y-15696573D02*
X11840798Y-15677525D01*
X11840798Y-15677525D02*
X11840798Y-15506097D01*
X12021750Y-15696573D02*
X12002703Y-15706097D01*
X12002703Y-15706097D02*
X11964607Y-15706097D01*
X11964607Y-15706097D02*
X11945560Y-15696573D01*
X11945560Y-15696573D02*
X11936036Y-15677525D01*
X11936036Y-15677525D02*
X11936036Y-15601335D01*
X11936036Y-15601335D02*
X11945560Y-15582287D01*
X11945560Y-15582287D02*
X11964607Y-15572763D01*
X11964607Y-15572763D02*
X12002703Y-15572763D01*
X12002703Y-15572763D02*
X12021750Y-15582287D01*
X12021750Y-15582287D02*
X12031274Y-15601335D01*
X12031274Y-15601335D02*
X12031274Y-15620382D01*
X12031274Y-15620382D02*
X11936036Y-15639430D01*
X12107465Y-15696573D02*
X12126512Y-15706097D01*
X12126512Y-15706097D02*
X12164607Y-15706097D01*
X12164607Y-15706097D02*
X12183655Y-15696573D01*
X12183655Y-15696573D02*
X12193179Y-15677525D01*
X12193179Y-15677525D02*
X12193179Y-15668001D01*
X12193179Y-15668001D02*
X12183655Y-15648954D01*
X12183655Y-15648954D02*
X12164607Y-15639430D01*
X12164607Y-15639430D02*
X12136036Y-15639430D01*
X12136036Y-15639430D02*
X12116988Y-15629906D01*
X12116988Y-15629906D02*
X12107465Y-15610859D01*
X12107465Y-15610859D02*
X12107465Y-15601335D01*
X12107465Y-15601335D02*
X12116988Y-15582287D01*
X12116988Y-15582287D02*
X12136036Y-15572763D01*
X12136036Y-15572763D02*
X12164607Y-15572763D01*
X12164607Y-15572763D02*
X12183655Y-15582287D01*
X12259846Y-15782287D02*
X12269369Y-15772763D01*
X12269369Y-15772763D02*
X12288417Y-15744192D01*
X12288417Y-15744192D02*
X12297941Y-15725144D01*
X12297941Y-15725144D02*
X12307465Y-15696573D01*
X12307465Y-15696573D02*
X12316988Y-15648954D01*
X12316988Y-15648954D02*
X12316988Y-15610859D01*
X12316988Y-15610859D02*
X12307465Y-15563239D01*
X12307465Y-15563239D02*
X12297941Y-15534668D01*
X12297941Y-15534668D02*
X12288417Y-15515620D01*
X12288417Y-15515620D02*
X12269369Y-15487049D01*
X12269369Y-15487049D02*
X12259846Y-15477525D01*
D12*
X7103830Y-15878613D02*
G75*
G02*
X7013830Y-15878613I-45000J0D01*
G01*
X7013830Y-15878613D02*
G75*
G02*
X7103830Y-15878613I45000J0D01*
G01*
D11*
X7402702Y-15770097D02*
X7421750Y-15770097D01*
X7421750Y-15770097D02*
X7440798Y-15779620D01*
X7440798Y-15779620D02*
X7450321Y-15789144D01*
X7450321Y-15789144D02*
X7459845Y-15808192D01*
X7459845Y-15808192D02*
X7469369Y-15846287D01*
X7469369Y-15846287D02*
X7469369Y-15893906D01*
X7469369Y-15893906D02*
X7459845Y-15932001D01*
X7459845Y-15932001D02*
X7450321Y-15951049D01*
X7450321Y-15951049D02*
X7440798Y-15960573D01*
X7440798Y-15960573D02*
X7421750Y-15970097D01*
X7421750Y-15970097D02*
X7402702Y-15970097D01*
X7402702Y-15970097D02*
X7383655Y-15960573D01*
X7383655Y-15960573D02*
X7374131Y-15951049D01*
X7374131Y-15951049D02*
X7364607Y-15932001D01*
X7364607Y-15932001D02*
X7355083Y-15893906D01*
X7355083Y-15893906D02*
X7355083Y-15846287D01*
X7355083Y-15846287D02*
X7364607Y-15808192D01*
X7364607Y-15808192D02*
X7374131Y-15789144D01*
X7374131Y-15789144D02*
X7383655Y-15779620D01*
X7383655Y-15779620D02*
X7402702Y-15770097D01*
X7555083Y-15951049D02*
X7564607Y-15960573D01*
X7564607Y-15960573D02*
X7555083Y-15970097D01*
X7555083Y-15970097D02*
X7545559Y-15960573D01*
X7545559Y-15960573D02*
X7555083Y-15951049D01*
X7555083Y-15951049D02*
X7555083Y-15970097D01*
X7659845Y-15970097D02*
X7697940Y-15970097D01*
X7697940Y-15970097D02*
X7716988Y-15960573D01*
X7716988Y-15960573D02*
X7726512Y-15951049D01*
X7726512Y-15951049D02*
X7745559Y-15922478D01*
X7745559Y-15922478D02*
X7755083Y-15884382D01*
X7755083Y-15884382D02*
X7755083Y-15808192D01*
X7755083Y-15808192D02*
X7745559Y-15789144D01*
X7745559Y-15789144D02*
X7736036Y-15779620D01*
X7736036Y-15779620D02*
X7716988Y-15770097D01*
X7716988Y-15770097D02*
X7678893Y-15770097D01*
X7678893Y-15770097D02*
X7659845Y-15779620D01*
X7659845Y-15779620D02*
X7650321Y-15789144D01*
X7650321Y-15789144D02*
X7640798Y-15808192D01*
X7640798Y-15808192D02*
X7640798Y-15855811D01*
X7640798Y-15855811D02*
X7650321Y-15874859D01*
X7650321Y-15874859D02*
X7659845Y-15884382D01*
X7659845Y-15884382D02*
X7678893Y-15893906D01*
X7678893Y-15893906D02*
X7716988Y-15893906D01*
X7716988Y-15893906D02*
X7736036Y-15884382D01*
X7736036Y-15884382D02*
X7745559Y-15874859D01*
X7745559Y-15874859D02*
X7755083Y-15855811D01*
X7878893Y-15770097D02*
X7897940Y-15770097D01*
X7897940Y-15770097D02*
X7916988Y-15779620D01*
X7916988Y-15779620D02*
X7926512Y-15789144D01*
X7926512Y-15789144D02*
X7936036Y-15808192D01*
X7936036Y-15808192D02*
X7945559Y-15846287D01*
X7945559Y-15846287D02*
X7945559Y-15893906D01*
X7945559Y-15893906D02*
X7936036Y-15932001D01*
X7936036Y-15932001D02*
X7926512Y-15951049D01*
X7926512Y-15951049D02*
X7916988Y-15960573D01*
X7916988Y-15960573D02*
X7897940Y-15970097D01*
X7897940Y-15970097D02*
X7878893Y-15970097D01*
X7878893Y-15970097D02*
X7859845Y-15960573D01*
X7859845Y-15960573D02*
X7850321Y-15951049D01*
X7850321Y-15951049D02*
X7840798Y-15932001D01*
X7840798Y-15932001D02*
X7831274Y-15893906D01*
X7831274Y-15893906D02*
X7831274Y-15846287D01*
X7831274Y-15846287D02*
X7840798Y-15808192D01*
X7840798Y-15808192D02*
X7850321Y-15789144D01*
X7850321Y-15789144D02*
X7859845Y-15779620D01*
X7859845Y-15779620D02*
X7878893Y-15770097D01*
X8069369Y-15770097D02*
X8088417Y-15770097D01*
X8088417Y-15770097D02*
X8107464Y-15779620D01*
X8107464Y-15779620D02*
X8116988Y-15789144D01*
X8116988Y-15789144D02*
X8126512Y-15808192D01*
X8126512Y-15808192D02*
X8136036Y-15846287D01*
X8136036Y-15846287D02*
X8136036Y-15893906D01*
X8136036Y-15893906D02*
X8126512Y-15932001D01*
X8126512Y-15932001D02*
X8116988Y-15951049D01*
X8116988Y-15951049D02*
X8107464Y-15960573D01*
X8107464Y-15960573D02*
X8088417Y-15970097D01*
X8088417Y-15970097D02*
X8069369Y-15970097D01*
X8069369Y-15970097D02*
X8050321Y-15960573D01*
X8050321Y-15960573D02*
X8040798Y-15951049D01*
X8040798Y-15951049D02*
X8031274Y-15932001D01*
X8031274Y-15932001D02*
X8021750Y-15893906D01*
X8021750Y-15893906D02*
X8021750Y-15846287D01*
X8021750Y-15846287D02*
X8031274Y-15808192D01*
X8031274Y-15808192D02*
X8040798Y-15789144D01*
X8040798Y-15789144D02*
X8050321Y-15779620D01*
X8050321Y-15779620D02*
X8069369Y-15770097D01*
X8221750Y-15970097D02*
X8221750Y-15836763D01*
X8221750Y-15855811D02*
X8231274Y-15846287D01*
X8231274Y-15846287D02*
X8250321Y-15836763D01*
X8250321Y-15836763D02*
X8278893Y-15836763D01*
X8278893Y-15836763D02*
X8297940Y-15846287D01*
X8297940Y-15846287D02*
X8307464Y-15865335D01*
X8307464Y-15865335D02*
X8307464Y-15970097D01*
X8307464Y-15865335D02*
X8316988Y-15846287D01*
X8316988Y-15846287D02*
X8336036Y-15836763D01*
X8336036Y-15836763D02*
X8364607Y-15836763D01*
X8364607Y-15836763D02*
X8383655Y-15846287D01*
X8383655Y-15846287D02*
X8393179Y-15865335D01*
X8393179Y-15865335D02*
X8393179Y-15970097D01*
X8488417Y-15970097D02*
X8488417Y-15836763D01*
X8488417Y-15855811D02*
X8497941Y-15846287D01*
X8497941Y-15846287D02*
X8516988Y-15836763D01*
X8516988Y-15836763D02*
X8545560Y-15836763D01*
X8545560Y-15836763D02*
X8564607Y-15846287D01*
X8564607Y-15846287D02*
X8574131Y-15865335D01*
X8574131Y-15865335D02*
X8574131Y-15970097D01*
X8574131Y-15865335D02*
X8583655Y-15846287D01*
X8583655Y-15846287D02*
X8602702Y-15836763D01*
X8602702Y-15836763D02*
X8631274Y-15836763D01*
X8631274Y-15836763D02*
X8650322Y-15846287D01*
X8650322Y-15846287D02*
X8659845Y-15865335D01*
X8659845Y-15865335D02*
X8659845Y-15970097D01*
X9050322Y-15760573D02*
X8878893Y-16017716D01*
X9307464Y-15770097D02*
X9326512Y-15770097D01*
X9326512Y-15770097D02*
X9345560Y-15779620D01*
X9345560Y-15779620D02*
X9355084Y-15789144D01*
X9355084Y-15789144D02*
X9364607Y-15808192D01*
X9364607Y-15808192D02*
X9374131Y-15846287D01*
X9374131Y-15846287D02*
X9374131Y-15893906D01*
X9374131Y-15893906D02*
X9364607Y-15932001D01*
X9364607Y-15932001D02*
X9355084Y-15951049D01*
X9355084Y-15951049D02*
X9345560Y-15960573D01*
X9345560Y-15960573D02*
X9326512Y-15970097D01*
X9326512Y-15970097D02*
X9307464Y-15970097D01*
X9307464Y-15970097D02*
X9288417Y-15960573D01*
X9288417Y-15960573D02*
X9278893Y-15951049D01*
X9278893Y-15951049D02*
X9269369Y-15932001D01*
X9269369Y-15932001D02*
X9259845Y-15893906D01*
X9259845Y-15893906D02*
X9259845Y-15846287D01*
X9259845Y-15846287D02*
X9269369Y-15808192D01*
X9269369Y-15808192D02*
X9278893Y-15789144D01*
X9278893Y-15789144D02*
X9288417Y-15779620D01*
X9288417Y-15779620D02*
X9307464Y-15770097D01*
X9459845Y-15951049D02*
X9469369Y-15960573D01*
X9469369Y-15960573D02*
X9459845Y-15970097D01*
X9459845Y-15970097D02*
X9450322Y-15960573D01*
X9450322Y-15960573D02*
X9459845Y-15951049D01*
X9459845Y-15951049D02*
X9459845Y-15970097D01*
X9593179Y-15770097D02*
X9612226Y-15770097D01*
X9612226Y-15770097D02*
X9631274Y-15779620D01*
X9631274Y-15779620D02*
X9640798Y-15789144D01*
X9640798Y-15789144D02*
X9650322Y-15808192D01*
X9650322Y-15808192D02*
X9659845Y-15846287D01*
X9659845Y-15846287D02*
X9659845Y-15893906D01*
X9659845Y-15893906D02*
X9650322Y-15932001D01*
X9650322Y-15932001D02*
X9640798Y-15951049D01*
X9640798Y-15951049D02*
X9631274Y-15960573D01*
X9631274Y-15960573D02*
X9612226Y-15970097D01*
X9612226Y-15970097D02*
X9593179Y-15970097D01*
X9593179Y-15970097D02*
X9574131Y-15960573D01*
X9574131Y-15960573D02*
X9564607Y-15951049D01*
X9564607Y-15951049D02*
X9555084Y-15932001D01*
X9555084Y-15932001D02*
X9545560Y-15893906D01*
X9545560Y-15893906D02*
X9545560Y-15846287D01*
X9545560Y-15846287D02*
X9555084Y-15808192D01*
X9555084Y-15808192D02*
X9564607Y-15789144D01*
X9564607Y-15789144D02*
X9574131Y-15779620D01*
X9574131Y-15779620D02*
X9593179Y-15770097D01*
X9726512Y-15770097D02*
X9850322Y-15770097D01*
X9850322Y-15770097D02*
X9783655Y-15846287D01*
X9783655Y-15846287D02*
X9812226Y-15846287D01*
X9812226Y-15846287D02*
X9831274Y-15855811D01*
X9831274Y-15855811D02*
X9840798Y-15865335D01*
X9840798Y-15865335D02*
X9850322Y-15884382D01*
X9850322Y-15884382D02*
X9850322Y-15932001D01*
X9850322Y-15932001D02*
X9840798Y-15951049D01*
X9840798Y-15951049D02*
X9831274Y-15960573D01*
X9831274Y-15960573D02*
X9812226Y-15970097D01*
X9812226Y-15970097D02*
X9755084Y-15970097D01*
X9755084Y-15970097D02*
X9736036Y-15960573D01*
X9736036Y-15960573D02*
X9726512Y-15951049D01*
X10031274Y-15770097D02*
X9936036Y-15770097D01*
X9936036Y-15770097D02*
X9926512Y-15865335D01*
X9926512Y-15865335D02*
X9936036Y-15855811D01*
X9936036Y-15855811D02*
X9955084Y-15846287D01*
X9955084Y-15846287D02*
X10002703Y-15846287D01*
X10002703Y-15846287D02*
X10021750Y-15855811D01*
X10021750Y-15855811D02*
X10031274Y-15865335D01*
X10031274Y-15865335D02*
X10040798Y-15884382D01*
X10040798Y-15884382D02*
X10040798Y-15932001D01*
X10040798Y-15932001D02*
X10031274Y-15951049D01*
X10031274Y-15951049D02*
X10021750Y-15960573D01*
X10021750Y-15960573D02*
X10002703Y-15970097D01*
X10002703Y-15970097D02*
X9955084Y-15970097D01*
X9955084Y-15970097D02*
X9936036Y-15960573D01*
X9936036Y-15960573D02*
X9926512Y-15951049D01*
X10212226Y-15836763D02*
X10212226Y-15970097D01*
X10164607Y-15760573D02*
X10116988Y-15903430D01*
X10116988Y-15903430D02*
X10240798Y-15903430D01*
X10307465Y-15770097D02*
X10307465Y-15808192D01*
X10383655Y-15770097D02*
X10383655Y-15808192D01*
X10678893Y-16046287D02*
X10669369Y-16036763D01*
X10669369Y-16036763D02*
X10650322Y-16008192D01*
X10650322Y-16008192D02*
X10640798Y-15989144D01*
X10640798Y-15989144D02*
X10631274Y-15960573D01*
X10631274Y-15960573D02*
X10621750Y-15912954D01*
X10621750Y-15912954D02*
X10621750Y-15874859D01*
X10621750Y-15874859D02*
X10631274Y-15827239D01*
X10631274Y-15827239D02*
X10640798Y-15798668D01*
X10640798Y-15798668D02*
X10650322Y-15779620D01*
X10650322Y-15779620D02*
X10669369Y-15751049D01*
X10669369Y-15751049D02*
X10678893Y-15741525D01*
X10859846Y-15970097D02*
X10745560Y-15970097D01*
X10802703Y-15970097D02*
X10802703Y-15770097D01*
X10802703Y-15770097D02*
X10783655Y-15798668D01*
X10783655Y-15798668D02*
X10764607Y-15817716D01*
X10764607Y-15817716D02*
X10745560Y-15827239D01*
X10936036Y-15789144D02*
X10945560Y-15779620D01*
X10945560Y-15779620D02*
X10964607Y-15770097D01*
X10964607Y-15770097D02*
X11012227Y-15770097D01*
X11012227Y-15770097D02*
X11031274Y-15779620D01*
X11031274Y-15779620D02*
X11040798Y-15789144D01*
X11040798Y-15789144D02*
X11050322Y-15808192D01*
X11050322Y-15808192D02*
X11050322Y-15827239D01*
X11050322Y-15827239D02*
X11040798Y-15855811D01*
X11040798Y-15855811D02*
X10926512Y-15970097D01*
X10926512Y-15970097D02*
X11050322Y-15970097D01*
X11288417Y-15970097D02*
X11288417Y-15770097D01*
X11374131Y-15970097D02*
X11374131Y-15865335D01*
X11374131Y-15865335D02*
X11364607Y-15846287D01*
X11364607Y-15846287D02*
X11345560Y-15836763D01*
X11345560Y-15836763D02*
X11316988Y-15836763D01*
X11316988Y-15836763D02*
X11297941Y-15846287D01*
X11297941Y-15846287D02*
X11288417Y-15855811D01*
X11497941Y-15970097D02*
X11478893Y-15960573D01*
X11478893Y-15960573D02*
X11469369Y-15951049D01*
X11469369Y-15951049D02*
X11459846Y-15932001D01*
X11459846Y-15932001D02*
X11459846Y-15874859D01*
X11459846Y-15874859D02*
X11469369Y-15855811D01*
X11469369Y-15855811D02*
X11478893Y-15846287D01*
X11478893Y-15846287D02*
X11497941Y-15836763D01*
X11497941Y-15836763D02*
X11526512Y-15836763D01*
X11526512Y-15836763D02*
X11545560Y-15846287D01*
X11545560Y-15846287D02*
X11555084Y-15855811D01*
X11555084Y-15855811D02*
X11564607Y-15874859D01*
X11564607Y-15874859D02*
X11564607Y-15932001D01*
X11564607Y-15932001D02*
X11555084Y-15951049D01*
X11555084Y-15951049D02*
X11545560Y-15960573D01*
X11545560Y-15960573D02*
X11526512Y-15970097D01*
X11526512Y-15970097D02*
X11497941Y-15970097D01*
X11678893Y-15970097D02*
X11659846Y-15960573D01*
X11659846Y-15960573D02*
X11650322Y-15941525D01*
X11650322Y-15941525D02*
X11650322Y-15770097D01*
X11831274Y-15960573D02*
X11812227Y-15970097D01*
X11812227Y-15970097D02*
X11774131Y-15970097D01*
X11774131Y-15970097D02*
X11755084Y-15960573D01*
X11755084Y-15960573D02*
X11745560Y-15941525D01*
X11745560Y-15941525D02*
X11745560Y-15865335D01*
X11745560Y-15865335D02*
X11755084Y-15846287D01*
X11755084Y-15846287D02*
X11774131Y-15836763D01*
X11774131Y-15836763D02*
X11812227Y-15836763D01*
X11812227Y-15836763D02*
X11831274Y-15846287D01*
X11831274Y-15846287D02*
X11840798Y-15865335D01*
X11840798Y-15865335D02*
X11840798Y-15884382D01*
X11840798Y-15884382D02*
X11745560Y-15903430D01*
X11916988Y-15960573D02*
X11936036Y-15970097D01*
X11936036Y-15970097D02*
X11974131Y-15970097D01*
X11974131Y-15970097D02*
X11993179Y-15960573D01*
X11993179Y-15960573D02*
X12002703Y-15941525D01*
X12002703Y-15941525D02*
X12002703Y-15932001D01*
X12002703Y-15932001D02*
X11993179Y-15912954D01*
X11993179Y-15912954D02*
X11974131Y-15903430D01*
X11974131Y-15903430D02*
X11945560Y-15903430D01*
X11945560Y-15903430D02*
X11926512Y-15893906D01*
X11926512Y-15893906D02*
X11916988Y-15874859D01*
X11916988Y-15874859D02*
X11916988Y-15865335D01*
X11916988Y-15865335D02*
X11926512Y-15846287D01*
X11926512Y-15846287D02*
X11945560Y-15836763D01*
X11945560Y-15836763D02*
X11974131Y-15836763D01*
X11974131Y-15836763D02*
X11993179Y-15846287D01*
X12240798Y-15893906D02*
X12393179Y-15893906D01*
X12316989Y-15970097D02*
X12316989Y-15817716D01*
X12669369Y-15855811D02*
X12650322Y-15846287D01*
X12650322Y-15846287D02*
X12640798Y-15836763D01*
X12640798Y-15836763D02*
X12631274Y-15817716D01*
X12631274Y-15817716D02*
X12631274Y-15808192D01*
X12631274Y-15808192D02*
X12640798Y-15789144D01*
X12640798Y-15789144D02*
X12650322Y-15779620D01*
X12650322Y-15779620D02*
X12669369Y-15770097D01*
X12669369Y-15770097D02*
X12707465Y-15770097D01*
X12707465Y-15770097D02*
X12726512Y-15779620D01*
X12726512Y-15779620D02*
X12736036Y-15789144D01*
X12736036Y-15789144D02*
X12745560Y-15808192D01*
X12745560Y-15808192D02*
X12745560Y-15817716D01*
X12745560Y-15817716D02*
X12736036Y-15836763D01*
X12736036Y-15836763D02*
X12726512Y-15846287D01*
X12726512Y-15846287D02*
X12707465Y-15855811D01*
X12707465Y-15855811D02*
X12669369Y-15855811D01*
X12669369Y-15855811D02*
X12650322Y-15865335D01*
X12650322Y-15865335D02*
X12640798Y-15874859D01*
X12640798Y-15874859D02*
X12631274Y-15893906D01*
X12631274Y-15893906D02*
X12631274Y-15932001D01*
X12631274Y-15932001D02*
X12640798Y-15951049D01*
X12640798Y-15951049D02*
X12650322Y-15960573D01*
X12650322Y-15960573D02*
X12669369Y-15970097D01*
X12669369Y-15970097D02*
X12707465Y-15970097D01*
X12707465Y-15970097D02*
X12726512Y-15960573D01*
X12726512Y-15960573D02*
X12736036Y-15951049D01*
X12736036Y-15951049D02*
X12745560Y-15932001D01*
X12745560Y-15932001D02*
X12745560Y-15893906D01*
X12745560Y-15893906D02*
X12736036Y-15874859D01*
X12736036Y-15874859D02*
X12726512Y-15865335D01*
X12726512Y-15865335D02*
X12707465Y-15855811D01*
X12974131Y-15960573D02*
X12993179Y-15970097D01*
X12993179Y-15970097D02*
X13031274Y-15970097D01*
X13031274Y-15970097D02*
X13050322Y-15960573D01*
X13050322Y-15960573D02*
X13059846Y-15941525D01*
X13059846Y-15941525D02*
X13059846Y-15932001D01*
X13059846Y-15932001D02*
X13050322Y-15912954D01*
X13050322Y-15912954D02*
X13031274Y-15903430D01*
X13031274Y-15903430D02*
X13002703Y-15903430D01*
X13002703Y-15903430D02*
X12983655Y-15893906D01*
X12983655Y-15893906D02*
X12974131Y-15874859D01*
X12974131Y-15874859D02*
X12974131Y-15865335D01*
X12974131Y-15865335D02*
X12983655Y-15846287D01*
X12983655Y-15846287D02*
X13002703Y-15836763D01*
X13002703Y-15836763D02*
X13031274Y-15836763D01*
X13031274Y-15836763D02*
X13050322Y-15846287D01*
X13174131Y-15970097D02*
X13155084Y-15960573D01*
X13155084Y-15960573D02*
X13145560Y-15941525D01*
X13145560Y-15941525D02*
X13145560Y-15770097D01*
X13278893Y-15970097D02*
X13259846Y-15960573D01*
X13259846Y-15960573D02*
X13250322Y-15951049D01*
X13250322Y-15951049D02*
X13240798Y-15932001D01*
X13240798Y-15932001D02*
X13240798Y-15874859D01*
X13240798Y-15874859D02*
X13250322Y-15855811D01*
X13250322Y-15855811D02*
X13259846Y-15846287D01*
X13259846Y-15846287D02*
X13278893Y-15836763D01*
X13278893Y-15836763D02*
X13307465Y-15836763D01*
X13307465Y-15836763D02*
X13326512Y-15846287D01*
X13326512Y-15846287D02*
X13336036Y-15855811D01*
X13336036Y-15855811D02*
X13345560Y-15874859D01*
X13345560Y-15874859D02*
X13345560Y-15932001D01*
X13345560Y-15932001D02*
X13336036Y-15951049D01*
X13336036Y-15951049D02*
X13326512Y-15960573D01*
X13326512Y-15960573D02*
X13307465Y-15970097D01*
X13307465Y-15970097D02*
X13278893Y-15970097D01*
X13402703Y-15836763D02*
X13478893Y-15836763D01*
X13431274Y-15770097D02*
X13431274Y-15941525D01*
X13431274Y-15941525D02*
X13440798Y-15960573D01*
X13440798Y-15960573D02*
X13459846Y-15970097D01*
X13459846Y-15970097D02*
X13478893Y-15970097D01*
X13536036Y-15960573D02*
X13555084Y-15970097D01*
X13555084Y-15970097D02*
X13593179Y-15970097D01*
X13593179Y-15970097D02*
X13612227Y-15960573D01*
X13612227Y-15960573D02*
X13621751Y-15941525D01*
X13621751Y-15941525D02*
X13621751Y-15932001D01*
X13621751Y-15932001D02*
X13612227Y-15912954D01*
X13612227Y-15912954D02*
X13593179Y-15903430D01*
X13593179Y-15903430D02*
X13564608Y-15903430D01*
X13564608Y-15903430D02*
X13545560Y-15893906D01*
X13545560Y-15893906D02*
X13536036Y-15874859D01*
X13536036Y-15874859D02*
X13536036Y-15865335D01*
X13536036Y-15865335D02*
X13545560Y-15846287D01*
X13545560Y-15846287D02*
X13564608Y-15836763D01*
X13564608Y-15836763D02*
X13593179Y-15836763D01*
X13593179Y-15836763D02*
X13612227Y-15846287D01*
X13688417Y-16046287D02*
X13697941Y-16036763D01*
X13697941Y-16036763D02*
X13716989Y-16008192D01*
X13716989Y-16008192D02*
X13726512Y-15989144D01*
X13726512Y-15989144D02*
X13736036Y-15960573D01*
X13736036Y-15960573D02*
X13745560Y-15912954D01*
X13745560Y-15912954D02*
X13745560Y-15874859D01*
X13745560Y-15874859D02*
X13736036Y-15827239D01*
X13736036Y-15827239D02*
X13726512Y-15798668D01*
X13726512Y-15798668D02*
X13716989Y-15779620D01*
X13716989Y-15779620D02*
X13697941Y-15751049D01*
X13697941Y-15751049D02*
X13688417Y-15741525D01*
D12*
X7054300Y-16093083D02*
X7054300Y-16192143D01*
X7004770Y-16142613D02*
X7103830Y-16142613D01*
D11*
X7402702Y-16034097D02*
X7421750Y-16034097D01*
X7421750Y-16034097D02*
X7440798Y-16043620D01*
X7440798Y-16043620D02*
X7450321Y-16053144D01*
X7450321Y-16053144D02*
X7459845Y-16072192D01*
X7459845Y-16072192D02*
X7469369Y-16110287D01*
X7469369Y-16110287D02*
X7469369Y-16157906D01*
X7469369Y-16157906D02*
X7459845Y-16196001D01*
X7459845Y-16196001D02*
X7450321Y-16215049D01*
X7450321Y-16215049D02*
X7440798Y-16224573D01*
X7440798Y-16224573D02*
X7421750Y-16234097D01*
X7421750Y-16234097D02*
X7402702Y-16234097D01*
X7402702Y-16234097D02*
X7383655Y-16224573D01*
X7383655Y-16224573D02*
X7374131Y-16215049D01*
X7374131Y-16215049D02*
X7364607Y-16196001D01*
X7364607Y-16196001D02*
X7355083Y-16157906D01*
X7355083Y-16157906D02*
X7355083Y-16110287D01*
X7355083Y-16110287D02*
X7364607Y-16072192D01*
X7364607Y-16072192D02*
X7374131Y-16053144D01*
X7374131Y-16053144D02*
X7383655Y-16043620D01*
X7383655Y-16043620D02*
X7402702Y-16034097D01*
X7555083Y-16215049D02*
X7564607Y-16224573D01*
X7564607Y-16224573D02*
X7555083Y-16234097D01*
X7555083Y-16234097D02*
X7545559Y-16224573D01*
X7545559Y-16224573D02*
X7555083Y-16215049D01*
X7555083Y-16215049D02*
X7555083Y-16234097D01*
X7659845Y-16234097D02*
X7697940Y-16234097D01*
X7697940Y-16234097D02*
X7716988Y-16224573D01*
X7716988Y-16224573D02*
X7726512Y-16215049D01*
X7726512Y-16215049D02*
X7745559Y-16186478D01*
X7745559Y-16186478D02*
X7755083Y-16148382D01*
X7755083Y-16148382D02*
X7755083Y-16072192D01*
X7755083Y-16072192D02*
X7745559Y-16053144D01*
X7745559Y-16053144D02*
X7736036Y-16043620D01*
X7736036Y-16043620D02*
X7716988Y-16034097D01*
X7716988Y-16034097D02*
X7678893Y-16034097D01*
X7678893Y-16034097D02*
X7659845Y-16043620D01*
X7659845Y-16043620D02*
X7650321Y-16053144D01*
X7650321Y-16053144D02*
X7640798Y-16072192D01*
X7640798Y-16072192D02*
X7640798Y-16119811D01*
X7640798Y-16119811D02*
X7650321Y-16138859D01*
X7650321Y-16138859D02*
X7659845Y-16148382D01*
X7659845Y-16148382D02*
X7678893Y-16157906D01*
X7678893Y-16157906D02*
X7716988Y-16157906D01*
X7716988Y-16157906D02*
X7736036Y-16148382D01*
X7736036Y-16148382D02*
X7745559Y-16138859D01*
X7745559Y-16138859D02*
X7755083Y-16119811D01*
X7850321Y-16234097D02*
X7888417Y-16234097D01*
X7888417Y-16234097D02*
X7907464Y-16224573D01*
X7907464Y-16224573D02*
X7916988Y-16215049D01*
X7916988Y-16215049D02*
X7936036Y-16186478D01*
X7936036Y-16186478D02*
X7945559Y-16148382D01*
X7945559Y-16148382D02*
X7945559Y-16072192D01*
X7945559Y-16072192D02*
X7936036Y-16053144D01*
X7936036Y-16053144D02*
X7926512Y-16043620D01*
X7926512Y-16043620D02*
X7907464Y-16034097D01*
X7907464Y-16034097D02*
X7869369Y-16034097D01*
X7869369Y-16034097D02*
X7850321Y-16043620D01*
X7850321Y-16043620D02*
X7840798Y-16053144D01*
X7840798Y-16053144D02*
X7831274Y-16072192D01*
X7831274Y-16072192D02*
X7831274Y-16119811D01*
X7831274Y-16119811D02*
X7840798Y-16138859D01*
X7840798Y-16138859D02*
X7850321Y-16148382D01*
X7850321Y-16148382D02*
X7869369Y-16157906D01*
X7869369Y-16157906D02*
X7907464Y-16157906D01*
X7907464Y-16157906D02*
X7926512Y-16148382D01*
X7926512Y-16148382D02*
X7936036Y-16138859D01*
X7936036Y-16138859D02*
X7945559Y-16119811D01*
X8136036Y-16234097D02*
X8021750Y-16234097D01*
X8078893Y-16234097D02*
X8078893Y-16034097D01*
X8078893Y-16034097D02*
X8059845Y-16062668D01*
X8059845Y-16062668D02*
X8040798Y-16081716D01*
X8040798Y-16081716D02*
X8021750Y-16091239D01*
X8221750Y-16234097D02*
X8221750Y-16100763D01*
X8221750Y-16119811D02*
X8231274Y-16110287D01*
X8231274Y-16110287D02*
X8250321Y-16100763D01*
X8250321Y-16100763D02*
X8278893Y-16100763D01*
X8278893Y-16100763D02*
X8297940Y-16110287D01*
X8297940Y-16110287D02*
X8307464Y-16129335D01*
X8307464Y-16129335D02*
X8307464Y-16234097D01*
X8307464Y-16129335D02*
X8316988Y-16110287D01*
X8316988Y-16110287D02*
X8336036Y-16100763D01*
X8336036Y-16100763D02*
X8364607Y-16100763D01*
X8364607Y-16100763D02*
X8383655Y-16110287D01*
X8383655Y-16110287D02*
X8393179Y-16129335D01*
X8393179Y-16129335D02*
X8393179Y-16234097D01*
X8488417Y-16234097D02*
X8488417Y-16100763D01*
X8488417Y-16119811D02*
X8497941Y-16110287D01*
X8497941Y-16110287D02*
X8516988Y-16100763D01*
X8516988Y-16100763D02*
X8545560Y-16100763D01*
X8545560Y-16100763D02*
X8564607Y-16110287D01*
X8564607Y-16110287D02*
X8574131Y-16129335D01*
X8574131Y-16129335D02*
X8574131Y-16234097D01*
X8574131Y-16129335D02*
X8583655Y-16110287D01*
X8583655Y-16110287D02*
X8602702Y-16100763D01*
X8602702Y-16100763D02*
X8631274Y-16100763D01*
X8631274Y-16100763D02*
X8650322Y-16110287D01*
X8650322Y-16110287D02*
X8659845Y-16129335D01*
X8659845Y-16129335D02*
X8659845Y-16234097D01*
X9050322Y-16024573D02*
X8878893Y-16281716D01*
X9307464Y-16034097D02*
X9326512Y-16034097D01*
X9326512Y-16034097D02*
X9345560Y-16043620D01*
X9345560Y-16043620D02*
X9355084Y-16053144D01*
X9355084Y-16053144D02*
X9364607Y-16072192D01*
X9364607Y-16072192D02*
X9374131Y-16110287D01*
X9374131Y-16110287D02*
X9374131Y-16157906D01*
X9374131Y-16157906D02*
X9364607Y-16196001D01*
X9364607Y-16196001D02*
X9355084Y-16215049D01*
X9355084Y-16215049D02*
X9345560Y-16224573D01*
X9345560Y-16224573D02*
X9326512Y-16234097D01*
X9326512Y-16234097D02*
X9307464Y-16234097D01*
X9307464Y-16234097D02*
X9288417Y-16224573D01*
X9288417Y-16224573D02*
X9278893Y-16215049D01*
X9278893Y-16215049D02*
X9269369Y-16196001D01*
X9269369Y-16196001D02*
X9259845Y-16157906D01*
X9259845Y-16157906D02*
X9259845Y-16110287D01*
X9259845Y-16110287D02*
X9269369Y-16072192D01*
X9269369Y-16072192D02*
X9278893Y-16053144D01*
X9278893Y-16053144D02*
X9288417Y-16043620D01*
X9288417Y-16043620D02*
X9307464Y-16034097D01*
X9459845Y-16215049D02*
X9469369Y-16224573D01*
X9469369Y-16224573D02*
X9459845Y-16234097D01*
X9459845Y-16234097D02*
X9450322Y-16224573D01*
X9450322Y-16224573D02*
X9459845Y-16215049D01*
X9459845Y-16215049D02*
X9459845Y-16234097D01*
X9593179Y-16034097D02*
X9612226Y-16034097D01*
X9612226Y-16034097D02*
X9631274Y-16043620D01*
X9631274Y-16043620D02*
X9640798Y-16053144D01*
X9640798Y-16053144D02*
X9650322Y-16072192D01*
X9650322Y-16072192D02*
X9659845Y-16110287D01*
X9659845Y-16110287D02*
X9659845Y-16157906D01*
X9659845Y-16157906D02*
X9650322Y-16196001D01*
X9650322Y-16196001D02*
X9640798Y-16215049D01*
X9640798Y-16215049D02*
X9631274Y-16224573D01*
X9631274Y-16224573D02*
X9612226Y-16234097D01*
X9612226Y-16234097D02*
X9593179Y-16234097D01*
X9593179Y-16234097D02*
X9574131Y-16224573D01*
X9574131Y-16224573D02*
X9564607Y-16215049D01*
X9564607Y-16215049D02*
X9555084Y-16196001D01*
X9555084Y-16196001D02*
X9545560Y-16157906D01*
X9545560Y-16157906D02*
X9545560Y-16110287D01*
X9545560Y-16110287D02*
X9555084Y-16072192D01*
X9555084Y-16072192D02*
X9564607Y-16053144D01*
X9564607Y-16053144D02*
X9574131Y-16043620D01*
X9574131Y-16043620D02*
X9593179Y-16034097D01*
X9726512Y-16034097D02*
X9850322Y-16034097D01*
X9850322Y-16034097D02*
X9783655Y-16110287D01*
X9783655Y-16110287D02*
X9812226Y-16110287D01*
X9812226Y-16110287D02*
X9831274Y-16119811D01*
X9831274Y-16119811D02*
X9840798Y-16129335D01*
X9840798Y-16129335D02*
X9850322Y-16148382D01*
X9850322Y-16148382D02*
X9850322Y-16196001D01*
X9850322Y-16196001D02*
X9840798Y-16215049D01*
X9840798Y-16215049D02*
X9831274Y-16224573D01*
X9831274Y-16224573D02*
X9812226Y-16234097D01*
X9812226Y-16234097D02*
X9755084Y-16234097D01*
X9755084Y-16234097D02*
X9736036Y-16224573D01*
X9736036Y-16224573D02*
X9726512Y-16215049D01*
X9945560Y-16234097D02*
X9983655Y-16234097D01*
X9983655Y-16234097D02*
X10002703Y-16224573D01*
X10002703Y-16224573D02*
X10012226Y-16215049D01*
X10012226Y-16215049D02*
X10031274Y-16186478D01*
X10031274Y-16186478D02*
X10040798Y-16148382D01*
X10040798Y-16148382D02*
X10040798Y-16072192D01*
X10040798Y-16072192D02*
X10031274Y-16053144D01*
X10031274Y-16053144D02*
X10021750Y-16043620D01*
X10021750Y-16043620D02*
X10002703Y-16034097D01*
X10002703Y-16034097D02*
X9964607Y-16034097D01*
X9964607Y-16034097D02*
X9945560Y-16043620D01*
X9945560Y-16043620D02*
X9936036Y-16053144D01*
X9936036Y-16053144D02*
X9926512Y-16072192D01*
X9926512Y-16072192D02*
X9926512Y-16119811D01*
X9926512Y-16119811D02*
X9936036Y-16138859D01*
X9936036Y-16138859D02*
X9945560Y-16148382D01*
X9945560Y-16148382D02*
X9964607Y-16157906D01*
X9964607Y-16157906D02*
X10002703Y-16157906D01*
X10002703Y-16157906D02*
X10021750Y-16148382D01*
X10021750Y-16148382D02*
X10031274Y-16138859D01*
X10031274Y-16138859D02*
X10040798Y-16119811D01*
X10164607Y-16034097D02*
X10183655Y-16034097D01*
X10183655Y-16034097D02*
X10202703Y-16043620D01*
X10202703Y-16043620D02*
X10212226Y-16053144D01*
X10212226Y-16053144D02*
X10221750Y-16072192D01*
X10221750Y-16072192D02*
X10231274Y-16110287D01*
X10231274Y-16110287D02*
X10231274Y-16157906D01*
X10231274Y-16157906D02*
X10221750Y-16196001D01*
X10221750Y-16196001D02*
X10212226Y-16215049D01*
X10212226Y-16215049D02*
X10202703Y-16224573D01*
X10202703Y-16224573D02*
X10183655Y-16234097D01*
X10183655Y-16234097D02*
X10164607Y-16234097D01*
X10164607Y-16234097D02*
X10145560Y-16224573D01*
X10145560Y-16224573D02*
X10136036Y-16215049D01*
X10136036Y-16215049D02*
X10126512Y-16196001D01*
X10126512Y-16196001D02*
X10116988Y-16157906D01*
X10116988Y-16157906D02*
X10116988Y-16110287D01*
X10116988Y-16110287D02*
X10126512Y-16072192D01*
X10126512Y-16072192D02*
X10136036Y-16053144D01*
X10136036Y-16053144D02*
X10145560Y-16043620D01*
X10145560Y-16043620D02*
X10164607Y-16034097D01*
X10307465Y-16034097D02*
X10307465Y-16072192D01*
X10383655Y-16034097D02*
X10383655Y-16072192D01*
X10678893Y-16310287D02*
X10669369Y-16300763D01*
X10669369Y-16300763D02*
X10650322Y-16272192D01*
X10650322Y-16272192D02*
X10640798Y-16253144D01*
X10640798Y-16253144D02*
X10631274Y-16224573D01*
X10631274Y-16224573D02*
X10621750Y-16176954D01*
X10621750Y-16176954D02*
X10621750Y-16138859D01*
X10621750Y-16138859D02*
X10631274Y-16091239D01*
X10631274Y-16091239D02*
X10640798Y-16062668D01*
X10640798Y-16062668D02*
X10650322Y-16043620D01*
X10650322Y-16043620D02*
X10669369Y-16015049D01*
X10669369Y-16015049D02*
X10678893Y-16005525D01*
X10850322Y-16034097D02*
X10755084Y-16034097D01*
X10755084Y-16034097D02*
X10745560Y-16129335D01*
X10745560Y-16129335D02*
X10755084Y-16119811D01*
X10755084Y-16119811D02*
X10774131Y-16110287D01*
X10774131Y-16110287D02*
X10821750Y-16110287D01*
X10821750Y-16110287D02*
X10840798Y-16119811D01*
X10840798Y-16119811D02*
X10850322Y-16129335D01*
X10850322Y-16129335D02*
X10859846Y-16148382D01*
X10859846Y-16148382D02*
X10859846Y-16196001D01*
X10859846Y-16196001D02*
X10850322Y-16215049D01*
X10850322Y-16215049D02*
X10840798Y-16224573D01*
X10840798Y-16224573D02*
X10821750Y-16234097D01*
X10821750Y-16234097D02*
X10774131Y-16234097D01*
X10774131Y-16234097D02*
X10755084Y-16224573D01*
X10755084Y-16224573D02*
X10745560Y-16215049D01*
X11031274Y-16100763D02*
X11031274Y-16234097D01*
X10983655Y-16024573D02*
X10936036Y-16167430D01*
X10936036Y-16167430D02*
X11059846Y-16167430D01*
X11288417Y-16234097D02*
X11288417Y-16034097D01*
X11374131Y-16234097D02*
X11374131Y-16129335D01*
X11374131Y-16129335D02*
X11364607Y-16110287D01*
X11364607Y-16110287D02*
X11345560Y-16100763D01*
X11345560Y-16100763D02*
X11316988Y-16100763D01*
X11316988Y-16100763D02*
X11297941Y-16110287D01*
X11297941Y-16110287D02*
X11288417Y-16119811D01*
X11497941Y-16234097D02*
X11478893Y-16224573D01*
X11478893Y-16224573D02*
X11469369Y-16215049D01*
X11469369Y-16215049D02*
X11459846Y-16196001D01*
X11459846Y-16196001D02*
X11459846Y-16138859D01*
X11459846Y-16138859D02*
X11469369Y-16119811D01*
X11469369Y-16119811D02*
X11478893Y-16110287D01*
X11478893Y-16110287D02*
X11497941Y-16100763D01*
X11497941Y-16100763D02*
X11526512Y-16100763D01*
X11526512Y-16100763D02*
X11545560Y-16110287D01*
X11545560Y-16110287D02*
X11555084Y-16119811D01*
X11555084Y-16119811D02*
X11564607Y-16138859D01*
X11564607Y-16138859D02*
X11564607Y-16196001D01*
X11564607Y-16196001D02*
X11555084Y-16215049D01*
X11555084Y-16215049D02*
X11545560Y-16224573D01*
X11545560Y-16224573D02*
X11526512Y-16234097D01*
X11526512Y-16234097D02*
X11497941Y-16234097D01*
X11678893Y-16234097D02*
X11659846Y-16224573D01*
X11659846Y-16224573D02*
X11650322Y-16205525D01*
X11650322Y-16205525D02*
X11650322Y-16034097D01*
X11831274Y-16224573D02*
X11812227Y-16234097D01*
X11812227Y-16234097D02*
X11774131Y-16234097D01*
X11774131Y-16234097D02*
X11755084Y-16224573D01*
X11755084Y-16224573D02*
X11745560Y-16205525D01*
X11745560Y-16205525D02*
X11745560Y-16129335D01*
X11745560Y-16129335D02*
X11755084Y-16110287D01*
X11755084Y-16110287D02*
X11774131Y-16100763D01*
X11774131Y-16100763D02*
X11812227Y-16100763D01*
X11812227Y-16100763D02*
X11831274Y-16110287D01*
X11831274Y-16110287D02*
X11840798Y-16129335D01*
X11840798Y-16129335D02*
X11840798Y-16148382D01*
X11840798Y-16148382D02*
X11745560Y-16167430D01*
X11916988Y-16224573D02*
X11936036Y-16234097D01*
X11936036Y-16234097D02*
X11974131Y-16234097D01*
X11974131Y-16234097D02*
X11993179Y-16224573D01*
X11993179Y-16224573D02*
X12002703Y-16205525D01*
X12002703Y-16205525D02*
X12002703Y-16196001D01*
X12002703Y-16196001D02*
X11993179Y-16176954D01*
X11993179Y-16176954D02*
X11974131Y-16167430D01*
X11974131Y-16167430D02*
X11945560Y-16167430D01*
X11945560Y-16167430D02*
X11926512Y-16157906D01*
X11926512Y-16157906D02*
X11916988Y-16138859D01*
X11916988Y-16138859D02*
X11916988Y-16129335D01*
X11916988Y-16129335D02*
X11926512Y-16110287D01*
X11926512Y-16110287D02*
X11945560Y-16100763D01*
X11945560Y-16100763D02*
X11974131Y-16100763D01*
X11974131Y-16100763D02*
X11993179Y-16110287D01*
X12069369Y-16310287D02*
X12078893Y-16300763D01*
X12078893Y-16300763D02*
X12097941Y-16272192D01*
X12097941Y-16272192D02*
X12107465Y-16253144D01*
X12107465Y-16253144D02*
X12116988Y-16224573D01*
X12116988Y-16224573D02*
X12126512Y-16176954D01*
X12126512Y-16176954D02*
X12126512Y-16138859D01*
X12126512Y-16138859D02*
X12116988Y-16091239D01*
X12116988Y-16091239D02*
X12107465Y-16062668D01*
X12107465Y-16062668D02*
X12097941Y-16043620D01*
X12097941Y-16043620D02*
X12078893Y-16015049D01*
X12078893Y-16015049D02*
X12069369Y-16005525D01*
D12*
X7089186Y-16441969D02*
X7089186Y-16371257D01*
X7018475Y-16371257D01*
X7018475Y-16441969D01*
X7089186Y-16441969D01*
D11*
X7469369Y-16498097D02*
X7355083Y-16498097D01*
X7412226Y-16498097D02*
X7412226Y-16298097D01*
X7412226Y-16298097D02*
X7393178Y-16326668D01*
X7393178Y-16326668D02*
X7374131Y-16345716D01*
X7374131Y-16345716D02*
X7355083Y-16355239D01*
X7555083Y-16479049D02*
X7564607Y-16488573D01*
X7564607Y-16488573D02*
X7555083Y-16498097D01*
X7555083Y-16498097D02*
X7545559Y-16488573D01*
X7545559Y-16488573D02*
X7555083Y-16479049D01*
X7555083Y-16479049D02*
X7555083Y-16498097D01*
X7688417Y-16298097D02*
X7707464Y-16298097D01*
X7707464Y-16298097D02*
X7726512Y-16307620D01*
X7726512Y-16307620D02*
X7736036Y-16317144D01*
X7736036Y-16317144D02*
X7745559Y-16336192D01*
X7745559Y-16336192D02*
X7755083Y-16374287D01*
X7755083Y-16374287D02*
X7755083Y-16421906D01*
X7755083Y-16421906D02*
X7745559Y-16460001D01*
X7745559Y-16460001D02*
X7736036Y-16479049D01*
X7736036Y-16479049D02*
X7726512Y-16488573D01*
X7726512Y-16488573D02*
X7707464Y-16498097D01*
X7707464Y-16498097D02*
X7688417Y-16498097D01*
X7688417Y-16498097D02*
X7669369Y-16488573D01*
X7669369Y-16488573D02*
X7659845Y-16479049D01*
X7659845Y-16479049D02*
X7650321Y-16460001D01*
X7650321Y-16460001D02*
X7640798Y-16421906D01*
X7640798Y-16421906D02*
X7640798Y-16374287D01*
X7640798Y-16374287D02*
X7650321Y-16336192D01*
X7650321Y-16336192D02*
X7659845Y-16317144D01*
X7659845Y-16317144D02*
X7669369Y-16307620D01*
X7669369Y-16307620D02*
X7688417Y-16298097D01*
X7878893Y-16298097D02*
X7897940Y-16298097D01*
X7897940Y-16298097D02*
X7916988Y-16307620D01*
X7916988Y-16307620D02*
X7926512Y-16317144D01*
X7926512Y-16317144D02*
X7936036Y-16336192D01*
X7936036Y-16336192D02*
X7945559Y-16374287D01*
X7945559Y-16374287D02*
X7945559Y-16421906D01*
X7945559Y-16421906D02*
X7936036Y-16460001D01*
X7936036Y-16460001D02*
X7926512Y-16479049D01*
X7926512Y-16479049D02*
X7916988Y-16488573D01*
X7916988Y-16488573D02*
X7897940Y-16498097D01*
X7897940Y-16498097D02*
X7878893Y-16498097D01*
X7878893Y-16498097D02*
X7859845Y-16488573D01*
X7859845Y-16488573D02*
X7850321Y-16479049D01*
X7850321Y-16479049D02*
X7840798Y-16460001D01*
X7840798Y-16460001D02*
X7831274Y-16421906D01*
X7831274Y-16421906D02*
X7831274Y-16374287D01*
X7831274Y-16374287D02*
X7840798Y-16336192D01*
X7840798Y-16336192D02*
X7850321Y-16317144D01*
X7850321Y-16317144D02*
X7859845Y-16307620D01*
X7859845Y-16307620D02*
X7878893Y-16298097D01*
X8069369Y-16298097D02*
X8088417Y-16298097D01*
X8088417Y-16298097D02*
X8107464Y-16307620D01*
X8107464Y-16307620D02*
X8116988Y-16317144D01*
X8116988Y-16317144D02*
X8126512Y-16336192D01*
X8126512Y-16336192D02*
X8136036Y-16374287D01*
X8136036Y-16374287D02*
X8136036Y-16421906D01*
X8136036Y-16421906D02*
X8126512Y-16460001D01*
X8126512Y-16460001D02*
X8116988Y-16479049D01*
X8116988Y-16479049D02*
X8107464Y-16488573D01*
X8107464Y-16488573D02*
X8088417Y-16498097D01*
X8088417Y-16498097D02*
X8069369Y-16498097D01*
X8069369Y-16498097D02*
X8050321Y-16488573D01*
X8050321Y-16488573D02*
X8040798Y-16479049D01*
X8040798Y-16479049D02*
X8031274Y-16460001D01*
X8031274Y-16460001D02*
X8021750Y-16421906D01*
X8021750Y-16421906D02*
X8021750Y-16374287D01*
X8021750Y-16374287D02*
X8031274Y-16336192D01*
X8031274Y-16336192D02*
X8040798Y-16317144D01*
X8040798Y-16317144D02*
X8050321Y-16307620D01*
X8050321Y-16307620D02*
X8069369Y-16298097D01*
X8221750Y-16498097D02*
X8221750Y-16364763D01*
X8221750Y-16383811D02*
X8231274Y-16374287D01*
X8231274Y-16374287D02*
X8250321Y-16364763D01*
X8250321Y-16364763D02*
X8278893Y-16364763D01*
X8278893Y-16364763D02*
X8297940Y-16374287D01*
X8297940Y-16374287D02*
X8307464Y-16393335D01*
X8307464Y-16393335D02*
X8307464Y-16498097D01*
X8307464Y-16393335D02*
X8316988Y-16374287D01*
X8316988Y-16374287D02*
X8336036Y-16364763D01*
X8336036Y-16364763D02*
X8364607Y-16364763D01*
X8364607Y-16364763D02*
X8383655Y-16374287D01*
X8383655Y-16374287D02*
X8393179Y-16393335D01*
X8393179Y-16393335D02*
X8393179Y-16498097D01*
X8488417Y-16498097D02*
X8488417Y-16364763D01*
X8488417Y-16383811D02*
X8497941Y-16374287D01*
X8497941Y-16374287D02*
X8516988Y-16364763D01*
X8516988Y-16364763D02*
X8545560Y-16364763D01*
X8545560Y-16364763D02*
X8564607Y-16374287D01*
X8564607Y-16374287D02*
X8574131Y-16393335D01*
X8574131Y-16393335D02*
X8574131Y-16498097D01*
X8574131Y-16393335D02*
X8583655Y-16374287D01*
X8583655Y-16374287D02*
X8602702Y-16364763D01*
X8602702Y-16364763D02*
X8631274Y-16364763D01*
X8631274Y-16364763D02*
X8650322Y-16374287D01*
X8650322Y-16374287D02*
X8659845Y-16393335D01*
X8659845Y-16393335D02*
X8659845Y-16498097D01*
X9050322Y-16288573D02*
X8878893Y-16545716D01*
X9307464Y-16298097D02*
X9326512Y-16298097D01*
X9326512Y-16298097D02*
X9345560Y-16307620D01*
X9345560Y-16307620D02*
X9355084Y-16317144D01*
X9355084Y-16317144D02*
X9364607Y-16336192D01*
X9364607Y-16336192D02*
X9374131Y-16374287D01*
X9374131Y-16374287D02*
X9374131Y-16421906D01*
X9374131Y-16421906D02*
X9364607Y-16460001D01*
X9364607Y-16460001D02*
X9355084Y-16479049D01*
X9355084Y-16479049D02*
X9345560Y-16488573D01*
X9345560Y-16488573D02*
X9326512Y-16498097D01*
X9326512Y-16498097D02*
X9307464Y-16498097D01*
X9307464Y-16498097D02*
X9288417Y-16488573D01*
X9288417Y-16488573D02*
X9278893Y-16479049D01*
X9278893Y-16479049D02*
X9269369Y-16460001D01*
X9269369Y-16460001D02*
X9259845Y-16421906D01*
X9259845Y-16421906D02*
X9259845Y-16374287D01*
X9259845Y-16374287D02*
X9269369Y-16336192D01*
X9269369Y-16336192D02*
X9278893Y-16317144D01*
X9278893Y-16317144D02*
X9288417Y-16307620D01*
X9288417Y-16307620D02*
X9307464Y-16298097D01*
X9459845Y-16479049D02*
X9469369Y-16488573D01*
X9469369Y-16488573D02*
X9459845Y-16498097D01*
X9459845Y-16498097D02*
X9450322Y-16488573D01*
X9450322Y-16488573D02*
X9459845Y-16479049D01*
X9459845Y-16479049D02*
X9459845Y-16498097D01*
X9593179Y-16298097D02*
X9612226Y-16298097D01*
X9612226Y-16298097D02*
X9631274Y-16307620D01*
X9631274Y-16307620D02*
X9640798Y-16317144D01*
X9640798Y-16317144D02*
X9650322Y-16336192D01*
X9650322Y-16336192D02*
X9659845Y-16374287D01*
X9659845Y-16374287D02*
X9659845Y-16421906D01*
X9659845Y-16421906D02*
X9650322Y-16460001D01*
X9650322Y-16460001D02*
X9640798Y-16479049D01*
X9640798Y-16479049D02*
X9631274Y-16488573D01*
X9631274Y-16488573D02*
X9612226Y-16498097D01*
X9612226Y-16498097D02*
X9593179Y-16498097D01*
X9593179Y-16498097D02*
X9574131Y-16488573D01*
X9574131Y-16488573D02*
X9564607Y-16479049D01*
X9564607Y-16479049D02*
X9555084Y-16460001D01*
X9555084Y-16460001D02*
X9545560Y-16421906D01*
X9545560Y-16421906D02*
X9545560Y-16374287D01*
X9545560Y-16374287D02*
X9555084Y-16336192D01*
X9555084Y-16336192D02*
X9564607Y-16317144D01*
X9564607Y-16317144D02*
X9574131Y-16307620D01*
X9574131Y-16307620D02*
X9593179Y-16298097D01*
X9726512Y-16298097D02*
X9850322Y-16298097D01*
X9850322Y-16298097D02*
X9783655Y-16374287D01*
X9783655Y-16374287D02*
X9812226Y-16374287D01*
X9812226Y-16374287D02*
X9831274Y-16383811D01*
X9831274Y-16383811D02*
X9840798Y-16393335D01*
X9840798Y-16393335D02*
X9850322Y-16412382D01*
X9850322Y-16412382D02*
X9850322Y-16460001D01*
X9850322Y-16460001D02*
X9840798Y-16479049D01*
X9840798Y-16479049D02*
X9831274Y-16488573D01*
X9831274Y-16488573D02*
X9812226Y-16498097D01*
X9812226Y-16498097D02*
X9755084Y-16498097D01*
X9755084Y-16498097D02*
X9736036Y-16488573D01*
X9736036Y-16488573D02*
X9726512Y-16479049D01*
X9945560Y-16498097D02*
X9983655Y-16498097D01*
X9983655Y-16498097D02*
X10002703Y-16488573D01*
X10002703Y-16488573D02*
X10012226Y-16479049D01*
X10012226Y-16479049D02*
X10031274Y-16450478D01*
X10031274Y-16450478D02*
X10040798Y-16412382D01*
X10040798Y-16412382D02*
X10040798Y-16336192D01*
X10040798Y-16336192D02*
X10031274Y-16317144D01*
X10031274Y-16317144D02*
X10021750Y-16307620D01*
X10021750Y-16307620D02*
X10002703Y-16298097D01*
X10002703Y-16298097D02*
X9964607Y-16298097D01*
X9964607Y-16298097D02*
X9945560Y-16307620D01*
X9945560Y-16307620D02*
X9936036Y-16317144D01*
X9936036Y-16317144D02*
X9926512Y-16336192D01*
X9926512Y-16336192D02*
X9926512Y-16383811D01*
X9926512Y-16383811D02*
X9936036Y-16402859D01*
X9936036Y-16402859D02*
X9945560Y-16412382D01*
X9945560Y-16412382D02*
X9964607Y-16421906D01*
X9964607Y-16421906D02*
X10002703Y-16421906D01*
X10002703Y-16421906D02*
X10021750Y-16412382D01*
X10021750Y-16412382D02*
X10031274Y-16402859D01*
X10031274Y-16402859D02*
X10040798Y-16383811D01*
X10212226Y-16364763D02*
X10212226Y-16498097D01*
X10164607Y-16288573D02*
X10116988Y-16431430D01*
X10116988Y-16431430D02*
X10240798Y-16431430D01*
X10307465Y-16298097D02*
X10307465Y-16336192D01*
X10383655Y-16298097D02*
X10383655Y-16336192D01*
X10678893Y-16574287D02*
X10669369Y-16564763D01*
X10669369Y-16564763D02*
X10650322Y-16536192D01*
X10650322Y-16536192D02*
X10640798Y-16517144D01*
X10640798Y-16517144D02*
X10631274Y-16488573D01*
X10631274Y-16488573D02*
X10621750Y-16440954D01*
X10621750Y-16440954D02*
X10621750Y-16402859D01*
X10621750Y-16402859D02*
X10631274Y-16355239D01*
X10631274Y-16355239D02*
X10640798Y-16326668D01*
X10640798Y-16326668D02*
X10650322Y-16307620D01*
X10650322Y-16307620D02*
X10669369Y-16279049D01*
X10669369Y-16279049D02*
X10678893Y-16269525D01*
X10850322Y-16298097D02*
X10755084Y-16298097D01*
X10755084Y-16298097D02*
X10745560Y-16393335D01*
X10745560Y-16393335D02*
X10755084Y-16383811D01*
X10755084Y-16383811D02*
X10774131Y-16374287D01*
X10774131Y-16374287D02*
X10821750Y-16374287D01*
X10821750Y-16374287D02*
X10840798Y-16383811D01*
X10840798Y-16383811D02*
X10850322Y-16393335D01*
X10850322Y-16393335D02*
X10859846Y-16412382D01*
X10859846Y-16412382D02*
X10859846Y-16460001D01*
X10859846Y-16460001D02*
X10850322Y-16479049D01*
X10850322Y-16479049D02*
X10840798Y-16488573D01*
X10840798Y-16488573D02*
X10821750Y-16498097D01*
X10821750Y-16498097D02*
X10774131Y-16498097D01*
X10774131Y-16498097D02*
X10755084Y-16488573D01*
X10755084Y-16488573D02*
X10745560Y-16479049D01*
X11097941Y-16498097D02*
X11097941Y-16298097D01*
X11183655Y-16498097D02*
X11183655Y-16393335D01*
X11183655Y-16393335D02*
X11174131Y-16374287D01*
X11174131Y-16374287D02*
X11155084Y-16364763D01*
X11155084Y-16364763D02*
X11126512Y-16364763D01*
X11126512Y-16364763D02*
X11107465Y-16374287D01*
X11107465Y-16374287D02*
X11097941Y-16383811D01*
X11307465Y-16498097D02*
X11288417Y-16488573D01*
X11288417Y-16488573D02*
X11278893Y-16479049D01*
X11278893Y-16479049D02*
X11269369Y-16460001D01*
X11269369Y-16460001D02*
X11269369Y-16402859D01*
X11269369Y-16402859D02*
X11278893Y-16383811D01*
X11278893Y-16383811D02*
X11288417Y-16374287D01*
X11288417Y-16374287D02*
X11307465Y-16364763D01*
X11307465Y-16364763D02*
X11336036Y-16364763D01*
X11336036Y-16364763D02*
X11355084Y-16374287D01*
X11355084Y-16374287D02*
X11364607Y-16383811D01*
X11364607Y-16383811D02*
X11374131Y-16402859D01*
X11374131Y-16402859D02*
X11374131Y-16460001D01*
X11374131Y-16460001D02*
X11364607Y-16479049D01*
X11364607Y-16479049D02*
X11355084Y-16488573D01*
X11355084Y-16488573D02*
X11336036Y-16498097D01*
X11336036Y-16498097D02*
X11307465Y-16498097D01*
X11488417Y-16498097D02*
X11469369Y-16488573D01*
X11469369Y-16488573D02*
X11459846Y-16469525D01*
X11459846Y-16469525D02*
X11459846Y-16298097D01*
X11640798Y-16488573D02*
X11621750Y-16498097D01*
X11621750Y-16498097D02*
X11583655Y-16498097D01*
X11583655Y-16498097D02*
X11564607Y-16488573D01*
X11564607Y-16488573D02*
X11555084Y-16469525D01*
X11555084Y-16469525D02*
X11555084Y-16393335D01*
X11555084Y-16393335D02*
X11564607Y-16374287D01*
X11564607Y-16374287D02*
X11583655Y-16364763D01*
X11583655Y-16364763D02*
X11621750Y-16364763D01*
X11621750Y-16364763D02*
X11640798Y-16374287D01*
X11640798Y-16374287D02*
X11650322Y-16393335D01*
X11650322Y-16393335D02*
X11650322Y-16412382D01*
X11650322Y-16412382D02*
X11555084Y-16431430D01*
X11726512Y-16488573D02*
X11745560Y-16498097D01*
X11745560Y-16498097D02*
X11783655Y-16498097D01*
X11783655Y-16498097D02*
X11802703Y-16488573D01*
X11802703Y-16488573D02*
X11812227Y-16469525D01*
X11812227Y-16469525D02*
X11812227Y-16460001D01*
X11812227Y-16460001D02*
X11802703Y-16440954D01*
X11802703Y-16440954D02*
X11783655Y-16431430D01*
X11783655Y-16431430D02*
X11755084Y-16431430D01*
X11755084Y-16431430D02*
X11736036Y-16421906D01*
X11736036Y-16421906D02*
X11726512Y-16402859D01*
X11726512Y-16402859D02*
X11726512Y-16393335D01*
X11726512Y-16393335D02*
X11736036Y-16374287D01*
X11736036Y-16374287D02*
X11755084Y-16364763D01*
X11755084Y-16364763D02*
X11783655Y-16364763D01*
X11783655Y-16364763D02*
X11802703Y-16374287D01*
X11878893Y-16574287D02*
X11888417Y-16564763D01*
X11888417Y-16564763D02*
X11907465Y-16536192D01*
X11907465Y-16536192D02*
X11916988Y-16517144D01*
X11916988Y-16517144D02*
X11926512Y-16488573D01*
X11926512Y-16488573D02*
X11936036Y-16440954D01*
X11936036Y-16440954D02*
X11936036Y-16402859D01*
X11936036Y-16402859D02*
X11926512Y-16355239D01*
X11926512Y-16355239D02*
X11916988Y-16326668D01*
X11916988Y-16326668D02*
X11907465Y-16307620D01*
X11907465Y-16307620D02*
X11888417Y-16279049D01*
X11888417Y-16279049D02*
X11878893Y-16269525D01*
D13*
X7048830Y-16725613D02*
X7103830Y-16670613D01*
X7048830Y-16615613D01*
X6993830Y-16670613D01*
X7048830Y-16725613D01*
D11*
X7469369Y-16762097D02*
X7355083Y-16762097D01*
X7412226Y-16762097D02*
X7412226Y-16562097D01*
X7412226Y-16562097D02*
X7393178Y-16590668D01*
X7393178Y-16590668D02*
X7374131Y-16609716D01*
X7374131Y-16609716D02*
X7355083Y-16619239D01*
X7555083Y-16743049D02*
X7564607Y-16752573D01*
X7564607Y-16752573D02*
X7555083Y-16762097D01*
X7555083Y-16762097D02*
X7545559Y-16752573D01*
X7545559Y-16752573D02*
X7555083Y-16743049D01*
X7555083Y-16743049D02*
X7555083Y-16762097D01*
X7755083Y-16762097D02*
X7640798Y-16762097D01*
X7697940Y-16762097D02*
X7697940Y-16562097D01*
X7697940Y-16562097D02*
X7678893Y-16590668D01*
X7678893Y-16590668D02*
X7659845Y-16609716D01*
X7659845Y-16609716D02*
X7640798Y-16619239D01*
X7878893Y-16562097D02*
X7897940Y-16562097D01*
X7897940Y-16562097D02*
X7916988Y-16571620D01*
X7916988Y-16571620D02*
X7926512Y-16581144D01*
X7926512Y-16581144D02*
X7936036Y-16600192D01*
X7936036Y-16600192D02*
X7945559Y-16638287D01*
X7945559Y-16638287D02*
X7945559Y-16685906D01*
X7945559Y-16685906D02*
X7936036Y-16724001D01*
X7936036Y-16724001D02*
X7926512Y-16743049D01*
X7926512Y-16743049D02*
X7916988Y-16752573D01*
X7916988Y-16752573D02*
X7897940Y-16762097D01*
X7897940Y-16762097D02*
X7878893Y-16762097D01*
X7878893Y-16762097D02*
X7859845Y-16752573D01*
X7859845Y-16752573D02*
X7850321Y-16743049D01*
X7850321Y-16743049D02*
X7840798Y-16724001D01*
X7840798Y-16724001D02*
X7831274Y-16685906D01*
X7831274Y-16685906D02*
X7831274Y-16638287D01*
X7831274Y-16638287D02*
X7840798Y-16600192D01*
X7840798Y-16600192D02*
X7850321Y-16581144D01*
X7850321Y-16581144D02*
X7859845Y-16571620D01*
X7859845Y-16571620D02*
X7878893Y-16562097D01*
X8069369Y-16562097D02*
X8088417Y-16562097D01*
X8088417Y-16562097D02*
X8107464Y-16571620D01*
X8107464Y-16571620D02*
X8116988Y-16581144D01*
X8116988Y-16581144D02*
X8126512Y-16600192D01*
X8126512Y-16600192D02*
X8136036Y-16638287D01*
X8136036Y-16638287D02*
X8136036Y-16685906D01*
X8136036Y-16685906D02*
X8126512Y-16724001D01*
X8126512Y-16724001D02*
X8116988Y-16743049D01*
X8116988Y-16743049D02*
X8107464Y-16752573D01*
X8107464Y-16752573D02*
X8088417Y-16762097D01*
X8088417Y-16762097D02*
X8069369Y-16762097D01*
X8069369Y-16762097D02*
X8050321Y-16752573D01*
X8050321Y-16752573D02*
X8040798Y-16743049D01*
X8040798Y-16743049D02*
X8031274Y-16724001D01*
X8031274Y-16724001D02*
X8021750Y-16685906D01*
X8021750Y-16685906D02*
X8021750Y-16638287D01*
X8021750Y-16638287D02*
X8031274Y-16600192D01*
X8031274Y-16600192D02*
X8040798Y-16581144D01*
X8040798Y-16581144D02*
X8050321Y-16571620D01*
X8050321Y-16571620D02*
X8069369Y-16562097D01*
X8221750Y-16762097D02*
X8221750Y-16628763D01*
X8221750Y-16647811D02*
X8231274Y-16638287D01*
X8231274Y-16638287D02*
X8250321Y-16628763D01*
X8250321Y-16628763D02*
X8278893Y-16628763D01*
X8278893Y-16628763D02*
X8297940Y-16638287D01*
X8297940Y-16638287D02*
X8307464Y-16657335D01*
X8307464Y-16657335D02*
X8307464Y-16762097D01*
X8307464Y-16657335D02*
X8316988Y-16638287D01*
X8316988Y-16638287D02*
X8336036Y-16628763D01*
X8336036Y-16628763D02*
X8364607Y-16628763D01*
X8364607Y-16628763D02*
X8383655Y-16638287D01*
X8383655Y-16638287D02*
X8393179Y-16657335D01*
X8393179Y-16657335D02*
X8393179Y-16762097D01*
X8488417Y-16762097D02*
X8488417Y-16628763D01*
X8488417Y-16647811D02*
X8497941Y-16638287D01*
X8497941Y-16638287D02*
X8516988Y-16628763D01*
X8516988Y-16628763D02*
X8545560Y-16628763D01*
X8545560Y-16628763D02*
X8564607Y-16638287D01*
X8564607Y-16638287D02*
X8574131Y-16657335D01*
X8574131Y-16657335D02*
X8574131Y-16762097D01*
X8574131Y-16657335D02*
X8583655Y-16638287D01*
X8583655Y-16638287D02*
X8602702Y-16628763D01*
X8602702Y-16628763D02*
X8631274Y-16628763D01*
X8631274Y-16628763D02*
X8650322Y-16638287D01*
X8650322Y-16638287D02*
X8659845Y-16657335D01*
X8659845Y-16657335D02*
X8659845Y-16762097D01*
X9050322Y-16552573D02*
X8878893Y-16809716D01*
X9307464Y-16562097D02*
X9326512Y-16562097D01*
X9326512Y-16562097D02*
X9345560Y-16571620D01*
X9345560Y-16571620D02*
X9355084Y-16581144D01*
X9355084Y-16581144D02*
X9364607Y-16600192D01*
X9364607Y-16600192D02*
X9374131Y-16638287D01*
X9374131Y-16638287D02*
X9374131Y-16685906D01*
X9374131Y-16685906D02*
X9364607Y-16724001D01*
X9364607Y-16724001D02*
X9355084Y-16743049D01*
X9355084Y-16743049D02*
X9345560Y-16752573D01*
X9345560Y-16752573D02*
X9326512Y-16762097D01*
X9326512Y-16762097D02*
X9307464Y-16762097D01*
X9307464Y-16762097D02*
X9288417Y-16752573D01*
X9288417Y-16752573D02*
X9278893Y-16743049D01*
X9278893Y-16743049D02*
X9269369Y-16724001D01*
X9269369Y-16724001D02*
X9259845Y-16685906D01*
X9259845Y-16685906D02*
X9259845Y-16638287D01*
X9259845Y-16638287D02*
X9269369Y-16600192D01*
X9269369Y-16600192D02*
X9278893Y-16581144D01*
X9278893Y-16581144D02*
X9288417Y-16571620D01*
X9288417Y-16571620D02*
X9307464Y-16562097D01*
X9459845Y-16743049D02*
X9469369Y-16752573D01*
X9469369Y-16752573D02*
X9459845Y-16762097D01*
X9459845Y-16762097D02*
X9450322Y-16752573D01*
X9450322Y-16752573D02*
X9459845Y-16743049D01*
X9459845Y-16743049D02*
X9459845Y-16762097D01*
X9593179Y-16562097D02*
X9612226Y-16562097D01*
X9612226Y-16562097D02*
X9631274Y-16571620D01*
X9631274Y-16571620D02*
X9640798Y-16581144D01*
X9640798Y-16581144D02*
X9650322Y-16600192D01*
X9650322Y-16600192D02*
X9659845Y-16638287D01*
X9659845Y-16638287D02*
X9659845Y-16685906D01*
X9659845Y-16685906D02*
X9650322Y-16724001D01*
X9650322Y-16724001D02*
X9640798Y-16743049D01*
X9640798Y-16743049D02*
X9631274Y-16752573D01*
X9631274Y-16752573D02*
X9612226Y-16762097D01*
X9612226Y-16762097D02*
X9593179Y-16762097D01*
X9593179Y-16762097D02*
X9574131Y-16752573D01*
X9574131Y-16752573D02*
X9564607Y-16743049D01*
X9564607Y-16743049D02*
X9555084Y-16724001D01*
X9555084Y-16724001D02*
X9545560Y-16685906D01*
X9545560Y-16685906D02*
X9545560Y-16638287D01*
X9545560Y-16638287D02*
X9555084Y-16600192D01*
X9555084Y-16600192D02*
X9564607Y-16581144D01*
X9564607Y-16581144D02*
X9574131Y-16571620D01*
X9574131Y-16571620D02*
X9593179Y-16562097D01*
X9831274Y-16628763D02*
X9831274Y-16762097D01*
X9783655Y-16552573D02*
X9736036Y-16695430D01*
X9736036Y-16695430D02*
X9859845Y-16695430D01*
X9916988Y-16562097D02*
X10040798Y-16562097D01*
X10040798Y-16562097D02*
X9974131Y-16638287D01*
X9974131Y-16638287D02*
X10002703Y-16638287D01*
X10002703Y-16638287D02*
X10021750Y-16647811D01*
X10021750Y-16647811D02*
X10031274Y-16657335D01*
X10031274Y-16657335D02*
X10040798Y-16676382D01*
X10040798Y-16676382D02*
X10040798Y-16724001D01*
X10040798Y-16724001D02*
X10031274Y-16743049D01*
X10031274Y-16743049D02*
X10021750Y-16752573D01*
X10021750Y-16752573D02*
X10002703Y-16762097D01*
X10002703Y-16762097D02*
X9945560Y-16762097D01*
X9945560Y-16762097D02*
X9926512Y-16752573D01*
X9926512Y-16752573D02*
X9916988Y-16743049D01*
X10107465Y-16562097D02*
X10231274Y-16562097D01*
X10231274Y-16562097D02*
X10164607Y-16638287D01*
X10164607Y-16638287D02*
X10193179Y-16638287D01*
X10193179Y-16638287D02*
X10212226Y-16647811D01*
X10212226Y-16647811D02*
X10221750Y-16657335D01*
X10221750Y-16657335D02*
X10231274Y-16676382D01*
X10231274Y-16676382D02*
X10231274Y-16724001D01*
X10231274Y-16724001D02*
X10221750Y-16743049D01*
X10221750Y-16743049D02*
X10212226Y-16752573D01*
X10212226Y-16752573D02*
X10193179Y-16762097D01*
X10193179Y-16762097D02*
X10136036Y-16762097D01*
X10136036Y-16762097D02*
X10116988Y-16752573D01*
X10116988Y-16752573D02*
X10107465Y-16743049D01*
X10307465Y-16562097D02*
X10307465Y-16600192D01*
X10383655Y-16562097D02*
X10383655Y-16600192D01*
X10678893Y-16838287D02*
X10669369Y-16828763D01*
X10669369Y-16828763D02*
X10650322Y-16800192D01*
X10650322Y-16800192D02*
X10640798Y-16781144D01*
X10640798Y-16781144D02*
X10631274Y-16752573D01*
X10631274Y-16752573D02*
X10621750Y-16704954D01*
X10621750Y-16704954D02*
X10621750Y-16666859D01*
X10621750Y-16666859D02*
X10631274Y-16619239D01*
X10631274Y-16619239D02*
X10640798Y-16590668D01*
X10640798Y-16590668D02*
X10650322Y-16571620D01*
X10650322Y-16571620D02*
X10669369Y-16543049D01*
X10669369Y-16543049D02*
X10678893Y-16533525D01*
X10840798Y-16628763D02*
X10840798Y-16762097D01*
X10793179Y-16552573D02*
X10745560Y-16695430D01*
X10745560Y-16695430D02*
X10869369Y-16695430D01*
X11040798Y-16562097D02*
X10945560Y-16562097D01*
X10945560Y-16562097D02*
X10936036Y-16657335D01*
X10936036Y-16657335D02*
X10945560Y-16647811D01*
X10945560Y-16647811D02*
X10964607Y-16638287D01*
X10964607Y-16638287D02*
X11012227Y-16638287D01*
X11012227Y-16638287D02*
X11031274Y-16647811D01*
X11031274Y-16647811D02*
X11040798Y-16657335D01*
X11040798Y-16657335D02*
X11050322Y-16676382D01*
X11050322Y-16676382D02*
X11050322Y-16724001D01*
X11050322Y-16724001D02*
X11040798Y-16743049D01*
X11040798Y-16743049D02*
X11031274Y-16752573D01*
X11031274Y-16752573D02*
X11012227Y-16762097D01*
X11012227Y-16762097D02*
X10964607Y-16762097D01*
X10964607Y-16762097D02*
X10945560Y-16752573D01*
X10945560Y-16752573D02*
X10936036Y-16743049D01*
X11288417Y-16762097D02*
X11288417Y-16562097D01*
X11374131Y-16762097D02*
X11374131Y-16657335D01*
X11374131Y-16657335D02*
X11364607Y-16638287D01*
X11364607Y-16638287D02*
X11345560Y-16628763D01*
X11345560Y-16628763D02*
X11316988Y-16628763D01*
X11316988Y-16628763D02*
X11297941Y-16638287D01*
X11297941Y-16638287D02*
X11288417Y-16647811D01*
X11497941Y-16762097D02*
X11478893Y-16752573D01*
X11478893Y-16752573D02*
X11469369Y-16743049D01*
X11469369Y-16743049D02*
X11459846Y-16724001D01*
X11459846Y-16724001D02*
X11459846Y-16666859D01*
X11459846Y-16666859D02*
X11469369Y-16647811D01*
X11469369Y-16647811D02*
X11478893Y-16638287D01*
X11478893Y-16638287D02*
X11497941Y-16628763D01*
X11497941Y-16628763D02*
X11526512Y-16628763D01*
X11526512Y-16628763D02*
X11545560Y-16638287D01*
X11545560Y-16638287D02*
X11555084Y-16647811D01*
X11555084Y-16647811D02*
X11564607Y-16666859D01*
X11564607Y-16666859D02*
X11564607Y-16724001D01*
X11564607Y-16724001D02*
X11555084Y-16743049D01*
X11555084Y-16743049D02*
X11545560Y-16752573D01*
X11545560Y-16752573D02*
X11526512Y-16762097D01*
X11526512Y-16762097D02*
X11497941Y-16762097D01*
X11678893Y-16762097D02*
X11659846Y-16752573D01*
X11659846Y-16752573D02*
X11650322Y-16733525D01*
X11650322Y-16733525D02*
X11650322Y-16562097D01*
X11831274Y-16752573D02*
X11812227Y-16762097D01*
X11812227Y-16762097D02*
X11774131Y-16762097D01*
X11774131Y-16762097D02*
X11755084Y-16752573D01*
X11755084Y-16752573D02*
X11745560Y-16733525D01*
X11745560Y-16733525D02*
X11745560Y-16657335D01*
X11745560Y-16657335D02*
X11755084Y-16638287D01*
X11755084Y-16638287D02*
X11774131Y-16628763D01*
X11774131Y-16628763D02*
X11812227Y-16628763D01*
X11812227Y-16628763D02*
X11831274Y-16638287D01*
X11831274Y-16638287D02*
X11840798Y-16657335D01*
X11840798Y-16657335D02*
X11840798Y-16676382D01*
X11840798Y-16676382D02*
X11745560Y-16695430D01*
X11916988Y-16752573D02*
X11936036Y-16762097D01*
X11936036Y-16762097D02*
X11974131Y-16762097D01*
X11974131Y-16762097D02*
X11993179Y-16752573D01*
X11993179Y-16752573D02*
X12002703Y-16733525D01*
X12002703Y-16733525D02*
X12002703Y-16724001D01*
X12002703Y-16724001D02*
X11993179Y-16704954D01*
X11993179Y-16704954D02*
X11974131Y-16695430D01*
X11974131Y-16695430D02*
X11945560Y-16695430D01*
X11945560Y-16695430D02*
X11926512Y-16685906D01*
X11926512Y-16685906D02*
X11916988Y-16666859D01*
X11916988Y-16666859D02*
X11916988Y-16657335D01*
X11916988Y-16657335D02*
X11926512Y-16638287D01*
X11926512Y-16638287D02*
X11945560Y-16628763D01*
X11945560Y-16628763D02*
X11974131Y-16628763D01*
X11974131Y-16628763D02*
X11993179Y-16638287D01*
X12069369Y-16838287D02*
X12078893Y-16828763D01*
X12078893Y-16828763D02*
X12097941Y-16800192D01*
X12097941Y-16800192D02*
X12107465Y-16781144D01*
X12107465Y-16781144D02*
X12116988Y-16752573D01*
X12116988Y-16752573D02*
X12126512Y-16704954D01*
X12126512Y-16704954D02*
X12126512Y-16666859D01*
X12126512Y-16666859D02*
X12116988Y-16619239D01*
X12116988Y-16619239D02*
X12107465Y-16590668D01*
X12107465Y-16590668D02*
X12097941Y-16571620D01*
X12097941Y-16571620D02*
X12078893Y-16543049D01*
X12078893Y-16543049D02*
X12069369Y-16533525D01*
D14*
X6953830Y-16859613D02*
X7103830Y-17009613D01*
X7103830Y-16859613D02*
X6953830Y-17009613D01*
X7103830Y-16934613D02*
G75*
G02*
X6953830Y-16934613I-75000J0D01*
G01*
X6953830Y-16934613D02*
G75*
G02*
X7103830Y-16934613I75000J0D01*
G01*
D11*
X7469369Y-17026097D02*
X7355083Y-17026097D01*
X7412226Y-17026097D02*
X7412226Y-16826097D01*
X7412226Y-16826097D02*
X7393178Y-16854668D01*
X7393178Y-16854668D02*
X7374131Y-16873716D01*
X7374131Y-16873716D02*
X7355083Y-16883240D01*
X7555083Y-17007049D02*
X7564607Y-17016573D01*
X7564607Y-17016573D02*
X7555083Y-17026097D01*
X7555083Y-17026097D02*
X7545559Y-17016573D01*
X7545559Y-17016573D02*
X7555083Y-17007049D01*
X7555083Y-17007049D02*
X7555083Y-17026097D01*
X7745559Y-16826097D02*
X7650321Y-16826097D01*
X7650321Y-16826097D02*
X7640798Y-16921335D01*
X7640798Y-16921335D02*
X7650321Y-16911811D01*
X7650321Y-16911811D02*
X7669369Y-16902287D01*
X7669369Y-16902287D02*
X7716988Y-16902287D01*
X7716988Y-16902287D02*
X7736036Y-16911811D01*
X7736036Y-16911811D02*
X7745559Y-16921335D01*
X7745559Y-16921335D02*
X7755083Y-16940382D01*
X7755083Y-16940382D02*
X7755083Y-16988001D01*
X7755083Y-16988001D02*
X7745559Y-17007049D01*
X7745559Y-17007049D02*
X7736036Y-17016573D01*
X7736036Y-17016573D02*
X7716988Y-17026097D01*
X7716988Y-17026097D02*
X7669369Y-17026097D01*
X7669369Y-17026097D02*
X7650321Y-17016573D01*
X7650321Y-17016573D02*
X7640798Y-17007049D01*
X7878893Y-16826097D02*
X7897940Y-16826097D01*
X7897940Y-16826097D02*
X7916988Y-16835621D01*
X7916988Y-16835621D02*
X7926512Y-16845144D01*
X7926512Y-16845144D02*
X7936036Y-16864192D01*
X7936036Y-16864192D02*
X7945559Y-16902287D01*
X7945559Y-16902287D02*
X7945559Y-16949906D01*
X7945559Y-16949906D02*
X7936036Y-16988001D01*
X7936036Y-16988001D02*
X7926512Y-17007049D01*
X7926512Y-17007049D02*
X7916988Y-17016573D01*
X7916988Y-17016573D02*
X7897940Y-17026097D01*
X7897940Y-17026097D02*
X7878893Y-17026097D01*
X7878893Y-17026097D02*
X7859845Y-17016573D01*
X7859845Y-17016573D02*
X7850321Y-17007049D01*
X7850321Y-17007049D02*
X7840798Y-16988001D01*
X7840798Y-16988001D02*
X7831274Y-16949906D01*
X7831274Y-16949906D02*
X7831274Y-16902287D01*
X7831274Y-16902287D02*
X7840798Y-16864192D01*
X7840798Y-16864192D02*
X7850321Y-16845144D01*
X7850321Y-16845144D02*
X7859845Y-16835621D01*
X7859845Y-16835621D02*
X7878893Y-16826097D01*
X8069369Y-16826097D02*
X8088417Y-16826097D01*
X8088417Y-16826097D02*
X8107464Y-16835621D01*
X8107464Y-16835621D02*
X8116988Y-16845144D01*
X8116988Y-16845144D02*
X8126512Y-16864192D01*
X8126512Y-16864192D02*
X8136036Y-16902287D01*
X8136036Y-16902287D02*
X8136036Y-16949906D01*
X8136036Y-16949906D02*
X8126512Y-16988001D01*
X8126512Y-16988001D02*
X8116988Y-17007049D01*
X8116988Y-17007049D02*
X8107464Y-17016573D01*
X8107464Y-17016573D02*
X8088417Y-17026097D01*
X8088417Y-17026097D02*
X8069369Y-17026097D01*
X8069369Y-17026097D02*
X8050321Y-17016573D01*
X8050321Y-17016573D02*
X8040798Y-17007049D01*
X8040798Y-17007049D02*
X8031274Y-16988001D01*
X8031274Y-16988001D02*
X8021750Y-16949906D01*
X8021750Y-16949906D02*
X8021750Y-16902287D01*
X8021750Y-16902287D02*
X8031274Y-16864192D01*
X8031274Y-16864192D02*
X8040798Y-16845144D01*
X8040798Y-16845144D02*
X8050321Y-16835621D01*
X8050321Y-16835621D02*
X8069369Y-16826097D01*
X8221750Y-17026097D02*
X8221750Y-16892763D01*
X8221750Y-16911811D02*
X8231274Y-16902287D01*
X8231274Y-16902287D02*
X8250321Y-16892763D01*
X8250321Y-16892763D02*
X8278893Y-16892763D01*
X8278893Y-16892763D02*
X8297940Y-16902287D01*
X8297940Y-16902287D02*
X8307464Y-16921335D01*
X8307464Y-16921335D02*
X8307464Y-17026097D01*
X8307464Y-16921335D02*
X8316988Y-16902287D01*
X8316988Y-16902287D02*
X8336036Y-16892763D01*
X8336036Y-16892763D02*
X8364607Y-16892763D01*
X8364607Y-16892763D02*
X8383655Y-16902287D01*
X8383655Y-16902287D02*
X8393179Y-16921335D01*
X8393179Y-16921335D02*
X8393179Y-17026097D01*
X8488417Y-17026097D02*
X8488417Y-16892763D01*
X8488417Y-16911811D02*
X8497941Y-16902287D01*
X8497941Y-16902287D02*
X8516988Y-16892763D01*
X8516988Y-16892763D02*
X8545560Y-16892763D01*
X8545560Y-16892763D02*
X8564607Y-16902287D01*
X8564607Y-16902287D02*
X8574131Y-16921335D01*
X8574131Y-16921335D02*
X8574131Y-17026097D01*
X8574131Y-16921335D02*
X8583655Y-16902287D01*
X8583655Y-16902287D02*
X8602702Y-16892763D01*
X8602702Y-16892763D02*
X8631274Y-16892763D01*
X8631274Y-16892763D02*
X8650322Y-16902287D01*
X8650322Y-16902287D02*
X8659845Y-16921335D01*
X8659845Y-16921335D02*
X8659845Y-17026097D01*
X9050322Y-16816573D02*
X8878893Y-17073716D01*
X9307464Y-16826097D02*
X9326512Y-16826097D01*
X9326512Y-16826097D02*
X9345560Y-16835621D01*
X9345560Y-16835621D02*
X9355084Y-16845144D01*
X9355084Y-16845144D02*
X9364607Y-16864192D01*
X9364607Y-16864192D02*
X9374131Y-16902287D01*
X9374131Y-16902287D02*
X9374131Y-16949906D01*
X9374131Y-16949906D02*
X9364607Y-16988001D01*
X9364607Y-16988001D02*
X9355084Y-17007049D01*
X9355084Y-17007049D02*
X9345560Y-17016573D01*
X9345560Y-17016573D02*
X9326512Y-17026097D01*
X9326512Y-17026097D02*
X9307464Y-17026097D01*
X9307464Y-17026097D02*
X9288417Y-17016573D01*
X9288417Y-17016573D02*
X9278893Y-17007049D01*
X9278893Y-17007049D02*
X9269369Y-16988001D01*
X9269369Y-16988001D02*
X9259845Y-16949906D01*
X9259845Y-16949906D02*
X9259845Y-16902287D01*
X9259845Y-16902287D02*
X9269369Y-16864192D01*
X9269369Y-16864192D02*
X9278893Y-16845144D01*
X9278893Y-16845144D02*
X9288417Y-16835621D01*
X9288417Y-16835621D02*
X9307464Y-16826097D01*
X9459845Y-17007049D02*
X9469369Y-17016573D01*
X9469369Y-17016573D02*
X9459845Y-17026097D01*
X9459845Y-17026097D02*
X9450322Y-17016573D01*
X9450322Y-17016573D02*
X9459845Y-17007049D01*
X9459845Y-17007049D02*
X9459845Y-17026097D01*
X9593179Y-16826097D02*
X9612226Y-16826097D01*
X9612226Y-16826097D02*
X9631274Y-16835621D01*
X9631274Y-16835621D02*
X9640798Y-16845144D01*
X9640798Y-16845144D02*
X9650322Y-16864192D01*
X9650322Y-16864192D02*
X9659845Y-16902287D01*
X9659845Y-16902287D02*
X9659845Y-16949906D01*
X9659845Y-16949906D02*
X9650322Y-16988001D01*
X9650322Y-16988001D02*
X9640798Y-17007049D01*
X9640798Y-17007049D02*
X9631274Y-17016573D01*
X9631274Y-17016573D02*
X9612226Y-17026097D01*
X9612226Y-17026097D02*
X9593179Y-17026097D01*
X9593179Y-17026097D02*
X9574131Y-17016573D01*
X9574131Y-17016573D02*
X9564607Y-17007049D01*
X9564607Y-17007049D02*
X9555084Y-16988001D01*
X9555084Y-16988001D02*
X9545560Y-16949906D01*
X9545560Y-16949906D02*
X9545560Y-16902287D01*
X9545560Y-16902287D02*
X9555084Y-16864192D01*
X9555084Y-16864192D02*
X9564607Y-16845144D01*
X9564607Y-16845144D02*
X9574131Y-16835621D01*
X9574131Y-16835621D02*
X9593179Y-16826097D01*
X9840798Y-16826097D02*
X9745560Y-16826097D01*
X9745560Y-16826097D02*
X9736036Y-16921335D01*
X9736036Y-16921335D02*
X9745560Y-16911811D01*
X9745560Y-16911811D02*
X9764607Y-16902287D01*
X9764607Y-16902287D02*
X9812226Y-16902287D01*
X9812226Y-16902287D02*
X9831274Y-16911811D01*
X9831274Y-16911811D02*
X9840798Y-16921335D01*
X9840798Y-16921335D02*
X9850322Y-16940382D01*
X9850322Y-16940382D02*
X9850322Y-16988001D01*
X9850322Y-16988001D02*
X9840798Y-17007049D01*
X9840798Y-17007049D02*
X9831274Y-17016573D01*
X9831274Y-17016573D02*
X9812226Y-17026097D01*
X9812226Y-17026097D02*
X9764607Y-17026097D01*
X9764607Y-17026097D02*
X9745560Y-17016573D01*
X9745560Y-17016573D02*
X9736036Y-17007049D01*
X9945560Y-17026097D02*
X9983655Y-17026097D01*
X9983655Y-17026097D02*
X10002703Y-17016573D01*
X10002703Y-17016573D02*
X10012226Y-17007049D01*
X10012226Y-17007049D02*
X10031274Y-16978478D01*
X10031274Y-16978478D02*
X10040798Y-16940382D01*
X10040798Y-16940382D02*
X10040798Y-16864192D01*
X10040798Y-16864192D02*
X10031274Y-16845144D01*
X10031274Y-16845144D02*
X10021750Y-16835621D01*
X10021750Y-16835621D02*
X10002703Y-16826097D01*
X10002703Y-16826097D02*
X9964607Y-16826097D01*
X9964607Y-16826097D02*
X9945560Y-16835621D01*
X9945560Y-16835621D02*
X9936036Y-16845144D01*
X9936036Y-16845144D02*
X9926512Y-16864192D01*
X9926512Y-16864192D02*
X9926512Y-16911811D01*
X9926512Y-16911811D02*
X9936036Y-16930859D01*
X9936036Y-16930859D02*
X9945560Y-16940382D01*
X9945560Y-16940382D02*
X9964607Y-16949906D01*
X9964607Y-16949906D02*
X10002703Y-16949906D01*
X10002703Y-16949906D02*
X10021750Y-16940382D01*
X10021750Y-16940382D02*
X10031274Y-16930859D01*
X10031274Y-16930859D02*
X10040798Y-16911811D01*
X10231274Y-17026097D02*
X10116988Y-17026097D01*
X10174131Y-17026097D02*
X10174131Y-16826097D01*
X10174131Y-16826097D02*
X10155084Y-16854668D01*
X10155084Y-16854668D02*
X10136036Y-16873716D01*
X10136036Y-16873716D02*
X10116988Y-16883240D01*
X10307465Y-16826097D02*
X10307465Y-16864192D01*
X10383655Y-16826097D02*
X10383655Y-16864192D01*
X10678893Y-17102287D02*
X10669369Y-17092763D01*
X10669369Y-17092763D02*
X10650322Y-17064192D01*
X10650322Y-17064192D02*
X10640798Y-17045144D01*
X10640798Y-17045144D02*
X10631274Y-17016573D01*
X10631274Y-17016573D02*
X10621750Y-16968954D01*
X10621750Y-16968954D02*
X10621750Y-16930859D01*
X10621750Y-16930859D02*
X10631274Y-16883240D01*
X10631274Y-16883240D02*
X10640798Y-16854668D01*
X10640798Y-16854668D02*
X10650322Y-16835621D01*
X10650322Y-16835621D02*
X10669369Y-16807049D01*
X10669369Y-16807049D02*
X10678893Y-16797525D01*
X10793179Y-16826097D02*
X10812227Y-16826097D01*
X10812227Y-16826097D02*
X10831274Y-16835621D01*
X10831274Y-16835621D02*
X10840798Y-16845144D01*
X10840798Y-16845144D02*
X10850322Y-16864192D01*
X10850322Y-16864192D02*
X10859846Y-16902287D01*
X10859846Y-16902287D02*
X10859846Y-16949906D01*
X10859846Y-16949906D02*
X10850322Y-16988001D01*
X10850322Y-16988001D02*
X10840798Y-17007049D01*
X10840798Y-17007049D02*
X10831274Y-17016573D01*
X10831274Y-17016573D02*
X10812227Y-17026097D01*
X10812227Y-17026097D02*
X10793179Y-17026097D01*
X10793179Y-17026097D02*
X10774131Y-17016573D01*
X10774131Y-17016573D02*
X10764607Y-17007049D01*
X10764607Y-17007049D02*
X10755084Y-16988001D01*
X10755084Y-16988001D02*
X10745560Y-16949906D01*
X10745560Y-16949906D02*
X10745560Y-16902287D01*
X10745560Y-16902287D02*
X10755084Y-16864192D01*
X10755084Y-16864192D02*
X10764607Y-16845144D01*
X10764607Y-16845144D02*
X10774131Y-16835621D01*
X10774131Y-16835621D02*
X10793179Y-16826097D01*
X11097941Y-17026097D02*
X11097941Y-16826097D01*
X11183655Y-17026097D02*
X11183655Y-16921335D01*
X11183655Y-16921335D02*
X11174131Y-16902287D01*
X11174131Y-16902287D02*
X11155084Y-16892763D01*
X11155084Y-16892763D02*
X11126512Y-16892763D01*
X11126512Y-16892763D02*
X11107465Y-16902287D01*
X11107465Y-16902287D02*
X11097941Y-16911811D01*
X11307465Y-17026097D02*
X11288417Y-17016573D01*
X11288417Y-17016573D02*
X11278893Y-17007049D01*
X11278893Y-17007049D02*
X11269369Y-16988001D01*
X11269369Y-16988001D02*
X11269369Y-16930859D01*
X11269369Y-16930859D02*
X11278893Y-16911811D01*
X11278893Y-16911811D02*
X11288417Y-16902287D01*
X11288417Y-16902287D02*
X11307465Y-16892763D01*
X11307465Y-16892763D02*
X11336036Y-16892763D01*
X11336036Y-16892763D02*
X11355084Y-16902287D01*
X11355084Y-16902287D02*
X11364607Y-16911811D01*
X11364607Y-16911811D02*
X11374131Y-16930859D01*
X11374131Y-16930859D02*
X11374131Y-16988001D01*
X11374131Y-16988001D02*
X11364607Y-17007049D01*
X11364607Y-17007049D02*
X11355084Y-17016573D01*
X11355084Y-17016573D02*
X11336036Y-17026097D01*
X11336036Y-17026097D02*
X11307465Y-17026097D01*
X11488417Y-17026097D02*
X11469369Y-17016573D01*
X11469369Y-17016573D02*
X11459846Y-16997525D01*
X11459846Y-16997525D02*
X11459846Y-16826097D01*
X11640798Y-17016573D02*
X11621750Y-17026097D01*
X11621750Y-17026097D02*
X11583655Y-17026097D01*
X11583655Y-17026097D02*
X11564607Y-17016573D01*
X11564607Y-17016573D02*
X11555084Y-16997525D01*
X11555084Y-16997525D02*
X11555084Y-16921335D01*
X11555084Y-16921335D02*
X11564607Y-16902287D01*
X11564607Y-16902287D02*
X11583655Y-16892763D01*
X11583655Y-16892763D02*
X11621750Y-16892763D01*
X11621750Y-16892763D02*
X11640798Y-16902287D01*
X11640798Y-16902287D02*
X11650322Y-16921335D01*
X11650322Y-16921335D02*
X11650322Y-16940382D01*
X11650322Y-16940382D02*
X11555084Y-16959430D01*
X11726512Y-17016573D02*
X11745560Y-17026097D01*
X11745560Y-17026097D02*
X11783655Y-17026097D01*
X11783655Y-17026097D02*
X11802703Y-17016573D01*
X11802703Y-17016573D02*
X11812227Y-16997525D01*
X11812227Y-16997525D02*
X11812227Y-16988001D01*
X11812227Y-16988001D02*
X11802703Y-16968954D01*
X11802703Y-16968954D02*
X11783655Y-16959430D01*
X11783655Y-16959430D02*
X11755084Y-16959430D01*
X11755084Y-16959430D02*
X11736036Y-16949906D01*
X11736036Y-16949906D02*
X11726512Y-16930859D01*
X11726512Y-16930859D02*
X11726512Y-16921335D01*
X11726512Y-16921335D02*
X11736036Y-16902287D01*
X11736036Y-16902287D02*
X11755084Y-16892763D01*
X11755084Y-16892763D02*
X11783655Y-16892763D01*
X11783655Y-16892763D02*
X11802703Y-16902287D01*
X12050322Y-16949906D02*
X12202703Y-16949906D01*
X12126512Y-17026097D02*
X12126512Y-16873716D01*
X12440798Y-16845144D02*
X12450322Y-16835621D01*
X12450322Y-16835621D02*
X12469369Y-16826097D01*
X12469369Y-16826097D02*
X12516989Y-16826097D01*
X12516989Y-16826097D02*
X12536036Y-16835621D01*
X12536036Y-16835621D02*
X12545560Y-16845144D01*
X12545560Y-16845144D02*
X12555084Y-16864192D01*
X12555084Y-16864192D02*
X12555084Y-16883240D01*
X12555084Y-16883240D02*
X12545560Y-16911811D01*
X12545560Y-16911811D02*
X12431274Y-17026097D01*
X12431274Y-17026097D02*
X12555084Y-17026097D01*
X12783655Y-17016573D02*
X12802703Y-17026097D01*
X12802703Y-17026097D02*
X12840798Y-17026097D01*
X12840798Y-17026097D02*
X12859846Y-17016573D01*
X12859846Y-17016573D02*
X12869370Y-16997525D01*
X12869370Y-16997525D02*
X12869370Y-16988001D01*
X12869370Y-16988001D02*
X12859846Y-16968954D01*
X12859846Y-16968954D02*
X12840798Y-16959430D01*
X12840798Y-16959430D02*
X12812227Y-16959430D01*
X12812227Y-16959430D02*
X12793179Y-16949906D01*
X12793179Y-16949906D02*
X12783655Y-16930859D01*
X12783655Y-16930859D02*
X12783655Y-16921335D01*
X12783655Y-16921335D02*
X12793179Y-16902287D01*
X12793179Y-16902287D02*
X12812227Y-16892763D01*
X12812227Y-16892763D02*
X12840798Y-16892763D01*
X12840798Y-16892763D02*
X12859846Y-16902287D01*
X12983655Y-17026097D02*
X12964608Y-17016573D01*
X12964608Y-17016573D02*
X12955084Y-16997525D01*
X12955084Y-16997525D02*
X12955084Y-16826097D01*
X13088417Y-17026097D02*
X13069370Y-17016573D01*
X13069370Y-17016573D02*
X13059846Y-17007049D01*
X13059846Y-17007049D02*
X13050322Y-16988001D01*
X13050322Y-16988001D02*
X13050322Y-16930859D01*
X13050322Y-16930859D02*
X13059846Y-16911811D01*
X13059846Y-16911811D02*
X13069370Y-16902287D01*
X13069370Y-16902287D02*
X13088417Y-16892763D01*
X13088417Y-16892763D02*
X13116989Y-16892763D01*
X13116989Y-16892763D02*
X13136036Y-16902287D01*
X13136036Y-16902287D02*
X13145560Y-16911811D01*
X13145560Y-16911811D02*
X13155084Y-16930859D01*
X13155084Y-16930859D02*
X13155084Y-16988001D01*
X13155084Y-16988001D02*
X13145560Y-17007049D01*
X13145560Y-17007049D02*
X13136036Y-17016573D01*
X13136036Y-17016573D02*
X13116989Y-17026097D01*
X13116989Y-17026097D02*
X13088417Y-17026097D01*
X13212227Y-16892763D02*
X13288417Y-16892763D01*
X13240798Y-16826097D02*
X13240798Y-16997525D01*
X13240798Y-16997525D02*
X13250322Y-17016573D01*
X13250322Y-17016573D02*
X13269370Y-17026097D01*
X13269370Y-17026097D02*
X13288417Y-17026097D01*
X13345560Y-17016573D02*
X13364608Y-17026097D01*
X13364608Y-17026097D02*
X13402703Y-17026097D01*
X13402703Y-17026097D02*
X13421751Y-17016573D01*
X13421751Y-17016573D02*
X13431274Y-16997525D01*
X13431274Y-16997525D02*
X13431274Y-16988001D01*
X13431274Y-16988001D02*
X13421751Y-16968954D01*
X13421751Y-16968954D02*
X13402703Y-16959430D01*
X13402703Y-16959430D02*
X13374131Y-16959430D01*
X13374131Y-16959430D02*
X13355084Y-16949906D01*
X13355084Y-16949906D02*
X13345560Y-16930859D01*
X13345560Y-16930859D02*
X13345560Y-16921335D01*
X13345560Y-16921335D02*
X13355084Y-16902287D01*
X13355084Y-16902287D02*
X13374131Y-16892763D01*
X13374131Y-16892763D02*
X13402703Y-16892763D01*
X13402703Y-16892763D02*
X13421751Y-16902287D01*
X13497941Y-17102287D02*
X13507465Y-17092763D01*
X13507465Y-17092763D02*
X13526512Y-17064192D01*
X13526512Y-17064192D02*
X13536036Y-17045144D01*
X13536036Y-17045144D02*
X13545560Y-17016573D01*
X13545560Y-17016573D02*
X13555084Y-16968954D01*
X13555084Y-16968954D02*
X13555084Y-16930859D01*
X13555084Y-16930859D02*
X13545560Y-16883240D01*
X13545560Y-16883240D02*
X13536036Y-16854668D01*
X13536036Y-16854668D02*
X13526512Y-16835621D01*
X13526512Y-16835621D02*
X13507465Y-16807049D01*
X13507465Y-16807049D02*
X13497941Y-16797525D01*
M02*
