M48
; DRILL file {KiCad 8.0.4+1} date 2024-08-17T00:02:31-0400
; FORMAT={-:-/ absolute / inch / decimal}
; #@! TF.CreationDate,2024-08-17T00:02:31-04:00
; #@! TF.GenerationSoftware,Kicad,Pcbnew,8.0.4+1
; #@! TF.FileFunction,NonPlated,1,2,NPTH
FMAT,2
INCH
; #@! TA.AperFunction,NonPlated,NPTH,ComponentDrill
T1C0.0354
; #@! TA.AperFunction,NonPlated,NPTH,ComponentDrill
T2C0.0866
%
G90
G05
T1
X3.2197Y-5.1209
X3.2197Y-5.1209
X3.4874Y-5.1209
X3.4874Y-5.1209
X3.8496Y-5.1209
X3.8496Y-5.1209
X4.1173Y-5.1209
X4.1173Y-5.1209
X4.4795Y-5.1209
X4.4795Y-5.1209
X4.7472Y-5.1209
X4.7472Y-5.1209
T2
X2.8463Y-2.7159
X2.878Y-5.0697
X4.2783Y-1.8492
X4.3602Y-3.3669
X6.6264Y-2.602
X6.6264Y-3.3717
X7.8126Y-1.9594
X8.6823Y-5.715
M30
