%TF.GenerationSoftware,KiCad,Pcbnew,8.0.4+1*%
%TF.CreationDate,2024-08-17T00:02:36-04:00*%
%TF.ProjectId,iyada_baseplate,69796164-615f-4626-9173-65706c617465,rev?*%
%TF.SameCoordinates,Original*%
%TF.FileFunction,Soldermask,Bot*%
%TF.FilePolarity,Negative*%
%FSLAX46Y46*%
G04 Gerber Fmt 4.6, Leading zero omitted, Abs format (unit mm)*
G04 Created by KiCad (PCBNEW 8.0.4+1) date 2024-08-17 00:02:36*
%MOMM*%
%LPD*%
G01*
G04 APERTURE LIST*
G04 Aperture macros list*
%AMRoundRect*
0 Rectangle with rounded corners*
0 $1 Rounding radius*
0 $2 $3 $4 $5 $6 $7 $8 $9 X,Y pos of 4 corners*
0 Add a 4 corners polygon primitive as box body*
4,1,4,$2,$3,$4,$5,$6,$7,$8,$9,$2,$3,0*
0 Add four circle primitives for the rounded corners*
1,1,$1+$1,$2,$3*
1,1,$1+$1,$4,$5*
1,1,$1+$1,$6,$7*
1,1,$1+$1,$8,$9*
0 Add four rect primitives between the rounded corners*
20,1,$1+$1,$2,$3,$4,$5,0*
20,1,$1+$1,$4,$5,$6,$7,0*
20,1,$1+$1,$6,$7,$8,$9,0*
20,1,$1+$1,$8,$9,$2,$3,0*%
G04 Aperture macros list end*
%ADD10C,2.200000*%
%ADD11C,0.900000*%
%ADD12R,1.778000X1.778000*%
%ADD13R,1.200000X0.900000*%
%ADD14C,1.905000*%
%ADD15R,0.900000X1.200000*%
%ADD16R,0.700000X0.700000*%
%ADD17R,1.500000X2.500000*%
%ADD18R,1.500000X0.900000*%
%ADD19R,2.500000X2.500000*%
%ADD20RoundRect,0.250000X0.375000X1.000000X-0.375000X1.000000X-0.375000X-1.000000X0.375000X-1.000000X0*%
%ADD21R,1.000000X1.000000*%
G04 APERTURE END LIST*
D10*
%TO.C,CiHole1*%
X168310000Y-85640000D03*
%TD*%
%TO.C,CiHole1*%
X220530000Y-145160000D03*
%TD*%
D11*
%TO.C,REF\u002A\u002A*%
X97780000Y-130070000D03*
X104580000Y-130070000D03*
%TD*%
D10*
%TO.C,CiHole1*%
X198440000Y-49770000D03*
%TD*%
D11*
%TO.C,REF\u002A\u002A*%
X113780000Y-130070000D03*
X120580000Y-130070000D03*
%TD*%
D12*
%TO.C,D14*%
X80980000Y-85861750D03*
D13*
X80980000Y-83701750D03*
X80980000Y-80401750D03*
D14*
X80980000Y-78241750D03*
%TD*%
D11*
%TO.C,REF\u002A\u002A*%
X81780000Y-130070000D03*
X88580000Y-130070000D03*
%TD*%
D12*
%TO.C,D14*%
X89980000Y-78241750D03*
D13*
X89980000Y-80401750D03*
X89980000Y-83701750D03*
D14*
X89980000Y-85861750D03*
%TD*%
D10*
%TO.C,CiHole1*%
X168310000Y-66090000D03*
%TD*%
%TO.C,CiHole1*%
X108670000Y-46970000D03*
%TD*%
%TO.C,CiHole1*%
X73100000Y-128770000D03*
%TD*%
D12*
%TO.C,D14*%
X83980000Y-78210000D03*
D13*
X83980000Y-80370000D03*
X83980000Y-83670000D03*
D14*
X83980000Y-85830000D03*
%TD*%
D10*
%TO.C,CiHole1*%
X72295000Y-68985000D03*
%TD*%
D12*
%TO.C,D14*%
X113338250Y-120070000D03*
D15*
X115498250Y-120070000D03*
X118798250Y-120070000D03*
D14*
X120958250Y-120070000D03*
%TD*%
D12*
%TO.C,D14*%
X86980000Y-85861750D03*
D13*
X86980000Y-83701750D03*
X86980000Y-80401750D03*
D14*
X86980000Y-78241750D03*
%TD*%
D10*
%TO.C,CiHole1*%
X110750000Y-85520000D03*
%TD*%
D16*
%TO.C,REF\u002A\u002A*%
X138991000Y-91334000D03*
X140091000Y-91334000D03*
X140091000Y-93164000D03*
X138991000Y-93164000D03*
%TD*%
D17*
%TO.C,*%
X117056000Y-79743000D03*
%TD*%
%TO.C,*%
X156031000Y-99245000D03*
%TD*%
D16*
%TO.C,REF\u002A\u002A*%
X177991000Y-97339000D03*
X179091000Y-97339000D03*
X179091000Y-99169000D03*
X177991000Y-99169000D03*
%TD*%
D17*
%TO.C,*%
X139536000Y-88250000D03*
%TD*%
D16*
%TO.C,REF\u002A\u002A*%
X179091000Y-79664000D03*
X177991000Y-79664000D03*
X177991000Y-77834000D03*
X179091000Y-77834000D03*
%TD*%
D18*
%TO.C,REF\u002A\u002A*%
X117591000Y-96894000D03*
X117591000Y-93594000D03*
X122491000Y-93594000D03*
X122491000Y-96894000D03*
%TD*%
D16*
%TO.C,REF\u002A\u002A*%
X177991000Y-58334000D03*
X179091000Y-58334000D03*
X179091000Y-60164000D03*
X177991000Y-60164000D03*
%TD*%
D18*
%TO.C,REF\u002A\u002A*%
X98091000Y-59899000D03*
X98091000Y-56599000D03*
X102991000Y-56599000D03*
X102991000Y-59899000D03*
%TD*%
D17*
%TO.C,*%
X136531000Y-96245000D03*
%TD*%
%TO.C,*%
X120046000Y-79748000D03*
%TD*%
%TO.C,*%
X136530000Y-57245000D03*
%TD*%
%TO.C,*%
X136556000Y-76743000D03*
%TD*%
%TO.C,*%
X159036000Y-99250000D03*
%TD*%
D18*
%TO.C,REF\u002A\u002A*%
X117591000Y-57899000D03*
X117591000Y-54599000D03*
X122491000Y-54599000D03*
X122491000Y-57899000D03*
%TD*%
D17*
%TO.C,*%
X97531000Y-101245000D03*
%TD*%
D16*
%TO.C,REF\u002A\u002A*%
X158486000Y-55329000D03*
X159586000Y-55329000D03*
X159586000Y-57159000D03*
X158486000Y-57159000D03*
%TD*%
D17*
%TO.C,*%
X175556000Y-82743000D03*
%TD*%
%TO.C,*%
X123036000Y-60250000D03*
%TD*%
%TO.C,*%
X97541000Y-54250000D03*
%TD*%
D16*
%TO.C,REF\u002A\u002A*%
X120591000Y-76664000D03*
X119491000Y-76664000D03*
X119491000Y-74834000D03*
X120591000Y-74834000D03*
%TD*%
D18*
%TO.C,REF\u002A\u002A*%
X122491000Y-74099000D03*
X122491000Y-77399000D03*
X117591000Y-77399000D03*
X117591000Y-74099000D03*
%TD*%
D17*
%TO.C,*%
X142526000Y-88255000D03*
%TD*%
%TO.C,*%
X175531000Y-102250000D03*
%TD*%
%TO.C,*%
X162051000Y-71753000D03*
%TD*%
%TO.C,*%
X123036000Y-99245000D03*
%TD*%
%TO.C,*%
X156036000Y-52245000D03*
%TD*%
%TO.C,*%
X103526000Y-54255000D03*
%TD*%
D18*
%TO.C,REF\u002A\u002A*%
X180991000Y-77099000D03*
X180991000Y-80399000D03*
X176091000Y-80399000D03*
X176091000Y-77099000D03*
%TD*%
D16*
%TO.C,REF\u002A\u002A*%
X140091000Y-73664000D03*
X138991000Y-73664000D03*
X138991000Y-71834000D03*
X140091000Y-71834000D03*
%TD*%
D17*
%TO.C,*%
X117041000Y-91245000D03*
%TD*%
%TO.C,*%
X139536000Y-88250000D03*
%TD*%
%TO.C,*%
X120046000Y-79748000D03*
%TD*%
%TO.C,*%
X159036000Y-91250000D03*
%TD*%
%TO.C,*%
X175541000Y-94255000D03*
%TD*%
%TO.C,*%
X117041000Y-52250000D03*
%TD*%
%TO.C,*%
X123036000Y-60250000D03*
%TD*%
%TO.C,*%
X100536000Y-62250000D03*
%TD*%
D16*
%TO.C,REF\u002A\u002A*%
X138990000Y-52334000D03*
X140090000Y-52334000D03*
X140090000Y-54164000D03*
X138990000Y-54164000D03*
%TD*%
D17*
%TO.C,*%
X123041000Y-79748000D03*
%TD*%
%TO.C,*%
X181551000Y-74753000D03*
%TD*%
D16*
%TO.C,REF\u002A\u002A*%
X159591000Y-76664000D03*
X158491000Y-76664000D03*
X158491000Y-74834000D03*
X159591000Y-74834000D03*
%TD*%
D17*
%TO.C,*%
X103541000Y-81748000D03*
%TD*%
%TO.C,*%
X175546000Y-74748000D03*
%TD*%
%TO.C,*%
X178536000Y-102255000D03*
%TD*%
D16*
%TO.C,REF\u002A\u002A*%
X119491000Y-94329000D03*
X120591000Y-94329000D03*
X120591000Y-96159000D03*
X119491000Y-96159000D03*
%TD*%
%TO.C,REF\u002A\u002A*%
X120591000Y-76664000D03*
X119491000Y-76664000D03*
X119491000Y-74834000D03*
X120591000Y-74834000D03*
%TD*%
D17*
%TO.C,*%
X178546000Y-74748000D03*
%TD*%
D18*
%TO.C,REF\u002A\u002A*%
X102991000Y-76099000D03*
X102991000Y-79399000D03*
X98091000Y-79399000D03*
X98091000Y-76099000D03*
%TD*%
D17*
%TO.C,*%
X156036000Y-52245000D03*
%TD*%
%TO.C,*%
X120036000Y-99245000D03*
%TD*%
%TO.C,*%
X117046000Y-71748000D03*
%TD*%
D18*
%TO.C,REF\u002A\u002A*%
X176091000Y-99904000D03*
X176091000Y-96604000D03*
X180991000Y-96604000D03*
X180991000Y-99904000D03*
%TD*%
D17*
%TO.C,*%
X156041000Y-91250000D03*
%TD*%
%TO.C,*%
X136530000Y-57245000D03*
%TD*%
%TO.C,*%
X159046000Y-71748000D03*
%TD*%
%TO.C,*%
X142541000Y-76748000D03*
%TD*%
%TO.C,*%
X103536000Y-62250000D03*
%TD*%
D16*
%TO.C,REF\u002A\u002A*%
X99991000Y-57334000D03*
X101091000Y-57334000D03*
X101091000Y-59164000D03*
X99991000Y-59164000D03*
%TD*%
D17*
%TO.C,*%
X175531000Y-102250000D03*
%TD*%
%TO.C,*%
X117056000Y-79743000D03*
%TD*%
D19*
%TO.C,REF\u002A\u002A*%
X90210000Y-49940000D03*
%TD*%
D11*
%TO.C,REF\u002A\u002A*%
X88580000Y-130070000D03*
X81780000Y-130070000D03*
D20*
X87680000Y-127320000D03*
X85180000Y-127320000D03*
X82680000Y-127320000D03*
%TD*%
D18*
%TO.C,REF\u002A\u002A*%
X176091000Y-60899000D03*
X176091000Y-57599000D03*
X180991000Y-57599000D03*
X180991000Y-60899000D03*
%TD*%
D17*
%TO.C,*%
X103536000Y-101250000D03*
%TD*%
D16*
%TO.C,REF\u002A\u002A*%
X119491000Y-55334000D03*
X120591000Y-55334000D03*
X120591000Y-57164000D03*
X119491000Y-57164000D03*
%TD*%
D18*
%TO.C,REF\u002A\u002A*%
X156591000Y-96899000D03*
X156591000Y-93599000D03*
X161491000Y-93599000D03*
X161491000Y-96899000D03*
%TD*%
D17*
%TO.C,*%
X100546000Y-81748000D03*
%TD*%
%TO.C,*%
X178536000Y-63250000D03*
%TD*%
%TO.C,*%
X142535000Y-57250000D03*
%TD*%
D19*
%TO.C,REF\u002A\u002A*%
X76710000Y-71430000D03*
%TD*%
D17*
%TO.C,*%
X136556000Y-76743000D03*
%TD*%
%TO.C,*%
X117046000Y-71748000D03*
%TD*%
%TO.C,*%
X139546000Y-76748000D03*
%TD*%
%TO.C,*%
X120036000Y-52250000D03*
%TD*%
%TO.C,*%
X100536000Y-93250000D03*
%TD*%
%TO.C,*%
X100536000Y-101250000D03*
%TD*%
D16*
%TO.C,REF\u002A\u002A*%
X101091000Y-78664000D03*
X99991000Y-78664000D03*
X99991000Y-76834000D03*
X101091000Y-76834000D03*
%TD*%
D17*
%TO.C,*%
X123051000Y-71753000D03*
%TD*%
%TO.C,*%
X162051000Y-71753000D03*
%TD*%
D16*
%TO.C,REF\u002A\u002A*%
X120591000Y-76664000D03*
X119491000Y-76664000D03*
X119491000Y-74834000D03*
X120591000Y-74834000D03*
%TD*%
D17*
%TO.C,*%
X120036000Y-60250000D03*
%TD*%
%TO.C,*%
X156056000Y-79743000D03*
%TD*%
D18*
%TO.C,REF\u002A\u002A*%
X176091000Y-99904000D03*
X176091000Y-96604000D03*
X180991000Y-96604000D03*
X180991000Y-99904000D03*
%TD*%
D17*
%TO.C,*%
X123036000Y-99245000D03*
%TD*%
D18*
%TO.C,REF\u002A\u002A*%
X137091000Y-93899000D03*
X137091000Y-90599000D03*
X141991000Y-90599000D03*
X141991000Y-93899000D03*
%TD*%
D17*
%TO.C,*%
X162026000Y-91255000D03*
%TD*%
%TO.C,*%
X136541000Y-88250000D03*
%TD*%
D19*
%TO.C,REF\u002A\u002A*%
X90210000Y-71430000D03*
%TD*%
D17*
%TO.C,*%
X97556000Y-81743000D03*
%TD*%
%TO.C,*%
X181536000Y-63250000D03*
%TD*%
%TO.C,*%
X142525000Y-49255000D03*
%TD*%
%TO.C,*%
X136540000Y-49250000D03*
%TD*%
D21*
%TO.C,REF\u002A\u002A*%
X71855000Y-122675000D03*
%TD*%
D17*
%TO.C,*%
X162036000Y-99250000D03*
%TD*%
D18*
%TO.C,REF\u002A\u002A*%
X156591000Y-96899000D03*
X156591000Y-93599000D03*
X161491000Y-93599000D03*
X161491000Y-96899000D03*
%TD*%
D11*
%TO.C,REF\u002A\u002A*%
X120580000Y-130070000D03*
X113780000Y-130070000D03*
D20*
X119680000Y-127320000D03*
X117180000Y-127320000D03*
X114680000Y-127320000D03*
%TD*%
D17*
%TO.C,*%
X159031000Y-60245000D03*
%TD*%
%TO.C,*%
X178536000Y-55250000D03*
%TD*%
D18*
%TO.C,REF\u002A\u002A*%
X122491000Y-74099000D03*
X122491000Y-77399000D03*
X117591000Y-77399000D03*
X117591000Y-74099000D03*
%TD*%
D17*
%TO.C,*%
X123026000Y-52255000D03*
%TD*%
%TO.C,*%
X139535000Y-49250000D03*
%TD*%
%TO.C,*%
X97546000Y-73748000D03*
%TD*%
%TO.C,*%
X120046000Y-71748000D03*
%TD*%
%TO.C,*%
X178536000Y-63250000D03*
%TD*%
%TO.C,*%
X159036000Y-91250000D03*
%TD*%
%TO.C,*%
X156031000Y-99245000D03*
%TD*%
D16*
%TO.C,REF\u002A\u002A*%
X119491000Y-94329000D03*
X120591000Y-94329000D03*
X120591000Y-96159000D03*
X119491000Y-96159000D03*
%TD*%
%TO.C,REF\u002A\u002A*%
X138990000Y-52334000D03*
X140090000Y-52334000D03*
X140090000Y-54164000D03*
X138990000Y-54164000D03*
%TD*%
D17*
%TO.C,*%
X159036000Y-99250000D03*
%TD*%
%TO.C,*%
X181541000Y-82748000D03*
%TD*%
D19*
%TO.C,REF\u002A\u002A*%
X79715000Y-71430000D03*
%TD*%
D17*
%TO.C,*%
X103541000Y-81748000D03*
%TD*%
%TO.C,*%
X162041000Y-79748000D03*
%TD*%
%TO.C,*%
X136546000Y-68748000D03*
%TD*%
%TO.C,*%
X139535000Y-57250000D03*
%TD*%
%TO.C,*%
X181526000Y-55255000D03*
%TD*%
%TO.C,*%
X100546000Y-81748000D03*
%TD*%
%TO.C,*%
X142535000Y-57250000D03*
%TD*%
%TO.C,*%
X100536000Y-54250000D03*
%TD*%
%TO.C,*%
X159046000Y-79748000D03*
%TD*%
%TO.C,*%
X100536000Y-54250000D03*
%TD*%
%TO.C,*%
X136540000Y-49250000D03*
%TD*%
%TO.C,*%
X120036000Y-60250000D03*
%TD*%
D11*
%TO.C,REF\u002A\u002A*%
X104580000Y-130070000D03*
X97780000Y-130070000D03*
D20*
X103680000Y-127320000D03*
X101180000Y-127320000D03*
X98680000Y-127320000D03*
%TD*%
D17*
%TO.C,*%
X142551000Y-68753000D03*
%TD*%
%TO.C,*%
X162031000Y-60245000D03*
%TD*%
D16*
%TO.C,REF\u002A\u002A*%
X140091000Y-73664000D03*
X138991000Y-73664000D03*
X138991000Y-71834000D03*
X140091000Y-71834000D03*
%TD*%
D17*
%TO.C,*%
X159046000Y-79748000D03*
%TD*%
%TO.C,*%
X120046000Y-71748000D03*
%TD*%
%TO.C,*%
X123051000Y-71753000D03*
%TD*%
D18*
%TO.C,REF\u002A\u002A*%
X117591000Y-96894000D03*
X117591000Y-93594000D03*
X122491000Y-93594000D03*
X122491000Y-96894000D03*
%TD*%
D17*
%TO.C,*%
X117031000Y-60245000D03*
%TD*%
%TO.C,*%
X117031000Y-99240000D03*
%TD*%
%TO.C,*%
X178536000Y-94255000D03*
%TD*%
%TO.C,*%
X175531000Y-63245000D03*
%TD*%
D21*
%TO.C,REF\u002A\u002A*%
X71855000Y-120675000D03*
%TD*%
%TO.C,REF\u002A\u002A*%
X71855000Y-114675000D03*
%TD*%
D17*
%TO.C,*%
X139535000Y-49250000D03*
%TD*%
%TO.C,*%
X156026000Y-60240000D03*
%TD*%
%TO.C,*%
X181536000Y-63250000D03*
%TD*%
D18*
%TO.C,REF\u002A\u002A*%
X156586000Y-57894000D03*
X156586000Y-54594000D03*
X161486000Y-54594000D03*
X161486000Y-57894000D03*
%TD*%
D16*
%TO.C,REF\u002A\u002A*%
X138991000Y-91334000D03*
X140091000Y-91334000D03*
X140091000Y-93164000D03*
X138991000Y-93164000D03*
%TD*%
D17*
%TO.C,*%
X97531000Y-62245000D03*
%TD*%
%TO.C,*%
X175541000Y-55250000D03*
%TD*%
%TO.C,*%
X175546000Y-74748000D03*
%TD*%
%TO.C,*%
X178546000Y-82748000D03*
%TD*%
D16*
%TO.C,REF\u002A\u002A*%
X119491000Y-55334000D03*
X120591000Y-55334000D03*
X120591000Y-57164000D03*
X119491000Y-57164000D03*
%TD*%
D17*
%TO.C,*%
X159031000Y-60245000D03*
%TD*%
%TO.C,*%
X120046000Y-71748000D03*
%TD*%
%TO.C,*%
X136531000Y-96245000D03*
%TD*%
%TO.C,*%
X175531000Y-63245000D03*
%TD*%
%TO.C,*%
X142551000Y-68753000D03*
%TD*%
%TO.C,*%
X162021000Y-52250000D03*
%TD*%
%TO.C,*%
X123041000Y-79748000D03*
%TD*%
D18*
%TO.C,REF\u002A\u002A*%
X141991000Y-71099000D03*
X141991000Y-74399000D03*
X137091000Y-74399000D03*
X137091000Y-71099000D03*
%TD*%
D17*
%TO.C,*%
X120036000Y-99245000D03*
%TD*%
D18*
%TO.C,REF\u002A\u002A*%
X98091000Y-59899000D03*
X98091000Y-56599000D03*
X102991000Y-56599000D03*
X102991000Y-59899000D03*
%TD*%
D17*
%TO.C,*%
X181526000Y-94260000D03*
%TD*%
D16*
%TO.C,REF\u002A\u002A*%
X158491000Y-94334000D03*
X159591000Y-94334000D03*
X159591000Y-96164000D03*
X158491000Y-96164000D03*
%TD*%
D18*
%TO.C,REF\u002A\u002A*%
X161491000Y-74099000D03*
X161491000Y-77399000D03*
X156591000Y-77399000D03*
X156591000Y-74099000D03*
%TD*%
D17*
%TO.C,*%
X142536000Y-96250000D03*
%TD*%
D19*
%TO.C,REF\u002A\u002A*%
X76710000Y-49940000D03*
%TD*%
D21*
%TO.C,REF\u002A\u002A*%
X71855000Y-116675000D03*
%TD*%
D17*
%TO.C,*%
X139536000Y-96250000D03*
%TD*%
%TO.C,*%
X139546000Y-68748000D03*
%TD*%
%TO.C,*%
X175556000Y-82743000D03*
%TD*%
D18*
%TO.C,REF\u002A\u002A*%
X156586000Y-57894000D03*
X156586000Y-54594000D03*
X161486000Y-54594000D03*
X161486000Y-57894000D03*
%TD*%
D17*
%TO.C,*%
X103551000Y-73753000D03*
%TD*%
%TO.C,*%
X162031000Y-60245000D03*
%TD*%
D18*
%TO.C,REF\u002A\u002A*%
X122491000Y-74099000D03*
X122491000Y-77399000D03*
X117591000Y-77399000D03*
X117591000Y-74099000D03*
%TD*%
D17*
%TO.C,*%
X97541000Y-54250000D03*
%TD*%
D18*
%TO.C,REF\u002A\u002A*%
X102991000Y-76099000D03*
X102991000Y-79399000D03*
X98091000Y-79399000D03*
X98091000Y-76099000D03*
%TD*%
D17*
%TO.C,*%
X100546000Y-73748000D03*
%TD*%
%TO.C,*%
X103526000Y-93255000D03*
%TD*%
%TO.C,*%
X120036000Y-52250000D03*
%TD*%
%TO.C,*%
X156046000Y-71748000D03*
%TD*%
%TO.C,*%
X178546000Y-74748000D03*
%TD*%
%TO.C,*%
X139546000Y-76748000D03*
%TD*%
%TO.C,*%
X117041000Y-91245000D03*
%TD*%
D18*
%TO.C,REF\u002A\u002A*%
X180991000Y-77099000D03*
X180991000Y-80399000D03*
X176091000Y-80399000D03*
X176091000Y-77099000D03*
%TD*%
D17*
%TO.C,*%
X117031000Y-60245000D03*
%TD*%
%TO.C,*%
X162026000Y-91255000D03*
%TD*%
%TO.C,*%
X136546000Y-68748000D03*
%TD*%
%TO.C,*%
X123026000Y-52255000D03*
%TD*%
D19*
%TO.C,REF\u002A\u002A*%
X87205000Y-71430000D03*
%TD*%
D17*
%TO.C,*%
X178546000Y-82748000D03*
%TD*%
%TO.C,*%
X162041000Y-79748000D03*
%TD*%
D18*
%TO.C,REF\u002A\u002A*%
X137090000Y-54899000D03*
X137090000Y-51599000D03*
X141990000Y-51599000D03*
X141990000Y-54899000D03*
%TD*%
D17*
%TO.C,*%
X142525000Y-49255000D03*
%TD*%
%TO.C,*%
X159031000Y-52245000D03*
%TD*%
D18*
%TO.C,REF\u002A\u002A*%
X141991000Y-71099000D03*
X141991000Y-74399000D03*
X137091000Y-74399000D03*
X137091000Y-71099000D03*
%TD*%
%TO.C,REF\u002A\u002A*%
X98091000Y-98899000D03*
X98091000Y-95599000D03*
X102991000Y-95599000D03*
X102991000Y-98899000D03*
%TD*%
D17*
%TO.C,*%
X181536000Y-102255000D03*
%TD*%
%TO.C,*%
X103551000Y-73753000D03*
%TD*%
%TO.C,*%
X117041000Y-52250000D03*
%TD*%
D16*
%TO.C,REF\u002A\u002A*%
X99991000Y-96334000D03*
X101091000Y-96334000D03*
X101091000Y-98164000D03*
X99991000Y-98164000D03*
%TD*%
D17*
%TO.C,*%
X156026000Y-60240000D03*
%TD*%
%TO.C,*%
X120046000Y-79748000D03*
%TD*%
D16*
%TO.C,REF\u002A\u002A*%
X159591000Y-76664000D03*
X158491000Y-76664000D03*
X158491000Y-74834000D03*
X159591000Y-74834000D03*
%TD*%
D17*
%TO.C,*%
X100546000Y-73748000D03*
%TD*%
%TO.C,*%
X142536000Y-96250000D03*
%TD*%
%TO.C,*%
X97556000Y-81743000D03*
%TD*%
%TO.C,*%
X123026000Y-91250000D03*
%TD*%
%TO.C,*%
X136541000Y-88250000D03*
%TD*%
D16*
%TO.C,REF\u002A\u002A*%
X101091000Y-78664000D03*
X99991000Y-78664000D03*
X99991000Y-76834000D03*
X101091000Y-76834000D03*
%TD*%
D17*
%TO.C,*%
X175541000Y-94255000D03*
%TD*%
D18*
%TO.C,REF\u002A\u002A*%
X137091000Y-93899000D03*
X137091000Y-90599000D03*
X141991000Y-90599000D03*
X141991000Y-93899000D03*
%TD*%
D16*
%TO.C,REF\u002A\u002A*%
X99991000Y-57334000D03*
X101091000Y-57334000D03*
X101091000Y-59164000D03*
X99991000Y-59164000D03*
%TD*%
D18*
%TO.C,REF\u002A\u002A*%
X137090000Y-54899000D03*
X137090000Y-51599000D03*
X141990000Y-51599000D03*
X141990000Y-54899000D03*
%TD*%
D17*
%TO.C,*%
X139536000Y-96250000D03*
%TD*%
%TO.C,*%
X181536000Y-102255000D03*
%TD*%
%TO.C,*%
X123026000Y-91250000D03*
%TD*%
%TO.C,*%
X123041000Y-79748000D03*
%TD*%
%TO.C,*%
X139546000Y-68748000D03*
%TD*%
%TO.C,*%
X162036000Y-99250000D03*
%TD*%
D16*
%TO.C,REF\u002A\u002A*%
X158486000Y-55329000D03*
X159586000Y-55329000D03*
X159586000Y-57159000D03*
X158486000Y-57159000D03*
%TD*%
D17*
%TO.C,*%
X159046000Y-71748000D03*
%TD*%
%TO.C,*%
X178536000Y-102255000D03*
%TD*%
%TO.C,*%
X156046000Y-71748000D03*
%TD*%
%TO.C,*%
X178536000Y-94255000D03*
%TD*%
%TO.C,*%
X142541000Y-76748000D03*
%TD*%
D16*
%TO.C,REF\u002A\u002A*%
X179091000Y-79664000D03*
X177991000Y-79664000D03*
X177991000Y-77834000D03*
X179091000Y-77834000D03*
%TD*%
D17*
%TO.C,*%
X142526000Y-88255000D03*
%TD*%
%TO.C,*%
X97541000Y-93250000D03*
%TD*%
%TO.C,*%
X159031000Y-52245000D03*
%TD*%
%TO.C,*%
X181526000Y-55255000D03*
%TD*%
%TO.C,*%
X103536000Y-62250000D03*
%TD*%
%TO.C,*%
X117031000Y-99240000D03*
%TD*%
%TO.C,*%
X175541000Y-55250000D03*
%TD*%
%TO.C,*%
X97546000Y-73748000D03*
%TD*%
D18*
%TO.C,REF\u002A\u002A*%
X161491000Y-74099000D03*
X161491000Y-77399000D03*
X156591000Y-77399000D03*
X156591000Y-74099000D03*
%TD*%
D17*
%TO.C,*%
X156041000Y-91250000D03*
%TD*%
%TO.C,*%
X100536000Y-62250000D03*
%TD*%
%TO.C,*%
X181551000Y-74753000D03*
%TD*%
%TO.C,*%
X178536000Y-55250000D03*
%TD*%
D16*
%TO.C,REF\u002A\u002A*%
X158491000Y-94334000D03*
X159591000Y-94334000D03*
X159591000Y-96164000D03*
X158491000Y-96164000D03*
%TD*%
D17*
%TO.C,*%
X120036000Y-91245000D03*
%TD*%
%TO.C,*%
X123051000Y-71753000D03*
%TD*%
%TO.C,*%
X139535000Y-57250000D03*
%TD*%
D16*
%TO.C,REF\u002A\u002A*%
X177991000Y-58334000D03*
X179091000Y-58334000D03*
X179091000Y-60164000D03*
X177991000Y-60164000D03*
%TD*%
%TO.C,REF\u002A\u002A*%
X177991000Y-97339000D03*
X179091000Y-97339000D03*
X179091000Y-99169000D03*
X177991000Y-99169000D03*
%TD*%
D17*
%TO.C,*%
X181526000Y-94260000D03*
%TD*%
D21*
%TO.C,REF\u002A\u002A*%
X71855000Y-118675000D03*
%TD*%
D18*
%TO.C,REF\u002A\u002A*%
X176091000Y-60899000D03*
X176091000Y-57599000D03*
X180991000Y-57599000D03*
X180991000Y-60899000D03*
%TD*%
D17*
%TO.C,*%
X117056000Y-79743000D03*
%TD*%
%TO.C,*%
X162021000Y-52250000D03*
%TD*%
%TO.C,*%
X156056000Y-79743000D03*
%TD*%
D18*
%TO.C,REF\u002A\u002A*%
X117591000Y-57899000D03*
X117591000Y-54599000D03*
X122491000Y-54599000D03*
X122491000Y-57899000D03*
%TD*%
D17*
%TO.C,*%
X117046000Y-71748000D03*
%TD*%
%TO.C,*%
X181541000Y-82748000D03*
%TD*%
%TO.C,*%
X103526000Y-54255000D03*
%TD*%
%TO.C,*%
X97531000Y-62245000D03*
%TD*%
M02*
