M48
; DRILL file {KiCad 8.0.4+1} date 2024-08-17T00:02:31-0400
; FORMAT={-:-/ absolute / inch / decimal}
; #@! TF.CreationDate,2024-08-17T00:02:31-04:00
; #@! TF.GenerationSoftware,Kicad,Pcbnew,8.0.4+1
; #@! TF.FileFunction,Plated,1,2,PTH
FMAT,2
INCH
; #@! TA.AperFunction,Plated,PTH,ViaDrill
T1C0.0118
; #@! TA.AperFunction,Plated,PTH,ComponentDrill
T2C0.0390
%
G90
G05
T1
X2.9003Y-4.6255
X2.9128Y-4.4636
X2.9242Y-4.7232
X3.0394Y-4.9083
X3.26Y-2.813
X3.3368Y-2.7758
X3.3594Y-2.9839
X3.3865Y-4.8942
X3.452Y-4.8884
X3.6336Y-2.3536
X3.6921Y-2.1067
X3.7079Y-3.1917
X3.8024Y-2.2305
X3.805Y-3.1275
X3.8095Y-2.9974
X3.8486Y-2.2923
X3.8486Y-3.8278
X3.8561Y-2.0522
X3.889Y-2.54
X3.8917Y-2.185
X3.8917Y-3.7205
X3.8984Y-2.0774
X3.8984Y-3.6128
X3.9014Y-3.1655
X3.9032Y-3.0604
X3.9071Y-2.3998
X3.9071Y-3.9352
X3.9124Y-2.9742
X3.9203Y-2.2114
X3.9203Y-3.7469
X3.9305Y-2.2941
X3.9305Y-3.8295
X3.958Y-2.985
X3.9587Y-2.3693
X3.9587Y-3.9047
X3.9861Y-3.0602
X3.987Y-4.0754
X3.9963Y-3.1428
X4.0041Y-3.5594
X4.0042Y-2.38
X4.0042Y-3.9155
X4.0095Y-2.9545
X4.0134Y-2.2939
X4.0134Y-3.8293
X4.0152Y-2.1887
X4.0152Y-3.7242
X4.0156Y-5.1228
X4.0182Y-3.2769
X4.0249Y-3.1692
X4.0276Y-2.8143
X4.0605Y-3.3021
X4.068Y-3.0619
X4.0819Y-4.8801
X4.1075Y-3.8909
X4.108Y-2.3567
X4.1091Y-3.089
X4.3612Y-2.2809
X4.4439Y-3.7232
X4.4528Y-3.0843
X4.515Y-4.9319
X4.5735Y-3.0486
X4.5752Y-2.2004
X4.5752Y-3.7297
X4.578Y-4.9157
X4.5804Y-2.9181
X4.6163Y-2.2136
X4.6163Y-3.7488
X4.6238Y-1.9734
X4.6567Y-2.4612
X4.6567Y-3.9965
X4.6594Y-2.1063
X4.6594Y-3.6415
X4.6661Y-1.9986
X4.6661Y-3.5339
X4.6691Y-3.0868
X4.6691Y-3.0868
X4.6709Y-2.9816
X4.6709Y-2.9816
X4.6748Y-2.321
X4.6748Y-3.8563
X4.6801Y-2.8955
X4.6801Y-2.8955
X4.688Y-2.1327
X4.688Y-3.6679
X4.6982Y-2.2154
X4.6982Y-3.7506
X4.7257Y-2.9062
X4.7257Y-2.9062
X4.7264Y-2.2906
X4.7264Y-3.8258
X4.7538Y-2.9814
X4.7538Y-2.9814
X4.7621Y-4.862
X4.7641Y-3.0641
X4.7641Y-3.0641
X4.7719Y-3.4805
X4.7719Y-2.3013
X4.7719Y-3.8365
X4.7772Y-2.8757
X4.7772Y-2.8757
X4.7811Y-2.2152
X4.7811Y-3.7504
X4.7829Y-2.11
X4.7829Y-3.6452
X4.7859Y-3.1981
X4.7859Y-3.1981
X4.7926Y-3.0905
X4.7926Y-3.0905
X4.7954Y-2.7356
X4.7954Y-2.7356
X4.8282Y-3.2233
X4.8282Y-3.2233
X4.8357Y-2.9832
X4.8357Y-2.9832
X4.8756Y-2.277
X4.8763Y-3.8126
X4.8769Y-3.0016
X4.8787Y-2.1471
X5.0667Y-3.813
X5.1967Y-2.9856
X5.2045Y-2.0931
X5.341Y-2.9305
X5.3429Y-2.0766
X5.3429Y-3.611
X5.3443Y-2.8011
X5.384Y-2.0955
X5.3841Y-3.6309
X5.3915Y-1.8553
X5.3915Y-3.3907
X5.4244Y-2.3431
X5.4244Y-3.8785
X5.4271Y-1.9882
X5.4272Y-3.5236
X5.4338Y-1.8805
X5.4339Y-3.4159
X5.4369Y-2.9687
X5.4387Y-2.8635
X5.4425Y-2.2029
X5.4425Y-3.7384
X5.4478Y-2.7774
X5.4557Y-2.0146
X5.4557Y-3.55
X5.4659Y-2.0972
X5.4659Y-3.6327
X5.4934Y-2.7881
X5.4941Y-2.1724
X5.4941Y-3.7079
X5.5215Y-2.8633
X5.5318Y-2.946
X5.5396Y-2.1832
X5.5397Y-3.7186
X5.5449Y-2.7576
X5.5488Y-2.097
X5.5488Y-3.6325
X5.5506Y-1.9919
X5.5506Y-3.5273
X5.5536Y-3.08
X5.5603Y-2.9724
X5.5631Y-2.6174
X5.5959Y-3.1052
X5.6034Y-2.8651
X5.6427Y-2.1589
X5.6431Y-3.6945
X5.6446Y-2.9094
X5.6458Y-3.5664
X5.6468Y-2.0298
X5.8986Y-3.6404
X5.901Y-2.0939
X6.0254Y-3.0465
X6.1067Y-3.0467
X6.1104Y-2.1913
X6.1106Y-3.7368
X6.1122Y-2.9185
X6.1516Y-2.2134
X6.1518Y-3.749
X6.1591Y-1.9732
X6.1593Y-3.5089
X6.1919Y-2.461
X6.1921Y-3.9967
X6.1947Y-2.1061
X6.1949Y-3.6417
X6.2014Y-1.9984
X6.2016Y-3.5341
X6.2046Y-3.0868
X6.2064Y-2.9816
X6.2101Y-2.3208
X6.2103Y-3.8565
X6.2155Y-2.8955
X6.2232Y-2.1325
X6.2234Y-3.6681
X6.2335Y-2.2152
X6.2337Y-3.7508
X6.2611Y-2.9062
X6.2616Y-2.2904
X6.2618Y-3.826
X6.2893Y-2.9814
X6.2995Y-3.0641
X6.3072Y-2.3011
X6.3074Y-3.8367
X6.3127Y-2.8757
X6.3163Y-2.215
X6.3165Y-3.7506
X6.3181Y-2.1098
X6.3183Y-3.6454
X6.3213Y-3.1981
X6.328Y-3.0905
X6.3308Y-2.7356
X6.3637Y-3.2233
X6.3711Y-2.9832
X6.4108Y-2.2766
X6.4123Y-3.0089
X6.4133Y-3.8156
X6.4139Y-2.1473
X6.4141Y-3.6831
X6.4545Y-3.261
X6.6069Y-3.1081
X6.6921Y-2.2018
X6.6988Y-3.7957
X6.8764Y-3.1671
X6.8783Y-2.301
X6.8783Y-3.8486
X6.8796Y-3.0389
X6.9195Y-2.3317
X6.9195Y-3.8673
X6.927Y-2.0915
X6.927Y-3.6272
X6.9598Y-2.5793
X6.9598Y-4.115
X6.9626Y-2.2244
X6.9626Y-3.76
X6.9693Y-2.1167
X6.9693Y-3.6524
X6.9723Y-3.2049
X6.9741Y-3.0997
X6.978Y-2.4392
X6.978Y-3.9748
X6.9832Y-3.0136
X6.9911Y-2.2508
X6.9911Y-3.7864
X7.0014Y-2.3335
X7.0014Y-3.8691
X7.0288Y-3.0243
X7.0295Y-2.4087
X7.0295Y-3.9443
X7.057Y-3.0995
X7.0672Y-3.1822
X7.0751Y-2.4194
X7.0751Y-3.955
X7.0804Y-2.9938
X7.0843Y-2.3333
X7.0843Y-3.8689
X7.0861Y-2.2281
X7.0861Y-3.7637
X7.0891Y-3.3163
X7.0957Y-3.2086
X7.0985Y-2.8537
X7.1314Y-3.3415
X7.1389Y-3.1013
X7.1752Y-3.9284
X7.18Y-3.1531
X7.1815Y-2.2654
X7.1824Y-3.802
X7.3659Y-3.9278
T2
X3.1882Y-3.0804
X3.1882Y-3.3804
X3.3063Y-3.0791
X3.3063Y-3.3791
X3.4244Y-3.0804
X3.4244Y-3.3804
X3.5425Y-3.0804
X3.5425Y-3.3804
X4.4621Y-4.7272
X4.7621Y-4.7272
M30
