%TF.GenerationSoftware,KiCad,Pcbnew,8.0.4+1*%
%TF.CreationDate,2024-08-17T00:02:33-04:00*%
%TF.ProjectId,iyada_baseplate,69796164-615f-4626-9173-65706c617465,rev?*%
%TF.SameCoordinates,Original*%
%TF.FileFunction,Drillmap*%
%TF.FilePolarity,Positive*%
%FSLAX45Y45*%
G04 Gerber Fmt 4.5, Leading zero omitted, Abs format (unit mm)*
G04 Created by KiCad (PCBNEW 8.0.4+1) date 2024-08-17 00:02:33*
%MOMM*%
%LPD*%
G01*
G04 APERTURE LIST*
%ADD10C,0.050000*%
%ADD11C,0.200000*%
%ADD12C,0.100000*%
G04 APERTURE END LIST*
D10*
X16633387Y-4293561D02*
X11295900Y-4293500D01*
X20100000Y-14201000D02*
X22050419Y-14777146D01*
X11258261Y-4297183D02*
X7184700Y-4851200D01*
X23108200Y-10548429D02*
G75*
G02*
X23067502Y-10484000I30650J64429D01*
G01*
X22613000Y-13670000D02*
X23140624Y-11903940D01*
X22939600Y-4676700D02*
X20923139Y-4676883D01*
X23140624Y-11903940D02*
X23138642Y-10606705D01*
X11753000Y-13195000D02*
X18209000Y-13820000D01*
X6973858Y-12548705D02*
G75*
G02*
X7014557Y-12484274I71342J5D01*
G01*
X23066154Y-9234000D02*
G75*
G02*
X23106853Y-9169571I71346J0D01*
G01*
X7003300Y-11111571D02*
G75*
G02*
X7043998Y-11176000I-30650J-64429D01*
G01*
X22613000Y-13670000D02*
X22287630Y-14623099D01*
X18209000Y-13820000D02*
X20100000Y-14201000D01*
X22287630Y-14623099D02*
G75*
G02*
X22050418Y-14777150I-195630J41579D01*
G01*
X7044500Y-11426000D02*
X7045000Y-12426000D01*
X6984700Y-5051200D02*
G75*
G02*
X7184700Y-4851200I200000J0D01*
G01*
X23066500Y-9234000D02*
X23067000Y-9484000D01*
X6972858Y-11053295D02*
X6984700Y-5051200D01*
X23108200Y-10548429D02*
G75*
G02*
X23138637Y-10606705I-40560J-58271D01*
G01*
X11258261Y-4297183D02*
G75*
G02*
X11295900Y-4293499I35989J-173577D01*
G01*
X22939600Y-4676700D02*
G75*
G02*
X23139600Y-4876700I0J-200000D01*
G01*
X7172229Y-13188821D02*
G75*
G02*
X6972229Y-12988821I1J200001D01*
G01*
X20923139Y-4676883D02*
X16671026Y-4297245D01*
X7044000Y-11176000D02*
X7044500Y-11426000D01*
X7172229Y-13188821D02*
X11753000Y-13195000D01*
X7045000Y-12426000D02*
G75*
G02*
X7014558Y-12484276I-71000J0D01*
G01*
X23067500Y-10484000D02*
X23067000Y-9484000D01*
X6973858Y-12548705D02*
X6972229Y-12988821D01*
X23137295Y-9111295D02*
X23139600Y-4876700D01*
X7003300Y-11111571D02*
G75*
G02*
X6972863Y-11053295I40560J58271D01*
G01*
X23137295Y-9111295D02*
G75*
G02*
X23106854Y-9169573I-70995J-5D01*
G01*
X16633387Y-4293561D02*
G75*
G02*
X16671026Y-4297245I1653J-177259D01*
G01*
D11*
D12*
X7351750Y-11733750D02*
X7381750Y-11763750D01*
X7381750Y-11733750D02*
X7351750Y-11763750D01*
X7383500Y-11322500D02*
X7413500Y-11352500D01*
X7413500Y-11322500D02*
X7383500Y-11352500D01*
X7412500Y-11982000D02*
X7442500Y-12012000D01*
X7442500Y-11982000D02*
X7412500Y-12012000D01*
X7705000Y-12452000D02*
X7735000Y-12482000D01*
X7735000Y-12452000D02*
X7705000Y-12482000D01*
X8265500Y-7130000D02*
X8295500Y-7160000D01*
X8295500Y-7130000D02*
X8265500Y-7160000D01*
X8460500Y-7035500D02*
X8490500Y-7065500D01*
X8490500Y-7035500D02*
X8460500Y-7065500D01*
X8518000Y-7564000D02*
X8548000Y-7594000D01*
X8548000Y-7564000D02*
X8518000Y-7594000D01*
X8586750Y-12416250D02*
X8616750Y-12446250D01*
X8616750Y-12416250D02*
X8586750Y-12446250D01*
X8753000Y-12401500D02*
X8783000Y-12431500D01*
X8783000Y-12401500D02*
X8753000Y-12431500D01*
X9214250Y-5963250D02*
X9244250Y-5993250D01*
X9244250Y-5963250D02*
X9214250Y-5993250D01*
X9363000Y-5336000D02*
X9393000Y-5366000D01*
X9393000Y-5336000D02*
X9363000Y-5366000D01*
X9403000Y-8092000D02*
X9433000Y-8122000D01*
X9433000Y-8092000D02*
X9403000Y-8122000D01*
X9643100Y-5650400D02*
X9673100Y-5680400D01*
X9673100Y-5650400D02*
X9643100Y-5680400D01*
X9649600Y-7928900D02*
X9679600Y-7958900D01*
X9679600Y-7928900D02*
X9649600Y-7958900D01*
X9661100Y-7598400D02*
X9691100Y-7628400D01*
X9691100Y-7598400D02*
X9661100Y-7628400D01*
X9760500Y-5807500D02*
X9790500Y-5837500D01*
X9790500Y-5807500D02*
X9760500Y-5837500D01*
X9760500Y-9707500D02*
X9790500Y-9737500D01*
X9790500Y-9707500D02*
X9760500Y-9737500D01*
X9779500Y-5197500D02*
X9809500Y-5227500D01*
X9809500Y-5197500D02*
X9779500Y-5227500D01*
X9863000Y-6436500D02*
X9893000Y-6466500D01*
X9893000Y-6436500D02*
X9863000Y-6466500D01*
X9870000Y-5535000D02*
X9900000Y-5565000D01*
X9900000Y-5535000D02*
X9870000Y-5565000D01*
X9870000Y-9435000D02*
X9900000Y-9465000D01*
X9900000Y-9435000D02*
X9870000Y-9465000D01*
X9887000Y-5261500D02*
X9917000Y-5291500D01*
X9917000Y-5261500D02*
X9887000Y-5291500D01*
X9887000Y-9161500D02*
X9917000Y-9191500D01*
X9917000Y-9161500D02*
X9887000Y-9191500D01*
X9894600Y-8025400D02*
X9924600Y-8055400D01*
X9924600Y-8025400D02*
X9894600Y-8055400D01*
X9899200Y-7758300D02*
X9929200Y-7788300D01*
X9929200Y-7758300D02*
X9899200Y-7788300D01*
X9909050Y-6080450D02*
X9939050Y-6110450D01*
X9939050Y-6080450D02*
X9909050Y-6110450D01*
X9909050Y-9980450D02*
X9939050Y-10010450D01*
X9939050Y-9980450D02*
X9909050Y-10010450D01*
X9922450Y-7539550D02*
X9952450Y-7569550D01*
X9952450Y-7539550D02*
X9922450Y-7569550D01*
X9942500Y-5602000D02*
X9972500Y-5632000D01*
X9972500Y-5602000D02*
X9942500Y-5632000D01*
X9942500Y-9502000D02*
X9972500Y-9532000D01*
X9972500Y-9502000D02*
X9942500Y-9532000D01*
X9968500Y-5812000D02*
X9998500Y-5842000D01*
X9998500Y-5812000D02*
X9968500Y-5842000D01*
X9968500Y-9712000D02*
X9998500Y-9742000D01*
X9998500Y-9712000D02*
X9968500Y-9742000D01*
X10038200Y-7566800D02*
X10068200Y-7596800D01*
X10068200Y-7566800D02*
X10038200Y-7596800D01*
X10040000Y-6003000D02*
X10070000Y-6033000D01*
X10070000Y-6003000D02*
X10040000Y-6033000D01*
X10040000Y-9903000D02*
X10070000Y-9933000D01*
X10070000Y-9903000D02*
X10040000Y-9933000D01*
X10109700Y-7757800D02*
X10139700Y-7787800D01*
X10139700Y-7757800D02*
X10109700Y-7787800D01*
X10112100Y-10336500D02*
X10142100Y-10366500D01*
X10142100Y-10336500D02*
X10112100Y-10366500D01*
X10135700Y-7967800D02*
X10165700Y-7997800D01*
X10165700Y-7967800D02*
X10135700Y-7997800D01*
X10155500Y-9026000D02*
X10185500Y-9056000D01*
X10185500Y-9026000D02*
X10155500Y-9056000D01*
X10155750Y-6030250D02*
X10185750Y-6060250D01*
X10185750Y-6030250D02*
X10155750Y-6060250D01*
X10155750Y-9930250D02*
X10185750Y-9960250D01*
X10185750Y-9930250D02*
X10155750Y-9960250D01*
X10169150Y-7489350D02*
X10199150Y-7519350D01*
X10199150Y-7489350D02*
X10169150Y-7519350D01*
X10179000Y-5811500D02*
X10209000Y-5841500D01*
X10209000Y-5811500D02*
X10179000Y-5841500D01*
X10179000Y-9711500D02*
X10209000Y-9741500D01*
X10209000Y-9711500D02*
X10179000Y-9741500D01*
X10183600Y-5544400D02*
X10213600Y-5574400D01*
X10213600Y-5544400D02*
X10183600Y-5574400D01*
X10183600Y-9444400D02*
X10213600Y-9474400D01*
X10213600Y-9444400D02*
X10183600Y-9474400D01*
X10184500Y-12997000D02*
X10214500Y-13027000D01*
X10214500Y-12997000D02*
X10184500Y-13027000D01*
X10191200Y-8308300D02*
X10221200Y-8338300D01*
X10221200Y-8308300D02*
X10191200Y-8338300D01*
X10208200Y-8034800D02*
X10238200Y-8064800D01*
X10238200Y-8034800D02*
X10208200Y-8064800D01*
X10215200Y-7133300D02*
X10245200Y-7163300D01*
X10245200Y-7133300D02*
X10215200Y-7163300D01*
X10298700Y-8372300D02*
X10328700Y-8402300D01*
X10328700Y-8372300D02*
X10298700Y-8402300D01*
X10317700Y-7762300D02*
X10347700Y-7792300D01*
X10347700Y-7762300D02*
X10317700Y-7792300D01*
X10353000Y-12380500D02*
X10383000Y-12410500D01*
X10383000Y-12380500D02*
X10353000Y-12410500D01*
X10418000Y-9868000D02*
X10448000Y-9898000D01*
X10448000Y-9868000D02*
X10418000Y-9898000D01*
X10419400Y-5971100D02*
X10449400Y-6001100D01*
X10449400Y-5971100D02*
X10419400Y-6001100D01*
X10422200Y-7831000D02*
X10452200Y-7861000D01*
X10452200Y-7831000D02*
X10422200Y-7861000D01*
X11062500Y-5778500D02*
X11092500Y-5808500D01*
X11092500Y-5778500D02*
X11062500Y-5808500D01*
X11272500Y-9442000D02*
X11302500Y-9472000D01*
X11302500Y-9442000D02*
X11272500Y-9472000D01*
X11295000Y-7819000D02*
X11325000Y-7849000D01*
X11325000Y-7819000D02*
X11295000Y-7849000D01*
X11453000Y-12512000D02*
X11483000Y-12542000D01*
X11483000Y-12512000D02*
X11453000Y-12542000D01*
X11601600Y-7728400D02*
X11631600Y-7758400D01*
X11631600Y-7728400D02*
X11601600Y-7758400D01*
X11606000Y-5574000D02*
X11636000Y-5604000D01*
X11636000Y-5574000D02*
X11606000Y-5604000D01*
X11606000Y-9458500D02*
X11636000Y-9488500D01*
X11636000Y-9458500D02*
X11606000Y-9488500D01*
X11613000Y-12471000D02*
X11643000Y-12501000D01*
X11643000Y-12471000D02*
X11613000Y-12501000D01*
X11619100Y-7396900D02*
X11649100Y-7426900D01*
X11649100Y-7396900D02*
X11619100Y-7426900D01*
X11710500Y-5607500D02*
X11740500Y-5637500D01*
X11740500Y-5607500D02*
X11710500Y-5637500D01*
X11710500Y-9507000D02*
X11740500Y-9537000D01*
X11740500Y-9507000D02*
X11710500Y-9537000D01*
X11729500Y-4997500D02*
X11759500Y-5027500D01*
X11759500Y-4997500D02*
X11729500Y-5027500D01*
X11813000Y-6236500D02*
X11843000Y-6266500D01*
X11843000Y-6236500D02*
X11813000Y-6266500D01*
X11813000Y-10136000D02*
X11843000Y-10166000D01*
X11843000Y-10136000D02*
X11813000Y-10166000D01*
X11820000Y-5335000D02*
X11850000Y-5365000D01*
X11850000Y-5335000D02*
X11820000Y-5365000D01*
X11820000Y-9234500D02*
X11850000Y-9264500D01*
X11850000Y-9234500D02*
X11820000Y-9264500D01*
X11837000Y-5061500D02*
X11867000Y-5091500D01*
X11867000Y-5061500D02*
X11837000Y-5091500D01*
X11837000Y-8961000D02*
X11867000Y-8991000D01*
X11867000Y-8961000D02*
X11837000Y-8991000D01*
X11844600Y-7825400D02*
X11874600Y-7855400D01*
X11874600Y-7825400D02*
X11844600Y-7855400D01*
X11844600Y-7825400D02*
X11874600Y-7855400D01*
X11874600Y-7825400D02*
X11844600Y-7855400D01*
X11849200Y-7558300D02*
X11879200Y-7588300D01*
X11879200Y-7558300D02*
X11849200Y-7588300D01*
X11849200Y-7558300D02*
X11879200Y-7588300D01*
X11879200Y-7558300D02*
X11849200Y-7588300D01*
X11859050Y-5880450D02*
X11889050Y-5910450D01*
X11889050Y-5880450D02*
X11859050Y-5910450D01*
X11859050Y-9779950D02*
X11889050Y-9809950D01*
X11889050Y-9779950D02*
X11859050Y-9809950D01*
X11872450Y-7339550D02*
X11902450Y-7369550D01*
X11902450Y-7339550D02*
X11872450Y-7369550D01*
X11872450Y-7339550D02*
X11902450Y-7369550D01*
X11902450Y-7339550D02*
X11872450Y-7369550D01*
X11892500Y-5402000D02*
X11922500Y-5432000D01*
X11922500Y-5402000D02*
X11892500Y-5432000D01*
X11892500Y-9301500D02*
X11922500Y-9331500D01*
X11922500Y-9301500D02*
X11892500Y-9331500D01*
X11918500Y-5612000D02*
X11948500Y-5642000D01*
X11948500Y-5612000D02*
X11918500Y-5642000D01*
X11918500Y-9511500D02*
X11948500Y-9541500D01*
X11948500Y-9511500D02*
X11918500Y-9541500D01*
X11988200Y-7366800D02*
X12018200Y-7396800D01*
X12018200Y-7366800D02*
X11988200Y-7396800D01*
X11988200Y-7366800D02*
X12018200Y-7396800D01*
X12018200Y-7366800D02*
X11988200Y-7396800D01*
X11990000Y-5803000D02*
X12020000Y-5833000D01*
X12020000Y-5803000D02*
X11990000Y-5833000D01*
X11990000Y-9702500D02*
X12020000Y-9732500D01*
X12020000Y-9702500D02*
X11990000Y-9732500D01*
X12059700Y-7557800D02*
X12089700Y-7587800D01*
X12089700Y-7557800D02*
X12059700Y-7587800D01*
X12059700Y-7557800D02*
X12089700Y-7587800D01*
X12089700Y-7557800D02*
X12059700Y-7587800D01*
X12080825Y-12334500D02*
X12110825Y-12364500D01*
X12110825Y-12334500D02*
X12080825Y-12364500D01*
X12085700Y-7767800D02*
X12115700Y-7797800D01*
X12115700Y-7767800D02*
X12085700Y-7797800D01*
X12085700Y-7767800D02*
X12115700Y-7797800D01*
X12115700Y-7767800D02*
X12085700Y-7797800D01*
X12105500Y-8825500D02*
X12135500Y-8855500D01*
X12135500Y-8825500D02*
X12105500Y-8855500D01*
X12105750Y-5830250D02*
X12135750Y-5860250D01*
X12135750Y-5830250D02*
X12105750Y-5860250D01*
X12105750Y-9729750D02*
X12135750Y-9759750D01*
X12135750Y-9729750D02*
X12105750Y-9759750D01*
X12119150Y-7289350D02*
X12149150Y-7319350D01*
X12149150Y-7289350D02*
X12119150Y-7319350D01*
X12119150Y-7289350D02*
X12149150Y-7319350D01*
X12149150Y-7289350D02*
X12119150Y-7319350D01*
X12129000Y-5611500D02*
X12159000Y-5641500D01*
X12159000Y-5611500D02*
X12129000Y-5641500D01*
X12129000Y-9511000D02*
X12159000Y-9541000D01*
X12159000Y-9511000D02*
X12129000Y-9541000D01*
X12133600Y-5344400D02*
X12163600Y-5374400D01*
X12163600Y-5344400D02*
X12133600Y-5374400D01*
X12133600Y-9243900D02*
X12163600Y-9273900D01*
X12163600Y-9243900D02*
X12133600Y-9273900D01*
X12141200Y-8108300D02*
X12171200Y-8138300D01*
X12171200Y-8108300D02*
X12141200Y-8138300D01*
X12141200Y-8108300D02*
X12171200Y-8138300D01*
X12171200Y-8108300D02*
X12141200Y-8138300D01*
X12158200Y-7834800D02*
X12188200Y-7864800D01*
X12188200Y-7834800D02*
X12158200Y-7864800D01*
X12158200Y-7834800D02*
X12188200Y-7864800D01*
X12188200Y-7834800D02*
X12158200Y-7864800D01*
X12165200Y-6933300D02*
X12195200Y-6963300D01*
X12195200Y-6933300D02*
X12165200Y-6963300D01*
X12165200Y-6933300D02*
X12195200Y-6963300D01*
X12195200Y-6933300D02*
X12165200Y-6963300D01*
X12248700Y-8172300D02*
X12278700Y-8202300D01*
X12278700Y-8172300D02*
X12248700Y-8202300D01*
X12248700Y-8172300D02*
X12278700Y-8202300D01*
X12278700Y-8172300D02*
X12248700Y-8202300D01*
X12267700Y-7562300D02*
X12297700Y-7592300D01*
X12297700Y-7562300D02*
X12267700Y-7592300D01*
X12267700Y-7562300D02*
X12297700Y-7592300D01*
X12297700Y-7562300D02*
X12267700Y-7592300D01*
X12368900Y-5768600D02*
X12398900Y-5798600D01*
X12398900Y-5768600D02*
X12368900Y-5798600D01*
X12370900Y-9669100D02*
X12400900Y-9699100D01*
X12400900Y-9669100D02*
X12370900Y-9699100D01*
X12372200Y-7609000D02*
X12402200Y-7639000D01*
X12402200Y-7609000D02*
X12372200Y-7639000D01*
X12376900Y-5438600D02*
X12406900Y-5468600D01*
X12406900Y-5438600D02*
X12376900Y-5468600D01*
X12854500Y-9670000D02*
X12884500Y-9700000D01*
X12884500Y-9670000D02*
X12854500Y-9700000D01*
X13184500Y-7568500D02*
X13214500Y-7598500D01*
X13214500Y-7568500D02*
X13184500Y-7598500D01*
X13204500Y-5301500D02*
X13234500Y-5331500D01*
X13234500Y-5301500D02*
X13204500Y-5331500D01*
X13551100Y-7428400D02*
X13581100Y-7458400D01*
X13581100Y-7428400D02*
X13551100Y-7458400D01*
X13555900Y-5259500D02*
X13585900Y-5289500D01*
X13585900Y-5259500D02*
X13555900Y-5289500D01*
X13556000Y-9157000D02*
X13586000Y-9187000D01*
X13586000Y-9157000D02*
X13556000Y-9187000D01*
X13559600Y-7099900D02*
X13589600Y-7129900D01*
X13589600Y-7099900D02*
X13559600Y-7129900D01*
X13660400Y-5307500D02*
X13690400Y-5337500D01*
X13690400Y-5307500D02*
X13660400Y-5337500D01*
X13660500Y-9207500D02*
X13690500Y-9237500D01*
X13690500Y-9207500D02*
X13660500Y-9237500D01*
X13679400Y-4697500D02*
X13709400Y-4727500D01*
X13709400Y-4697500D02*
X13679400Y-4727500D01*
X13679500Y-8597500D02*
X13709500Y-8627500D01*
X13709500Y-8597500D02*
X13679500Y-8627500D01*
X13762900Y-5936500D02*
X13792900Y-5966500D01*
X13792900Y-5936500D02*
X13762900Y-5966500D01*
X13763000Y-9836500D02*
X13793000Y-9866500D01*
X13793000Y-9836500D02*
X13763000Y-9866500D01*
X13769900Y-5035000D02*
X13799900Y-5065000D01*
X13799900Y-5035000D02*
X13769900Y-5065000D01*
X13770000Y-8935000D02*
X13800000Y-8965000D01*
X13800000Y-8935000D02*
X13770000Y-8965000D01*
X13786900Y-4761500D02*
X13816900Y-4791500D01*
X13816900Y-4761500D02*
X13786900Y-4791500D01*
X13787000Y-8661500D02*
X13817000Y-8691500D01*
X13817000Y-8661500D02*
X13787000Y-8691500D01*
X13794600Y-7525400D02*
X13824600Y-7555400D01*
X13824600Y-7525400D02*
X13794600Y-7555400D01*
X13799200Y-7258300D02*
X13829200Y-7288300D01*
X13829200Y-7258300D02*
X13799200Y-7288300D01*
X13808950Y-5580450D02*
X13838950Y-5610450D01*
X13838950Y-5580450D02*
X13808950Y-5610450D01*
X13809050Y-9480450D02*
X13839050Y-9510450D01*
X13839050Y-9480450D02*
X13809050Y-9510450D01*
X13822450Y-7039550D02*
X13852450Y-7069550D01*
X13852450Y-7039550D02*
X13822450Y-7069550D01*
X13842400Y-5102000D02*
X13872400Y-5132000D01*
X13872400Y-5102000D02*
X13842400Y-5132000D01*
X13842500Y-9002000D02*
X13872500Y-9032000D01*
X13872500Y-9002000D02*
X13842500Y-9032000D01*
X13868400Y-5312000D02*
X13898400Y-5342000D01*
X13898400Y-5312000D02*
X13868400Y-5342000D01*
X13868500Y-9212000D02*
X13898500Y-9242000D01*
X13898500Y-9212000D02*
X13868500Y-9242000D01*
X13938200Y-7066800D02*
X13968200Y-7096800D01*
X13968200Y-7066800D02*
X13938200Y-7096800D01*
X13939900Y-5503000D02*
X13969900Y-5533000D01*
X13969900Y-5503000D02*
X13939900Y-5533000D01*
X13940000Y-9403000D02*
X13970000Y-9433000D01*
X13970000Y-9403000D02*
X13940000Y-9433000D01*
X14009700Y-7257800D02*
X14039700Y-7287800D01*
X14039700Y-7257800D02*
X14009700Y-7287800D01*
X14035700Y-7467800D02*
X14065700Y-7497800D01*
X14065700Y-7467800D02*
X14035700Y-7497800D01*
X14055650Y-5530250D02*
X14085650Y-5560250D01*
X14085650Y-5530250D02*
X14055650Y-5560250D01*
X14055750Y-9430250D02*
X14085750Y-9460250D01*
X14085750Y-9430250D02*
X14055750Y-9460250D01*
X14069150Y-6989350D02*
X14099150Y-7019350D01*
X14099150Y-6989350D02*
X14069150Y-7019350D01*
X14078900Y-5311500D02*
X14108900Y-5341500D01*
X14108900Y-5311500D02*
X14078900Y-5341500D01*
X14079000Y-9211500D02*
X14109000Y-9241500D01*
X14109000Y-9211500D02*
X14079000Y-9241500D01*
X14083500Y-5044400D02*
X14113500Y-5074400D01*
X14113500Y-5044400D02*
X14083500Y-5074400D01*
X14083600Y-8944400D02*
X14113600Y-8974400D01*
X14113600Y-8944400D02*
X14083600Y-8974400D01*
X14091200Y-7808300D02*
X14121200Y-7838300D01*
X14121200Y-7808300D02*
X14091200Y-7838300D01*
X14108200Y-7534800D02*
X14138200Y-7564800D01*
X14138200Y-7534800D02*
X14108200Y-7564800D01*
X14115200Y-6633300D02*
X14145200Y-6663300D01*
X14145200Y-6633300D02*
X14115200Y-6663300D01*
X14198700Y-7872300D02*
X14228700Y-7902300D01*
X14228700Y-7872300D02*
X14198700Y-7902300D01*
X14217700Y-7262300D02*
X14247700Y-7292300D01*
X14247700Y-7262300D02*
X14217700Y-7292300D01*
X14317400Y-5468600D02*
X14347400Y-5498600D01*
X14347400Y-5468600D02*
X14317400Y-5498600D01*
X14318400Y-9369100D02*
X14348400Y-9399100D01*
X14348400Y-9369100D02*
X14318400Y-9399100D01*
X14322200Y-7375000D02*
X14352200Y-7405000D01*
X14352200Y-7375000D02*
X14322200Y-7405000D01*
X14325400Y-9043600D02*
X14355400Y-9073600D01*
X14355400Y-9043600D02*
X14325400Y-9073600D01*
X14327900Y-5140600D02*
X14357900Y-5170600D01*
X14357900Y-5140600D02*
X14327900Y-5170600D01*
X14967500Y-9231500D02*
X14997500Y-9261500D01*
X14997500Y-9231500D02*
X14967500Y-9261500D01*
X14973500Y-5303500D02*
X15003500Y-5333500D01*
X15003500Y-5303500D02*
X14973500Y-5333500D01*
X15289500Y-7723000D02*
X15319500Y-7753000D01*
X15319500Y-7723000D02*
X15289500Y-7753000D01*
X15496000Y-7723500D02*
X15526000Y-7753500D01*
X15526000Y-7723500D02*
X15496000Y-7753500D01*
X15505500Y-5551000D02*
X15535500Y-5581000D01*
X15535500Y-5551000D02*
X15505500Y-5581000D01*
X15506000Y-9476500D02*
X15536000Y-9506500D01*
X15536000Y-9476500D02*
X15506000Y-9506500D01*
X15510100Y-7397900D02*
X15540100Y-7427900D01*
X15540100Y-7397900D02*
X15510100Y-7427900D01*
X15610000Y-5607000D02*
X15640000Y-5637000D01*
X15640000Y-5607000D02*
X15610000Y-5637000D01*
X15610500Y-9507500D02*
X15640500Y-9537500D01*
X15640500Y-9507500D02*
X15610500Y-9537500D01*
X15629000Y-4997000D02*
X15659000Y-5027000D01*
X15659000Y-4997000D02*
X15629000Y-5027000D01*
X15629500Y-8897500D02*
X15659500Y-8927500D01*
X15659500Y-8897500D02*
X15629500Y-8927500D01*
X15712500Y-6236000D02*
X15742500Y-6266000D01*
X15742500Y-6236000D02*
X15712500Y-6266000D01*
X15713000Y-10136500D02*
X15743000Y-10166500D01*
X15743000Y-10136500D02*
X15713000Y-10166500D01*
X15719500Y-5334500D02*
X15749500Y-5364500D01*
X15749500Y-5334500D02*
X15719500Y-5364500D01*
X15720000Y-9235000D02*
X15750000Y-9265000D01*
X15750000Y-9235000D02*
X15720000Y-9265000D01*
X15736500Y-5061000D02*
X15766500Y-5091000D01*
X15766500Y-5061000D02*
X15736500Y-5091000D01*
X15737000Y-8961500D02*
X15767000Y-8991500D01*
X15767000Y-8961500D02*
X15737000Y-8991500D01*
X15744600Y-7825400D02*
X15774600Y-7855400D01*
X15774600Y-7825400D02*
X15744600Y-7855400D01*
X15749200Y-7558300D02*
X15779200Y-7588300D01*
X15779200Y-7558300D02*
X15749200Y-7588300D01*
X15758550Y-5879950D02*
X15788550Y-5909950D01*
X15788550Y-5879950D02*
X15758550Y-5909950D01*
X15759050Y-9780450D02*
X15789050Y-9810450D01*
X15789050Y-9780450D02*
X15759050Y-9810450D01*
X15772450Y-7339550D02*
X15802450Y-7369550D01*
X15802450Y-7339550D02*
X15772450Y-7369550D01*
X15792000Y-5401500D02*
X15822000Y-5431500D01*
X15822000Y-5401500D02*
X15792000Y-5431500D01*
X15792500Y-9302000D02*
X15822500Y-9332000D01*
X15822500Y-9302000D02*
X15792500Y-9332000D01*
X15818000Y-5611500D02*
X15848000Y-5641500D01*
X15848000Y-5611500D02*
X15818000Y-5641500D01*
X15818500Y-9512000D02*
X15848500Y-9542000D01*
X15848500Y-9512000D02*
X15818500Y-9542000D01*
X15888200Y-7366800D02*
X15918200Y-7396800D01*
X15918200Y-7366800D02*
X15888200Y-7396800D01*
X15889500Y-5802500D02*
X15919500Y-5832500D01*
X15919500Y-5802500D02*
X15889500Y-5832500D01*
X15890000Y-9703000D02*
X15920000Y-9733000D01*
X15920000Y-9703000D02*
X15890000Y-9733000D01*
X15959700Y-7557800D02*
X15989700Y-7587800D01*
X15989700Y-7557800D02*
X15959700Y-7587800D01*
X15985700Y-7767800D02*
X16015700Y-7797800D01*
X16015700Y-7767800D02*
X15985700Y-7797800D01*
X16005250Y-5829750D02*
X16035250Y-5859750D01*
X16035250Y-5829750D02*
X16005250Y-5859750D01*
X16005750Y-9730250D02*
X16035750Y-9760250D01*
X16035750Y-9730250D02*
X16005750Y-9760250D01*
X16019150Y-7289350D02*
X16049150Y-7319350D01*
X16049150Y-7289350D02*
X16019150Y-7319350D01*
X16028500Y-5611000D02*
X16058500Y-5641000D01*
X16058500Y-5611000D02*
X16028500Y-5641000D01*
X16029000Y-9511500D02*
X16059000Y-9541500D01*
X16059000Y-9511500D02*
X16029000Y-9541500D01*
X16033100Y-5343900D02*
X16063100Y-5373900D01*
X16063100Y-5343900D02*
X16033100Y-5373900D01*
X16033600Y-9244400D02*
X16063600Y-9274400D01*
X16063600Y-9244400D02*
X16033600Y-9274400D01*
X16041200Y-8108300D02*
X16071200Y-8138300D01*
X16071200Y-8108300D02*
X16041200Y-8138300D01*
X16058200Y-7834800D02*
X16088200Y-7864800D01*
X16088200Y-7834800D02*
X16058200Y-7864800D01*
X16065200Y-6933300D02*
X16095200Y-6963300D01*
X16095200Y-6933300D02*
X16065200Y-6963300D01*
X16148700Y-8172300D02*
X16178700Y-8202300D01*
X16178700Y-8172300D02*
X16148700Y-8202300D01*
X16167700Y-7562300D02*
X16197700Y-7592300D01*
X16197700Y-7562300D02*
X16167700Y-7592300D01*
X16268400Y-5767600D02*
X16298400Y-5797600D01*
X16298400Y-5767600D02*
X16268400Y-5797600D01*
X16272200Y-7627500D02*
X16302200Y-7657500D01*
X16302200Y-7627500D02*
X16272200Y-7657500D01*
X16274900Y-9676600D02*
X16304900Y-9706600D01*
X16304900Y-9676600D02*
X16274900Y-9706600D01*
X16276400Y-5439100D02*
X16306400Y-5469100D01*
X16306400Y-5439100D02*
X16276400Y-5469100D01*
X16276900Y-9340100D02*
X16306900Y-9370100D01*
X16306900Y-9340100D02*
X16276900Y-9370100D01*
X16379500Y-8268000D02*
X16409500Y-8298000D01*
X16409500Y-8268000D02*
X16379500Y-8298000D01*
X16766500Y-7879500D02*
X16796500Y-7909500D01*
X16796500Y-7879500D02*
X16766500Y-7909500D01*
X16983000Y-5577500D02*
X17013000Y-5607500D01*
X17013000Y-5577500D02*
X16983000Y-5607500D01*
X17000000Y-9626000D02*
X17030000Y-9656000D01*
X17030000Y-9626000D02*
X17000000Y-9656000D01*
X17451100Y-8029400D02*
X17481100Y-8059400D01*
X17481100Y-8029400D02*
X17451100Y-8059400D01*
X17456000Y-5829500D02*
X17486000Y-5859500D01*
X17486000Y-5829500D02*
X17456000Y-5859500D01*
X17456000Y-9760500D02*
X17486000Y-9790500D01*
X17486000Y-9760500D02*
X17456000Y-9790500D01*
X17459100Y-7703900D02*
X17489100Y-7733900D01*
X17489100Y-7703900D02*
X17459100Y-7733900D01*
X17560500Y-5907500D02*
X17590500Y-5937500D01*
X17590500Y-5907500D02*
X17560500Y-5937500D01*
X17560500Y-9808000D02*
X17590500Y-9838000D01*
X17590500Y-9808000D02*
X17560500Y-9838000D01*
X17579500Y-5297500D02*
X17609500Y-5327500D01*
X17609500Y-5297500D02*
X17579500Y-5327500D01*
X17579500Y-9198000D02*
X17609500Y-9228000D01*
X17609500Y-9198000D02*
X17579500Y-9228000D01*
X17663000Y-6536500D02*
X17693000Y-6566500D01*
X17693000Y-6536500D02*
X17663000Y-6566500D01*
X17663000Y-10437000D02*
X17693000Y-10467000D01*
X17693000Y-10437000D02*
X17663000Y-10467000D01*
X17670000Y-5635000D02*
X17700000Y-5665000D01*
X17700000Y-5635000D02*
X17670000Y-5665000D01*
X17670000Y-9535500D02*
X17700000Y-9565500D01*
X17700000Y-9535500D02*
X17670000Y-9565500D01*
X17687000Y-5361500D02*
X17717000Y-5391500D01*
X17717000Y-5361500D02*
X17687000Y-5391500D01*
X17687000Y-9262000D02*
X17717000Y-9292000D01*
X17717000Y-9262000D02*
X17687000Y-9292000D01*
X17694600Y-8125400D02*
X17724600Y-8155400D01*
X17724600Y-8125400D02*
X17694600Y-8155400D01*
X17699200Y-7858300D02*
X17729200Y-7888300D01*
X17729200Y-7858300D02*
X17699200Y-7888300D01*
X17709050Y-6180450D02*
X17739050Y-6210450D01*
X17739050Y-6180450D02*
X17709050Y-6210450D01*
X17709050Y-10080950D02*
X17739050Y-10110950D01*
X17739050Y-10080950D02*
X17709050Y-10110950D01*
X17722450Y-7639550D02*
X17752450Y-7669550D01*
X17752450Y-7639550D02*
X17722450Y-7669550D01*
X17742500Y-5702000D02*
X17772500Y-5732000D01*
X17772500Y-5702000D02*
X17742500Y-5732000D01*
X17742500Y-9602500D02*
X17772500Y-9632500D01*
X17772500Y-9602500D02*
X17742500Y-9632500D01*
X17768500Y-5912000D02*
X17798500Y-5942000D01*
X17798500Y-5912000D02*
X17768500Y-5942000D01*
X17768500Y-9812500D02*
X17798500Y-9842500D01*
X17798500Y-9812500D02*
X17768500Y-9842500D01*
X17838200Y-7666800D02*
X17868200Y-7696800D01*
X17868200Y-7666800D02*
X17838200Y-7696800D01*
X17840000Y-6103000D02*
X17870000Y-6133000D01*
X17870000Y-6103000D02*
X17840000Y-6133000D01*
X17840000Y-10003500D02*
X17870000Y-10033500D01*
X17870000Y-10003500D02*
X17840000Y-10033500D01*
X17909700Y-7857800D02*
X17939700Y-7887800D01*
X17939700Y-7857800D02*
X17909700Y-7887800D01*
X17935700Y-8067800D02*
X17965700Y-8097800D01*
X17965700Y-8067800D02*
X17935700Y-8097800D01*
X17955750Y-6130250D02*
X17985750Y-6160250D01*
X17985750Y-6130250D02*
X17955750Y-6160250D01*
X17955750Y-10030750D02*
X17985750Y-10060750D01*
X17985750Y-10030750D02*
X17955750Y-10060750D01*
X17969150Y-7589350D02*
X17999150Y-7619350D01*
X17999150Y-7589350D02*
X17969150Y-7619350D01*
X17979000Y-5911500D02*
X18009000Y-5941500D01*
X18009000Y-5911500D02*
X17979000Y-5941500D01*
X17979000Y-9812000D02*
X18009000Y-9842000D01*
X18009000Y-9812000D02*
X17979000Y-9842000D01*
X17983600Y-5644400D02*
X18013600Y-5674400D01*
X18013600Y-5644400D02*
X17983600Y-5674400D01*
X17983600Y-9544900D02*
X18013600Y-9574900D01*
X18013600Y-9544900D02*
X17983600Y-9574900D01*
X17991200Y-8408300D02*
X18021200Y-8438300D01*
X18021200Y-8408300D02*
X17991200Y-8438300D01*
X18008200Y-8134800D02*
X18038200Y-8164800D01*
X18038200Y-8134800D02*
X18008200Y-8164800D01*
X18015200Y-7233300D02*
X18045200Y-7263300D01*
X18045200Y-7233300D02*
X18015200Y-7263300D01*
X18098700Y-8472300D02*
X18128700Y-8502300D01*
X18128700Y-8472300D02*
X18098700Y-8502300D01*
X18117700Y-7862300D02*
X18147700Y-7892300D01*
X18147700Y-7862300D02*
X18117700Y-7892300D01*
X18209900Y-9963100D02*
X18239900Y-9993100D01*
X18239900Y-9963100D02*
X18209900Y-9993100D01*
X18222200Y-7994000D02*
X18252200Y-8024000D01*
X18252200Y-7994000D02*
X18222200Y-8024000D01*
X18225900Y-5739100D02*
X18255900Y-5769100D01*
X18255900Y-5739100D02*
X18225900Y-5769100D01*
X18228400Y-9642100D02*
X18258400Y-9672100D01*
X18258400Y-9642100D02*
X18228400Y-9672100D01*
X18694500Y-9961500D02*
X18724500Y-9991500D01*
X18724500Y-9961500D02*
X18694500Y-9991500D01*
X8147530Y-7824175D02*
G75*
G02*
X8048470Y-7824175I-49530J0D01*
G01*
X8048470Y-7824175D02*
G75*
G02*
X8147530Y-7824175I49530J0D01*
G01*
X8147530Y-8586175D02*
G75*
G02*
X8048470Y-8586175I-49530J0D01*
G01*
X8048470Y-8586175D02*
G75*
G02*
X8147530Y-8586175I49530J0D01*
G01*
X8447530Y-7821000D02*
G75*
G02*
X8348470Y-7821000I-49530J0D01*
G01*
X8348470Y-7821000D02*
G75*
G02*
X8447530Y-7821000I49530J0D01*
G01*
X8447530Y-8583000D02*
G75*
G02*
X8348470Y-8583000I-49530J0D01*
G01*
X8348470Y-8583000D02*
G75*
G02*
X8447530Y-8583000I49530J0D01*
G01*
X8747530Y-7824175D02*
G75*
G02*
X8648470Y-7824175I-49530J0D01*
G01*
X8648470Y-7824175D02*
G75*
G02*
X8747530Y-7824175I49530J0D01*
G01*
X8747530Y-8586175D02*
G75*
G02*
X8648470Y-8586175I-49530J0D01*
G01*
X8648470Y-8586175D02*
G75*
G02*
X8747530Y-8586175I49530J0D01*
G01*
X9047530Y-7824175D02*
G75*
G02*
X8948470Y-7824175I-49530J0D01*
G01*
X8948470Y-7824175D02*
G75*
G02*
X9047530Y-7824175I49530J0D01*
G01*
X9047530Y-8586175D02*
G75*
G02*
X8948470Y-8586175I-49530J0D01*
G01*
X8948470Y-8586175D02*
G75*
G02*
X9047530Y-8586175I49530J0D01*
G01*
X11383355Y-12007000D02*
G75*
G02*
X11284295Y-12007000I-49530J0D01*
G01*
X11284295Y-12007000D02*
G75*
G02*
X11383355Y-12007000I49530J0D01*
G01*
X12145355Y-12007000D02*
G75*
G02*
X12046295Y-12007000I-49530J0D01*
G01*
X12046295Y-12007000D02*
G75*
G02*
X12145355Y-12007000I49530J0D01*
G01*
D11*
X7230505Y-15095504D02*
X7230505Y-14895504D01*
X7230505Y-14895504D02*
X7278124Y-14895504D01*
X7278124Y-14895504D02*
X7306696Y-14905028D01*
X7306696Y-14905028D02*
X7325743Y-14924075D01*
X7325743Y-14924075D02*
X7335267Y-14943123D01*
X7335267Y-14943123D02*
X7344791Y-14981218D01*
X7344791Y-14981218D02*
X7344791Y-15009790D01*
X7344791Y-15009790D02*
X7335267Y-15047885D01*
X7335267Y-15047885D02*
X7325743Y-15066932D01*
X7325743Y-15066932D02*
X7306696Y-15085980D01*
X7306696Y-15085980D02*
X7278124Y-15095504D01*
X7278124Y-15095504D02*
X7230505Y-15095504D01*
X7430505Y-15095504D02*
X7430505Y-14962171D01*
X7430505Y-15000266D02*
X7440029Y-14981218D01*
X7440029Y-14981218D02*
X7449553Y-14971694D01*
X7449553Y-14971694D02*
X7468601Y-14962171D01*
X7468601Y-14962171D02*
X7487648Y-14962171D01*
X7554315Y-15095504D02*
X7554315Y-14962171D01*
X7554315Y-14895504D02*
X7544791Y-14905028D01*
X7544791Y-14905028D02*
X7554315Y-14914552D01*
X7554315Y-14914552D02*
X7563839Y-14905028D01*
X7563839Y-14905028D02*
X7554315Y-14895504D01*
X7554315Y-14895504D02*
X7554315Y-14914552D01*
X7678124Y-15095504D02*
X7659077Y-15085980D01*
X7659077Y-15085980D02*
X7649553Y-15066932D01*
X7649553Y-15066932D02*
X7649553Y-14895504D01*
X7782886Y-15095504D02*
X7763839Y-15085980D01*
X7763839Y-15085980D02*
X7754315Y-15066932D01*
X7754315Y-15066932D02*
X7754315Y-14895504D01*
X8011458Y-15095504D02*
X8011458Y-14895504D01*
X8011458Y-14895504D02*
X8078124Y-15038361D01*
X8078124Y-15038361D02*
X8144791Y-14895504D01*
X8144791Y-14895504D02*
X8144791Y-15095504D01*
X8325743Y-15095504D02*
X8325743Y-14990742D01*
X8325743Y-14990742D02*
X8316220Y-14971694D01*
X8316220Y-14971694D02*
X8297172Y-14962171D01*
X8297172Y-14962171D02*
X8259077Y-14962171D01*
X8259077Y-14962171D02*
X8240029Y-14971694D01*
X8325743Y-15085980D02*
X8306696Y-15095504D01*
X8306696Y-15095504D02*
X8259077Y-15095504D01*
X8259077Y-15095504D02*
X8240029Y-15085980D01*
X8240029Y-15085980D02*
X8230505Y-15066932D01*
X8230505Y-15066932D02*
X8230505Y-15047885D01*
X8230505Y-15047885D02*
X8240029Y-15028837D01*
X8240029Y-15028837D02*
X8259077Y-15019313D01*
X8259077Y-15019313D02*
X8306696Y-15019313D01*
X8306696Y-15019313D02*
X8325743Y-15009790D01*
X8420982Y-14962171D02*
X8420982Y-15162171D01*
X8420982Y-14971694D02*
X8440029Y-14962171D01*
X8440029Y-14962171D02*
X8478125Y-14962171D01*
X8478125Y-14962171D02*
X8497172Y-14971694D01*
X8497172Y-14971694D02*
X8506696Y-14981218D01*
X8506696Y-14981218D02*
X8516220Y-15000266D01*
X8516220Y-15000266D02*
X8516220Y-15057409D01*
X8516220Y-15057409D02*
X8506696Y-15076456D01*
X8506696Y-15076456D02*
X8497172Y-15085980D01*
X8497172Y-15085980D02*
X8478125Y-15095504D01*
X8478125Y-15095504D02*
X8440029Y-15095504D01*
X8440029Y-15095504D02*
X8420982Y-15085980D01*
X8601934Y-15076456D02*
X8611458Y-15085980D01*
X8611458Y-15085980D02*
X8601934Y-15095504D01*
X8601934Y-15095504D02*
X8592410Y-15085980D01*
X8592410Y-15085980D02*
X8601934Y-15076456D01*
X8601934Y-15076456D02*
X8601934Y-15095504D01*
X8601934Y-14971694D02*
X8611458Y-14981218D01*
X8611458Y-14981218D02*
X8601934Y-14990742D01*
X8601934Y-14990742D02*
X8592410Y-14981218D01*
X8592410Y-14981218D02*
X8601934Y-14971694D01*
X8601934Y-14971694D02*
X8601934Y-14990742D01*
D12*
X6939729Y-15409020D02*
X6969729Y-15439020D01*
X6969729Y-15409020D02*
X6939729Y-15439020D01*
D11*
X7268601Y-15315504D02*
X7287648Y-15315504D01*
X7287648Y-15315504D02*
X7306696Y-15325028D01*
X7306696Y-15325028D02*
X7316220Y-15334552D01*
X7316220Y-15334552D02*
X7325743Y-15353599D01*
X7325743Y-15353599D02*
X7335267Y-15391694D01*
X7335267Y-15391694D02*
X7335267Y-15439313D01*
X7335267Y-15439313D02*
X7325743Y-15477409D01*
X7325743Y-15477409D02*
X7316220Y-15496456D01*
X7316220Y-15496456D02*
X7306696Y-15505980D01*
X7306696Y-15505980D02*
X7287648Y-15515504D01*
X7287648Y-15515504D02*
X7268601Y-15515504D01*
X7268601Y-15515504D02*
X7249553Y-15505980D01*
X7249553Y-15505980D02*
X7240029Y-15496456D01*
X7240029Y-15496456D02*
X7230505Y-15477409D01*
X7230505Y-15477409D02*
X7220982Y-15439313D01*
X7220982Y-15439313D02*
X7220982Y-15391694D01*
X7220982Y-15391694D02*
X7230505Y-15353599D01*
X7230505Y-15353599D02*
X7240029Y-15334552D01*
X7240029Y-15334552D02*
X7249553Y-15325028D01*
X7249553Y-15325028D02*
X7268601Y-15315504D01*
X7420982Y-15496456D02*
X7430505Y-15505980D01*
X7430505Y-15505980D02*
X7420982Y-15515504D01*
X7420982Y-15515504D02*
X7411458Y-15505980D01*
X7411458Y-15505980D02*
X7420982Y-15496456D01*
X7420982Y-15496456D02*
X7420982Y-15515504D01*
X7497172Y-15315504D02*
X7620982Y-15315504D01*
X7620982Y-15315504D02*
X7554315Y-15391694D01*
X7554315Y-15391694D02*
X7582886Y-15391694D01*
X7582886Y-15391694D02*
X7601934Y-15401218D01*
X7601934Y-15401218D02*
X7611458Y-15410742D01*
X7611458Y-15410742D02*
X7620982Y-15429790D01*
X7620982Y-15429790D02*
X7620982Y-15477409D01*
X7620982Y-15477409D02*
X7611458Y-15496456D01*
X7611458Y-15496456D02*
X7601934Y-15505980D01*
X7601934Y-15505980D02*
X7582886Y-15515504D01*
X7582886Y-15515504D02*
X7525743Y-15515504D01*
X7525743Y-15515504D02*
X7506696Y-15505980D01*
X7506696Y-15505980D02*
X7497172Y-15496456D01*
X7744791Y-15315504D02*
X7763839Y-15315504D01*
X7763839Y-15315504D02*
X7782886Y-15325028D01*
X7782886Y-15325028D02*
X7792410Y-15334552D01*
X7792410Y-15334552D02*
X7801934Y-15353599D01*
X7801934Y-15353599D02*
X7811458Y-15391694D01*
X7811458Y-15391694D02*
X7811458Y-15439313D01*
X7811458Y-15439313D02*
X7801934Y-15477409D01*
X7801934Y-15477409D02*
X7792410Y-15496456D01*
X7792410Y-15496456D02*
X7782886Y-15505980D01*
X7782886Y-15505980D02*
X7763839Y-15515504D01*
X7763839Y-15515504D02*
X7744791Y-15515504D01*
X7744791Y-15515504D02*
X7725743Y-15505980D01*
X7725743Y-15505980D02*
X7716220Y-15496456D01*
X7716220Y-15496456D02*
X7706696Y-15477409D01*
X7706696Y-15477409D02*
X7697172Y-15439313D01*
X7697172Y-15439313D02*
X7697172Y-15391694D01*
X7697172Y-15391694D02*
X7706696Y-15353599D01*
X7706696Y-15353599D02*
X7716220Y-15334552D01*
X7716220Y-15334552D02*
X7725743Y-15325028D01*
X7725743Y-15325028D02*
X7744791Y-15315504D01*
X7935267Y-15315504D02*
X7954315Y-15315504D01*
X7954315Y-15315504D02*
X7973363Y-15325028D01*
X7973363Y-15325028D02*
X7982886Y-15334552D01*
X7982886Y-15334552D02*
X7992410Y-15353599D01*
X7992410Y-15353599D02*
X8001934Y-15391694D01*
X8001934Y-15391694D02*
X8001934Y-15439313D01*
X8001934Y-15439313D02*
X7992410Y-15477409D01*
X7992410Y-15477409D02*
X7982886Y-15496456D01*
X7982886Y-15496456D02*
X7973363Y-15505980D01*
X7973363Y-15505980D02*
X7954315Y-15515504D01*
X7954315Y-15515504D02*
X7935267Y-15515504D01*
X7935267Y-15515504D02*
X7916220Y-15505980D01*
X7916220Y-15505980D02*
X7906696Y-15496456D01*
X7906696Y-15496456D02*
X7897172Y-15477409D01*
X7897172Y-15477409D02*
X7887648Y-15439313D01*
X7887648Y-15439313D02*
X7887648Y-15391694D01*
X7887648Y-15391694D02*
X7897172Y-15353599D01*
X7897172Y-15353599D02*
X7906696Y-15334552D01*
X7906696Y-15334552D02*
X7916220Y-15325028D01*
X7916220Y-15325028D02*
X7935267Y-15315504D01*
X8087648Y-15515504D02*
X8087648Y-15382171D01*
X8087648Y-15401218D02*
X8097172Y-15391694D01*
X8097172Y-15391694D02*
X8116220Y-15382171D01*
X8116220Y-15382171D02*
X8144791Y-15382171D01*
X8144791Y-15382171D02*
X8163839Y-15391694D01*
X8163839Y-15391694D02*
X8173363Y-15410742D01*
X8173363Y-15410742D02*
X8173363Y-15515504D01*
X8173363Y-15410742D02*
X8182886Y-15391694D01*
X8182886Y-15391694D02*
X8201934Y-15382171D01*
X8201934Y-15382171D02*
X8230505Y-15382171D01*
X8230505Y-15382171D02*
X8249553Y-15391694D01*
X8249553Y-15391694D02*
X8259077Y-15410742D01*
X8259077Y-15410742D02*
X8259077Y-15515504D01*
X8354315Y-15515504D02*
X8354315Y-15382171D01*
X8354315Y-15401218D02*
X8363839Y-15391694D01*
X8363839Y-15391694D02*
X8382886Y-15382171D01*
X8382886Y-15382171D02*
X8411458Y-15382171D01*
X8411458Y-15382171D02*
X8430506Y-15391694D01*
X8430506Y-15391694D02*
X8440029Y-15410742D01*
X8440029Y-15410742D02*
X8440029Y-15515504D01*
X8440029Y-15410742D02*
X8449553Y-15391694D01*
X8449553Y-15391694D02*
X8468601Y-15382171D01*
X8468601Y-15382171D02*
X8497172Y-15382171D01*
X8497172Y-15382171D02*
X8516220Y-15391694D01*
X8516220Y-15391694D02*
X8525744Y-15410742D01*
X8525744Y-15410742D02*
X8525744Y-15515504D01*
X8916220Y-15305980D02*
X8744791Y-15563123D01*
X9173363Y-15315504D02*
X9192410Y-15315504D01*
X9192410Y-15315504D02*
X9211458Y-15325028D01*
X9211458Y-15325028D02*
X9220982Y-15334552D01*
X9220982Y-15334552D02*
X9230506Y-15353599D01*
X9230506Y-15353599D02*
X9240029Y-15391694D01*
X9240029Y-15391694D02*
X9240029Y-15439313D01*
X9240029Y-15439313D02*
X9230506Y-15477409D01*
X9230506Y-15477409D02*
X9220982Y-15496456D01*
X9220982Y-15496456D02*
X9211458Y-15505980D01*
X9211458Y-15505980D02*
X9192410Y-15515504D01*
X9192410Y-15515504D02*
X9173363Y-15515504D01*
X9173363Y-15515504D02*
X9154315Y-15505980D01*
X9154315Y-15505980D02*
X9144791Y-15496456D01*
X9144791Y-15496456D02*
X9135268Y-15477409D01*
X9135268Y-15477409D02*
X9125744Y-15439313D01*
X9125744Y-15439313D02*
X9125744Y-15391694D01*
X9125744Y-15391694D02*
X9135268Y-15353599D01*
X9135268Y-15353599D02*
X9144791Y-15334552D01*
X9144791Y-15334552D02*
X9154315Y-15325028D01*
X9154315Y-15325028D02*
X9173363Y-15315504D01*
X9325744Y-15496456D02*
X9335268Y-15505980D01*
X9335268Y-15505980D02*
X9325744Y-15515504D01*
X9325744Y-15515504D02*
X9316220Y-15505980D01*
X9316220Y-15505980D02*
X9325744Y-15496456D01*
X9325744Y-15496456D02*
X9325744Y-15515504D01*
X9459077Y-15315504D02*
X9478125Y-15315504D01*
X9478125Y-15315504D02*
X9497172Y-15325028D01*
X9497172Y-15325028D02*
X9506696Y-15334552D01*
X9506696Y-15334552D02*
X9516220Y-15353599D01*
X9516220Y-15353599D02*
X9525744Y-15391694D01*
X9525744Y-15391694D02*
X9525744Y-15439313D01*
X9525744Y-15439313D02*
X9516220Y-15477409D01*
X9516220Y-15477409D02*
X9506696Y-15496456D01*
X9506696Y-15496456D02*
X9497172Y-15505980D01*
X9497172Y-15505980D02*
X9478125Y-15515504D01*
X9478125Y-15515504D02*
X9459077Y-15515504D01*
X9459077Y-15515504D02*
X9440029Y-15505980D01*
X9440029Y-15505980D02*
X9430506Y-15496456D01*
X9430506Y-15496456D02*
X9420982Y-15477409D01*
X9420982Y-15477409D02*
X9411458Y-15439313D01*
X9411458Y-15439313D02*
X9411458Y-15391694D01*
X9411458Y-15391694D02*
X9420982Y-15353599D01*
X9420982Y-15353599D02*
X9430506Y-15334552D01*
X9430506Y-15334552D02*
X9440029Y-15325028D01*
X9440029Y-15325028D02*
X9459077Y-15315504D01*
X9716220Y-15515504D02*
X9601934Y-15515504D01*
X9659077Y-15515504D02*
X9659077Y-15315504D01*
X9659077Y-15315504D02*
X9640029Y-15344075D01*
X9640029Y-15344075D02*
X9620982Y-15363123D01*
X9620982Y-15363123D02*
X9601934Y-15372647D01*
X9906696Y-15515504D02*
X9792410Y-15515504D01*
X9849553Y-15515504D02*
X9849553Y-15315504D01*
X9849553Y-15315504D02*
X9830506Y-15344075D01*
X9830506Y-15344075D02*
X9811458Y-15363123D01*
X9811458Y-15363123D02*
X9792410Y-15372647D01*
X10020982Y-15401218D02*
X10001934Y-15391694D01*
X10001934Y-15391694D02*
X9992410Y-15382171D01*
X9992410Y-15382171D02*
X9982887Y-15363123D01*
X9982887Y-15363123D02*
X9982887Y-15353599D01*
X9982887Y-15353599D02*
X9992410Y-15334552D01*
X9992410Y-15334552D02*
X10001934Y-15325028D01*
X10001934Y-15325028D02*
X10020982Y-15315504D01*
X10020982Y-15315504D02*
X10059077Y-15315504D01*
X10059077Y-15315504D02*
X10078125Y-15325028D01*
X10078125Y-15325028D02*
X10087649Y-15334552D01*
X10087649Y-15334552D02*
X10097172Y-15353599D01*
X10097172Y-15353599D02*
X10097172Y-15363123D01*
X10097172Y-15363123D02*
X10087649Y-15382171D01*
X10087649Y-15382171D02*
X10078125Y-15391694D01*
X10078125Y-15391694D02*
X10059077Y-15401218D01*
X10059077Y-15401218D02*
X10020982Y-15401218D01*
X10020982Y-15401218D02*
X10001934Y-15410742D01*
X10001934Y-15410742D02*
X9992410Y-15420266D01*
X9992410Y-15420266D02*
X9982887Y-15439313D01*
X9982887Y-15439313D02*
X9982887Y-15477409D01*
X9982887Y-15477409D02*
X9992410Y-15496456D01*
X9992410Y-15496456D02*
X10001934Y-15505980D01*
X10001934Y-15505980D02*
X10020982Y-15515504D01*
X10020982Y-15515504D02*
X10059077Y-15515504D01*
X10059077Y-15515504D02*
X10078125Y-15505980D01*
X10078125Y-15505980D02*
X10087649Y-15496456D01*
X10087649Y-15496456D02*
X10097172Y-15477409D01*
X10097172Y-15477409D02*
X10097172Y-15439313D01*
X10097172Y-15439313D02*
X10087649Y-15420266D01*
X10087649Y-15420266D02*
X10078125Y-15410742D01*
X10078125Y-15410742D02*
X10059077Y-15401218D01*
X10173363Y-15315504D02*
X10173363Y-15353599D01*
X10249553Y-15315504D02*
X10249553Y-15353599D01*
X10544792Y-15591694D02*
X10535268Y-15582171D01*
X10535268Y-15582171D02*
X10516220Y-15553599D01*
X10516220Y-15553599D02*
X10506696Y-15534552D01*
X10506696Y-15534552D02*
X10497172Y-15505980D01*
X10497172Y-15505980D02*
X10487649Y-15458361D01*
X10487649Y-15458361D02*
X10487649Y-15420266D01*
X10487649Y-15420266D02*
X10497172Y-15372647D01*
X10497172Y-15372647D02*
X10506696Y-15344075D01*
X10506696Y-15344075D02*
X10516220Y-15325028D01*
X10516220Y-15325028D02*
X10535268Y-15296456D01*
X10535268Y-15296456D02*
X10544792Y-15286932D01*
X10611458Y-15334552D02*
X10620982Y-15325028D01*
X10620982Y-15325028D02*
X10640030Y-15315504D01*
X10640030Y-15315504D02*
X10687649Y-15315504D01*
X10687649Y-15315504D02*
X10706696Y-15325028D01*
X10706696Y-15325028D02*
X10716220Y-15334552D01*
X10716220Y-15334552D02*
X10725744Y-15353599D01*
X10725744Y-15353599D02*
X10725744Y-15372647D01*
X10725744Y-15372647D02*
X10716220Y-15401218D01*
X10716220Y-15401218D02*
X10601934Y-15515504D01*
X10601934Y-15515504D02*
X10725744Y-15515504D01*
X10897172Y-15315504D02*
X10859077Y-15315504D01*
X10859077Y-15315504D02*
X10840030Y-15325028D01*
X10840030Y-15325028D02*
X10830506Y-15334552D01*
X10830506Y-15334552D02*
X10811458Y-15363123D01*
X10811458Y-15363123D02*
X10801934Y-15401218D01*
X10801934Y-15401218D02*
X10801934Y-15477409D01*
X10801934Y-15477409D02*
X10811458Y-15496456D01*
X10811458Y-15496456D02*
X10820982Y-15505980D01*
X10820982Y-15505980D02*
X10840030Y-15515504D01*
X10840030Y-15515504D02*
X10878125Y-15515504D01*
X10878125Y-15515504D02*
X10897172Y-15505980D01*
X10897172Y-15505980D02*
X10906696Y-15496456D01*
X10906696Y-15496456D02*
X10916220Y-15477409D01*
X10916220Y-15477409D02*
X10916220Y-15429790D01*
X10916220Y-15429790D02*
X10906696Y-15410742D01*
X10906696Y-15410742D02*
X10897172Y-15401218D01*
X10897172Y-15401218D02*
X10878125Y-15391694D01*
X10878125Y-15391694D02*
X10840030Y-15391694D01*
X10840030Y-15391694D02*
X10820982Y-15401218D01*
X10820982Y-15401218D02*
X10811458Y-15410742D01*
X10811458Y-15410742D02*
X10801934Y-15429790D01*
X10982887Y-15315504D02*
X11106696Y-15315504D01*
X11106696Y-15315504D02*
X11040030Y-15391694D01*
X11040030Y-15391694D02*
X11068601Y-15391694D01*
X11068601Y-15391694D02*
X11087649Y-15401218D01*
X11087649Y-15401218D02*
X11097172Y-15410742D01*
X11097172Y-15410742D02*
X11106696Y-15429790D01*
X11106696Y-15429790D02*
X11106696Y-15477409D01*
X11106696Y-15477409D02*
X11097172Y-15496456D01*
X11097172Y-15496456D02*
X11087649Y-15505980D01*
X11087649Y-15505980D02*
X11068601Y-15515504D01*
X11068601Y-15515504D02*
X11011458Y-15515504D01*
X11011458Y-15515504D02*
X10992411Y-15505980D01*
X10992411Y-15505980D02*
X10982887Y-15496456D01*
X11344791Y-15515504D02*
X11344791Y-15315504D01*
X11430506Y-15515504D02*
X11430506Y-15410742D01*
X11430506Y-15410742D02*
X11420982Y-15391694D01*
X11420982Y-15391694D02*
X11401934Y-15382171D01*
X11401934Y-15382171D02*
X11373363Y-15382171D01*
X11373363Y-15382171D02*
X11354315Y-15391694D01*
X11354315Y-15391694D02*
X11344791Y-15401218D01*
X11554315Y-15515504D02*
X11535268Y-15505980D01*
X11535268Y-15505980D02*
X11525744Y-15496456D01*
X11525744Y-15496456D02*
X11516220Y-15477409D01*
X11516220Y-15477409D02*
X11516220Y-15420266D01*
X11516220Y-15420266D02*
X11525744Y-15401218D01*
X11525744Y-15401218D02*
X11535268Y-15391694D01*
X11535268Y-15391694D02*
X11554315Y-15382171D01*
X11554315Y-15382171D02*
X11582887Y-15382171D01*
X11582887Y-15382171D02*
X11601934Y-15391694D01*
X11601934Y-15391694D02*
X11611458Y-15401218D01*
X11611458Y-15401218D02*
X11620982Y-15420266D01*
X11620982Y-15420266D02*
X11620982Y-15477409D01*
X11620982Y-15477409D02*
X11611458Y-15496456D01*
X11611458Y-15496456D02*
X11601934Y-15505980D01*
X11601934Y-15505980D02*
X11582887Y-15515504D01*
X11582887Y-15515504D02*
X11554315Y-15515504D01*
X11735268Y-15515504D02*
X11716220Y-15505980D01*
X11716220Y-15505980D02*
X11706696Y-15486932D01*
X11706696Y-15486932D02*
X11706696Y-15315504D01*
X11887649Y-15505980D02*
X11868601Y-15515504D01*
X11868601Y-15515504D02*
X11830506Y-15515504D01*
X11830506Y-15515504D02*
X11811458Y-15505980D01*
X11811458Y-15505980D02*
X11801934Y-15486932D01*
X11801934Y-15486932D02*
X11801934Y-15410742D01*
X11801934Y-15410742D02*
X11811458Y-15391694D01*
X11811458Y-15391694D02*
X11830506Y-15382171D01*
X11830506Y-15382171D02*
X11868601Y-15382171D01*
X11868601Y-15382171D02*
X11887649Y-15391694D01*
X11887649Y-15391694D02*
X11897172Y-15410742D01*
X11897172Y-15410742D02*
X11897172Y-15429790D01*
X11897172Y-15429790D02*
X11801934Y-15448837D01*
X11973363Y-15505980D02*
X11992411Y-15515504D01*
X11992411Y-15515504D02*
X12030506Y-15515504D01*
X12030506Y-15515504D02*
X12049553Y-15505980D01*
X12049553Y-15505980D02*
X12059077Y-15486932D01*
X12059077Y-15486932D02*
X12059077Y-15477409D01*
X12059077Y-15477409D02*
X12049553Y-15458361D01*
X12049553Y-15458361D02*
X12030506Y-15448837D01*
X12030506Y-15448837D02*
X12001934Y-15448837D01*
X12001934Y-15448837D02*
X11982887Y-15439313D01*
X11982887Y-15439313D02*
X11973363Y-15420266D01*
X11973363Y-15420266D02*
X11973363Y-15410742D01*
X11973363Y-15410742D02*
X11982887Y-15391694D01*
X11982887Y-15391694D02*
X12001934Y-15382171D01*
X12001934Y-15382171D02*
X12030506Y-15382171D01*
X12030506Y-15382171D02*
X12049553Y-15391694D01*
X12125744Y-15591694D02*
X12135268Y-15582171D01*
X12135268Y-15582171D02*
X12154315Y-15553599D01*
X12154315Y-15553599D02*
X12163839Y-15534552D01*
X12163839Y-15534552D02*
X12173363Y-15505980D01*
X12173363Y-15505980D02*
X12182887Y-15458361D01*
X12182887Y-15458361D02*
X12182887Y-15420266D01*
X12182887Y-15420266D02*
X12173363Y-15372647D01*
X12173363Y-15372647D02*
X12163839Y-15344075D01*
X12163839Y-15344075D02*
X12154315Y-15325028D01*
X12154315Y-15325028D02*
X12135268Y-15296456D01*
X12135268Y-15296456D02*
X12125744Y-15286932D01*
D12*
X6969729Y-15688020D02*
G75*
G02*
X6870669Y-15688020I-49530J0D01*
G01*
X6870669Y-15688020D02*
G75*
G02*
X6969729Y-15688020I49530J0D01*
G01*
D11*
X7268601Y-15579504D02*
X7287648Y-15579504D01*
X7287648Y-15579504D02*
X7306696Y-15589028D01*
X7306696Y-15589028D02*
X7316220Y-15598552D01*
X7316220Y-15598552D02*
X7325743Y-15617599D01*
X7325743Y-15617599D02*
X7335267Y-15655694D01*
X7335267Y-15655694D02*
X7335267Y-15703313D01*
X7335267Y-15703313D02*
X7325743Y-15741409D01*
X7325743Y-15741409D02*
X7316220Y-15760456D01*
X7316220Y-15760456D02*
X7306696Y-15769980D01*
X7306696Y-15769980D02*
X7287648Y-15779504D01*
X7287648Y-15779504D02*
X7268601Y-15779504D01*
X7268601Y-15779504D02*
X7249553Y-15769980D01*
X7249553Y-15769980D02*
X7240029Y-15760456D01*
X7240029Y-15760456D02*
X7230505Y-15741409D01*
X7230505Y-15741409D02*
X7220982Y-15703313D01*
X7220982Y-15703313D02*
X7220982Y-15655694D01*
X7220982Y-15655694D02*
X7230505Y-15617599D01*
X7230505Y-15617599D02*
X7240029Y-15598552D01*
X7240029Y-15598552D02*
X7249553Y-15589028D01*
X7249553Y-15589028D02*
X7268601Y-15579504D01*
X7420982Y-15760456D02*
X7430505Y-15769980D01*
X7430505Y-15769980D02*
X7420982Y-15779504D01*
X7420982Y-15779504D02*
X7411458Y-15769980D01*
X7411458Y-15769980D02*
X7420982Y-15760456D01*
X7420982Y-15760456D02*
X7420982Y-15779504D01*
X7525743Y-15779504D02*
X7563839Y-15779504D01*
X7563839Y-15779504D02*
X7582886Y-15769980D01*
X7582886Y-15769980D02*
X7592410Y-15760456D01*
X7592410Y-15760456D02*
X7611458Y-15731885D01*
X7611458Y-15731885D02*
X7620982Y-15693790D01*
X7620982Y-15693790D02*
X7620982Y-15617599D01*
X7620982Y-15617599D02*
X7611458Y-15598552D01*
X7611458Y-15598552D02*
X7601934Y-15589028D01*
X7601934Y-15589028D02*
X7582886Y-15579504D01*
X7582886Y-15579504D02*
X7544791Y-15579504D01*
X7544791Y-15579504D02*
X7525743Y-15589028D01*
X7525743Y-15589028D02*
X7516220Y-15598552D01*
X7516220Y-15598552D02*
X7506696Y-15617599D01*
X7506696Y-15617599D02*
X7506696Y-15665218D01*
X7506696Y-15665218D02*
X7516220Y-15684266D01*
X7516220Y-15684266D02*
X7525743Y-15693790D01*
X7525743Y-15693790D02*
X7544791Y-15703313D01*
X7544791Y-15703313D02*
X7582886Y-15703313D01*
X7582886Y-15703313D02*
X7601934Y-15693790D01*
X7601934Y-15693790D02*
X7611458Y-15684266D01*
X7611458Y-15684266D02*
X7620982Y-15665218D01*
X7716220Y-15779504D02*
X7754315Y-15779504D01*
X7754315Y-15779504D02*
X7773363Y-15769980D01*
X7773363Y-15769980D02*
X7782886Y-15760456D01*
X7782886Y-15760456D02*
X7801934Y-15731885D01*
X7801934Y-15731885D02*
X7811458Y-15693790D01*
X7811458Y-15693790D02*
X7811458Y-15617599D01*
X7811458Y-15617599D02*
X7801934Y-15598552D01*
X7801934Y-15598552D02*
X7792410Y-15589028D01*
X7792410Y-15589028D02*
X7773363Y-15579504D01*
X7773363Y-15579504D02*
X7735267Y-15579504D01*
X7735267Y-15579504D02*
X7716220Y-15589028D01*
X7716220Y-15589028D02*
X7706696Y-15598552D01*
X7706696Y-15598552D02*
X7697172Y-15617599D01*
X7697172Y-15617599D02*
X7697172Y-15665218D01*
X7697172Y-15665218D02*
X7706696Y-15684266D01*
X7706696Y-15684266D02*
X7716220Y-15693790D01*
X7716220Y-15693790D02*
X7735267Y-15703313D01*
X7735267Y-15703313D02*
X7773363Y-15703313D01*
X7773363Y-15703313D02*
X7792410Y-15693790D01*
X7792410Y-15693790D02*
X7801934Y-15684266D01*
X7801934Y-15684266D02*
X7811458Y-15665218D01*
X8001934Y-15779504D02*
X7887648Y-15779504D01*
X7944791Y-15779504D02*
X7944791Y-15579504D01*
X7944791Y-15579504D02*
X7925743Y-15608075D01*
X7925743Y-15608075D02*
X7906696Y-15627123D01*
X7906696Y-15627123D02*
X7887648Y-15636647D01*
X8087648Y-15779504D02*
X8087648Y-15646171D01*
X8087648Y-15665218D02*
X8097172Y-15655694D01*
X8097172Y-15655694D02*
X8116220Y-15646171D01*
X8116220Y-15646171D02*
X8144791Y-15646171D01*
X8144791Y-15646171D02*
X8163839Y-15655694D01*
X8163839Y-15655694D02*
X8173363Y-15674742D01*
X8173363Y-15674742D02*
X8173363Y-15779504D01*
X8173363Y-15674742D02*
X8182886Y-15655694D01*
X8182886Y-15655694D02*
X8201934Y-15646171D01*
X8201934Y-15646171D02*
X8230505Y-15646171D01*
X8230505Y-15646171D02*
X8249553Y-15655694D01*
X8249553Y-15655694D02*
X8259077Y-15674742D01*
X8259077Y-15674742D02*
X8259077Y-15779504D01*
X8354315Y-15779504D02*
X8354315Y-15646171D01*
X8354315Y-15665218D02*
X8363839Y-15655694D01*
X8363839Y-15655694D02*
X8382886Y-15646171D01*
X8382886Y-15646171D02*
X8411458Y-15646171D01*
X8411458Y-15646171D02*
X8430506Y-15655694D01*
X8430506Y-15655694D02*
X8440029Y-15674742D01*
X8440029Y-15674742D02*
X8440029Y-15779504D01*
X8440029Y-15674742D02*
X8449553Y-15655694D01*
X8449553Y-15655694D02*
X8468601Y-15646171D01*
X8468601Y-15646171D02*
X8497172Y-15646171D01*
X8497172Y-15646171D02*
X8516220Y-15655694D01*
X8516220Y-15655694D02*
X8525744Y-15674742D01*
X8525744Y-15674742D02*
X8525744Y-15779504D01*
X8916220Y-15569980D02*
X8744791Y-15827123D01*
X9173363Y-15579504D02*
X9192410Y-15579504D01*
X9192410Y-15579504D02*
X9211458Y-15589028D01*
X9211458Y-15589028D02*
X9220982Y-15598552D01*
X9220982Y-15598552D02*
X9230506Y-15617599D01*
X9230506Y-15617599D02*
X9240029Y-15655694D01*
X9240029Y-15655694D02*
X9240029Y-15703313D01*
X9240029Y-15703313D02*
X9230506Y-15741409D01*
X9230506Y-15741409D02*
X9220982Y-15760456D01*
X9220982Y-15760456D02*
X9211458Y-15769980D01*
X9211458Y-15769980D02*
X9192410Y-15779504D01*
X9192410Y-15779504D02*
X9173363Y-15779504D01*
X9173363Y-15779504D02*
X9154315Y-15769980D01*
X9154315Y-15769980D02*
X9144791Y-15760456D01*
X9144791Y-15760456D02*
X9135268Y-15741409D01*
X9135268Y-15741409D02*
X9125744Y-15703313D01*
X9125744Y-15703313D02*
X9125744Y-15655694D01*
X9125744Y-15655694D02*
X9135268Y-15617599D01*
X9135268Y-15617599D02*
X9144791Y-15598552D01*
X9144791Y-15598552D02*
X9154315Y-15589028D01*
X9154315Y-15589028D02*
X9173363Y-15579504D01*
X9325744Y-15760456D02*
X9335268Y-15769980D01*
X9335268Y-15769980D02*
X9325744Y-15779504D01*
X9325744Y-15779504D02*
X9316220Y-15769980D01*
X9316220Y-15769980D02*
X9325744Y-15760456D01*
X9325744Y-15760456D02*
X9325744Y-15779504D01*
X9459077Y-15579504D02*
X9478125Y-15579504D01*
X9478125Y-15579504D02*
X9497172Y-15589028D01*
X9497172Y-15589028D02*
X9506696Y-15598552D01*
X9506696Y-15598552D02*
X9516220Y-15617599D01*
X9516220Y-15617599D02*
X9525744Y-15655694D01*
X9525744Y-15655694D02*
X9525744Y-15703313D01*
X9525744Y-15703313D02*
X9516220Y-15741409D01*
X9516220Y-15741409D02*
X9506696Y-15760456D01*
X9506696Y-15760456D02*
X9497172Y-15769980D01*
X9497172Y-15769980D02*
X9478125Y-15779504D01*
X9478125Y-15779504D02*
X9459077Y-15779504D01*
X9459077Y-15779504D02*
X9440029Y-15769980D01*
X9440029Y-15769980D02*
X9430506Y-15760456D01*
X9430506Y-15760456D02*
X9420982Y-15741409D01*
X9420982Y-15741409D02*
X9411458Y-15703313D01*
X9411458Y-15703313D02*
X9411458Y-15655694D01*
X9411458Y-15655694D02*
X9420982Y-15617599D01*
X9420982Y-15617599D02*
X9430506Y-15598552D01*
X9430506Y-15598552D02*
X9440029Y-15589028D01*
X9440029Y-15589028D02*
X9459077Y-15579504D01*
X9592410Y-15579504D02*
X9716220Y-15579504D01*
X9716220Y-15579504D02*
X9649553Y-15655694D01*
X9649553Y-15655694D02*
X9678125Y-15655694D01*
X9678125Y-15655694D02*
X9697172Y-15665218D01*
X9697172Y-15665218D02*
X9706696Y-15674742D01*
X9706696Y-15674742D02*
X9716220Y-15693790D01*
X9716220Y-15693790D02*
X9716220Y-15741409D01*
X9716220Y-15741409D02*
X9706696Y-15760456D01*
X9706696Y-15760456D02*
X9697172Y-15769980D01*
X9697172Y-15769980D02*
X9678125Y-15779504D01*
X9678125Y-15779504D02*
X9620982Y-15779504D01*
X9620982Y-15779504D02*
X9601934Y-15769980D01*
X9601934Y-15769980D02*
X9592410Y-15760456D01*
X9811458Y-15779504D02*
X9849553Y-15779504D01*
X9849553Y-15779504D02*
X9868601Y-15769980D01*
X9868601Y-15769980D02*
X9878125Y-15760456D01*
X9878125Y-15760456D02*
X9897172Y-15731885D01*
X9897172Y-15731885D02*
X9906696Y-15693790D01*
X9906696Y-15693790D02*
X9906696Y-15617599D01*
X9906696Y-15617599D02*
X9897172Y-15598552D01*
X9897172Y-15598552D02*
X9887649Y-15589028D01*
X9887649Y-15589028D02*
X9868601Y-15579504D01*
X9868601Y-15579504D02*
X9830506Y-15579504D01*
X9830506Y-15579504D02*
X9811458Y-15589028D01*
X9811458Y-15589028D02*
X9801934Y-15598552D01*
X9801934Y-15598552D02*
X9792410Y-15617599D01*
X9792410Y-15617599D02*
X9792410Y-15665218D01*
X9792410Y-15665218D02*
X9801934Y-15684266D01*
X9801934Y-15684266D02*
X9811458Y-15693790D01*
X9811458Y-15693790D02*
X9830506Y-15703313D01*
X9830506Y-15703313D02*
X9868601Y-15703313D01*
X9868601Y-15703313D02*
X9887649Y-15693790D01*
X9887649Y-15693790D02*
X9897172Y-15684266D01*
X9897172Y-15684266D02*
X9906696Y-15665218D01*
X10030506Y-15579504D02*
X10049553Y-15579504D01*
X10049553Y-15579504D02*
X10068601Y-15589028D01*
X10068601Y-15589028D02*
X10078125Y-15598552D01*
X10078125Y-15598552D02*
X10087649Y-15617599D01*
X10087649Y-15617599D02*
X10097172Y-15655694D01*
X10097172Y-15655694D02*
X10097172Y-15703313D01*
X10097172Y-15703313D02*
X10087649Y-15741409D01*
X10087649Y-15741409D02*
X10078125Y-15760456D01*
X10078125Y-15760456D02*
X10068601Y-15769980D01*
X10068601Y-15769980D02*
X10049553Y-15779504D01*
X10049553Y-15779504D02*
X10030506Y-15779504D01*
X10030506Y-15779504D02*
X10011458Y-15769980D01*
X10011458Y-15769980D02*
X10001934Y-15760456D01*
X10001934Y-15760456D02*
X9992410Y-15741409D01*
X9992410Y-15741409D02*
X9982887Y-15703313D01*
X9982887Y-15703313D02*
X9982887Y-15655694D01*
X9982887Y-15655694D02*
X9992410Y-15617599D01*
X9992410Y-15617599D02*
X10001934Y-15598552D01*
X10001934Y-15598552D02*
X10011458Y-15589028D01*
X10011458Y-15589028D02*
X10030506Y-15579504D01*
X10173363Y-15579504D02*
X10173363Y-15617599D01*
X10249553Y-15579504D02*
X10249553Y-15617599D01*
X10544792Y-15855694D02*
X10535268Y-15846171D01*
X10535268Y-15846171D02*
X10516220Y-15817599D01*
X10516220Y-15817599D02*
X10506696Y-15798552D01*
X10506696Y-15798552D02*
X10497172Y-15769980D01*
X10497172Y-15769980D02*
X10487649Y-15722361D01*
X10487649Y-15722361D02*
X10487649Y-15684266D01*
X10487649Y-15684266D02*
X10497172Y-15636647D01*
X10497172Y-15636647D02*
X10506696Y-15608075D01*
X10506696Y-15608075D02*
X10516220Y-15589028D01*
X10516220Y-15589028D02*
X10535268Y-15560456D01*
X10535268Y-15560456D02*
X10544792Y-15550932D01*
X10725744Y-15779504D02*
X10611458Y-15779504D01*
X10668601Y-15779504D02*
X10668601Y-15579504D01*
X10668601Y-15579504D02*
X10649553Y-15608075D01*
X10649553Y-15608075D02*
X10630506Y-15627123D01*
X10630506Y-15627123D02*
X10611458Y-15636647D01*
X10849553Y-15579504D02*
X10868601Y-15579504D01*
X10868601Y-15579504D02*
X10887649Y-15589028D01*
X10887649Y-15589028D02*
X10897172Y-15598552D01*
X10897172Y-15598552D02*
X10906696Y-15617599D01*
X10906696Y-15617599D02*
X10916220Y-15655694D01*
X10916220Y-15655694D02*
X10916220Y-15703313D01*
X10916220Y-15703313D02*
X10906696Y-15741409D01*
X10906696Y-15741409D02*
X10897172Y-15760456D01*
X10897172Y-15760456D02*
X10887649Y-15769980D01*
X10887649Y-15769980D02*
X10868601Y-15779504D01*
X10868601Y-15779504D02*
X10849553Y-15779504D01*
X10849553Y-15779504D02*
X10830506Y-15769980D01*
X10830506Y-15769980D02*
X10820982Y-15760456D01*
X10820982Y-15760456D02*
X10811458Y-15741409D01*
X10811458Y-15741409D02*
X10801934Y-15703313D01*
X10801934Y-15703313D02*
X10801934Y-15655694D01*
X10801934Y-15655694D02*
X10811458Y-15617599D01*
X10811458Y-15617599D02*
X10820982Y-15598552D01*
X10820982Y-15598552D02*
X10830506Y-15589028D01*
X10830506Y-15589028D02*
X10849553Y-15579504D01*
X11154315Y-15779504D02*
X11154315Y-15579504D01*
X11240030Y-15779504D02*
X11240030Y-15674742D01*
X11240030Y-15674742D02*
X11230506Y-15655694D01*
X11230506Y-15655694D02*
X11211458Y-15646171D01*
X11211458Y-15646171D02*
X11182887Y-15646171D01*
X11182887Y-15646171D02*
X11163839Y-15655694D01*
X11163839Y-15655694D02*
X11154315Y-15665218D01*
X11363839Y-15779504D02*
X11344791Y-15769980D01*
X11344791Y-15769980D02*
X11335268Y-15760456D01*
X11335268Y-15760456D02*
X11325744Y-15741409D01*
X11325744Y-15741409D02*
X11325744Y-15684266D01*
X11325744Y-15684266D02*
X11335268Y-15665218D01*
X11335268Y-15665218D02*
X11344791Y-15655694D01*
X11344791Y-15655694D02*
X11363839Y-15646171D01*
X11363839Y-15646171D02*
X11392411Y-15646171D01*
X11392411Y-15646171D02*
X11411458Y-15655694D01*
X11411458Y-15655694D02*
X11420982Y-15665218D01*
X11420982Y-15665218D02*
X11430506Y-15684266D01*
X11430506Y-15684266D02*
X11430506Y-15741409D01*
X11430506Y-15741409D02*
X11420982Y-15760456D01*
X11420982Y-15760456D02*
X11411458Y-15769980D01*
X11411458Y-15769980D02*
X11392411Y-15779504D01*
X11392411Y-15779504D02*
X11363839Y-15779504D01*
X11544791Y-15779504D02*
X11525744Y-15769980D01*
X11525744Y-15769980D02*
X11516220Y-15750932D01*
X11516220Y-15750932D02*
X11516220Y-15579504D01*
X11697172Y-15769980D02*
X11678125Y-15779504D01*
X11678125Y-15779504D02*
X11640030Y-15779504D01*
X11640030Y-15779504D02*
X11620982Y-15769980D01*
X11620982Y-15769980D02*
X11611458Y-15750932D01*
X11611458Y-15750932D02*
X11611458Y-15674742D01*
X11611458Y-15674742D02*
X11620982Y-15655694D01*
X11620982Y-15655694D02*
X11640030Y-15646171D01*
X11640030Y-15646171D02*
X11678125Y-15646171D01*
X11678125Y-15646171D02*
X11697172Y-15655694D01*
X11697172Y-15655694D02*
X11706696Y-15674742D01*
X11706696Y-15674742D02*
X11706696Y-15693790D01*
X11706696Y-15693790D02*
X11611458Y-15712837D01*
X11782887Y-15769980D02*
X11801934Y-15779504D01*
X11801934Y-15779504D02*
X11840030Y-15779504D01*
X11840030Y-15779504D02*
X11859077Y-15769980D01*
X11859077Y-15769980D02*
X11868601Y-15750932D01*
X11868601Y-15750932D02*
X11868601Y-15741409D01*
X11868601Y-15741409D02*
X11859077Y-15722361D01*
X11859077Y-15722361D02*
X11840030Y-15712837D01*
X11840030Y-15712837D02*
X11811458Y-15712837D01*
X11811458Y-15712837D02*
X11792411Y-15703313D01*
X11792411Y-15703313D02*
X11782887Y-15684266D01*
X11782887Y-15684266D02*
X11782887Y-15674742D01*
X11782887Y-15674742D02*
X11792411Y-15655694D01*
X11792411Y-15655694D02*
X11811458Y-15646171D01*
X11811458Y-15646171D02*
X11840030Y-15646171D01*
X11840030Y-15646171D02*
X11859077Y-15655694D01*
X11935268Y-15855694D02*
X11944792Y-15846171D01*
X11944792Y-15846171D02*
X11963839Y-15817599D01*
X11963839Y-15817599D02*
X11973363Y-15798552D01*
X11973363Y-15798552D02*
X11982887Y-15769980D01*
X11982887Y-15769980D02*
X11992411Y-15722361D01*
X11992411Y-15722361D02*
X11992411Y-15684266D01*
X11992411Y-15684266D02*
X11982887Y-15636647D01*
X11982887Y-15636647D02*
X11973363Y-15608075D01*
X11973363Y-15608075D02*
X11963839Y-15589028D01*
X11963839Y-15589028D02*
X11944792Y-15560456D01*
X11944792Y-15560456D02*
X11935268Y-15550932D01*
M02*
