%TF.GenerationSoftware,KiCad,Pcbnew,8.0.4+1*%
%TF.CreationDate,2024-08-17T00:02:33-04:00*%
%TF.ProjectId,iyada_baseplate,69796164-615f-4626-9173-65706c617465,rev?*%
%TF.SameCoordinates,Original*%
%TF.FileFunction,Drillmap*%
%TF.FilePolarity,Positive*%
%FSLAX45Y45*%
G04 Gerber Fmt 4.5, Leading zero omitted, Abs format (unit mm)*
G04 Created by KiCad (PCBNEW 8.0.4+1) date 2024-08-17 00:02:33*
%MOMM*%
%LPD*%
G01*
G04 APERTURE LIST*
%ADD10C,0.050000*%
%ADD11C,0.200000*%
%ADD12C,0.100000*%
%ADD13C,0.220000*%
G04 APERTURE END LIST*
D10*
X16633387Y-4293561D02*
X11295900Y-4293500D01*
X20100000Y-14201000D02*
X22050419Y-14777146D01*
X11258261Y-4297183D02*
X7184700Y-4851200D01*
X23108200Y-10548429D02*
G75*
G02*
X23067502Y-10484000I30650J64429D01*
G01*
X22613000Y-13670000D02*
X23140624Y-11903940D01*
X22939600Y-4676700D02*
X20923139Y-4676883D01*
X23140624Y-11903940D02*
X23138642Y-10606705D01*
X11753000Y-13195000D02*
X18209000Y-13820000D01*
X6973858Y-12548705D02*
G75*
G02*
X7014557Y-12484274I71342J5D01*
G01*
X23066154Y-9234000D02*
G75*
G02*
X23106853Y-9169571I71346J0D01*
G01*
X7003300Y-11111571D02*
G75*
G02*
X7043998Y-11176000I-30650J-64429D01*
G01*
X22613000Y-13670000D02*
X22287630Y-14623099D01*
X18209000Y-13820000D02*
X20100000Y-14201000D01*
X22287630Y-14623099D02*
G75*
G02*
X22050418Y-14777150I-195630J41579D01*
G01*
X7044500Y-11426000D02*
X7045000Y-12426000D01*
X6984700Y-5051200D02*
G75*
G02*
X7184700Y-4851200I200000J0D01*
G01*
X23066500Y-9234000D02*
X23067000Y-9484000D01*
X6972858Y-11053295D02*
X6984700Y-5051200D01*
X23108200Y-10548429D02*
G75*
G02*
X23138637Y-10606705I-40560J-58271D01*
G01*
X11258261Y-4297183D02*
G75*
G02*
X11295900Y-4293499I35989J-173577D01*
G01*
X22939600Y-4676700D02*
G75*
G02*
X23139600Y-4876700I0J-200000D01*
G01*
X7172229Y-13188821D02*
G75*
G02*
X6972229Y-12988821I1J200001D01*
G01*
X20923139Y-4676883D02*
X16671026Y-4297245D01*
X7044000Y-11176000D02*
X7044500Y-11426000D01*
X7172229Y-13188821D02*
X11753000Y-13195000D01*
X7045000Y-12426000D02*
G75*
G02*
X7014558Y-12484276I-71000J0D01*
G01*
X23067500Y-10484000D02*
X23067000Y-9484000D01*
X6973858Y-12548705D02*
X6972229Y-12988821D01*
X23137295Y-9111295D02*
X23139600Y-4876700D01*
X7003300Y-11111571D02*
G75*
G02*
X6972863Y-11053295I40560J58271D01*
G01*
X23137295Y-9111295D02*
G75*
G02*
X23106854Y-9169573I-70995J-5D01*
G01*
X16633387Y-4293561D02*
G75*
G02*
X16671026Y-4297245I1653J-177259D01*
G01*
D11*
D12*
X8133000Y-12962000D02*
X8223000Y-13052000D01*
X8223000Y-12962000D02*
X8133000Y-13052000D01*
X8133000Y-12962000D02*
X8223000Y-13052000D01*
X8223000Y-12962000D02*
X8133000Y-13052000D01*
X8813000Y-12962000D02*
X8903000Y-13052000D01*
X8903000Y-12962000D02*
X8813000Y-13052000D01*
X8813000Y-12962000D02*
X8903000Y-13052000D01*
X8903000Y-12962000D02*
X8813000Y-13052000D01*
X9733000Y-12962000D02*
X9823000Y-13052000D01*
X9823000Y-12962000D02*
X9733000Y-13052000D01*
X9733000Y-12962000D02*
X9823000Y-13052000D01*
X9823000Y-12962000D02*
X9733000Y-13052000D01*
X10413000Y-12962000D02*
X10503000Y-13052000D01*
X10503000Y-12962000D02*
X10413000Y-13052000D01*
X10413000Y-12962000D02*
X10503000Y-13052000D01*
X10503000Y-12962000D02*
X10413000Y-13052000D01*
X11333000Y-12962000D02*
X11423000Y-13052000D01*
X11423000Y-12962000D02*
X11333000Y-13052000D01*
X11333000Y-12962000D02*
X11423000Y-13052000D01*
X11423000Y-12962000D02*
X11333000Y-13052000D01*
X12013000Y-12962000D02*
X12103000Y-13052000D01*
X12103000Y-12962000D02*
X12013000Y-13052000D01*
X12013000Y-12962000D02*
X12103000Y-13052000D01*
X12103000Y-12962000D02*
X12013000Y-13052000D01*
D13*
X7339500Y-6898500D02*
G75*
G02*
X7119500Y-6898500I-110000J0D01*
G01*
X7119500Y-6898500D02*
G75*
G02*
X7339500Y-6898500I110000J0D01*
G01*
X7420000Y-12877000D02*
G75*
G02*
X7200000Y-12877000I-110000J0D01*
G01*
X7200000Y-12877000D02*
G75*
G02*
X7420000Y-12877000I110000J0D01*
G01*
X10977000Y-4697000D02*
G75*
G02*
X10757000Y-4697000I-110000J0D01*
G01*
X10757000Y-4697000D02*
G75*
G02*
X10977000Y-4697000I110000J0D01*
G01*
X11185000Y-8552000D02*
G75*
G02*
X10965000Y-8552000I-110000J0D01*
G01*
X10965000Y-8552000D02*
G75*
G02*
X11185000Y-8552000I110000J0D01*
G01*
X16941000Y-6609000D02*
G75*
G02*
X16721000Y-6609000I-110000J0D01*
G01*
X16721000Y-6609000D02*
G75*
G02*
X16941000Y-6609000I110000J0D01*
G01*
X16941000Y-8564000D02*
G75*
G02*
X16721000Y-8564000I-110000J0D01*
G01*
X16721000Y-8564000D02*
G75*
G02*
X16941000Y-8564000I110000J0D01*
G01*
X19954000Y-4977000D02*
G75*
G02*
X19734000Y-4977000I-110000J0D01*
G01*
X19734000Y-4977000D02*
G75*
G02*
X19954000Y-4977000I110000J0D01*
G01*
X22163000Y-14516000D02*
G75*
G02*
X21943000Y-14516000I-110000J0D01*
G01*
X21943000Y-14516000D02*
G75*
G02*
X22163000Y-14516000I110000J0D01*
G01*
D11*
X7230505Y-15095504D02*
X7230505Y-14895504D01*
X7230505Y-14895504D02*
X7278124Y-14895504D01*
X7278124Y-14895504D02*
X7306696Y-14905028D01*
X7306696Y-14905028D02*
X7325743Y-14924075D01*
X7325743Y-14924075D02*
X7335267Y-14943123D01*
X7335267Y-14943123D02*
X7344791Y-14981218D01*
X7344791Y-14981218D02*
X7344791Y-15009790D01*
X7344791Y-15009790D02*
X7335267Y-15047885D01*
X7335267Y-15047885D02*
X7325743Y-15066932D01*
X7325743Y-15066932D02*
X7306696Y-15085980D01*
X7306696Y-15085980D02*
X7278124Y-15095504D01*
X7278124Y-15095504D02*
X7230505Y-15095504D01*
X7430505Y-15095504D02*
X7430505Y-14962171D01*
X7430505Y-15000266D02*
X7440029Y-14981218D01*
X7440029Y-14981218D02*
X7449553Y-14971694D01*
X7449553Y-14971694D02*
X7468601Y-14962171D01*
X7468601Y-14962171D02*
X7487648Y-14962171D01*
X7554315Y-15095504D02*
X7554315Y-14962171D01*
X7554315Y-14895504D02*
X7544791Y-14905028D01*
X7544791Y-14905028D02*
X7554315Y-14914552D01*
X7554315Y-14914552D02*
X7563839Y-14905028D01*
X7563839Y-14905028D02*
X7554315Y-14895504D01*
X7554315Y-14895504D02*
X7554315Y-14914552D01*
X7678124Y-15095504D02*
X7659077Y-15085980D01*
X7659077Y-15085980D02*
X7649553Y-15066932D01*
X7649553Y-15066932D02*
X7649553Y-14895504D01*
X7782886Y-15095504D02*
X7763839Y-15085980D01*
X7763839Y-15085980D02*
X7754315Y-15066932D01*
X7754315Y-15066932D02*
X7754315Y-14895504D01*
X8011458Y-15095504D02*
X8011458Y-14895504D01*
X8011458Y-14895504D02*
X8078124Y-15038361D01*
X8078124Y-15038361D02*
X8144791Y-14895504D01*
X8144791Y-14895504D02*
X8144791Y-15095504D01*
X8325743Y-15095504D02*
X8325743Y-14990742D01*
X8325743Y-14990742D02*
X8316220Y-14971694D01*
X8316220Y-14971694D02*
X8297172Y-14962171D01*
X8297172Y-14962171D02*
X8259077Y-14962171D01*
X8259077Y-14962171D02*
X8240029Y-14971694D01*
X8325743Y-15085980D02*
X8306696Y-15095504D01*
X8306696Y-15095504D02*
X8259077Y-15095504D01*
X8259077Y-15095504D02*
X8240029Y-15085980D01*
X8240029Y-15085980D02*
X8230505Y-15066932D01*
X8230505Y-15066932D02*
X8230505Y-15047885D01*
X8230505Y-15047885D02*
X8240029Y-15028837D01*
X8240029Y-15028837D02*
X8259077Y-15019313D01*
X8259077Y-15019313D02*
X8306696Y-15019313D01*
X8306696Y-15019313D02*
X8325743Y-15009790D01*
X8420982Y-14962171D02*
X8420982Y-15162171D01*
X8420982Y-14971694D02*
X8440029Y-14962171D01*
X8440029Y-14962171D02*
X8478125Y-14962171D01*
X8478125Y-14962171D02*
X8497172Y-14971694D01*
X8497172Y-14971694D02*
X8506696Y-14981218D01*
X8506696Y-14981218D02*
X8516220Y-15000266D01*
X8516220Y-15000266D02*
X8516220Y-15057409D01*
X8516220Y-15057409D02*
X8506696Y-15076456D01*
X8506696Y-15076456D02*
X8497172Y-15085980D01*
X8497172Y-15085980D02*
X8478125Y-15095504D01*
X8478125Y-15095504D02*
X8440029Y-15095504D01*
X8440029Y-15095504D02*
X8420982Y-15085980D01*
X8601934Y-15076456D02*
X8611458Y-15085980D01*
X8611458Y-15085980D02*
X8601934Y-15095504D01*
X8601934Y-15095504D02*
X8592410Y-15085980D01*
X8592410Y-15085980D02*
X8601934Y-15076456D01*
X8601934Y-15076456D02*
X8601934Y-15095504D01*
X8601934Y-14971694D02*
X8611458Y-14981218D01*
X8611458Y-14981218D02*
X8601934Y-14990742D01*
X8601934Y-14990742D02*
X8592410Y-14981218D01*
X8592410Y-14981218D02*
X8601934Y-14971694D01*
X8601934Y-14971694D02*
X8601934Y-14990742D01*
D12*
X6879729Y-15379020D02*
X6969729Y-15469020D01*
X6969729Y-15379020D02*
X6879729Y-15469020D01*
D11*
X7268601Y-15315504D02*
X7287648Y-15315504D01*
X7287648Y-15315504D02*
X7306696Y-15325028D01*
X7306696Y-15325028D02*
X7316220Y-15334552D01*
X7316220Y-15334552D02*
X7325743Y-15353599D01*
X7325743Y-15353599D02*
X7335267Y-15391694D01*
X7335267Y-15391694D02*
X7335267Y-15439313D01*
X7335267Y-15439313D02*
X7325743Y-15477409D01*
X7325743Y-15477409D02*
X7316220Y-15496456D01*
X7316220Y-15496456D02*
X7306696Y-15505980D01*
X7306696Y-15505980D02*
X7287648Y-15515504D01*
X7287648Y-15515504D02*
X7268601Y-15515504D01*
X7268601Y-15515504D02*
X7249553Y-15505980D01*
X7249553Y-15505980D02*
X7240029Y-15496456D01*
X7240029Y-15496456D02*
X7230505Y-15477409D01*
X7230505Y-15477409D02*
X7220982Y-15439313D01*
X7220982Y-15439313D02*
X7220982Y-15391694D01*
X7220982Y-15391694D02*
X7230505Y-15353599D01*
X7230505Y-15353599D02*
X7240029Y-15334552D01*
X7240029Y-15334552D02*
X7249553Y-15325028D01*
X7249553Y-15325028D02*
X7268601Y-15315504D01*
X7420982Y-15496456D02*
X7430505Y-15505980D01*
X7430505Y-15505980D02*
X7420982Y-15515504D01*
X7420982Y-15515504D02*
X7411458Y-15505980D01*
X7411458Y-15505980D02*
X7420982Y-15496456D01*
X7420982Y-15496456D02*
X7420982Y-15515504D01*
X7525743Y-15515504D02*
X7563839Y-15515504D01*
X7563839Y-15515504D02*
X7582886Y-15505980D01*
X7582886Y-15505980D02*
X7592410Y-15496456D01*
X7592410Y-15496456D02*
X7611458Y-15467885D01*
X7611458Y-15467885D02*
X7620982Y-15429790D01*
X7620982Y-15429790D02*
X7620982Y-15353599D01*
X7620982Y-15353599D02*
X7611458Y-15334552D01*
X7611458Y-15334552D02*
X7601934Y-15325028D01*
X7601934Y-15325028D02*
X7582886Y-15315504D01*
X7582886Y-15315504D02*
X7544791Y-15315504D01*
X7544791Y-15315504D02*
X7525743Y-15325028D01*
X7525743Y-15325028D02*
X7516220Y-15334552D01*
X7516220Y-15334552D02*
X7506696Y-15353599D01*
X7506696Y-15353599D02*
X7506696Y-15401218D01*
X7506696Y-15401218D02*
X7516220Y-15420266D01*
X7516220Y-15420266D02*
X7525743Y-15429790D01*
X7525743Y-15429790D02*
X7544791Y-15439313D01*
X7544791Y-15439313D02*
X7582886Y-15439313D01*
X7582886Y-15439313D02*
X7601934Y-15429790D01*
X7601934Y-15429790D02*
X7611458Y-15420266D01*
X7611458Y-15420266D02*
X7620982Y-15401218D01*
X7744791Y-15315504D02*
X7763839Y-15315504D01*
X7763839Y-15315504D02*
X7782886Y-15325028D01*
X7782886Y-15325028D02*
X7792410Y-15334552D01*
X7792410Y-15334552D02*
X7801934Y-15353599D01*
X7801934Y-15353599D02*
X7811458Y-15391694D01*
X7811458Y-15391694D02*
X7811458Y-15439313D01*
X7811458Y-15439313D02*
X7801934Y-15477409D01*
X7801934Y-15477409D02*
X7792410Y-15496456D01*
X7792410Y-15496456D02*
X7782886Y-15505980D01*
X7782886Y-15505980D02*
X7763839Y-15515504D01*
X7763839Y-15515504D02*
X7744791Y-15515504D01*
X7744791Y-15515504D02*
X7725743Y-15505980D01*
X7725743Y-15505980D02*
X7716220Y-15496456D01*
X7716220Y-15496456D02*
X7706696Y-15477409D01*
X7706696Y-15477409D02*
X7697172Y-15439313D01*
X7697172Y-15439313D02*
X7697172Y-15391694D01*
X7697172Y-15391694D02*
X7706696Y-15353599D01*
X7706696Y-15353599D02*
X7716220Y-15334552D01*
X7716220Y-15334552D02*
X7725743Y-15325028D01*
X7725743Y-15325028D02*
X7744791Y-15315504D01*
X7935267Y-15315504D02*
X7954315Y-15315504D01*
X7954315Y-15315504D02*
X7973363Y-15325028D01*
X7973363Y-15325028D02*
X7982886Y-15334552D01*
X7982886Y-15334552D02*
X7992410Y-15353599D01*
X7992410Y-15353599D02*
X8001934Y-15391694D01*
X8001934Y-15391694D02*
X8001934Y-15439313D01*
X8001934Y-15439313D02*
X7992410Y-15477409D01*
X7992410Y-15477409D02*
X7982886Y-15496456D01*
X7982886Y-15496456D02*
X7973363Y-15505980D01*
X7973363Y-15505980D02*
X7954315Y-15515504D01*
X7954315Y-15515504D02*
X7935267Y-15515504D01*
X7935267Y-15515504D02*
X7916220Y-15505980D01*
X7916220Y-15505980D02*
X7906696Y-15496456D01*
X7906696Y-15496456D02*
X7897172Y-15477409D01*
X7897172Y-15477409D02*
X7887648Y-15439313D01*
X7887648Y-15439313D02*
X7887648Y-15391694D01*
X7887648Y-15391694D02*
X7897172Y-15353599D01*
X7897172Y-15353599D02*
X7906696Y-15334552D01*
X7906696Y-15334552D02*
X7916220Y-15325028D01*
X7916220Y-15325028D02*
X7935267Y-15315504D01*
X8087648Y-15515504D02*
X8087648Y-15382171D01*
X8087648Y-15401218D02*
X8097172Y-15391694D01*
X8097172Y-15391694D02*
X8116220Y-15382171D01*
X8116220Y-15382171D02*
X8144791Y-15382171D01*
X8144791Y-15382171D02*
X8163839Y-15391694D01*
X8163839Y-15391694D02*
X8173363Y-15410742D01*
X8173363Y-15410742D02*
X8173363Y-15515504D01*
X8173363Y-15410742D02*
X8182886Y-15391694D01*
X8182886Y-15391694D02*
X8201934Y-15382171D01*
X8201934Y-15382171D02*
X8230505Y-15382171D01*
X8230505Y-15382171D02*
X8249553Y-15391694D01*
X8249553Y-15391694D02*
X8259077Y-15410742D01*
X8259077Y-15410742D02*
X8259077Y-15515504D01*
X8354315Y-15515504D02*
X8354315Y-15382171D01*
X8354315Y-15401218D02*
X8363839Y-15391694D01*
X8363839Y-15391694D02*
X8382886Y-15382171D01*
X8382886Y-15382171D02*
X8411458Y-15382171D01*
X8411458Y-15382171D02*
X8430506Y-15391694D01*
X8430506Y-15391694D02*
X8440029Y-15410742D01*
X8440029Y-15410742D02*
X8440029Y-15515504D01*
X8440029Y-15410742D02*
X8449553Y-15391694D01*
X8449553Y-15391694D02*
X8468601Y-15382171D01*
X8468601Y-15382171D02*
X8497172Y-15382171D01*
X8497172Y-15382171D02*
X8516220Y-15391694D01*
X8516220Y-15391694D02*
X8525744Y-15410742D01*
X8525744Y-15410742D02*
X8525744Y-15515504D01*
X8916220Y-15305980D02*
X8744791Y-15563123D01*
X9173363Y-15315504D02*
X9192410Y-15315504D01*
X9192410Y-15315504D02*
X9211458Y-15325028D01*
X9211458Y-15325028D02*
X9220982Y-15334552D01*
X9220982Y-15334552D02*
X9230506Y-15353599D01*
X9230506Y-15353599D02*
X9240029Y-15391694D01*
X9240029Y-15391694D02*
X9240029Y-15439313D01*
X9240029Y-15439313D02*
X9230506Y-15477409D01*
X9230506Y-15477409D02*
X9220982Y-15496456D01*
X9220982Y-15496456D02*
X9211458Y-15505980D01*
X9211458Y-15505980D02*
X9192410Y-15515504D01*
X9192410Y-15515504D02*
X9173363Y-15515504D01*
X9173363Y-15515504D02*
X9154315Y-15505980D01*
X9154315Y-15505980D02*
X9144791Y-15496456D01*
X9144791Y-15496456D02*
X9135268Y-15477409D01*
X9135268Y-15477409D02*
X9125744Y-15439313D01*
X9125744Y-15439313D02*
X9125744Y-15391694D01*
X9125744Y-15391694D02*
X9135268Y-15353599D01*
X9135268Y-15353599D02*
X9144791Y-15334552D01*
X9144791Y-15334552D02*
X9154315Y-15325028D01*
X9154315Y-15325028D02*
X9173363Y-15315504D01*
X9325744Y-15496456D02*
X9335268Y-15505980D01*
X9335268Y-15505980D02*
X9325744Y-15515504D01*
X9325744Y-15515504D02*
X9316220Y-15505980D01*
X9316220Y-15505980D02*
X9325744Y-15496456D01*
X9325744Y-15496456D02*
X9325744Y-15515504D01*
X9459077Y-15315504D02*
X9478125Y-15315504D01*
X9478125Y-15315504D02*
X9497172Y-15325028D01*
X9497172Y-15325028D02*
X9506696Y-15334552D01*
X9506696Y-15334552D02*
X9516220Y-15353599D01*
X9516220Y-15353599D02*
X9525744Y-15391694D01*
X9525744Y-15391694D02*
X9525744Y-15439313D01*
X9525744Y-15439313D02*
X9516220Y-15477409D01*
X9516220Y-15477409D02*
X9506696Y-15496456D01*
X9506696Y-15496456D02*
X9497172Y-15505980D01*
X9497172Y-15505980D02*
X9478125Y-15515504D01*
X9478125Y-15515504D02*
X9459077Y-15515504D01*
X9459077Y-15515504D02*
X9440029Y-15505980D01*
X9440029Y-15505980D02*
X9430506Y-15496456D01*
X9430506Y-15496456D02*
X9420982Y-15477409D01*
X9420982Y-15477409D02*
X9411458Y-15439313D01*
X9411458Y-15439313D02*
X9411458Y-15391694D01*
X9411458Y-15391694D02*
X9420982Y-15353599D01*
X9420982Y-15353599D02*
X9430506Y-15334552D01*
X9430506Y-15334552D02*
X9440029Y-15325028D01*
X9440029Y-15325028D02*
X9459077Y-15315504D01*
X9592410Y-15315504D02*
X9716220Y-15315504D01*
X9716220Y-15315504D02*
X9649553Y-15391694D01*
X9649553Y-15391694D02*
X9678125Y-15391694D01*
X9678125Y-15391694D02*
X9697172Y-15401218D01*
X9697172Y-15401218D02*
X9706696Y-15410742D01*
X9706696Y-15410742D02*
X9716220Y-15429790D01*
X9716220Y-15429790D02*
X9716220Y-15477409D01*
X9716220Y-15477409D02*
X9706696Y-15496456D01*
X9706696Y-15496456D02*
X9697172Y-15505980D01*
X9697172Y-15505980D02*
X9678125Y-15515504D01*
X9678125Y-15515504D02*
X9620982Y-15515504D01*
X9620982Y-15515504D02*
X9601934Y-15505980D01*
X9601934Y-15505980D02*
X9592410Y-15496456D01*
X9897172Y-15315504D02*
X9801934Y-15315504D01*
X9801934Y-15315504D02*
X9792410Y-15410742D01*
X9792410Y-15410742D02*
X9801934Y-15401218D01*
X9801934Y-15401218D02*
X9820982Y-15391694D01*
X9820982Y-15391694D02*
X9868601Y-15391694D01*
X9868601Y-15391694D02*
X9887649Y-15401218D01*
X9887649Y-15401218D02*
X9897172Y-15410742D01*
X9897172Y-15410742D02*
X9906696Y-15429790D01*
X9906696Y-15429790D02*
X9906696Y-15477409D01*
X9906696Y-15477409D02*
X9897172Y-15496456D01*
X9897172Y-15496456D02*
X9887649Y-15505980D01*
X9887649Y-15505980D02*
X9868601Y-15515504D01*
X9868601Y-15515504D02*
X9820982Y-15515504D01*
X9820982Y-15515504D02*
X9801934Y-15505980D01*
X9801934Y-15505980D02*
X9792410Y-15496456D01*
X10078125Y-15382171D02*
X10078125Y-15515504D01*
X10030506Y-15305980D02*
X9982887Y-15448837D01*
X9982887Y-15448837D02*
X10106696Y-15448837D01*
X10173363Y-15315504D02*
X10173363Y-15353599D01*
X10249553Y-15315504D02*
X10249553Y-15353599D01*
X10544792Y-15591694D02*
X10535268Y-15582171D01*
X10535268Y-15582171D02*
X10516220Y-15553599D01*
X10516220Y-15553599D02*
X10506696Y-15534552D01*
X10506696Y-15534552D02*
X10497172Y-15505980D01*
X10497172Y-15505980D02*
X10487649Y-15458361D01*
X10487649Y-15458361D02*
X10487649Y-15420266D01*
X10487649Y-15420266D02*
X10497172Y-15372647D01*
X10497172Y-15372647D02*
X10506696Y-15344075D01*
X10506696Y-15344075D02*
X10516220Y-15325028D01*
X10516220Y-15325028D02*
X10535268Y-15296456D01*
X10535268Y-15296456D02*
X10544792Y-15286932D01*
X10725744Y-15515504D02*
X10611458Y-15515504D01*
X10668601Y-15515504D02*
X10668601Y-15315504D01*
X10668601Y-15315504D02*
X10649553Y-15344075D01*
X10649553Y-15344075D02*
X10630506Y-15363123D01*
X10630506Y-15363123D02*
X10611458Y-15372647D01*
X10801934Y-15334552D02*
X10811458Y-15325028D01*
X10811458Y-15325028D02*
X10830506Y-15315504D01*
X10830506Y-15315504D02*
X10878125Y-15315504D01*
X10878125Y-15315504D02*
X10897172Y-15325028D01*
X10897172Y-15325028D02*
X10906696Y-15334552D01*
X10906696Y-15334552D02*
X10916220Y-15353599D01*
X10916220Y-15353599D02*
X10916220Y-15372647D01*
X10916220Y-15372647D02*
X10906696Y-15401218D01*
X10906696Y-15401218D02*
X10792411Y-15515504D01*
X10792411Y-15515504D02*
X10916220Y-15515504D01*
X11154315Y-15515504D02*
X11154315Y-15315504D01*
X11240030Y-15515504D02*
X11240030Y-15410742D01*
X11240030Y-15410742D02*
X11230506Y-15391694D01*
X11230506Y-15391694D02*
X11211458Y-15382171D01*
X11211458Y-15382171D02*
X11182887Y-15382171D01*
X11182887Y-15382171D02*
X11163839Y-15391694D01*
X11163839Y-15391694D02*
X11154315Y-15401218D01*
X11363839Y-15515504D02*
X11344791Y-15505980D01*
X11344791Y-15505980D02*
X11335268Y-15496456D01*
X11335268Y-15496456D02*
X11325744Y-15477409D01*
X11325744Y-15477409D02*
X11325744Y-15420266D01*
X11325744Y-15420266D02*
X11335268Y-15401218D01*
X11335268Y-15401218D02*
X11344791Y-15391694D01*
X11344791Y-15391694D02*
X11363839Y-15382171D01*
X11363839Y-15382171D02*
X11392411Y-15382171D01*
X11392411Y-15382171D02*
X11411458Y-15391694D01*
X11411458Y-15391694D02*
X11420982Y-15401218D01*
X11420982Y-15401218D02*
X11430506Y-15420266D01*
X11430506Y-15420266D02*
X11430506Y-15477409D01*
X11430506Y-15477409D02*
X11420982Y-15496456D01*
X11420982Y-15496456D02*
X11411458Y-15505980D01*
X11411458Y-15505980D02*
X11392411Y-15515504D01*
X11392411Y-15515504D02*
X11363839Y-15515504D01*
X11544791Y-15515504D02*
X11525744Y-15505980D01*
X11525744Y-15505980D02*
X11516220Y-15486932D01*
X11516220Y-15486932D02*
X11516220Y-15315504D01*
X11697172Y-15505980D02*
X11678125Y-15515504D01*
X11678125Y-15515504D02*
X11640030Y-15515504D01*
X11640030Y-15515504D02*
X11620982Y-15505980D01*
X11620982Y-15505980D02*
X11611458Y-15486932D01*
X11611458Y-15486932D02*
X11611458Y-15410742D01*
X11611458Y-15410742D02*
X11620982Y-15391694D01*
X11620982Y-15391694D02*
X11640030Y-15382171D01*
X11640030Y-15382171D02*
X11678125Y-15382171D01*
X11678125Y-15382171D02*
X11697172Y-15391694D01*
X11697172Y-15391694D02*
X11706696Y-15410742D01*
X11706696Y-15410742D02*
X11706696Y-15429790D01*
X11706696Y-15429790D02*
X11611458Y-15448837D01*
X11782887Y-15505980D02*
X11801934Y-15515504D01*
X11801934Y-15515504D02*
X11840030Y-15515504D01*
X11840030Y-15515504D02*
X11859077Y-15505980D01*
X11859077Y-15505980D02*
X11868601Y-15486932D01*
X11868601Y-15486932D02*
X11868601Y-15477409D01*
X11868601Y-15477409D02*
X11859077Y-15458361D01*
X11859077Y-15458361D02*
X11840030Y-15448837D01*
X11840030Y-15448837D02*
X11811458Y-15448837D01*
X11811458Y-15448837D02*
X11792411Y-15439313D01*
X11792411Y-15439313D02*
X11782887Y-15420266D01*
X11782887Y-15420266D02*
X11782887Y-15410742D01*
X11782887Y-15410742D02*
X11792411Y-15391694D01*
X11792411Y-15391694D02*
X11811458Y-15382171D01*
X11811458Y-15382171D02*
X11840030Y-15382171D01*
X11840030Y-15382171D02*
X11859077Y-15391694D01*
X11935268Y-15591694D02*
X11944792Y-15582171D01*
X11944792Y-15582171D02*
X11963839Y-15553599D01*
X11963839Y-15553599D02*
X11973363Y-15534552D01*
X11973363Y-15534552D02*
X11982887Y-15505980D01*
X11982887Y-15505980D02*
X11992411Y-15458361D01*
X11992411Y-15458361D02*
X11992411Y-15420266D01*
X11992411Y-15420266D02*
X11982887Y-15372647D01*
X11982887Y-15372647D02*
X11973363Y-15344075D01*
X11973363Y-15344075D02*
X11963839Y-15325028D01*
X11963839Y-15325028D02*
X11944792Y-15296456D01*
X11944792Y-15296456D02*
X11935268Y-15286932D01*
X12297173Y-15591694D02*
X12287649Y-15582171D01*
X12287649Y-15582171D02*
X12268601Y-15553599D01*
X12268601Y-15553599D02*
X12259077Y-15534552D01*
X12259077Y-15534552D02*
X12249553Y-15505980D01*
X12249553Y-15505980D02*
X12240030Y-15458361D01*
X12240030Y-15458361D02*
X12240030Y-15420266D01*
X12240030Y-15420266D02*
X12249553Y-15372647D01*
X12249553Y-15372647D02*
X12259077Y-15344075D01*
X12259077Y-15344075D02*
X12268601Y-15325028D01*
X12268601Y-15325028D02*
X12287649Y-15296456D01*
X12287649Y-15296456D02*
X12297173Y-15286932D01*
X12373363Y-15382171D02*
X12373363Y-15515504D01*
X12373363Y-15401218D02*
X12382887Y-15391694D01*
X12382887Y-15391694D02*
X12401934Y-15382171D01*
X12401934Y-15382171D02*
X12430506Y-15382171D01*
X12430506Y-15382171D02*
X12449553Y-15391694D01*
X12449553Y-15391694D02*
X12459077Y-15410742D01*
X12459077Y-15410742D02*
X12459077Y-15515504D01*
X12582887Y-15515504D02*
X12563839Y-15505980D01*
X12563839Y-15505980D02*
X12554315Y-15496456D01*
X12554315Y-15496456D02*
X12544792Y-15477409D01*
X12544792Y-15477409D02*
X12544792Y-15420266D01*
X12544792Y-15420266D02*
X12554315Y-15401218D01*
X12554315Y-15401218D02*
X12563839Y-15391694D01*
X12563839Y-15391694D02*
X12582887Y-15382171D01*
X12582887Y-15382171D02*
X12611458Y-15382171D01*
X12611458Y-15382171D02*
X12630506Y-15391694D01*
X12630506Y-15391694D02*
X12640030Y-15401218D01*
X12640030Y-15401218D02*
X12649553Y-15420266D01*
X12649553Y-15420266D02*
X12649553Y-15477409D01*
X12649553Y-15477409D02*
X12640030Y-15496456D01*
X12640030Y-15496456D02*
X12630506Y-15505980D01*
X12630506Y-15505980D02*
X12611458Y-15515504D01*
X12611458Y-15515504D02*
X12582887Y-15515504D01*
X12706696Y-15382171D02*
X12782887Y-15382171D01*
X12735268Y-15315504D02*
X12735268Y-15486932D01*
X12735268Y-15486932D02*
X12744792Y-15505980D01*
X12744792Y-15505980D02*
X12763839Y-15515504D01*
X12763839Y-15515504D02*
X12782887Y-15515504D01*
X13001934Y-15382171D02*
X13001934Y-15582171D01*
X13001934Y-15391694D02*
X13020982Y-15382171D01*
X13020982Y-15382171D02*
X13059077Y-15382171D01*
X13059077Y-15382171D02*
X13078125Y-15391694D01*
X13078125Y-15391694D02*
X13087649Y-15401218D01*
X13087649Y-15401218D02*
X13097173Y-15420266D01*
X13097173Y-15420266D02*
X13097173Y-15477409D01*
X13097173Y-15477409D02*
X13087649Y-15496456D01*
X13087649Y-15496456D02*
X13078125Y-15505980D01*
X13078125Y-15505980D02*
X13059077Y-15515504D01*
X13059077Y-15515504D02*
X13020982Y-15515504D01*
X13020982Y-15515504D02*
X13001934Y-15505980D01*
X13211458Y-15515504D02*
X13192411Y-15505980D01*
X13192411Y-15505980D02*
X13182887Y-15486932D01*
X13182887Y-15486932D02*
X13182887Y-15315504D01*
X13373363Y-15515504D02*
X13373363Y-15410742D01*
X13373363Y-15410742D02*
X13363839Y-15391694D01*
X13363839Y-15391694D02*
X13344792Y-15382171D01*
X13344792Y-15382171D02*
X13306696Y-15382171D01*
X13306696Y-15382171D02*
X13287649Y-15391694D01*
X13373363Y-15505980D02*
X13354315Y-15515504D01*
X13354315Y-15515504D02*
X13306696Y-15515504D01*
X13306696Y-15515504D02*
X13287649Y-15505980D01*
X13287649Y-15505980D02*
X13278125Y-15486932D01*
X13278125Y-15486932D02*
X13278125Y-15467885D01*
X13278125Y-15467885D02*
X13287649Y-15448837D01*
X13287649Y-15448837D02*
X13306696Y-15439313D01*
X13306696Y-15439313D02*
X13354315Y-15439313D01*
X13354315Y-15439313D02*
X13373363Y-15429790D01*
X13440030Y-15382171D02*
X13516220Y-15382171D01*
X13468601Y-15315504D02*
X13468601Y-15486932D01*
X13468601Y-15486932D02*
X13478125Y-15505980D01*
X13478125Y-15505980D02*
X13497173Y-15515504D01*
X13497173Y-15515504D02*
X13516220Y-15515504D01*
X13659077Y-15505980D02*
X13640030Y-15515504D01*
X13640030Y-15515504D02*
X13601934Y-15515504D01*
X13601934Y-15515504D02*
X13582887Y-15505980D01*
X13582887Y-15505980D02*
X13573363Y-15486932D01*
X13573363Y-15486932D02*
X13573363Y-15410742D01*
X13573363Y-15410742D02*
X13582887Y-15391694D01*
X13582887Y-15391694D02*
X13601934Y-15382171D01*
X13601934Y-15382171D02*
X13640030Y-15382171D01*
X13640030Y-15382171D02*
X13659077Y-15391694D01*
X13659077Y-15391694D02*
X13668601Y-15410742D01*
X13668601Y-15410742D02*
X13668601Y-15429790D01*
X13668601Y-15429790D02*
X13573363Y-15448837D01*
X13840030Y-15515504D02*
X13840030Y-15315504D01*
X13840030Y-15505980D02*
X13820982Y-15515504D01*
X13820982Y-15515504D02*
X13782887Y-15515504D01*
X13782887Y-15515504D02*
X13763839Y-15505980D01*
X13763839Y-15505980D02*
X13754315Y-15496456D01*
X13754315Y-15496456D02*
X13744792Y-15477409D01*
X13744792Y-15477409D02*
X13744792Y-15420266D01*
X13744792Y-15420266D02*
X13754315Y-15401218D01*
X13754315Y-15401218D02*
X13763839Y-15391694D01*
X13763839Y-15391694D02*
X13782887Y-15382171D01*
X13782887Y-15382171D02*
X13820982Y-15382171D01*
X13820982Y-15382171D02*
X13840030Y-15391694D01*
X13916220Y-15591694D02*
X13925744Y-15582171D01*
X13925744Y-15582171D02*
X13944792Y-15553599D01*
X13944792Y-15553599D02*
X13954315Y-15534552D01*
X13954315Y-15534552D02*
X13963839Y-15505980D01*
X13963839Y-15505980D02*
X13973363Y-15458361D01*
X13973363Y-15458361D02*
X13973363Y-15420266D01*
X13973363Y-15420266D02*
X13963839Y-15372647D01*
X13963839Y-15372647D02*
X13954315Y-15344075D01*
X13954315Y-15344075D02*
X13944792Y-15325028D01*
X13944792Y-15325028D02*
X13925744Y-15296456D01*
X13925744Y-15296456D02*
X13916220Y-15286932D01*
X6969729Y-15688020D02*
G75*
G02*
X6769729Y-15688020I-100000J0D01*
G01*
X6769729Y-15688020D02*
G75*
G02*
X6969729Y-15688020I100000J0D01*
G01*
X7220982Y-15598552D02*
X7230505Y-15589028D01*
X7230505Y-15589028D02*
X7249553Y-15579504D01*
X7249553Y-15579504D02*
X7297172Y-15579504D01*
X7297172Y-15579504D02*
X7316220Y-15589028D01*
X7316220Y-15589028D02*
X7325743Y-15598552D01*
X7325743Y-15598552D02*
X7335267Y-15617599D01*
X7335267Y-15617599D02*
X7335267Y-15636647D01*
X7335267Y-15636647D02*
X7325743Y-15665218D01*
X7325743Y-15665218D02*
X7211458Y-15779504D01*
X7211458Y-15779504D02*
X7335267Y-15779504D01*
X7420982Y-15760456D02*
X7430505Y-15769980D01*
X7430505Y-15769980D02*
X7420982Y-15779504D01*
X7420982Y-15779504D02*
X7411458Y-15769980D01*
X7411458Y-15769980D02*
X7420982Y-15760456D01*
X7420982Y-15760456D02*
X7420982Y-15779504D01*
X7506696Y-15598552D02*
X7516220Y-15589028D01*
X7516220Y-15589028D02*
X7535267Y-15579504D01*
X7535267Y-15579504D02*
X7582886Y-15579504D01*
X7582886Y-15579504D02*
X7601934Y-15589028D01*
X7601934Y-15589028D02*
X7611458Y-15598552D01*
X7611458Y-15598552D02*
X7620982Y-15617599D01*
X7620982Y-15617599D02*
X7620982Y-15636647D01*
X7620982Y-15636647D02*
X7611458Y-15665218D01*
X7611458Y-15665218D02*
X7497172Y-15779504D01*
X7497172Y-15779504D02*
X7620982Y-15779504D01*
X7744791Y-15579504D02*
X7763839Y-15579504D01*
X7763839Y-15579504D02*
X7782886Y-15589028D01*
X7782886Y-15589028D02*
X7792410Y-15598552D01*
X7792410Y-15598552D02*
X7801934Y-15617599D01*
X7801934Y-15617599D02*
X7811458Y-15655694D01*
X7811458Y-15655694D02*
X7811458Y-15703313D01*
X7811458Y-15703313D02*
X7801934Y-15741409D01*
X7801934Y-15741409D02*
X7792410Y-15760456D01*
X7792410Y-15760456D02*
X7782886Y-15769980D01*
X7782886Y-15769980D02*
X7763839Y-15779504D01*
X7763839Y-15779504D02*
X7744791Y-15779504D01*
X7744791Y-15779504D02*
X7725743Y-15769980D01*
X7725743Y-15769980D02*
X7716220Y-15760456D01*
X7716220Y-15760456D02*
X7706696Y-15741409D01*
X7706696Y-15741409D02*
X7697172Y-15703313D01*
X7697172Y-15703313D02*
X7697172Y-15655694D01*
X7697172Y-15655694D02*
X7706696Y-15617599D01*
X7706696Y-15617599D02*
X7716220Y-15598552D01*
X7716220Y-15598552D02*
X7725743Y-15589028D01*
X7725743Y-15589028D02*
X7744791Y-15579504D01*
X7935267Y-15579504D02*
X7954315Y-15579504D01*
X7954315Y-15579504D02*
X7973363Y-15589028D01*
X7973363Y-15589028D02*
X7982886Y-15598552D01*
X7982886Y-15598552D02*
X7992410Y-15617599D01*
X7992410Y-15617599D02*
X8001934Y-15655694D01*
X8001934Y-15655694D02*
X8001934Y-15703313D01*
X8001934Y-15703313D02*
X7992410Y-15741409D01*
X7992410Y-15741409D02*
X7982886Y-15760456D01*
X7982886Y-15760456D02*
X7973363Y-15769980D01*
X7973363Y-15769980D02*
X7954315Y-15779504D01*
X7954315Y-15779504D02*
X7935267Y-15779504D01*
X7935267Y-15779504D02*
X7916220Y-15769980D01*
X7916220Y-15769980D02*
X7906696Y-15760456D01*
X7906696Y-15760456D02*
X7897172Y-15741409D01*
X7897172Y-15741409D02*
X7887648Y-15703313D01*
X7887648Y-15703313D02*
X7887648Y-15655694D01*
X7887648Y-15655694D02*
X7897172Y-15617599D01*
X7897172Y-15617599D02*
X7906696Y-15598552D01*
X7906696Y-15598552D02*
X7916220Y-15589028D01*
X7916220Y-15589028D02*
X7935267Y-15579504D01*
X8087648Y-15779504D02*
X8087648Y-15646171D01*
X8087648Y-15665218D02*
X8097172Y-15655694D01*
X8097172Y-15655694D02*
X8116220Y-15646171D01*
X8116220Y-15646171D02*
X8144791Y-15646171D01*
X8144791Y-15646171D02*
X8163839Y-15655694D01*
X8163839Y-15655694D02*
X8173363Y-15674742D01*
X8173363Y-15674742D02*
X8173363Y-15779504D01*
X8173363Y-15674742D02*
X8182886Y-15655694D01*
X8182886Y-15655694D02*
X8201934Y-15646171D01*
X8201934Y-15646171D02*
X8230505Y-15646171D01*
X8230505Y-15646171D02*
X8249553Y-15655694D01*
X8249553Y-15655694D02*
X8259077Y-15674742D01*
X8259077Y-15674742D02*
X8259077Y-15779504D01*
X8354315Y-15779504D02*
X8354315Y-15646171D01*
X8354315Y-15665218D02*
X8363839Y-15655694D01*
X8363839Y-15655694D02*
X8382886Y-15646171D01*
X8382886Y-15646171D02*
X8411458Y-15646171D01*
X8411458Y-15646171D02*
X8430506Y-15655694D01*
X8430506Y-15655694D02*
X8440029Y-15674742D01*
X8440029Y-15674742D02*
X8440029Y-15779504D01*
X8440029Y-15674742D02*
X8449553Y-15655694D01*
X8449553Y-15655694D02*
X8468601Y-15646171D01*
X8468601Y-15646171D02*
X8497172Y-15646171D01*
X8497172Y-15646171D02*
X8516220Y-15655694D01*
X8516220Y-15655694D02*
X8525744Y-15674742D01*
X8525744Y-15674742D02*
X8525744Y-15779504D01*
X8916220Y-15569980D02*
X8744791Y-15827123D01*
X9173363Y-15579504D02*
X9192410Y-15579504D01*
X9192410Y-15579504D02*
X9211458Y-15589028D01*
X9211458Y-15589028D02*
X9220982Y-15598552D01*
X9220982Y-15598552D02*
X9230506Y-15617599D01*
X9230506Y-15617599D02*
X9240029Y-15655694D01*
X9240029Y-15655694D02*
X9240029Y-15703313D01*
X9240029Y-15703313D02*
X9230506Y-15741409D01*
X9230506Y-15741409D02*
X9220982Y-15760456D01*
X9220982Y-15760456D02*
X9211458Y-15769980D01*
X9211458Y-15769980D02*
X9192410Y-15779504D01*
X9192410Y-15779504D02*
X9173363Y-15779504D01*
X9173363Y-15779504D02*
X9154315Y-15769980D01*
X9154315Y-15769980D02*
X9144791Y-15760456D01*
X9144791Y-15760456D02*
X9135268Y-15741409D01*
X9135268Y-15741409D02*
X9125744Y-15703313D01*
X9125744Y-15703313D02*
X9125744Y-15655694D01*
X9125744Y-15655694D02*
X9135268Y-15617599D01*
X9135268Y-15617599D02*
X9144791Y-15598552D01*
X9144791Y-15598552D02*
X9154315Y-15589028D01*
X9154315Y-15589028D02*
X9173363Y-15579504D01*
X9325744Y-15760456D02*
X9335268Y-15769980D01*
X9335268Y-15769980D02*
X9325744Y-15779504D01*
X9325744Y-15779504D02*
X9316220Y-15769980D01*
X9316220Y-15769980D02*
X9325744Y-15760456D01*
X9325744Y-15760456D02*
X9325744Y-15779504D01*
X9459077Y-15579504D02*
X9478125Y-15579504D01*
X9478125Y-15579504D02*
X9497172Y-15589028D01*
X9497172Y-15589028D02*
X9506696Y-15598552D01*
X9506696Y-15598552D02*
X9516220Y-15617599D01*
X9516220Y-15617599D02*
X9525744Y-15655694D01*
X9525744Y-15655694D02*
X9525744Y-15703313D01*
X9525744Y-15703313D02*
X9516220Y-15741409D01*
X9516220Y-15741409D02*
X9506696Y-15760456D01*
X9506696Y-15760456D02*
X9497172Y-15769980D01*
X9497172Y-15769980D02*
X9478125Y-15779504D01*
X9478125Y-15779504D02*
X9459077Y-15779504D01*
X9459077Y-15779504D02*
X9440029Y-15769980D01*
X9440029Y-15769980D02*
X9430506Y-15760456D01*
X9430506Y-15760456D02*
X9420982Y-15741409D01*
X9420982Y-15741409D02*
X9411458Y-15703313D01*
X9411458Y-15703313D02*
X9411458Y-15655694D01*
X9411458Y-15655694D02*
X9420982Y-15617599D01*
X9420982Y-15617599D02*
X9430506Y-15598552D01*
X9430506Y-15598552D02*
X9440029Y-15589028D01*
X9440029Y-15589028D02*
X9459077Y-15579504D01*
X9640029Y-15665218D02*
X9620982Y-15655694D01*
X9620982Y-15655694D02*
X9611458Y-15646171D01*
X9611458Y-15646171D02*
X9601934Y-15627123D01*
X9601934Y-15627123D02*
X9601934Y-15617599D01*
X9601934Y-15617599D02*
X9611458Y-15598552D01*
X9611458Y-15598552D02*
X9620982Y-15589028D01*
X9620982Y-15589028D02*
X9640029Y-15579504D01*
X9640029Y-15579504D02*
X9678125Y-15579504D01*
X9678125Y-15579504D02*
X9697172Y-15589028D01*
X9697172Y-15589028D02*
X9706696Y-15598552D01*
X9706696Y-15598552D02*
X9716220Y-15617599D01*
X9716220Y-15617599D02*
X9716220Y-15627123D01*
X9716220Y-15627123D02*
X9706696Y-15646171D01*
X9706696Y-15646171D02*
X9697172Y-15655694D01*
X9697172Y-15655694D02*
X9678125Y-15665218D01*
X9678125Y-15665218D02*
X9640029Y-15665218D01*
X9640029Y-15665218D02*
X9620982Y-15674742D01*
X9620982Y-15674742D02*
X9611458Y-15684266D01*
X9611458Y-15684266D02*
X9601934Y-15703313D01*
X9601934Y-15703313D02*
X9601934Y-15741409D01*
X9601934Y-15741409D02*
X9611458Y-15760456D01*
X9611458Y-15760456D02*
X9620982Y-15769980D01*
X9620982Y-15769980D02*
X9640029Y-15779504D01*
X9640029Y-15779504D02*
X9678125Y-15779504D01*
X9678125Y-15779504D02*
X9697172Y-15769980D01*
X9697172Y-15769980D02*
X9706696Y-15760456D01*
X9706696Y-15760456D02*
X9716220Y-15741409D01*
X9716220Y-15741409D02*
X9716220Y-15703313D01*
X9716220Y-15703313D02*
X9706696Y-15684266D01*
X9706696Y-15684266D02*
X9697172Y-15674742D01*
X9697172Y-15674742D02*
X9678125Y-15665218D01*
X9887649Y-15579504D02*
X9849553Y-15579504D01*
X9849553Y-15579504D02*
X9830506Y-15589028D01*
X9830506Y-15589028D02*
X9820982Y-15598552D01*
X9820982Y-15598552D02*
X9801934Y-15627123D01*
X9801934Y-15627123D02*
X9792410Y-15665218D01*
X9792410Y-15665218D02*
X9792410Y-15741409D01*
X9792410Y-15741409D02*
X9801934Y-15760456D01*
X9801934Y-15760456D02*
X9811458Y-15769980D01*
X9811458Y-15769980D02*
X9830506Y-15779504D01*
X9830506Y-15779504D02*
X9868601Y-15779504D01*
X9868601Y-15779504D02*
X9887649Y-15769980D01*
X9887649Y-15769980D02*
X9897172Y-15760456D01*
X9897172Y-15760456D02*
X9906696Y-15741409D01*
X9906696Y-15741409D02*
X9906696Y-15693790D01*
X9906696Y-15693790D02*
X9897172Y-15674742D01*
X9897172Y-15674742D02*
X9887649Y-15665218D01*
X9887649Y-15665218D02*
X9868601Y-15655694D01*
X9868601Y-15655694D02*
X9830506Y-15655694D01*
X9830506Y-15655694D02*
X9811458Y-15665218D01*
X9811458Y-15665218D02*
X9801934Y-15674742D01*
X9801934Y-15674742D02*
X9792410Y-15693790D01*
X10078125Y-15579504D02*
X10040029Y-15579504D01*
X10040029Y-15579504D02*
X10020982Y-15589028D01*
X10020982Y-15589028D02*
X10011458Y-15598552D01*
X10011458Y-15598552D02*
X9992410Y-15627123D01*
X9992410Y-15627123D02*
X9982887Y-15665218D01*
X9982887Y-15665218D02*
X9982887Y-15741409D01*
X9982887Y-15741409D02*
X9992410Y-15760456D01*
X9992410Y-15760456D02*
X10001934Y-15769980D01*
X10001934Y-15769980D02*
X10020982Y-15779504D01*
X10020982Y-15779504D02*
X10059077Y-15779504D01*
X10059077Y-15779504D02*
X10078125Y-15769980D01*
X10078125Y-15769980D02*
X10087649Y-15760456D01*
X10087649Y-15760456D02*
X10097172Y-15741409D01*
X10097172Y-15741409D02*
X10097172Y-15693790D01*
X10097172Y-15693790D02*
X10087649Y-15674742D01*
X10087649Y-15674742D02*
X10078125Y-15665218D01*
X10078125Y-15665218D02*
X10059077Y-15655694D01*
X10059077Y-15655694D02*
X10020982Y-15655694D01*
X10020982Y-15655694D02*
X10001934Y-15665218D01*
X10001934Y-15665218D02*
X9992410Y-15674742D01*
X9992410Y-15674742D02*
X9982887Y-15693790D01*
X10173363Y-15579504D02*
X10173363Y-15617599D01*
X10249553Y-15579504D02*
X10249553Y-15617599D01*
X10544792Y-15855694D02*
X10535268Y-15846171D01*
X10535268Y-15846171D02*
X10516220Y-15817599D01*
X10516220Y-15817599D02*
X10506696Y-15798552D01*
X10506696Y-15798552D02*
X10497172Y-15769980D01*
X10497172Y-15769980D02*
X10487649Y-15722361D01*
X10487649Y-15722361D02*
X10487649Y-15684266D01*
X10487649Y-15684266D02*
X10497172Y-15636647D01*
X10497172Y-15636647D02*
X10506696Y-15608075D01*
X10506696Y-15608075D02*
X10516220Y-15589028D01*
X10516220Y-15589028D02*
X10535268Y-15560456D01*
X10535268Y-15560456D02*
X10544792Y-15550932D01*
X10649553Y-15665218D02*
X10630506Y-15655694D01*
X10630506Y-15655694D02*
X10620982Y-15646171D01*
X10620982Y-15646171D02*
X10611458Y-15627123D01*
X10611458Y-15627123D02*
X10611458Y-15617599D01*
X10611458Y-15617599D02*
X10620982Y-15598552D01*
X10620982Y-15598552D02*
X10630506Y-15589028D01*
X10630506Y-15589028D02*
X10649553Y-15579504D01*
X10649553Y-15579504D02*
X10687649Y-15579504D01*
X10687649Y-15579504D02*
X10706696Y-15589028D01*
X10706696Y-15589028D02*
X10716220Y-15598552D01*
X10716220Y-15598552D02*
X10725744Y-15617599D01*
X10725744Y-15617599D02*
X10725744Y-15627123D01*
X10725744Y-15627123D02*
X10716220Y-15646171D01*
X10716220Y-15646171D02*
X10706696Y-15655694D01*
X10706696Y-15655694D02*
X10687649Y-15665218D01*
X10687649Y-15665218D02*
X10649553Y-15665218D01*
X10649553Y-15665218D02*
X10630506Y-15674742D01*
X10630506Y-15674742D02*
X10620982Y-15684266D01*
X10620982Y-15684266D02*
X10611458Y-15703313D01*
X10611458Y-15703313D02*
X10611458Y-15741409D01*
X10611458Y-15741409D02*
X10620982Y-15760456D01*
X10620982Y-15760456D02*
X10630506Y-15769980D01*
X10630506Y-15769980D02*
X10649553Y-15779504D01*
X10649553Y-15779504D02*
X10687649Y-15779504D01*
X10687649Y-15779504D02*
X10706696Y-15769980D01*
X10706696Y-15769980D02*
X10716220Y-15760456D01*
X10716220Y-15760456D02*
X10725744Y-15741409D01*
X10725744Y-15741409D02*
X10725744Y-15703313D01*
X10725744Y-15703313D02*
X10716220Y-15684266D01*
X10716220Y-15684266D02*
X10706696Y-15674742D01*
X10706696Y-15674742D02*
X10687649Y-15665218D01*
X10963839Y-15779504D02*
X10963839Y-15579504D01*
X11049553Y-15779504D02*
X11049553Y-15674742D01*
X11049553Y-15674742D02*
X11040030Y-15655694D01*
X11040030Y-15655694D02*
X11020982Y-15646171D01*
X11020982Y-15646171D02*
X10992411Y-15646171D01*
X10992411Y-15646171D02*
X10973363Y-15655694D01*
X10973363Y-15655694D02*
X10963839Y-15665218D01*
X11173363Y-15779504D02*
X11154315Y-15769980D01*
X11154315Y-15769980D02*
X11144792Y-15760456D01*
X11144792Y-15760456D02*
X11135268Y-15741409D01*
X11135268Y-15741409D02*
X11135268Y-15684266D01*
X11135268Y-15684266D02*
X11144792Y-15665218D01*
X11144792Y-15665218D02*
X11154315Y-15655694D01*
X11154315Y-15655694D02*
X11173363Y-15646171D01*
X11173363Y-15646171D02*
X11201934Y-15646171D01*
X11201934Y-15646171D02*
X11220982Y-15655694D01*
X11220982Y-15655694D02*
X11230506Y-15665218D01*
X11230506Y-15665218D02*
X11240030Y-15684266D01*
X11240030Y-15684266D02*
X11240030Y-15741409D01*
X11240030Y-15741409D02*
X11230506Y-15760456D01*
X11230506Y-15760456D02*
X11220982Y-15769980D01*
X11220982Y-15769980D02*
X11201934Y-15779504D01*
X11201934Y-15779504D02*
X11173363Y-15779504D01*
X11354315Y-15779504D02*
X11335268Y-15769980D01*
X11335268Y-15769980D02*
X11325744Y-15750932D01*
X11325744Y-15750932D02*
X11325744Y-15579504D01*
X11506696Y-15769980D02*
X11487649Y-15779504D01*
X11487649Y-15779504D02*
X11449553Y-15779504D01*
X11449553Y-15779504D02*
X11430506Y-15769980D01*
X11430506Y-15769980D02*
X11420982Y-15750932D01*
X11420982Y-15750932D02*
X11420982Y-15674742D01*
X11420982Y-15674742D02*
X11430506Y-15655694D01*
X11430506Y-15655694D02*
X11449553Y-15646171D01*
X11449553Y-15646171D02*
X11487649Y-15646171D01*
X11487649Y-15646171D02*
X11506696Y-15655694D01*
X11506696Y-15655694D02*
X11516220Y-15674742D01*
X11516220Y-15674742D02*
X11516220Y-15693790D01*
X11516220Y-15693790D02*
X11420982Y-15712837D01*
X11592411Y-15769980D02*
X11611458Y-15779504D01*
X11611458Y-15779504D02*
X11649553Y-15779504D01*
X11649553Y-15779504D02*
X11668601Y-15769980D01*
X11668601Y-15769980D02*
X11678125Y-15750932D01*
X11678125Y-15750932D02*
X11678125Y-15741409D01*
X11678125Y-15741409D02*
X11668601Y-15722361D01*
X11668601Y-15722361D02*
X11649553Y-15712837D01*
X11649553Y-15712837D02*
X11620982Y-15712837D01*
X11620982Y-15712837D02*
X11601934Y-15703313D01*
X11601934Y-15703313D02*
X11592411Y-15684266D01*
X11592411Y-15684266D02*
X11592411Y-15674742D01*
X11592411Y-15674742D02*
X11601934Y-15655694D01*
X11601934Y-15655694D02*
X11620982Y-15646171D01*
X11620982Y-15646171D02*
X11649553Y-15646171D01*
X11649553Y-15646171D02*
X11668601Y-15655694D01*
X11744792Y-15855694D02*
X11754315Y-15846171D01*
X11754315Y-15846171D02*
X11773363Y-15817599D01*
X11773363Y-15817599D02*
X11782887Y-15798552D01*
X11782887Y-15798552D02*
X11792411Y-15769980D01*
X11792411Y-15769980D02*
X11801934Y-15722361D01*
X11801934Y-15722361D02*
X11801934Y-15684266D01*
X11801934Y-15684266D02*
X11792411Y-15636647D01*
X11792411Y-15636647D02*
X11782887Y-15608075D01*
X11782887Y-15608075D02*
X11773363Y-15589028D01*
X11773363Y-15589028D02*
X11754315Y-15560456D01*
X11754315Y-15560456D02*
X11744792Y-15550932D01*
X12106696Y-15855694D02*
X12097172Y-15846171D01*
X12097172Y-15846171D02*
X12078125Y-15817599D01*
X12078125Y-15817599D02*
X12068601Y-15798552D01*
X12068601Y-15798552D02*
X12059077Y-15769980D01*
X12059077Y-15769980D02*
X12049553Y-15722361D01*
X12049553Y-15722361D02*
X12049553Y-15684266D01*
X12049553Y-15684266D02*
X12059077Y-15636647D01*
X12059077Y-15636647D02*
X12068601Y-15608075D01*
X12068601Y-15608075D02*
X12078125Y-15589028D01*
X12078125Y-15589028D02*
X12097172Y-15560456D01*
X12097172Y-15560456D02*
X12106696Y-15550932D01*
X12182887Y-15646171D02*
X12182887Y-15779504D01*
X12182887Y-15665218D02*
X12192411Y-15655694D01*
X12192411Y-15655694D02*
X12211458Y-15646171D01*
X12211458Y-15646171D02*
X12240030Y-15646171D01*
X12240030Y-15646171D02*
X12259077Y-15655694D01*
X12259077Y-15655694D02*
X12268601Y-15674742D01*
X12268601Y-15674742D02*
X12268601Y-15779504D01*
X12392411Y-15779504D02*
X12373363Y-15769980D01*
X12373363Y-15769980D02*
X12363839Y-15760456D01*
X12363839Y-15760456D02*
X12354315Y-15741409D01*
X12354315Y-15741409D02*
X12354315Y-15684266D01*
X12354315Y-15684266D02*
X12363839Y-15665218D01*
X12363839Y-15665218D02*
X12373363Y-15655694D01*
X12373363Y-15655694D02*
X12392411Y-15646171D01*
X12392411Y-15646171D02*
X12420982Y-15646171D01*
X12420982Y-15646171D02*
X12440030Y-15655694D01*
X12440030Y-15655694D02*
X12449553Y-15665218D01*
X12449553Y-15665218D02*
X12459077Y-15684266D01*
X12459077Y-15684266D02*
X12459077Y-15741409D01*
X12459077Y-15741409D02*
X12449553Y-15760456D01*
X12449553Y-15760456D02*
X12440030Y-15769980D01*
X12440030Y-15769980D02*
X12420982Y-15779504D01*
X12420982Y-15779504D02*
X12392411Y-15779504D01*
X12516220Y-15646171D02*
X12592411Y-15646171D01*
X12544792Y-15579504D02*
X12544792Y-15750932D01*
X12544792Y-15750932D02*
X12554315Y-15769980D01*
X12554315Y-15769980D02*
X12573363Y-15779504D01*
X12573363Y-15779504D02*
X12592411Y-15779504D01*
X12811458Y-15646171D02*
X12811458Y-15846171D01*
X12811458Y-15655694D02*
X12830506Y-15646171D01*
X12830506Y-15646171D02*
X12868601Y-15646171D01*
X12868601Y-15646171D02*
X12887649Y-15655694D01*
X12887649Y-15655694D02*
X12897173Y-15665218D01*
X12897173Y-15665218D02*
X12906696Y-15684266D01*
X12906696Y-15684266D02*
X12906696Y-15741409D01*
X12906696Y-15741409D02*
X12897173Y-15760456D01*
X12897173Y-15760456D02*
X12887649Y-15769980D01*
X12887649Y-15769980D02*
X12868601Y-15779504D01*
X12868601Y-15779504D02*
X12830506Y-15779504D01*
X12830506Y-15779504D02*
X12811458Y-15769980D01*
X13020982Y-15779504D02*
X13001934Y-15769980D01*
X13001934Y-15769980D02*
X12992411Y-15750932D01*
X12992411Y-15750932D02*
X12992411Y-15579504D01*
X13182887Y-15779504D02*
X13182887Y-15674742D01*
X13182887Y-15674742D02*
X13173363Y-15655694D01*
X13173363Y-15655694D02*
X13154315Y-15646171D01*
X13154315Y-15646171D02*
X13116220Y-15646171D01*
X13116220Y-15646171D02*
X13097173Y-15655694D01*
X13182887Y-15769980D02*
X13163839Y-15779504D01*
X13163839Y-15779504D02*
X13116220Y-15779504D01*
X13116220Y-15779504D02*
X13097173Y-15769980D01*
X13097173Y-15769980D02*
X13087649Y-15750932D01*
X13087649Y-15750932D02*
X13087649Y-15731885D01*
X13087649Y-15731885D02*
X13097173Y-15712837D01*
X13097173Y-15712837D02*
X13116220Y-15703313D01*
X13116220Y-15703313D02*
X13163839Y-15703313D01*
X13163839Y-15703313D02*
X13182887Y-15693790D01*
X13249554Y-15646171D02*
X13325744Y-15646171D01*
X13278125Y-15579504D02*
X13278125Y-15750932D01*
X13278125Y-15750932D02*
X13287649Y-15769980D01*
X13287649Y-15769980D02*
X13306696Y-15779504D01*
X13306696Y-15779504D02*
X13325744Y-15779504D01*
X13468601Y-15769980D02*
X13449554Y-15779504D01*
X13449554Y-15779504D02*
X13411458Y-15779504D01*
X13411458Y-15779504D02*
X13392411Y-15769980D01*
X13392411Y-15769980D02*
X13382887Y-15750932D01*
X13382887Y-15750932D02*
X13382887Y-15674742D01*
X13382887Y-15674742D02*
X13392411Y-15655694D01*
X13392411Y-15655694D02*
X13411458Y-15646171D01*
X13411458Y-15646171D02*
X13449554Y-15646171D01*
X13449554Y-15646171D02*
X13468601Y-15655694D01*
X13468601Y-15655694D02*
X13478125Y-15674742D01*
X13478125Y-15674742D02*
X13478125Y-15693790D01*
X13478125Y-15693790D02*
X13382887Y-15712837D01*
X13649554Y-15779504D02*
X13649554Y-15579504D01*
X13649554Y-15769980D02*
X13630506Y-15779504D01*
X13630506Y-15779504D02*
X13592411Y-15779504D01*
X13592411Y-15779504D02*
X13573363Y-15769980D01*
X13573363Y-15769980D02*
X13563839Y-15760456D01*
X13563839Y-15760456D02*
X13554315Y-15741409D01*
X13554315Y-15741409D02*
X13554315Y-15684266D01*
X13554315Y-15684266D02*
X13563839Y-15665218D01*
X13563839Y-15665218D02*
X13573363Y-15655694D01*
X13573363Y-15655694D02*
X13592411Y-15646171D01*
X13592411Y-15646171D02*
X13630506Y-15646171D01*
X13630506Y-15646171D02*
X13649554Y-15655694D01*
X13725744Y-15855694D02*
X13735268Y-15846171D01*
X13735268Y-15846171D02*
X13754315Y-15817599D01*
X13754315Y-15817599D02*
X13763839Y-15798552D01*
X13763839Y-15798552D02*
X13773363Y-15769980D01*
X13773363Y-15769980D02*
X13782887Y-15722361D01*
X13782887Y-15722361D02*
X13782887Y-15684266D01*
X13782887Y-15684266D02*
X13773363Y-15636647D01*
X13773363Y-15636647D02*
X13763839Y-15608075D01*
X13763839Y-15608075D02*
X13754315Y-15589028D01*
X13754315Y-15589028D02*
X13735268Y-15560456D01*
X13735268Y-15560456D02*
X13725744Y-15550932D01*
M02*
