%TF.GenerationSoftware,KiCad,Pcbnew,8.0.4+1*%
%TF.CreationDate,2024-08-17T00:02:36-04:00*%
%TF.ProjectId,iyada_baseplate,69796164-615f-4626-9173-65706c617465,rev?*%
%TF.SameCoordinates,Original*%
%TF.FileFunction,Paste,Top*%
%TF.FilePolarity,Positive*%
%FSLAX46Y46*%
G04 Gerber Fmt 4.6, Leading zero omitted, Abs format (unit mm)*
G04 Created by KiCad (PCBNEW 8.0.4+1) date 2024-08-17 00:02:36*
%MOMM*%
%LPD*%
G01*
G04 APERTURE LIST*
G04 Aperture macros list*
%AMRoundRect*
0 Rectangle with rounded corners*
0 $1 Rounding radius*
0 $2 $3 $4 $5 $6 $7 $8 $9 X,Y pos of 4 corners*
0 Add a 4 corners polygon primitive as box body*
4,1,4,$2,$3,$4,$5,$6,$7,$8,$9,$2,$3,0*
0 Add four circle primitives for the rounded corners*
1,1,$1+$1,$2,$3*
1,1,$1+$1,$4,$5*
1,1,$1+$1,$6,$7*
1,1,$1+$1,$8,$9*
0 Add four rect primitives between the rounded corners*
20,1,$1+$1,$2,$3,$4,$5,0*
20,1,$1+$1,$4,$5,$6,$7,0*
20,1,$1+$1,$6,$7,$8,$9,0*
20,1,$1+$1,$8,$9,$2,$3,0*%
G04 Aperture macros list end*
%ADD10R,1.500000X0.900000*%
%ADD11R,0.700000X0.700000*%
%ADD12RoundRect,0.250000X-0.375000X-1.000000X0.375000X-1.000000X0.375000X1.000000X-0.375000X1.000000X0*%
%ADD13R,1.200000X0.900000*%
%ADD14R,0.900000X1.200000*%
G04 APERTURE END LIST*
D10*
%TO.C,REF\u002A\u002A*%
X141991000Y-74399000D03*
X141991000Y-71099000D03*
X137091000Y-71099000D03*
X137091000Y-74399000D03*
%TD*%
D11*
%TO.C,REF\u002A\u002A*%
X138991000Y-73664000D03*
X140091000Y-73664000D03*
X140091000Y-71834000D03*
X138991000Y-71834000D03*
%TD*%
%TO.C,REF\u002A\u002A*%
X179091000Y-97339000D03*
X177991000Y-97339000D03*
X177991000Y-99169000D03*
X179091000Y-99169000D03*
%TD*%
%TO.C,REF\u002A\u002A*%
X140090000Y-52334000D03*
X138990000Y-52334000D03*
X138990000Y-54164000D03*
X140090000Y-54164000D03*
%TD*%
D10*
%TO.C,REF\u002A\u002A*%
X102991000Y-79399000D03*
X102991000Y-76099000D03*
X98091000Y-76099000D03*
X98091000Y-79399000D03*
%TD*%
%TO.C,REF\u002A\u002A*%
X117591000Y-93594000D03*
X117591000Y-96894000D03*
X122491000Y-96894000D03*
X122491000Y-93594000D03*
%TD*%
%TO.C,REF\u002A\u002A*%
X117591000Y-54599000D03*
X117591000Y-57899000D03*
X122491000Y-57899000D03*
X122491000Y-54599000D03*
%TD*%
D11*
%TO.C,REF\u002A\u002A*%
X140091000Y-91334000D03*
X138991000Y-91334000D03*
X138991000Y-93164000D03*
X140091000Y-93164000D03*
%TD*%
D10*
%TO.C,REF\u002A\u002A*%
X98091000Y-56599000D03*
X98091000Y-59899000D03*
X102991000Y-59899000D03*
X102991000Y-56599000D03*
%TD*%
D11*
%TO.C,REF\u002A\u002A*%
X159591000Y-94334000D03*
X158491000Y-94334000D03*
X158491000Y-96164000D03*
X159591000Y-96164000D03*
%TD*%
%TO.C,REF\u002A\u002A*%
X177991000Y-79664000D03*
X179091000Y-79664000D03*
X179091000Y-77834000D03*
X177991000Y-77834000D03*
%TD*%
D10*
%TO.C,REF\u002A\u002A*%
X137090000Y-51599000D03*
X137090000Y-54899000D03*
X141990000Y-54899000D03*
X141990000Y-51599000D03*
%TD*%
%TO.C,REF\u002A\u002A*%
X156586000Y-54594000D03*
X156586000Y-57894000D03*
X161486000Y-57894000D03*
X161486000Y-54594000D03*
%TD*%
%TO.C,REF\u002A\u002A*%
X156591000Y-93599000D03*
X156591000Y-96899000D03*
X161491000Y-96899000D03*
X161491000Y-93599000D03*
%TD*%
%TO.C,REF\u002A\u002A*%
X156591000Y-93599000D03*
X156591000Y-96899000D03*
X161491000Y-96899000D03*
X161491000Y-93599000D03*
%TD*%
%TO.C,REF\u002A\u002A*%
X176091000Y-96604000D03*
X176091000Y-99904000D03*
X180991000Y-99904000D03*
X180991000Y-96604000D03*
%TD*%
D12*
%TO.C,REF\u002A\u002A*%
X98680000Y-127320000D03*
X101180000Y-127320000D03*
X103680000Y-127320000D03*
%TD*%
D11*
%TO.C,REF\u002A\u002A*%
X159591000Y-94334000D03*
X158491000Y-94334000D03*
X158491000Y-96164000D03*
X159591000Y-96164000D03*
%TD*%
D10*
%TO.C,REF\u002A\u002A*%
X122491000Y-77399000D03*
X122491000Y-74099000D03*
X117591000Y-74099000D03*
X117591000Y-77399000D03*
%TD*%
D11*
%TO.C,REF\u002A\u002A*%
X140091000Y-91334000D03*
X138991000Y-91334000D03*
X138991000Y-93164000D03*
X140091000Y-93164000D03*
%TD*%
%TO.C,REF\u002A\u002A*%
X120591000Y-55334000D03*
X119491000Y-55334000D03*
X119491000Y-57164000D03*
X120591000Y-57164000D03*
%TD*%
%TO.C,REF\u002A\u002A*%
X119491000Y-76664000D03*
X120591000Y-76664000D03*
X120591000Y-74834000D03*
X119491000Y-74834000D03*
%TD*%
%TO.C,REF\u002A\u002A*%
X101091000Y-57334000D03*
X99991000Y-57334000D03*
X99991000Y-59164000D03*
X101091000Y-59164000D03*
%TD*%
%TO.C,REF\u002A\u002A*%
X158491000Y-76664000D03*
X159591000Y-76664000D03*
X159591000Y-74834000D03*
X158491000Y-74834000D03*
%TD*%
D10*
%TO.C,REF\u002A\u002A*%
X137090000Y-51599000D03*
X137090000Y-54899000D03*
X141990000Y-54899000D03*
X141990000Y-51599000D03*
%TD*%
%TO.C,REF\u002A\u002A*%
X156586000Y-54594000D03*
X156586000Y-57894000D03*
X161486000Y-57894000D03*
X161486000Y-54594000D03*
%TD*%
D12*
%TO.C,REF\u002A\u002A*%
X114680000Y-127320000D03*
X117180000Y-127320000D03*
X119680000Y-127320000D03*
%TD*%
D10*
%TO.C,REF\u002A\u002A*%
X98091000Y-56599000D03*
X98091000Y-59899000D03*
X102991000Y-59899000D03*
X102991000Y-56599000D03*
%TD*%
D11*
%TO.C,REF\u002A\u002A*%
X179091000Y-58334000D03*
X177991000Y-58334000D03*
X177991000Y-60164000D03*
X179091000Y-60164000D03*
%TD*%
%TO.C,REF\u002A\u002A*%
X120591000Y-94329000D03*
X119491000Y-94329000D03*
X119491000Y-96159000D03*
X120591000Y-96159000D03*
%TD*%
D10*
%TO.C,REF\u002A\u002A*%
X102991000Y-79399000D03*
X102991000Y-76099000D03*
X98091000Y-76099000D03*
X98091000Y-79399000D03*
%TD*%
D13*
%TO.C,D14*%
X80980000Y-83701750D03*
X80980000Y-80401750D03*
%TD*%
D11*
%TO.C,REF\u002A\u002A*%
X119491000Y-76664000D03*
X120591000Y-76664000D03*
X120591000Y-74834000D03*
X119491000Y-74834000D03*
%TD*%
D10*
%TO.C,REF\u002A\u002A*%
X141991000Y-74399000D03*
X141991000Y-71099000D03*
X137091000Y-71099000D03*
X137091000Y-74399000D03*
%TD*%
D12*
%TO.C,REF\u002A\u002A*%
X82680000Y-127320000D03*
X85180000Y-127320000D03*
X87680000Y-127320000D03*
%TD*%
D10*
%TO.C,REF\u002A\u002A*%
X180991000Y-80399000D03*
X180991000Y-77099000D03*
X176091000Y-77099000D03*
X176091000Y-80399000D03*
%TD*%
D13*
%TO.C,D14*%
X89980000Y-80401750D03*
X89980000Y-83701750D03*
%TD*%
D11*
%TO.C,REF\u002A\u002A*%
X159586000Y-55329000D03*
X158486000Y-55329000D03*
X158486000Y-57159000D03*
X159586000Y-57159000D03*
%TD*%
%TO.C,REF\u002A\u002A*%
X179091000Y-58334000D03*
X177991000Y-58334000D03*
X177991000Y-60164000D03*
X179091000Y-60164000D03*
%TD*%
D10*
%TO.C,REF\u002A\u002A*%
X98091000Y-95599000D03*
X98091000Y-98899000D03*
X102991000Y-98899000D03*
X102991000Y-95599000D03*
%TD*%
%TO.C,REF\u002A\u002A*%
X122491000Y-77399000D03*
X122491000Y-74099000D03*
X117591000Y-74099000D03*
X117591000Y-77399000D03*
%TD*%
D11*
%TO.C,REF\u002A\u002A*%
X120591000Y-94329000D03*
X119491000Y-94329000D03*
X119491000Y-96159000D03*
X120591000Y-96159000D03*
%TD*%
D10*
%TO.C,REF\u002A\u002A*%
X117591000Y-93594000D03*
X117591000Y-96894000D03*
X122491000Y-96894000D03*
X122491000Y-93594000D03*
%TD*%
%TO.C,REF\u002A\u002A*%
X137091000Y-90599000D03*
X137091000Y-93899000D03*
X141991000Y-93899000D03*
X141991000Y-90599000D03*
%TD*%
%TO.C,REF\u002A\u002A*%
X161491000Y-77399000D03*
X161491000Y-74099000D03*
X156591000Y-74099000D03*
X156591000Y-77399000D03*
%TD*%
%TO.C,REF\u002A\u002A*%
X137091000Y-90599000D03*
X137091000Y-93899000D03*
X141991000Y-93899000D03*
X141991000Y-90599000D03*
%TD*%
%TO.C,REF\u002A\u002A*%
X180991000Y-80399000D03*
X180991000Y-77099000D03*
X176091000Y-77099000D03*
X176091000Y-80399000D03*
%TD*%
%TO.C,REF\u002A\u002A*%
X117591000Y-54599000D03*
X117591000Y-57899000D03*
X122491000Y-57899000D03*
X122491000Y-54599000D03*
%TD*%
D11*
%TO.C,REF\u002A\u002A*%
X138991000Y-73664000D03*
X140091000Y-73664000D03*
X140091000Y-71834000D03*
X138991000Y-71834000D03*
%TD*%
D10*
%TO.C,REF\u002A\u002A*%
X122491000Y-77399000D03*
X122491000Y-74099000D03*
X117591000Y-74099000D03*
X117591000Y-77399000D03*
%TD*%
%TO.C,REF\u002A\u002A*%
X176091000Y-57599000D03*
X176091000Y-60899000D03*
X180991000Y-60899000D03*
X180991000Y-57599000D03*
%TD*%
D11*
%TO.C,REF\u002A\u002A*%
X158491000Y-76664000D03*
X159591000Y-76664000D03*
X159591000Y-74834000D03*
X158491000Y-74834000D03*
%TD*%
%TO.C,REF\u002A\u002A*%
X101091000Y-96334000D03*
X99991000Y-96334000D03*
X99991000Y-98164000D03*
X101091000Y-98164000D03*
%TD*%
%TO.C,REF\u002A\u002A*%
X120591000Y-55334000D03*
X119491000Y-55334000D03*
X119491000Y-57164000D03*
X120591000Y-57164000D03*
%TD*%
D13*
%TO.C,D14*%
X83980000Y-80370000D03*
X83980000Y-83670000D03*
%TD*%
D11*
%TO.C,REF\u002A\u002A*%
X179091000Y-97339000D03*
X177991000Y-97339000D03*
X177991000Y-99169000D03*
X179091000Y-99169000D03*
%TD*%
%TO.C,REF\u002A\u002A*%
X99991000Y-78664000D03*
X101091000Y-78664000D03*
X101091000Y-76834000D03*
X99991000Y-76834000D03*
%TD*%
D10*
%TO.C,REF\u002A\u002A*%
X176091000Y-57599000D03*
X176091000Y-60899000D03*
X180991000Y-60899000D03*
X180991000Y-57599000D03*
%TD*%
D14*
%TO.C,D14*%
X115498250Y-120070000D03*
X118798250Y-120070000D03*
%TD*%
D11*
%TO.C,REF\u002A\u002A*%
X140090000Y-52334000D03*
X138990000Y-52334000D03*
X138990000Y-54164000D03*
X140090000Y-54164000D03*
%TD*%
D13*
%TO.C,D14*%
X86980000Y-83701750D03*
X86980000Y-80401750D03*
%TD*%
D11*
%TO.C,REF\u002A\u002A*%
X99991000Y-78664000D03*
X101091000Y-78664000D03*
X101091000Y-76834000D03*
X99991000Y-76834000D03*
%TD*%
D10*
%TO.C,REF\u002A\u002A*%
X176091000Y-96604000D03*
X176091000Y-99904000D03*
X180991000Y-99904000D03*
X180991000Y-96604000D03*
%TD*%
D11*
%TO.C,REF\u002A\u002A*%
X101091000Y-57334000D03*
X99991000Y-57334000D03*
X99991000Y-59164000D03*
X101091000Y-59164000D03*
%TD*%
%TO.C,REF\u002A\u002A*%
X119491000Y-76664000D03*
X120591000Y-76664000D03*
X120591000Y-74834000D03*
X119491000Y-74834000D03*
%TD*%
%TO.C,REF\u002A\u002A*%
X177991000Y-79664000D03*
X179091000Y-79664000D03*
X179091000Y-77834000D03*
X177991000Y-77834000D03*
%TD*%
%TO.C,REF\u002A\u002A*%
X159586000Y-55329000D03*
X158486000Y-55329000D03*
X158486000Y-57159000D03*
X159586000Y-57159000D03*
%TD*%
M02*
