%TF.GenerationSoftware,KiCad,Pcbnew,8.0.4+1*%
%TF.CreationDate,2024-08-17T00:02:36-04:00*%
%TF.ProjectId,iyada_baseplate,69796164-615f-4626-9173-65706c617465,rev?*%
%TF.SameCoordinates,Original*%
%TF.FileFunction,Profile,NP*%
%FSLAX46Y46*%
G04 Gerber Fmt 4.6, Leading zero omitted, Abs format (unit mm)*
G04 Created by KiCad (PCBNEW 8.0.4+1) date 2024-08-17 00:02:36*
%MOMM*%
%LPD*%
G01*
G04 APERTURE LIST*
%TA.AperFunction,Profile*%
%ADD10C,0.050000*%
%TD*%
G04 APERTURE END LIST*
D10*
X166333875Y-42935611D02*
X112959000Y-42935000D01*
X201000000Y-142010000D02*
X220504186Y-147771463D01*
X112582612Y-42971834D02*
X71847000Y-48512000D01*
X231081998Y-105484289D02*
G75*
G02*
X230675021Y-104840000I306502J644289D01*
G01*
X226130000Y-136700000D02*
X231406244Y-119039401D01*
X229396000Y-46767000D02*
X209231388Y-46768834D01*
X231406244Y-119039401D02*
X231386417Y-106067046D01*
X117530000Y-131950000D02*
X182090000Y-138200000D01*
X69738583Y-125487046D02*
G75*
G02*
X70145574Y-124842743I713417J46D01*
G01*
X230661537Y-92340000D02*
G75*
G02*
X231068535Y-91695711I713463J0D01*
G01*
X70033002Y-111115711D02*
G75*
G02*
X70439979Y-111760000I-306502J-644289D01*
G01*
X226130000Y-136700000D02*
X222876304Y-146230991D01*
X182090000Y-138200000D02*
X201000000Y-142010000D01*
X222876304Y-146230991D02*
G75*
G02*
X220504179Y-147771498I-1956304J415791D01*
G01*
X70445000Y-114260000D02*
X70450000Y-124260000D01*
X69847000Y-50512000D02*
G75*
G02*
X71847000Y-48512000I2000000J0D01*
G01*
X230665000Y-92340000D02*
X230670000Y-94840000D01*
X69728583Y-110532954D02*
X69847000Y-50512000D01*
X231081998Y-105484290D02*
G75*
G02*
X231386372Y-106067046I-405598J-582710D01*
G01*
X112582612Y-42971834D02*
G75*
G02*
X112959000Y-42934994I359888J-1735766D01*
G01*
X229396000Y-46767000D02*
G75*
G02*
X231396000Y-48767000I0J-2000000D01*
G01*
X71722286Y-131888214D02*
G75*
G02*
X69722286Y-129888214I14J2000014D01*
G01*
X209231388Y-46768834D02*
X166710263Y-42972445D01*
X70440000Y-111760000D02*
X70445000Y-114260000D01*
X71722286Y-131888214D02*
X117530000Y-131950000D01*
X70450000Y-124260000D02*
G75*
G02*
X70145581Y-124842756I-710000J0D01*
G01*
X230675000Y-104840000D02*
X230670000Y-94840000D01*
X69738583Y-125487046D02*
X69722286Y-129888214D01*
X231372954Y-91112954D02*
X231396000Y-48767000D01*
X70033002Y-111115710D02*
G75*
G02*
X69728628Y-110532954I405598J582710D01*
G01*
X231372954Y-91112954D02*
G75*
G02*
X231068545Y-91695725I-709954J-46D01*
G01*
X166333875Y-42935611D02*
G75*
G02*
X166710263Y-42972446I16525J-1772589D01*
G01*
M02*
